G04 #@! TF.GenerationSoftware,KiCad,Pcbnew,7.0.1*
G04 #@! TF.CreationDate,2025-05-28T12:54:30-04:00*
G04 #@! TF.ProjectId,weather_station_lowpower,77656174-6865-4725-9f73-746174696f6e,V.5B*
G04 #@! TF.SameCoordinates,Original*
G04 #@! TF.FileFunction,Copper,L2,Bot*
G04 #@! TF.FilePolarity,Positive*
%FSLAX46Y46*%
G04 Gerber Fmt 4.6, Leading zero omitted, Abs format (unit mm)*
G04 Created by KiCad (PCBNEW 7.0.1) date 2025-05-28 12:54:30*
%MOMM*%
%LPD*%
G01*
G04 APERTURE LIST*
G04 #@! TA.AperFunction,ComponentPad*
%ADD10C,2.000000*%
G04 #@! TD*
G04 #@! TA.AperFunction,ComponentPad*
%ADD11R,1.700000X1.700000*%
G04 #@! TD*
G04 #@! TA.AperFunction,ComponentPad*
%ADD12C,1.700000*%
G04 #@! TD*
G04 #@! TA.AperFunction,ComponentPad*
%ADD13C,1.524000*%
G04 #@! TD*
G04 #@! TA.AperFunction,ComponentPad*
%ADD14C,1.500000*%
G04 #@! TD*
G04 #@! TA.AperFunction,ComponentPad*
%ADD15R,1.600000X1.600000*%
G04 #@! TD*
G04 #@! TA.AperFunction,ComponentPad*
%ADD16C,1.600000*%
G04 #@! TD*
G04 #@! TA.AperFunction,ComponentPad*
%ADD17O,1.700000X1.700000*%
G04 #@! TD*
G04 #@! TA.AperFunction,ComponentPad*
%ADD18R,2.200000X2.200000*%
G04 #@! TD*
G04 #@! TA.AperFunction,ComponentPad*
%ADD19C,2.300000*%
G04 #@! TD*
G04 #@! TA.AperFunction,ViaPad*
%ADD20C,0.762000*%
G04 #@! TD*
G04 #@! TA.AperFunction,Conductor*
%ADD21C,0.254000*%
G04 #@! TD*
G04 APERTURE END LIST*
D10*
X151690000Y-97790000D03*
D11*
X151870000Y-71120000D03*
D12*
X151870000Y-68580000D03*
X151870000Y-66040000D03*
X151870000Y-63500000D03*
X151870000Y-60960000D03*
X151870000Y-58420000D03*
X151870000Y-55880000D03*
X151870000Y-53340000D03*
D10*
X124460000Y-86360000D03*
D13*
X129540000Y-60960000D03*
X129540000Y-63500000D03*
X129540000Y-66040000D03*
X129540000Y-68580000D03*
X129540000Y-71120000D03*
X129540000Y-73660000D03*
X129540000Y-76200000D03*
X129540000Y-78740000D03*
X129540000Y-81280000D03*
X129540000Y-83820000D03*
X129540000Y-86360000D03*
X129540000Y-88900000D03*
X129540000Y-91440000D03*
X129540000Y-93980000D03*
X137160000Y-93980000D03*
X137160000Y-91440000D03*
X137160000Y-88900000D03*
X137160000Y-86360000D03*
X137160000Y-83820000D03*
X137160000Y-81280000D03*
X137160000Y-78740000D03*
X137160000Y-76200000D03*
X137160000Y-73660000D03*
X137160000Y-71120000D03*
X137160000Y-68580000D03*
X137160000Y-66040000D03*
X137160000Y-63500000D03*
X137160000Y-60960000D03*
D10*
X151690000Y-102870000D03*
D12*
X121920000Y-109220000D03*
X120650000Y-111760000D03*
X119380000Y-109220000D03*
X118110000Y-111760000D03*
D10*
X124460000Y-66040000D03*
X145288000Y-68580000D03*
X121158000Y-63500000D03*
D14*
X118110000Y-76200000D03*
X118110000Y-81100000D03*
D10*
X151892000Y-78740000D03*
X142240000Y-71120000D03*
D15*
X109220000Y-96520000D03*
D16*
X111220000Y-96520000D03*
D10*
X120650000Y-88900000D03*
X142240000Y-66040000D03*
D11*
X158040000Y-85090000D03*
D17*
X158040000Y-87630000D03*
X158040000Y-90170000D03*
X158040000Y-92710000D03*
X158040000Y-95250000D03*
X158040000Y-97790000D03*
X158040000Y-100330000D03*
X158040000Y-102870000D03*
D18*
X118110000Y-38100000D03*
D19*
X123190000Y-38100000D03*
D10*
X137160000Y-99060000D03*
X124460000Y-73660000D03*
D18*
X170180000Y-38100000D03*
D19*
X175260000Y-38100000D03*
D20*
X146304000Y-85090000D03*
X123698000Y-91440000D03*
X113792000Y-101346000D03*
D21*
X137160000Y-81280000D02*
X142494000Y-81280000D01*
X142494000Y-81280000D02*
X146304000Y-85090000D01*
X127000000Y-88138000D02*
X127000000Y-73660000D01*
X127000000Y-73660000D02*
X129540000Y-71120000D01*
X123698000Y-91440000D02*
X127000000Y-88138000D01*
X132842000Y-77978000D02*
X137160000Y-73660000D01*
X113792000Y-101346000D02*
X115570000Y-99568000D01*
X132842000Y-99568000D02*
X132842000Y-77978000D01*
X115570000Y-99568000D02*
X132842000Y-99568000D01*
X140462000Y-72592000D02*
X140462000Y-64262000D01*
X158649000Y-90779000D02*
X158040000Y-90170000D01*
X140462000Y-64262000D02*
X137160000Y-60960000D01*
X158649000Y-90779000D02*
X140462000Y-72592000D01*
X158040000Y-92710000D02*
X139954000Y-74624000D01*
X139954000Y-74624000D02*
X139954000Y-66294000D01*
X139954000Y-66294000D02*
X137160000Y-63500000D01*
X129540000Y-68580000D02*
X132334000Y-68580000D01*
X155194000Y-100330000D02*
X158040000Y-100330000D01*
X139192000Y-72390000D02*
X139192000Y-75438000D01*
X139192000Y-75438000D02*
X155194000Y-91440000D01*
X155194000Y-91440000D02*
X155194000Y-100330000D01*
X136144000Y-72390000D02*
X139192000Y-72390000D01*
X132334000Y-68580000D02*
X136144000Y-72390000D01*
G04 #@! TA.AperFunction,Conductor*
G36*
X187897500Y-27957113D02*
G01*
X187942887Y-28002500D01*
X187959500Y-28064500D01*
X187959500Y-126875500D01*
X187942887Y-126937500D01*
X187897500Y-126982887D01*
X187835500Y-126999500D01*
X104264500Y-126999500D01*
X104202500Y-126982887D01*
X104157113Y-126937500D01*
X104140500Y-126875500D01*
X104140500Y-121920000D01*
X107436512Y-121920000D01*
X107456432Y-122185813D01*
X107515748Y-122445694D01*
X107613133Y-122693824D01*
X107744466Y-122921301D01*
X107746414Y-122924674D01*
X107912612Y-123133079D01*
X108108014Y-123314386D01*
X108328257Y-123464545D01*
X108568419Y-123580201D01*
X108804214Y-123652934D01*
X108823137Y-123658771D01*
X109086719Y-123698500D01*
X109086720Y-123698500D01*
X109353280Y-123698500D01*
X109353281Y-123698500D01*
X109485071Y-123678635D01*
X109616863Y-123658771D01*
X109871581Y-123580201D01*
X110111744Y-123464545D01*
X110331986Y-123314386D01*
X110527388Y-123133079D01*
X110693586Y-122924674D01*
X110826866Y-122693826D01*
X110924252Y-122445692D01*
X110983567Y-122185815D01*
X111003487Y-121920000D01*
X111003487Y-121919999D01*
X180588512Y-121919999D01*
X180608432Y-122185813D01*
X180667748Y-122445694D01*
X180765133Y-122693824D01*
X180896466Y-122921301D01*
X180898414Y-122924674D01*
X181064612Y-123133079D01*
X181260014Y-123314386D01*
X181480257Y-123464545D01*
X181720419Y-123580201D01*
X181956214Y-123652934D01*
X181975137Y-123658771D01*
X182238719Y-123698500D01*
X182238720Y-123698500D01*
X182505280Y-123698500D01*
X182505281Y-123698500D01*
X182637071Y-123678635D01*
X182768863Y-123658771D01*
X183023581Y-123580201D01*
X183263744Y-123464545D01*
X183483986Y-123314386D01*
X183679388Y-123133079D01*
X183845586Y-122924674D01*
X183978866Y-122693826D01*
X184076252Y-122445692D01*
X184135567Y-122185815D01*
X184155487Y-121920000D01*
X184135567Y-121654185D01*
X184076252Y-121394308D01*
X183978866Y-121146174D01*
X183845586Y-120915326D01*
X183679388Y-120706921D01*
X183679387Y-120706920D01*
X183483988Y-120525615D01*
X183380331Y-120454943D01*
X183263744Y-120375455D01*
X183263741Y-120375454D01*
X183263739Y-120375452D01*
X183023583Y-120259800D01*
X183023581Y-120259799D01*
X182932779Y-120231790D01*
X182768862Y-120181228D01*
X182505281Y-120141500D01*
X182505280Y-120141500D01*
X182238720Y-120141500D01*
X182238719Y-120141500D01*
X181975137Y-120181228D01*
X181720419Y-120259799D01*
X181480256Y-120375455D01*
X181260014Y-120525613D01*
X181064612Y-120706920D01*
X180898413Y-120915326D01*
X180765133Y-121146175D01*
X180667748Y-121394305D01*
X180608432Y-121654186D01*
X180588512Y-121919999D01*
X111003487Y-121919999D01*
X110983567Y-121654185D01*
X110924252Y-121394308D01*
X110826866Y-121146174D01*
X110693586Y-120915326D01*
X110527388Y-120706921D01*
X110527387Y-120706920D01*
X110331988Y-120525615D01*
X110228331Y-120454943D01*
X110111744Y-120375455D01*
X110111741Y-120375454D01*
X110111739Y-120375452D01*
X109871583Y-120259800D01*
X109871581Y-120259799D01*
X109780779Y-120231790D01*
X109616862Y-120181228D01*
X109353281Y-120141500D01*
X109353280Y-120141500D01*
X109086720Y-120141500D01*
X109086719Y-120141500D01*
X108823137Y-120181228D01*
X108568419Y-120259799D01*
X108328256Y-120375455D01*
X108108014Y-120525613D01*
X107912612Y-120706920D01*
X107746413Y-120915326D01*
X107613133Y-121146175D01*
X107515748Y-121394305D01*
X107456432Y-121654186D01*
X107436512Y-121920000D01*
X104140500Y-121920000D01*
X104140500Y-118245080D01*
X113137500Y-118245080D01*
X113177764Y-118512218D01*
X113232832Y-118690742D01*
X113257395Y-118770374D01*
X113374612Y-119013777D01*
X113487526Y-119179391D01*
X113526798Y-119236993D01*
X113710550Y-119435030D01*
X113710551Y-119435031D01*
X113921769Y-119603471D01*
X114155732Y-119738550D01*
X114407214Y-119837249D01*
X114670598Y-119897365D01*
X114721088Y-119901148D01*
X114872556Y-119912500D01*
X114872559Y-119912500D01*
X115007441Y-119912500D01*
X115007444Y-119912500D01*
X115128617Y-119903419D01*
X115209402Y-119897365D01*
X115472786Y-119837249D01*
X115724268Y-119738550D01*
X115958231Y-119603471D01*
X116169449Y-119435031D01*
X116353203Y-119236991D01*
X116505388Y-119013777D01*
X116622605Y-118770374D01*
X116702235Y-118512219D01*
X116742500Y-118245080D01*
X123297500Y-118245080D01*
X123337764Y-118512218D01*
X123392832Y-118690742D01*
X123417395Y-118770374D01*
X123534612Y-119013777D01*
X123647526Y-119179391D01*
X123686798Y-119236993D01*
X123870550Y-119435030D01*
X123870551Y-119435031D01*
X124081769Y-119603471D01*
X124315732Y-119738550D01*
X124567214Y-119837249D01*
X124830598Y-119897365D01*
X124881088Y-119901148D01*
X125032556Y-119912500D01*
X125032559Y-119912500D01*
X125167441Y-119912500D01*
X125167444Y-119912500D01*
X125288617Y-119903419D01*
X125369402Y-119897365D01*
X125632786Y-119837249D01*
X125884268Y-119738550D01*
X126118231Y-119603471D01*
X126329449Y-119435031D01*
X126513203Y-119236991D01*
X126665388Y-119013777D01*
X126782605Y-118770374D01*
X126862235Y-118512219D01*
X126902500Y-118245079D01*
X126902500Y-117974921D01*
X126862235Y-117707781D01*
X126782605Y-117449626D01*
X126665388Y-117206223D01*
X126513203Y-116983009D01*
X126513201Y-116983006D01*
X126329449Y-116784969D01*
X126118230Y-116616528D01*
X125884266Y-116481449D01*
X125632788Y-116382751D01*
X125369400Y-116322634D01*
X125167444Y-116307500D01*
X125167441Y-116307500D01*
X125032559Y-116307500D01*
X125032556Y-116307500D01*
X124830599Y-116322634D01*
X124567211Y-116382751D01*
X124315733Y-116481449D01*
X124081769Y-116616528D01*
X123870550Y-116784969D01*
X123686798Y-116983006D01*
X123534611Y-117206225D01*
X123417395Y-117449626D01*
X123337764Y-117707781D01*
X123297500Y-117974920D01*
X123297500Y-118245080D01*
X116742500Y-118245080D01*
X116742500Y-118245079D01*
X116742500Y-117974921D01*
X116702235Y-117707781D01*
X116622605Y-117449626D01*
X116505388Y-117206223D01*
X116353203Y-116983009D01*
X116353201Y-116983006D01*
X116169449Y-116784969D01*
X115958230Y-116616528D01*
X115724266Y-116481449D01*
X115472788Y-116382751D01*
X115209400Y-116322634D01*
X115007444Y-116307500D01*
X115007441Y-116307500D01*
X114872559Y-116307500D01*
X114872556Y-116307500D01*
X114670599Y-116322634D01*
X114407211Y-116382751D01*
X114155733Y-116481449D01*
X113921769Y-116616528D01*
X113710550Y-116784969D01*
X113526798Y-116983006D01*
X113374611Y-117206225D01*
X113257395Y-117449626D01*
X113177764Y-117707781D01*
X113137500Y-117974920D01*
X113137500Y-118245080D01*
X104140500Y-118245080D01*
X104140500Y-111759999D01*
X116754340Y-111759999D01*
X116774936Y-111995407D01*
X116819709Y-112162501D01*
X116836097Y-112223663D01*
X116935965Y-112437830D01*
X117071505Y-112631401D01*
X117238599Y-112798495D01*
X117432170Y-112934035D01*
X117646337Y-113033903D01*
X117874592Y-113095063D01*
X118110000Y-113115659D01*
X118345408Y-113095063D01*
X118573663Y-113033903D01*
X118787830Y-112934035D01*
X118981401Y-112798495D01*
X119148495Y-112631401D01*
X119278426Y-112445839D01*
X119322743Y-112406975D01*
X119380000Y-112392964D01*
X119437257Y-112406975D01*
X119481573Y-112445839D01*
X119611505Y-112631401D01*
X119778599Y-112798495D01*
X119972170Y-112934035D01*
X120186337Y-113033903D01*
X120414592Y-113095063D01*
X120650000Y-113115659D01*
X120885408Y-113095063D01*
X121113663Y-113033903D01*
X121327830Y-112934035D01*
X121521401Y-112798495D01*
X121688495Y-112631401D01*
X121824035Y-112437830D01*
X121923903Y-112223663D01*
X121985063Y-111995408D01*
X122005659Y-111760000D01*
X121985063Y-111524592D01*
X121923903Y-111296337D01*
X121824035Y-111082171D01*
X121688495Y-110888599D01*
X121561536Y-110761640D01*
X121529442Y-110706053D01*
X121529442Y-110641865D01*
X121561536Y-110586278D01*
X121617124Y-110554184D01*
X121673779Y-110554184D01*
X121673785Y-110554118D01*
X121674539Y-110554184D01*
X121681311Y-110554184D01*
X121684592Y-110555063D01*
X121920000Y-110575659D01*
X122155408Y-110555063D01*
X122383663Y-110493903D01*
X122597830Y-110394035D01*
X122791401Y-110258495D01*
X122958495Y-110091401D01*
X123094035Y-109897830D01*
X123193903Y-109683663D01*
X123255063Y-109455408D01*
X123275659Y-109220000D01*
X123255063Y-108984592D01*
X123193903Y-108756337D01*
X123094035Y-108542171D01*
X122958495Y-108348599D01*
X122791401Y-108181505D01*
X122597830Y-108045965D01*
X122383663Y-107946097D01*
X122322502Y-107929709D01*
X122155407Y-107884936D01*
X121920000Y-107864340D01*
X121684592Y-107884936D01*
X121456336Y-107946097D01*
X121242170Y-108045965D01*
X121048598Y-108181505D01*
X120881505Y-108348598D01*
X120751575Y-108534159D01*
X120707257Y-108573025D01*
X120650000Y-108587036D01*
X120592743Y-108573025D01*
X120548425Y-108534159D01*
X120418494Y-108348598D01*
X120251404Y-108181508D01*
X120251401Y-108181505D01*
X120057830Y-108045965D01*
X119843663Y-107946097D01*
X119782502Y-107929709D01*
X119615407Y-107884936D01*
X119380000Y-107864340D01*
X119144592Y-107884936D01*
X118916336Y-107946097D01*
X118702170Y-108045965D01*
X118508598Y-108181505D01*
X118341505Y-108348598D01*
X118205965Y-108542170D01*
X118106097Y-108756336D01*
X118044936Y-108984592D01*
X118024340Y-109220000D01*
X118044936Y-109455407D01*
X118089709Y-109622502D01*
X118106097Y-109683663D01*
X118205965Y-109897830D01*
X118341505Y-110091401D01*
X118341508Y-110091404D01*
X118468463Y-110218359D01*
X118500556Y-110273945D01*
X118500557Y-110338131D01*
X118468466Y-110393719D01*
X118412880Y-110425814D01*
X118356220Y-110425815D01*
X118356215Y-110425882D01*
X118355458Y-110425815D01*
X118348694Y-110425816D01*
X118345412Y-110424936D01*
X118110000Y-110404340D01*
X117874592Y-110424936D01*
X117646336Y-110486097D01*
X117432170Y-110585965D01*
X117238598Y-110721505D01*
X117071505Y-110888598D01*
X116935965Y-111082170D01*
X116836097Y-111296336D01*
X116774936Y-111524592D01*
X116754340Y-111759999D01*
X104140500Y-111759999D01*
X104140500Y-102870000D01*
X150184356Y-102870000D01*
X150204891Y-103117816D01*
X150204891Y-103117819D01*
X150204892Y-103117821D01*
X150265937Y-103358881D01*
X150310960Y-103461523D01*
X150365825Y-103586604D01*
X150365827Y-103586607D01*
X150501836Y-103794785D01*
X150670256Y-103977738D01*
X150670259Y-103977740D01*
X150866485Y-104130470D01*
X150866487Y-104130471D01*
X150866491Y-104130474D01*
X151085190Y-104248828D01*
X151320386Y-104329571D01*
X151565665Y-104370500D01*
X151814335Y-104370500D01*
X152059614Y-104329571D01*
X152294810Y-104248828D01*
X152513509Y-104130474D01*
X152709744Y-103977738D01*
X152878164Y-103794785D01*
X153014173Y-103586607D01*
X153114063Y-103358881D01*
X153175108Y-103117821D01*
X153195643Y-102870000D01*
X153175108Y-102622179D01*
X153114063Y-102381119D01*
X153014173Y-102153393D01*
X152878164Y-101945215D01*
X152709744Y-101762262D01*
X152638118Y-101706513D01*
X152513514Y-101609529D01*
X152513510Y-101609526D01*
X152513509Y-101609526D01*
X152294810Y-101491172D01*
X152294806Y-101491170D01*
X152294805Y-101491170D01*
X152059615Y-101410429D01*
X151814335Y-101369500D01*
X151565665Y-101369500D01*
X151320384Y-101410429D01*
X151085194Y-101491170D01*
X151085190Y-101491171D01*
X151085190Y-101491172D01*
X151071788Y-101498425D01*
X150866485Y-101609529D01*
X150670259Y-101762259D01*
X150670256Y-101762261D01*
X150670256Y-101762262D01*
X150606511Y-101831508D01*
X150501837Y-101945214D01*
X150365825Y-102153395D01*
X150275780Y-102358678D01*
X150265937Y-102381119D01*
X150259551Y-102406337D01*
X150204891Y-102622183D01*
X150184356Y-102870000D01*
X104140500Y-102870000D01*
X104140500Y-101345999D01*
X112905644Y-101345999D01*
X112925013Y-101530285D01*
X112982273Y-101706513D01*
X113074922Y-101866987D01*
X113198910Y-102004690D01*
X113348822Y-102113607D01*
X113518103Y-102188976D01*
X113699348Y-102227500D01*
X113699351Y-102227500D01*
X113884649Y-102227500D01*
X113884652Y-102227500D01*
X114065896Y-102188976D01*
X114065897Y-102188975D01*
X114065899Y-102188975D01*
X114235178Y-102113607D01*
X114385088Y-102004691D01*
X114509077Y-101866987D01*
X114601726Y-101706513D01*
X114658987Y-101530284D01*
X114673641Y-101390854D01*
X114685041Y-101350434D01*
X114709281Y-101316137D01*
X115793600Y-100231819D01*
X115833828Y-100204939D01*
X115881281Y-100195500D01*
X132770962Y-100195500D01*
X132794196Y-100197696D01*
X132802286Y-100199239D01*
X132857822Y-100195744D01*
X132865608Y-100195500D01*
X132881479Y-100195500D01*
X132897217Y-100193511D01*
X132904932Y-100192780D01*
X132960516Y-100189284D01*
X132968342Y-100186740D01*
X132991122Y-100181647D01*
X132999293Y-100180616D01*
X133051042Y-100160126D01*
X133058353Y-100157493D01*
X133111300Y-100140291D01*
X133118246Y-100135882D01*
X133139041Y-100125286D01*
X133146703Y-100122253D01*
X133191735Y-100089533D01*
X133198161Y-100085166D01*
X133245162Y-100055340D01*
X133250798Y-100049336D01*
X133268312Y-100033897D01*
X133274967Y-100029063D01*
X133310451Y-99986168D01*
X133315573Y-99980359D01*
X133353693Y-99939767D01*
X133357659Y-99932551D01*
X133370780Y-99913243D01*
X133376026Y-99906903D01*
X133399720Y-99856548D01*
X133403240Y-99849639D01*
X133430072Y-99800834D01*
X133432121Y-99792852D01*
X133440023Y-99770901D01*
X133443531Y-99763449D01*
X133453961Y-99708767D01*
X133455649Y-99701212D01*
X133469500Y-99647272D01*
X133469500Y-99639038D01*
X133471696Y-99615804D01*
X133473239Y-99607713D01*
X133469745Y-99552179D01*
X133469500Y-99544392D01*
X133469500Y-99060000D01*
X135654356Y-99060000D01*
X135674891Y-99307816D01*
X135674891Y-99307819D01*
X135674892Y-99307821D01*
X135735937Y-99548881D01*
X135775484Y-99639038D01*
X135835825Y-99776604D01*
X135835827Y-99776607D01*
X135971836Y-99984785D01*
X136140256Y-100167738D01*
X136188052Y-100204939D01*
X136336485Y-100320470D01*
X136336487Y-100320471D01*
X136336491Y-100320474D01*
X136555190Y-100438828D01*
X136790386Y-100519571D01*
X137035665Y-100560500D01*
X137284335Y-100560500D01*
X137529614Y-100519571D01*
X137764810Y-100438828D01*
X137983509Y-100320474D01*
X138179744Y-100167738D01*
X138348164Y-99984785D01*
X138484173Y-99776607D01*
X138584063Y-99548881D01*
X138645108Y-99307821D01*
X138665643Y-99060000D01*
X138645108Y-98812179D01*
X138584063Y-98571119D01*
X138484173Y-98343393D01*
X138348164Y-98135215D01*
X138179744Y-97952262D01*
X138157612Y-97935036D01*
X137983514Y-97799529D01*
X137983510Y-97799526D01*
X137983509Y-97799526D01*
X137965905Y-97789999D01*
X150184356Y-97789999D01*
X150204891Y-98037816D01*
X150204891Y-98037819D01*
X150204892Y-98037821D01*
X150265937Y-98278881D01*
X150310960Y-98381523D01*
X150365825Y-98506604D01*
X150365827Y-98506607D01*
X150501836Y-98714785D01*
X150670256Y-98897738D01*
X150670259Y-98897740D01*
X150866485Y-99050470D01*
X150866487Y-99050471D01*
X150866491Y-99050474D01*
X151085190Y-99168828D01*
X151320386Y-99249571D01*
X151565665Y-99290500D01*
X151814335Y-99290500D01*
X152059614Y-99249571D01*
X152294810Y-99168828D01*
X152513509Y-99050474D01*
X152709744Y-98897738D01*
X152878164Y-98714785D01*
X153014173Y-98506607D01*
X153114063Y-98278881D01*
X153175108Y-98037821D01*
X153195643Y-97790000D01*
X153175108Y-97542179D01*
X153114063Y-97301119D01*
X153014173Y-97073393D01*
X152878164Y-96865215D01*
X152709744Y-96682262D01*
X152687612Y-96665036D01*
X152513514Y-96529529D01*
X152513510Y-96529526D01*
X152513509Y-96529526D01*
X152294810Y-96411172D01*
X152294806Y-96411170D01*
X152294805Y-96411170D01*
X152059615Y-96330429D01*
X151814335Y-96289500D01*
X151565665Y-96289500D01*
X151320384Y-96330429D01*
X151085194Y-96411170D01*
X150866485Y-96529529D01*
X150670259Y-96682259D01*
X150670256Y-96682261D01*
X150670256Y-96682262D01*
X150606511Y-96751508D01*
X150501837Y-96865214D01*
X150365825Y-97073395D01*
X150275780Y-97278678D01*
X150265937Y-97301119D01*
X150251244Y-97359140D01*
X150204891Y-97542183D01*
X150184356Y-97789999D01*
X137965905Y-97789999D01*
X137764810Y-97681172D01*
X137764806Y-97681170D01*
X137764805Y-97681170D01*
X137529615Y-97600429D01*
X137284335Y-97559500D01*
X137035665Y-97559500D01*
X136790384Y-97600429D01*
X136555194Y-97681170D01*
X136336485Y-97799529D01*
X136140259Y-97952259D01*
X136140256Y-97952261D01*
X136140256Y-97952262D01*
X135971837Y-98135214D01*
X135835825Y-98343395D01*
X135745780Y-98548678D01*
X135735937Y-98571119D01*
X135713074Y-98661404D01*
X135674891Y-98812183D01*
X135654356Y-99060000D01*
X133469500Y-99060000D01*
X133469500Y-93980000D01*
X135892676Y-93980000D01*
X135911929Y-94200065D01*
X135969106Y-94413451D01*
X136062465Y-94613661D01*
X136062466Y-94613662D01*
X136189174Y-94794620D01*
X136345380Y-94950826D01*
X136526338Y-95077534D01*
X136726550Y-95170894D01*
X136939932Y-95228070D01*
X137160000Y-95247323D01*
X137380068Y-95228070D01*
X137593450Y-95170894D01*
X137793662Y-95077534D01*
X137974620Y-94950826D01*
X138130826Y-94794620D01*
X138257534Y-94613662D01*
X138350894Y-94413450D01*
X138408070Y-94200068D01*
X138427323Y-93980000D01*
X138408070Y-93759932D01*
X138350894Y-93546550D01*
X138257534Y-93346339D01*
X138130826Y-93165380D01*
X137974620Y-93009174D01*
X137793662Y-92882466D01*
X137793661Y-92882465D01*
X137664811Y-92822381D01*
X137612635Y-92776624D01*
X137593216Y-92709998D01*
X137612636Y-92643373D01*
X137664810Y-92597618D01*
X137793662Y-92537534D01*
X137974620Y-92410826D01*
X138130826Y-92254620D01*
X138257534Y-92073662D01*
X138350894Y-91873450D01*
X138408070Y-91660068D01*
X138427323Y-91440000D01*
X138408070Y-91219932D01*
X138350894Y-91006550D01*
X138257534Y-90806339D01*
X138130826Y-90625380D01*
X137974620Y-90469174D01*
X137793662Y-90342466D01*
X137664811Y-90282382D01*
X137612635Y-90236625D01*
X137593216Y-90170000D01*
X137612635Y-90103375D01*
X137664811Y-90057618D01*
X137670027Y-90055185D01*
X137793662Y-89997534D01*
X137974620Y-89870826D01*
X138130826Y-89714620D01*
X138257534Y-89533662D01*
X138350894Y-89333450D01*
X138408070Y-89120068D01*
X138427323Y-88900000D01*
X138408070Y-88679932D01*
X138350894Y-88466550D01*
X138257534Y-88266339D01*
X138130826Y-88085380D01*
X137974620Y-87929174D01*
X137793662Y-87802466D01*
X137664811Y-87742382D01*
X137612635Y-87696625D01*
X137593216Y-87630000D01*
X137612635Y-87563375D01*
X137664811Y-87517618D01*
X137670027Y-87515185D01*
X137793662Y-87457534D01*
X137974620Y-87330826D01*
X138130826Y-87174620D01*
X138257534Y-86993662D01*
X138350894Y-86793450D01*
X138408070Y-86580068D01*
X138427323Y-86360000D01*
X138408070Y-86139932D01*
X138350894Y-85926550D01*
X138257534Y-85726339D01*
X138130826Y-85545380D01*
X137974620Y-85389174D01*
X137793662Y-85262466D01*
X137664811Y-85202382D01*
X137612635Y-85156625D01*
X137593216Y-85090000D01*
X137612635Y-85023375D01*
X137664811Y-84977618D01*
X137670027Y-84975185D01*
X137793662Y-84917534D01*
X137974620Y-84790826D01*
X138130826Y-84634620D01*
X138257534Y-84453662D01*
X138350894Y-84253450D01*
X138408070Y-84040068D01*
X138427323Y-83820000D01*
X138408070Y-83599932D01*
X138350894Y-83386550D01*
X138257534Y-83186339D01*
X138130826Y-83005380D01*
X137974620Y-82849174D01*
X137793662Y-82722466D01*
X137664811Y-82662382D01*
X137612635Y-82616625D01*
X137593216Y-82550000D01*
X137612635Y-82483375D01*
X137664811Y-82437618D01*
X137670027Y-82435185D01*
X137793662Y-82377534D01*
X137974620Y-82250826D01*
X138130826Y-82094620D01*
X138224825Y-81960374D01*
X138269142Y-81921511D01*
X138326399Y-81907500D01*
X142182719Y-81907500D01*
X142230172Y-81916939D01*
X142270400Y-81943819D01*
X145386718Y-85060137D01*
X145410957Y-85094434D01*
X145422358Y-85134856D01*
X145437013Y-85274286D01*
X145494273Y-85450513D01*
X145586922Y-85610987D01*
X145710910Y-85748690D01*
X145860822Y-85857607D01*
X146030103Y-85932976D01*
X146211348Y-85971500D01*
X146211351Y-85971500D01*
X146396649Y-85971500D01*
X146396652Y-85971500D01*
X146577896Y-85932976D01*
X146577897Y-85932975D01*
X146577899Y-85932975D01*
X146747178Y-85857607D01*
X146897088Y-85748691D01*
X147021077Y-85610987D01*
X147113726Y-85450513D01*
X147170987Y-85274284D01*
X147190356Y-85090000D01*
X147170987Y-84905716D01*
X147113726Y-84729487D01*
X147113726Y-84729486D01*
X147021077Y-84569012D01*
X146897089Y-84431309D01*
X146747177Y-84322392D01*
X146577896Y-84247023D01*
X146396652Y-84208500D01*
X146396649Y-84208500D01*
X146361282Y-84208500D01*
X146313829Y-84199061D01*
X146273601Y-84172181D01*
X142996375Y-80894956D01*
X142983439Y-80878809D01*
X142932154Y-80830649D01*
X142929355Y-80827936D01*
X142909795Y-80808375D01*
X142906606Y-80805902D01*
X142897716Y-80798310D01*
X142865767Y-80768307D01*
X142863465Y-80767041D01*
X142848120Y-80758605D01*
X142831858Y-80747922D01*
X142815963Y-80735592D01*
X142775736Y-80718184D01*
X142765248Y-80713046D01*
X142726831Y-80691926D01*
X142707337Y-80686921D01*
X142688933Y-80680620D01*
X142670458Y-80672625D01*
X142627171Y-80665769D01*
X142615736Y-80663401D01*
X142573274Y-80652500D01*
X142573272Y-80652500D01*
X142553142Y-80652500D01*
X142533743Y-80650973D01*
X142513868Y-80647825D01*
X142513867Y-80647825D01*
X142493261Y-80649772D01*
X142470230Y-80651950D01*
X142458561Y-80652500D01*
X138326398Y-80652500D01*
X138269141Y-80638489D01*
X138224823Y-80599623D01*
X138130825Y-80465379D01*
X137974620Y-80309174D01*
X137793662Y-80182466D01*
X137664811Y-80122382D01*
X137612635Y-80076625D01*
X137593216Y-80010000D01*
X137612635Y-79943375D01*
X137664811Y-79897618D01*
X137670027Y-79895185D01*
X137793662Y-79837534D01*
X137974620Y-79710826D01*
X138130826Y-79554620D01*
X138257534Y-79373662D01*
X138350894Y-79173450D01*
X138408070Y-78960068D01*
X138427323Y-78740000D01*
X138408070Y-78519932D01*
X138350894Y-78306550D01*
X138257534Y-78106339D01*
X138130826Y-77925380D01*
X137974620Y-77769174D01*
X137793662Y-77642466D01*
X137772131Y-77632426D01*
X137664218Y-77582105D01*
X137612042Y-77536348D01*
X137592623Y-77469722D01*
X137612043Y-77403097D01*
X137664220Y-77357340D01*
X137793411Y-77297098D01*
X137858187Y-77251740D01*
X137160001Y-76553553D01*
X137160000Y-76553553D01*
X136461812Y-77251740D01*
X136526592Y-77297100D01*
X136655780Y-77357341D01*
X136707956Y-77403097D01*
X136727376Y-77469722D01*
X136707957Y-77536347D01*
X136655782Y-77582105D01*
X136526336Y-77642467D01*
X136345379Y-77769174D01*
X136189174Y-77925379D01*
X136062466Y-78106338D01*
X135969106Y-78306548D01*
X135911929Y-78519934D01*
X135892676Y-78739999D01*
X135911929Y-78960065D01*
X135969106Y-79173451D01*
X135994954Y-79228882D01*
X136062466Y-79373662D01*
X136189174Y-79554620D01*
X136345380Y-79710826D01*
X136526338Y-79837534D01*
X136582649Y-79863792D01*
X136655189Y-79897618D01*
X136707365Y-79943375D01*
X136726784Y-80010000D01*
X136707365Y-80076625D01*
X136655189Y-80122382D01*
X136526338Y-80182466D01*
X136345379Y-80309174D01*
X136189174Y-80465379D01*
X136062466Y-80646338D01*
X135969106Y-80846548D01*
X135911929Y-81059934D01*
X135892676Y-81279999D01*
X135911929Y-81500065D01*
X135969106Y-81713451D01*
X136059593Y-81907500D01*
X136062466Y-81913662D01*
X136189174Y-82094620D01*
X136345380Y-82250826D01*
X136526338Y-82377534D01*
X136645748Y-82433215D01*
X136655189Y-82437618D01*
X136707365Y-82483375D01*
X136726784Y-82550000D01*
X136707365Y-82616625D01*
X136655189Y-82662382D01*
X136526338Y-82722466D01*
X136345379Y-82849174D01*
X136189174Y-83005379D01*
X136062466Y-83186338D01*
X135969106Y-83386548D01*
X135911929Y-83599934D01*
X135892676Y-83819999D01*
X135911929Y-84040065D01*
X135969106Y-84253451D01*
X136052043Y-84431309D01*
X136062466Y-84453662D01*
X136189174Y-84634620D01*
X136345380Y-84790826D01*
X136526338Y-84917534D01*
X136645748Y-84973215D01*
X136655189Y-84977618D01*
X136707365Y-85023375D01*
X136726784Y-85090000D01*
X136707365Y-85156625D01*
X136655189Y-85202382D01*
X136526338Y-85262466D01*
X136345379Y-85389174D01*
X136189174Y-85545379D01*
X136062466Y-85726338D01*
X135969106Y-85926548D01*
X135911929Y-86139934D01*
X135892676Y-86360000D01*
X135911929Y-86580065D01*
X135969106Y-86793451D01*
X135994954Y-86848882D01*
X136062466Y-86993662D01*
X136189174Y-87174620D01*
X136345380Y-87330826D01*
X136526338Y-87457534D01*
X136645748Y-87513215D01*
X136655189Y-87517618D01*
X136707365Y-87563375D01*
X136726784Y-87630000D01*
X136707365Y-87696625D01*
X136655189Y-87742382D01*
X136526338Y-87802466D01*
X136345379Y-87929174D01*
X136189174Y-88085379D01*
X136062466Y-88266338D01*
X135969106Y-88466548D01*
X135911929Y-88679934D01*
X135892676Y-88899999D01*
X135911929Y-89120065D01*
X135969106Y-89333451D01*
X136062465Y-89533661D01*
X136062466Y-89533662D01*
X136189174Y-89714620D01*
X136345380Y-89870826D01*
X136526338Y-89997534D01*
X136645748Y-90053215D01*
X136655189Y-90057618D01*
X136707365Y-90103375D01*
X136726784Y-90170000D01*
X136707365Y-90236625D01*
X136655189Y-90282382D01*
X136526338Y-90342466D01*
X136345379Y-90469174D01*
X136189174Y-90625379D01*
X136062466Y-90806338D01*
X135969106Y-91006548D01*
X135911929Y-91219934D01*
X135892676Y-91440000D01*
X135911929Y-91660065D01*
X135969106Y-91873451D01*
X136062465Y-92073661D01*
X136062466Y-92073662D01*
X136189174Y-92254620D01*
X136345380Y-92410826D01*
X136526338Y-92537534D01*
X136645748Y-92593215D01*
X136655189Y-92597618D01*
X136707365Y-92643375D01*
X136726784Y-92710000D01*
X136707365Y-92776625D01*
X136655189Y-92822382D01*
X136526338Y-92882466D01*
X136345379Y-93009174D01*
X136189174Y-93165379D01*
X136062466Y-93346338D01*
X135969106Y-93546548D01*
X135911929Y-93759934D01*
X135892676Y-93980000D01*
X133469500Y-93980000D01*
X133469500Y-78289281D01*
X133478939Y-78241828D01*
X133505819Y-78201600D01*
X134051383Y-77656036D01*
X135689265Y-76018152D01*
X135740689Y-75987254D01*
X135800603Y-75984114D01*
X135854979Y-76009470D01*
X135891085Y-76057385D01*
X135900471Y-76116643D01*
X135893178Y-76199999D01*
X135912424Y-76419978D01*
X135969579Y-76633281D01*
X136062898Y-76833406D01*
X136108258Y-76898187D01*
X136806445Y-76200001D01*
X137513553Y-76200001D01*
X138211740Y-76898186D01*
X138257100Y-76833408D01*
X138350420Y-76633281D01*
X138407575Y-76419978D01*
X138426821Y-76199999D01*
X138407575Y-75980021D01*
X138350421Y-75766720D01*
X138257098Y-75566589D01*
X138211740Y-75501811D01*
X137513553Y-76200000D01*
X137513553Y-76200001D01*
X136806445Y-76200001D01*
X137160000Y-75846447D01*
X137858187Y-75148258D01*
X137793406Y-75102898D01*
X137664219Y-75042658D01*
X137612043Y-74996901D01*
X137592623Y-74930276D01*
X137612043Y-74863651D01*
X137664219Y-74817894D01*
X137664811Y-74817618D01*
X137793662Y-74757534D01*
X137974620Y-74630826D01*
X138130826Y-74474620D01*
X138257534Y-74293662D01*
X138328117Y-74142294D01*
X138371160Y-74091898D01*
X138434010Y-74070869D01*
X138498715Y-74085214D01*
X138546789Y-74130834D01*
X138564500Y-74194699D01*
X138564500Y-75355034D01*
X138562229Y-75375601D01*
X138564439Y-75445919D01*
X138564500Y-75449813D01*
X138564500Y-75477476D01*
X138565006Y-75481484D01*
X138565921Y-75493118D01*
X138567298Y-75536943D01*
X138572916Y-75556278D01*
X138576861Y-75575328D01*
X138579383Y-75595293D01*
X138595519Y-75636049D01*
X138599302Y-75647098D01*
X138611530Y-75689187D01*
X138611531Y-75689189D01*
X138611532Y-75689191D01*
X138621779Y-75706517D01*
X138630338Y-75723989D01*
X138637747Y-75742705D01*
X138663511Y-75778165D01*
X138669925Y-75787929D01*
X138692237Y-75825656D01*
X138706475Y-75839894D01*
X138719108Y-75854686D01*
X138730936Y-75870966D01*
X138764705Y-75898902D01*
X138773346Y-75906765D01*
X154530181Y-91663600D01*
X154557061Y-91703828D01*
X154566500Y-91751281D01*
X154566500Y-100258962D01*
X154564304Y-100282196D01*
X154562760Y-100290286D01*
X154566255Y-100345821D01*
X154566500Y-100353608D01*
X154566500Y-100369477D01*
X154568489Y-100385227D01*
X154569221Y-100392977D01*
X154572715Y-100448514D01*
X154575260Y-100456346D01*
X154580352Y-100479126D01*
X154581383Y-100487293D01*
X154601875Y-100539051D01*
X154604513Y-100546377D01*
X154621709Y-100599301D01*
X154626118Y-100606248D01*
X154636712Y-100627040D01*
X154639745Y-100634702D01*
X154672463Y-100679734D01*
X154676841Y-100686176D01*
X154706659Y-100733161D01*
X154712663Y-100738799D01*
X154728095Y-100756302D01*
X154732937Y-100762967D01*
X154759435Y-100784888D01*
X154775817Y-100798441D01*
X154781658Y-100803591D01*
X154808893Y-100829165D01*
X154822233Y-100841693D01*
X154829458Y-100845665D01*
X154848759Y-100858783D01*
X154855096Y-100864026D01*
X154905439Y-100887715D01*
X154912382Y-100891253D01*
X154961163Y-100918071D01*
X154961165Y-100918071D01*
X154961166Y-100918072D01*
X154968248Y-100919890D01*
X154969139Y-100920119D01*
X154991096Y-100928023D01*
X154998551Y-100931531D01*
X155053230Y-100941961D01*
X155060800Y-100943653D01*
X155114728Y-100957500D01*
X155122962Y-100957500D01*
X155146196Y-100959696D01*
X155154286Y-100961239D01*
X155209822Y-100957744D01*
X155217608Y-100957500D01*
X156766173Y-100957500D01*
X156823430Y-100971511D01*
X156867747Y-101010375D01*
X157001505Y-101201401D01*
X157168599Y-101368495D01*
X157354160Y-101498426D01*
X157393024Y-101542743D01*
X157407035Y-101600000D01*
X157393024Y-101657257D01*
X157354159Y-101701575D01*
X157168595Y-101831508D01*
X157001505Y-101998598D01*
X156865965Y-102192170D01*
X156766097Y-102406336D01*
X156704936Y-102634592D01*
X156684340Y-102870000D01*
X156704936Y-103105407D01*
X156749709Y-103272501D01*
X156766097Y-103333663D01*
X156865965Y-103547830D01*
X157001505Y-103741401D01*
X157168599Y-103908495D01*
X157362170Y-104044035D01*
X157576337Y-104143903D01*
X157804592Y-104205063D01*
X158040000Y-104225659D01*
X158275408Y-104205063D01*
X158503663Y-104143903D01*
X158717830Y-104044035D01*
X158911401Y-103908495D01*
X159078495Y-103741401D01*
X159214035Y-103547830D01*
X159313903Y-103333663D01*
X159375063Y-103105408D01*
X159395659Y-102870000D01*
X159375063Y-102634592D01*
X159313903Y-102406337D01*
X159214035Y-102192171D01*
X159078495Y-101998599D01*
X158911401Y-101831505D01*
X158725839Y-101701573D01*
X158686974Y-101657255D01*
X158672964Y-101599999D01*
X158686975Y-101542742D01*
X158725837Y-101498428D01*
X158911401Y-101368495D01*
X159078495Y-101201401D01*
X159214035Y-101007830D01*
X159313903Y-100793663D01*
X159375063Y-100565408D01*
X159395659Y-100330000D01*
X159390469Y-100270685D01*
X159375063Y-100094592D01*
X159372536Y-100085160D01*
X159313903Y-99866337D01*
X159214035Y-99652171D01*
X159078495Y-99458599D01*
X158911401Y-99291505D01*
X158725839Y-99161573D01*
X158686974Y-99117255D01*
X158672964Y-99059999D01*
X158686975Y-99002742D01*
X158725837Y-98958428D01*
X158911401Y-98828495D01*
X159078495Y-98661401D01*
X159214035Y-98467830D01*
X159313903Y-98253663D01*
X159375063Y-98025408D01*
X159395659Y-97790000D01*
X159375063Y-97554592D01*
X159313903Y-97326337D01*
X159214035Y-97112171D01*
X159078495Y-96918599D01*
X158911401Y-96751505D01*
X158725839Y-96621573D01*
X158686975Y-96577257D01*
X158672964Y-96520000D01*
X158686975Y-96462743D01*
X158725839Y-96418426D01*
X158911401Y-96288495D01*
X159078495Y-96121401D01*
X159214035Y-95927830D01*
X159313903Y-95713663D01*
X159375063Y-95485408D01*
X159395659Y-95250000D01*
X159375063Y-95014592D01*
X159313903Y-94786337D01*
X159214035Y-94572171D01*
X159078495Y-94378599D01*
X158911401Y-94211505D01*
X158725839Y-94081573D01*
X158686975Y-94037257D01*
X158672964Y-93980000D01*
X158686975Y-93922743D01*
X158725839Y-93878426D01*
X158911401Y-93748495D01*
X159078495Y-93581401D01*
X159214035Y-93387830D01*
X159313903Y-93173663D01*
X159375063Y-92945408D01*
X159395659Y-92710000D01*
X159375063Y-92474592D01*
X159313903Y-92246337D01*
X159214035Y-92032171D01*
X159078495Y-91838599D01*
X158911401Y-91671505D01*
X158805491Y-91597346D01*
X158763073Y-91545613D01*
X158753704Y-91479372D01*
X158780113Y-91417904D01*
X158834612Y-91379103D01*
X158936140Y-91342551D01*
X158936139Y-91342551D01*
X158936143Y-91342550D01*
X159067271Y-91253435D01*
X159172118Y-91134511D01*
X159244095Y-90993247D01*
X159278680Y-90838523D01*
X159275800Y-90746884D01*
X159287357Y-90690589D01*
X159313903Y-90633663D01*
X159375063Y-90405408D01*
X159395659Y-90170000D01*
X159375063Y-89934592D01*
X159313903Y-89706337D01*
X159214035Y-89492171D01*
X159078495Y-89298599D01*
X158911401Y-89131505D01*
X158725402Y-89001267D01*
X158686539Y-88956951D01*
X158672528Y-88899694D01*
X158686539Y-88842437D01*
X158725405Y-88798119D01*
X158911078Y-88668109D01*
X159078106Y-88501081D01*
X159213600Y-88307576D01*
X159313430Y-88093492D01*
X159370636Y-87880000D01*
X156688781Y-87880000D01*
X156641328Y-87870561D01*
X156601100Y-87843681D01*
X154745288Y-85987869D01*
X156689500Y-85987869D01*
X156695909Y-86047484D01*
X156721056Y-86114906D01*
X156746204Y-86182331D01*
X156832454Y-86297546D01*
X156947669Y-86383796D01*
X157079598Y-86433002D01*
X157129978Y-86467981D01*
X157157431Y-86522825D01*
X157155242Y-86584118D01*
X157123947Y-86636865D01*
X157001888Y-86758924D01*
X156866400Y-86952421D01*
X156766569Y-87166507D01*
X156709364Y-87379999D01*
X156709364Y-87380000D01*
X159370636Y-87380000D01*
X159370635Y-87379999D01*
X159313430Y-87166507D01*
X159213599Y-86952421D01*
X159078109Y-86758921D01*
X158956053Y-86636865D01*
X158924757Y-86584119D01*
X158922568Y-86522826D01*
X158950021Y-86467981D01*
X159000398Y-86433003D01*
X159132331Y-86383796D01*
X159247546Y-86297546D01*
X159333796Y-86182331D01*
X159384091Y-86047483D01*
X159390500Y-85987873D01*
X159390499Y-84192128D01*
X159384091Y-84132517D01*
X159333796Y-83997669D01*
X159247546Y-83882454D01*
X159132331Y-83796204D01*
X158997483Y-83745909D01*
X158937873Y-83739500D01*
X158937869Y-83739500D01*
X157142130Y-83739500D01*
X157082515Y-83745909D01*
X156947669Y-83796204D01*
X156832454Y-83882454D01*
X156746204Y-83997668D01*
X156695909Y-84132516D01*
X156689500Y-84192130D01*
X156689500Y-85987869D01*
X154745288Y-85987869D01*
X147497418Y-78739999D01*
X150386356Y-78739999D01*
X150406891Y-78987816D01*
X150406891Y-78987819D01*
X150406892Y-78987821D01*
X150467937Y-79228881D01*
X150512960Y-79331523D01*
X150567825Y-79456604D01*
X150567827Y-79456607D01*
X150703836Y-79664785D01*
X150872256Y-79847738D01*
X150935985Y-79897340D01*
X151068485Y-80000470D01*
X151068487Y-80000471D01*
X151068491Y-80000474D01*
X151287190Y-80118828D01*
X151522386Y-80199571D01*
X151767665Y-80240500D01*
X152016335Y-80240500D01*
X152261614Y-80199571D01*
X152496810Y-80118828D01*
X152715509Y-80000474D01*
X152911744Y-79847738D01*
X153080164Y-79664785D01*
X153216173Y-79456607D01*
X153316063Y-79228881D01*
X153377108Y-78987821D01*
X153397643Y-78740000D01*
X153377108Y-78492179D01*
X153316063Y-78251119D01*
X153216173Y-78023393D01*
X153080164Y-77815215D01*
X152911744Y-77632262D01*
X152848013Y-77582658D01*
X152715514Y-77479529D01*
X152715510Y-77479526D01*
X152715509Y-77479526D01*
X152496810Y-77361172D01*
X152496806Y-77361170D01*
X152496805Y-77361170D01*
X152261615Y-77280429D01*
X152016335Y-77239500D01*
X151767665Y-77239500D01*
X151522384Y-77280429D01*
X151287194Y-77361170D01*
X151068485Y-77479529D01*
X150872259Y-77632259D01*
X150872256Y-77632261D01*
X150872256Y-77632262D01*
X150703836Y-77815215D01*
X150658499Y-77884607D01*
X150567825Y-78023395D01*
X150489658Y-78201600D01*
X150467937Y-78251119D01*
X150406892Y-78492179D01*
X150406891Y-78492183D01*
X150386356Y-78739999D01*
X147497418Y-78739999D01*
X141411100Y-72653681D01*
X141377635Y-72592449D01*
X141382534Y-72522841D01*
X141424247Y-72466900D01*
X141489564Y-72442343D01*
X141557798Y-72456945D01*
X141635190Y-72498828D01*
X141870386Y-72579571D01*
X142115665Y-72620500D01*
X142364335Y-72620500D01*
X142609614Y-72579571D01*
X142844810Y-72498828D01*
X143063509Y-72380474D01*
X143259744Y-72227738D01*
X143428164Y-72044785D01*
X143564173Y-71836607D01*
X143664063Y-71608881D01*
X143725108Y-71367821D01*
X143745643Y-71120000D01*
X143725108Y-70872179D01*
X143664063Y-70631119D01*
X143564173Y-70403393D01*
X143428164Y-70195215D01*
X143259744Y-70012262D01*
X143223081Y-69983726D01*
X143063514Y-69859529D01*
X143063510Y-69859526D01*
X143063509Y-69859526D01*
X142844810Y-69741172D01*
X142844806Y-69741170D01*
X142844805Y-69741170D01*
X142609615Y-69660429D01*
X142364335Y-69619500D01*
X142115665Y-69619500D01*
X141870384Y-69660429D01*
X141635194Y-69741170D01*
X141635190Y-69741171D01*
X141635190Y-69741172D01*
X141557206Y-69783375D01*
X141416489Y-69859527D01*
X141400554Y-69871930D01*
X141289661Y-69958241D01*
X141226292Y-69983726D01*
X141159040Y-69971789D01*
X141108312Y-69926050D01*
X141089500Y-69860388D01*
X141089500Y-68580000D01*
X143782356Y-68580000D01*
X143802891Y-68827816D01*
X143802891Y-68827819D01*
X143802892Y-68827821D01*
X143863937Y-69068881D01*
X143908960Y-69171523D01*
X143963825Y-69296604D01*
X143963827Y-69296607D01*
X144099836Y-69504785D01*
X144268256Y-69687738D01*
X144268259Y-69687740D01*
X144464485Y-69840470D01*
X144464487Y-69840471D01*
X144464491Y-69840474D01*
X144683190Y-69958828D01*
X144918386Y-70039571D01*
X145163665Y-70080500D01*
X145412335Y-70080500D01*
X145657614Y-70039571D01*
X145892810Y-69958828D01*
X146111509Y-69840474D01*
X146307744Y-69687738D01*
X146476164Y-69504785D01*
X146612173Y-69296607D01*
X146712063Y-69068881D01*
X146773108Y-68827821D01*
X146793643Y-68580000D01*
X146793643Y-68579999D01*
X150514340Y-68579999D01*
X150534936Y-68815407D01*
X150579709Y-68982502D01*
X150596097Y-69043663D01*
X150695965Y-69257830D01*
X150831505Y-69451401D01*
X150831507Y-69451403D01*
X150831508Y-69451404D01*
X150953430Y-69573326D01*
X150984726Y-69626072D01*
X150986915Y-69687365D01*
X150959462Y-69742209D01*
X150909083Y-69777189D01*
X150777669Y-69826204D01*
X150662454Y-69912454D01*
X150576204Y-70027668D01*
X150525909Y-70162515D01*
X150525909Y-70162517D01*
X150522394Y-70195215D01*
X150519500Y-70222130D01*
X150519500Y-72017869D01*
X150525909Y-72077484D01*
X150551056Y-72144907D01*
X150576204Y-72212331D01*
X150662454Y-72327546D01*
X150777669Y-72413796D01*
X150912517Y-72464091D01*
X150972127Y-72470500D01*
X152767872Y-72470499D01*
X152827483Y-72464091D01*
X152962331Y-72413796D01*
X153077546Y-72327546D01*
X153163796Y-72212331D01*
X153214091Y-72077483D01*
X153220500Y-72017873D01*
X153220499Y-70222128D01*
X153214091Y-70162517D01*
X153163796Y-70027669D01*
X153077546Y-69912454D01*
X152962331Y-69826204D01*
X152900898Y-69803291D01*
X152830916Y-69777189D01*
X152780537Y-69742209D01*
X152753084Y-69687365D01*
X152755273Y-69626072D01*
X152786566Y-69573329D01*
X152908495Y-69451401D01*
X153044035Y-69257830D01*
X153143903Y-69043663D01*
X153205063Y-68815408D01*
X153225659Y-68580000D01*
X153205063Y-68344592D01*
X153143903Y-68116337D01*
X153044035Y-67902171D01*
X152908495Y-67708599D01*
X152741401Y-67541505D01*
X152555839Y-67411573D01*
X152516975Y-67367257D01*
X152502964Y-67310000D01*
X152516975Y-67252743D01*
X152555839Y-67208426D01*
X152741401Y-67078495D01*
X152908495Y-66911401D01*
X153044035Y-66717830D01*
X153143903Y-66503663D01*
X153205063Y-66275408D01*
X153225659Y-66040000D01*
X153205063Y-65804592D01*
X153143903Y-65576337D01*
X153044035Y-65362171D01*
X152908495Y-65168599D01*
X152741401Y-65001505D01*
X152555839Y-64871573D01*
X152516976Y-64827257D01*
X152502965Y-64770000D01*
X152516976Y-64712743D01*
X152555839Y-64668426D01*
X152741401Y-64538495D01*
X152908495Y-64371401D01*
X153044035Y-64177830D01*
X153143903Y-63963663D01*
X153205063Y-63735408D01*
X153225659Y-63500000D01*
X153205063Y-63264592D01*
X153143903Y-63036337D01*
X153044035Y-62822171D01*
X152908495Y-62628599D01*
X152741401Y-62461505D01*
X152555839Y-62331573D01*
X152516974Y-62287255D01*
X152502964Y-62229999D01*
X152516975Y-62172742D01*
X152555837Y-62128428D01*
X152741401Y-61998495D01*
X152908495Y-61831401D01*
X153044035Y-61637830D01*
X153143903Y-61423663D01*
X153205063Y-61195408D01*
X153225659Y-60960000D01*
X153205063Y-60724592D01*
X153143903Y-60496337D01*
X153044035Y-60282171D01*
X152908495Y-60088599D01*
X152741401Y-59921505D01*
X152555402Y-59791267D01*
X152516539Y-59746951D01*
X152502528Y-59689694D01*
X152516539Y-59632437D01*
X152555405Y-59588119D01*
X152631373Y-59534925D01*
X151870000Y-58773553D01*
X151108625Y-59534925D01*
X151184594Y-59588119D01*
X151223460Y-59632437D01*
X151237471Y-59689694D01*
X151223461Y-59746950D01*
X151184595Y-59791269D01*
X150998595Y-59921508D01*
X150831505Y-60088598D01*
X150695965Y-60282170D01*
X150596097Y-60496336D01*
X150534936Y-60724592D01*
X150514340Y-60959999D01*
X150534936Y-61195407D01*
X150560535Y-61290942D01*
X150596097Y-61423663D01*
X150695965Y-61637830D01*
X150831505Y-61831401D01*
X150998599Y-61998495D01*
X151184160Y-62128426D01*
X151223024Y-62172743D01*
X151237035Y-62230000D01*
X151223024Y-62287257D01*
X151184159Y-62331575D01*
X150998595Y-62461508D01*
X150831505Y-62628598D01*
X150695965Y-62822170D01*
X150596097Y-63036336D01*
X150534936Y-63264592D01*
X150514340Y-63500000D01*
X150534936Y-63735407D01*
X150572164Y-63874344D01*
X150596097Y-63963663D01*
X150695965Y-64177830D01*
X150831505Y-64371401D01*
X150998599Y-64538495D01*
X151184160Y-64668426D01*
X151223024Y-64712743D01*
X151237035Y-64770000D01*
X151223024Y-64827257D01*
X151184158Y-64871575D01*
X151000035Y-65000500D01*
X150998595Y-65001508D01*
X150831505Y-65168598D01*
X150695965Y-65362170D01*
X150596097Y-65576336D01*
X150534936Y-65804592D01*
X150514340Y-66040000D01*
X150534936Y-66275407D01*
X150579709Y-66442502D01*
X150596097Y-66503663D01*
X150695965Y-66717830D01*
X150831505Y-66911401D01*
X150998599Y-67078495D01*
X151184160Y-67208426D01*
X151223024Y-67252743D01*
X151237035Y-67310000D01*
X151223024Y-67367257D01*
X151184158Y-67411575D01*
X151000035Y-67540500D01*
X150998595Y-67541508D01*
X150831505Y-67708598D01*
X150695965Y-67902170D01*
X150596097Y-68116336D01*
X150534936Y-68344592D01*
X150514340Y-68579999D01*
X146793643Y-68579999D01*
X146773108Y-68332179D01*
X146712063Y-68091119D01*
X146612173Y-67863393D01*
X146476164Y-67655215D01*
X146307744Y-67472262D01*
X146285612Y-67455036D01*
X146111514Y-67319529D01*
X146111510Y-67319526D01*
X146111509Y-67319526D01*
X145892810Y-67201172D01*
X145892806Y-67201170D01*
X145892805Y-67201170D01*
X145657615Y-67120429D01*
X145412335Y-67079500D01*
X145163665Y-67079500D01*
X144918384Y-67120429D01*
X144683194Y-67201170D01*
X144683190Y-67201171D01*
X144683190Y-67201172D01*
X144669788Y-67208425D01*
X144464485Y-67319529D01*
X144268259Y-67472259D01*
X144268256Y-67472261D01*
X144268256Y-67472262D01*
X144204511Y-67541508D01*
X144099837Y-67655214D01*
X143963825Y-67863395D01*
X143907447Y-67991926D01*
X143863937Y-68091119D01*
X143837642Y-68194956D01*
X143802891Y-68332183D01*
X143782356Y-68580000D01*
X141089500Y-68580000D01*
X141089500Y-67299612D01*
X141108312Y-67233950D01*
X141159040Y-67188211D01*
X141226292Y-67176274D01*
X141289661Y-67201758D01*
X141416491Y-67300474D01*
X141635190Y-67418828D01*
X141870386Y-67499571D01*
X142115665Y-67540500D01*
X142364335Y-67540500D01*
X142609614Y-67499571D01*
X142844810Y-67418828D01*
X143063509Y-67300474D01*
X143259744Y-67147738D01*
X143428164Y-66964785D01*
X143564173Y-66756607D01*
X143664063Y-66528881D01*
X143725108Y-66287821D01*
X143745643Y-66040000D01*
X143725108Y-65792179D01*
X143664063Y-65551119D01*
X143564173Y-65323393D01*
X143428164Y-65115215D01*
X143259744Y-64932262D01*
X143223081Y-64903726D01*
X143063514Y-64779529D01*
X143063510Y-64779526D01*
X143063509Y-64779526D01*
X142844810Y-64661172D01*
X142844806Y-64661170D01*
X142844805Y-64661170D01*
X142609615Y-64580429D01*
X142364335Y-64539500D01*
X142115665Y-64539500D01*
X141870384Y-64580429D01*
X141635194Y-64661170D01*
X141635190Y-64661171D01*
X141635190Y-64661172D01*
X141557206Y-64703375D01*
X141416489Y-64779527D01*
X141400554Y-64791930D01*
X141289661Y-64878241D01*
X141226292Y-64903726D01*
X141159040Y-64891789D01*
X141108312Y-64846050D01*
X141089500Y-64780388D01*
X141089500Y-64344966D01*
X141091770Y-64324399D01*
X141089561Y-64254095D01*
X141089500Y-64250200D01*
X141089500Y-64222525D01*
X141088993Y-64218513D01*
X141088076Y-64206861D01*
X141086700Y-64163057D01*
X141081082Y-64143723D01*
X141077139Y-64124682D01*
X141074616Y-64104707D01*
X141058480Y-64063953D01*
X141054697Y-64052904D01*
X141042468Y-64010809D01*
X141032222Y-63993485D01*
X141023661Y-63976009D01*
X141016253Y-63957297D01*
X141016252Y-63957296D01*
X140990485Y-63921832D01*
X140984074Y-63912070D01*
X140961763Y-63874344D01*
X140947530Y-63860111D01*
X140934893Y-63845316D01*
X140923063Y-63829033D01*
X140923060Y-63829031D01*
X140923060Y-63829030D01*
X140889287Y-63801090D01*
X140880647Y-63793228D01*
X138428984Y-61341565D01*
X138396890Y-61285977D01*
X138396891Y-61221789D01*
X138408070Y-61180069D01*
X138427323Y-60959999D01*
X138408070Y-60739934D01*
X138408070Y-60739932D01*
X138350894Y-60526550D01*
X138257534Y-60326339D01*
X138130826Y-60145380D01*
X137974620Y-59989174D01*
X137793662Y-59862466D01*
X137593451Y-59769106D01*
X137380065Y-59711929D01*
X137160000Y-59692676D01*
X136939934Y-59711929D01*
X136726548Y-59769106D01*
X136526338Y-59862466D01*
X136345379Y-59989174D01*
X136189174Y-60145379D01*
X136062466Y-60326338D01*
X135969106Y-60526548D01*
X135911929Y-60739934D01*
X135892676Y-60960000D01*
X135911929Y-61180065D01*
X135911930Y-61180068D01*
X135969106Y-61393450D01*
X136062466Y-61593662D01*
X136189174Y-61774620D01*
X136345380Y-61930826D01*
X136526338Y-62057534D01*
X136645748Y-62113215D01*
X136655189Y-62117618D01*
X136707365Y-62163375D01*
X136726784Y-62230000D01*
X136707365Y-62296625D01*
X136655189Y-62342382D01*
X136526338Y-62402466D01*
X136345379Y-62529174D01*
X136189174Y-62685379D01*
X136062466Y-62866338D01*
X135969106Y-63066548D01*
X135911929Y-63279934D01*
X135892676Y-63499999D01*
X135911929Y-63720065D01*
X135969106Y-63933451D01*
X136048963Y-64104704D01*
X136062466Y-64133662D01*
X136189174Y-64314620D01*
X136345380Y-64470826D01*
X136526338Y-64597534D01*
X136645748Y-64653215D01*
X136655189Y-64657618D01*
X136707365Y-64703375D01*
X136726784Y-64770000D01*
X136707365Y-64836625D01*
X136655189Y-64882382D01*
X136526338Y-64942466D01*
X136345379Y-65069174D01*
X136189174Y-65225379D01*
X136062466Y-65406338D01*
X135969106Y-65606548D01*
X135911929Y-65819934D01*
X135892676Y-66040000D01*
X135911929Y-66260065D01*
X135969106Y-66473451D01*
X136062465Y-66673661D01*
X136062466Y-66673662D01*
X136189174Y-66854620D01*
X136345380Y-67010826D01*
X136526338Y-67137534D01*
X136609417Y-67176274D01*
X136655189Y-67197618D01*
X136707365Y-67243375D01*
X136726784Y-67310000D01*
X136707365Y-67376625D01*
X136655189Y-67422382D01*
X136526338Y-67482466D01*
X136345379Y-67609174D01*
X136189174Y-67765379D01*
X136062466Y-67946338D01*
X135969106Y-68146548D01*
X135911929Y-68359934D01*
X135892676Y-68580000D01*
X135911929Y-68800065D01*
X135969106Y-69013451D01*
X135994954Y-69068882D01*
X136062466Y-69213662D01*
X136189174Y-69394620D01*
X136345380Y-69550826D01*
X136526338Y-69677534D01*
X136645748Y-69733215D01*
X136655189Y-69737618D01*
X136707365Y-69783375D01*
X136726784Y-69850000D01*
X136707365Y-69916625D01*
X136655189Y-69962382D01*
X136526338Y-70022466D01*
X136345379Y-70149174D01*
X136189174Y-70305379D01*
X136062466Y-70486338D01*
X135969106Y-70686548D01*
X135911929Y-70899934D01*
X135905292Y-70975790D01*
X135880139Y-71040469D01*
X135824174Y-71081504D01*
X135754925Y-71086043D01*
X135694083Y-71052663D01*
X132836375Y-68194956D01*
X132823439Y-68178809D01*
X132772154Y-68130649D01*
X132769355Y-68127936D01*
X132749795Y-68108375D01*
X132746606Y-68105902D01*
X132737716Y-68098310D01*
X132705767Y-68068307D01*
X132703465Y-68067041D01*
X132688120Y-68058605D01*
X132671858Y-68047922D01*
X132655963Y-68035592D01*
X132615736Y-68018184D01*
X132605248Y-68013046D01*
X132566831Y-67991926D01*
X132547337Y-67986921D01*
X132528933Y-67980620D01*
X132510458Y-67972625D01*
X132467171Y-67965769D01*
X132455736Y-67963401D01*
X132413274Y-67952500D01*
X132413272Y-67952500D01*
X132393142Y-67952500D01*
X132373743Y-67950973D01*
X132353868Y-67947825D01*
X132353867Y-67947825D01*
X132333261Y-67949772D01*
X132310230Y-67951950D01*
X132298561Y-67952500D01*
X130706398Y-67952500D01*
X130649141Y-67938489D01*
X130604823Y-67899623D01*
X130510825Y-67765379D01*
X130354620Y-67609174D01*
X130173662Y-67482466D01*
X130044811Y-67422382D01*
X129992635Y-67376625D01*
X129973216Y-67310000D01*
X129992635Y-67243375D01*
X130044811Y-67197618D01*
X130090583Y-67176274D01*
X130173662Y-67137534D01*
X130354620Y-67010826D01*
X130510826Y-66854620D01*
X130637534Y-66673662D01*
X130730894Y-66473450D01*
X130788070Y-66260068D01*
X130807323Y-66040000D01*
X130788070Y-65819932D01*
X130730894Y-65606550D01*
X130637534Y-65406339D01*
X130510826Y-65225380D01*
X130354620Y-65069174D01*
X130173662Y-64942466D01*
X130173661Y-64942465D01*
X130044811Y-64882381D01*
X129992635Y-64836624D01*
X129973216Y-64769998D01*
X129992636Y-64703373D01*
X130044810Y-64657618D01*
X130173662Y-64597534D01*
X130354620Y-64470826D01*
X130510826Y-64314620D01*
X130637534Y-64133662D01*
X130730894Y-63933450D01*
X130788070Y-63720068D01*
X130807323Y-63500000D01*
X130788070Y-63279932D01*
X130730894Y-63066550D01*
X130637534Y-62866339D01*
X130510826Y-62685380D01*
X130354620Y-62529174D01*
X130173662Y-62402466D01*
X130044811Y-62342382D01*
X129992635Y-62296625D01*
X129973216Y-62230000D01*
X129992635Y-62163375D01*
X130044811Y-62117618D01*
X130050027Y-62115185D01*
X130173662Y-62057534D01*
X130354620Y-61930826D01*
X130510826Y-61774620D01*
X130637534Y-61593662D01*
X130730894Y-61393450D01*
X130788070Y-61180068D01*
X130807323Y-60960000D01*
X130788070Y-60739932D01*
X130730894Y-60526550D01*
X130637534Y-60326339D01*
X130510826Y-60145380D01*
X130354620Y-59989174D01*
X130173662Y-59862466D01*
X129973451Y-59769106D01*
X129760065Y-59711929D01*
X129540000Y-59692676D01*
X129319934Y-59711929D01*
X129106548Y-59769106D01*
X128906338Y-59862466D01*
X128725379Y-59989174D01*
X128569174Y-60145379D01*
X128442466Y-60326338D01*
X128349106Y-60526548D01*
X128291929Y-60739934D01*
X128272676Y-60960000D01*
X128291929Y-61180065D01*
X128291930Y-61180068D01*
X128349106Y-61393450D01*
X128442466Y-61593662D01*
X128569174Y-61774620D01*
X128725380Y-61930826D01*
X128906338Y-62057534D01*
X129025748Y-62113215D01*
X129035189Y-62117618D01*
X129087365Y-62163375D01*
X129106784Y-62230000D01*
X129087365Y-62296625D01*
X129035189Y-62342382D01*
X128906338Y-62402466D01*
X128725379Y-62529174D01*
X128569174Y-62685379D01*
X128442466Y-62866338D01*
X128349106Y-63066548D01*
X128291929Y-63279934D01*
X128272676Y-63499999D01*
X128291929Y-63720065D01*
X128349106Y-63933451D01*
X128428963Y-64104704D01*
X128442466Y-64133662D01*
X128569174Y-64314620D01*
X128725380Y-64470826D01*
X128906338Y-64597534D01*
X129025748Y-64653215D01*
X129035189Y-64657618D01*
X129087365Y-64703375D01*
X129106784Y-64770000D01*
X129087365Y-64836625D01*
X129035189Y-64882382D01*
X128906338Y-64942466D01*
X128725379Y-65069174D01*
X128569174Y-65225379D01*
X128442466Y-65406338D01*
X128349106Y-65606548D01*
X128291929Y-65819934D01*
X128272676Y-66040000D01*
X128291929Y-66260065D01*
X128349106Y-66473451D01*
X128442465Y-66673661D01*
X128442466Y-66673662D01*
X128569174Y-66854620D01*
X128725380Y-67010826D01*
X128906338Y-67137534D01*
X128989417Y-67176274D01*
X129035189Y-67197618D01*
X129087365Y-67243375D01*
X129106784Y-67310000D01*
X129087365Y-67376625D01*
X129035189Y-67422382D01*
X128906338Y-67482466D01*
X128725379Y-67609174D01*
X128569174Y-67765379D01*
X128442466Y-67946338D01*
X128349106Y-68146548D01*
X128291929Y-68359934D01*
X128272676Y-68580000D01*
X128291929Y-68800065D01*
X128349106Y-69013451D01*
X128374954Y-69068882D01*
X128442466Y-69213662D01*
X128569174Y-69394620D01*
X128725380Y-69550826D01*
X128906338Y-69677534D01*
X129025748Y-69733215D01*
X129035189Y-69737618D01*
X129087365Y-69783375D01*
X129106784Y-69850000D01*
X129087365Y-69916625D01*
X129035189Y-69962382D01*
X128906338Y-70022466D01*
X128725379Y-70149174D01*
X128569174Y-70305379D01*
X128442466Y-70486338D01*
X128349106Y-70686548D01*
X128291929Y-70899934D01*
X128272676Y-71119999D01*
X128291929Y-71340066D01*
X128303109Y-71381790D01*
X128303109Y-71445977D01*
X128271015Y-71501564D01*
X126614954Y-73157625D01*
X126598806Y-73170563D01*
X126550646Y-73221847D01*
X126547940Y-73224640D01*
X126528374Y-73244207D01*
X126525899Y-73247398D01*
X126518317Y-73256275D01*
X126488306Y-73288234D01*
X126478606Y-73305877D01*
X126467928Y-73322133D01*
X126455592Y-73338036D01*
X126438185Y-73378262D01*
X126433047Y-73388750D01*
X126411927Y-73427166D01*
X126406919Y-73446670D01*
X126400619Y-73465069D01*
X126392625Y-73483542D01*
X126385769Y-73526831D01*
X126383401Y-73538267D01*
X126372500Y-73580728D01*
X126372500Y-73600859D01*
X126370973Y-73620258D01*
X126367825Y-73640131D01*
X126371950Y-73683770D01*
X126372500Y-73695439D01*
X126372500Y-87826719D01*
X126363061Y-87874172D01*
X126336181Y-87914400D01*
X123728400Y-90522181D01*
X123688172Y-90549061D01*
X123640719Y-90558500D01*
X123605348Y-90558500D01*
X123424103Y-90597023D01*
X123254822Y-90672392D01*
X123104910Y-90781309D01*
X122980922Y-90919012D01*
X122888273Y-91079486D01*
X122831013Y-91255714D01*
X122811644Y-91439999D01*
X122831013Y-91624285D01*
X122888273Y-91800513D01*
X122980922Y-91960987D01*
X123104910Y-92098690D01*
X123254822Y-92207607D01*
X123424103Y-92282976D01*
X123605348Y-92321500D01*
X123605351Y-92321500D01*
X123790649Y-92321500D01*
X123790652Y-92321500D01*
X123971896Y-92282976D01*
X123971897Y-92282975D01*
X123971899Y-92282975D01*
X124141178Y-92207607D01*
X124291088Y-92098691D01*
X124415077Y-91960987D01*
X124507726Y-91800513D01*
X124564987Y-91624284D01*
X124579641Y-91484852D01*
X124591041Y-91444434D01*
X124615278Y-91410139D01*
X127385044Y-88640373D01*
X127401190Y-88627439D01*
X127403159Y-88625341D01*
X127403162Y-88625340D01*
X127449383Y-88576118D01*
X127452001Y-88573416D01*
X127471623Y-88553796D01*
X127474100Y-88550601D01*
X127481681Y-88541724D01*
X127511693Y-88509767D01*
X127521392Y-88492122D01*
X127532071Y-88475864D01*
X127544408Y-88459962D01*
X127561817Y-88419728D01*
X127566954Y-88409245D01*
X127588072Y-88370834D01*
X127593080Y-88351326D01*
X127599374Y-88332942D01*
X127607373Y-88314459D01*
X127614230Y-88271157D01*
X127616595Y-88259739D01*
X127627500Y-88217272D01*
X127627500Y-88197141D01*
X127629027Y-88177742D01*
X127632175Y-88157867D01*
X127628050Y-88114230D01*
X127627500Y-88102561D01*
X127627500Y-78740000D01*
X128273178Y-78740000D01*
X128292424Y-78959978D01*
X128349579Y-79173281D01*
X128442898Y-79373406D01*
X128488258Y-79438187D01*
X129186446Y-78740001D01*
X129893553Y-78740001D01*
X130591740Y-79438186D01*
X130637100Y-79373408D01*
X130730420Y-79173281D01*
X130787575Y-78959978D01*
X130806821Y-78740000D01*
X130787575Y-78520021D01*
X130730421Y-78306720D01*
X130637098Y-78106589D01*
X130591740Y-78041811D01*
X129893553Y-78740000D01*
X129893553Y-78740001D01*
X129186446Y-78740001D01*
X129186446Y-78740000D01*
X128488258Y-78041811D01*
X128488258Y-78041812D01*
X128442900Y-78106589D01*
X128349578Y-78306719D01*
X128292424Y-78520021D01*
X128273178Y-78740000D01*
X127627500Y-78740000D01*
X127627500Y-73971281D01*
X127636939Y-73923828D01*
X127663819Y-73883600D01*
X127749456Y-73797963D01*
X128068714Y-73478703D01*
X128120137Y-73447805D01*
X128180052Y-73444665D01*
X128234427Y-73470020D01*
X128270534Y-73517935D01*
X128279920Y-73577193D01*
X128272676Y-73659998D01*
X128291929Y-73880065D01*
X128349106Y-74093451D01*
X128374954Y-74148882D01*
X128442466Y-74293662D01*
X128569174Y-74474620D01*
X128725380Y-74630826D01*
X128906338Y-74757534D01*
X129025748Y-74813215D01*
X129035189Y-74817618D01*
X129087365Y-74863375D01*
X129106784Y-74930000D01*
X129087365Y-74996625D01*
X129035189Y-75042382D01*
X128906338Y-75102466D01*
X128725379Y-75229174D01*
X128569174Y-75385379D01*
X128442466Y-75566338D01*
X128349106Y-75766548D01*
X128291929Y-75979934D01*
X128272676Y-76199999D01*
X128291929Y-76420065D01*
X128349060Y-76633281D01*
X128349106Y-76633450D01*
X128442466Y-76833662D01*
X128569174Y-77014620D01*
X128725380Y-77170826D01*
X128906338Y-77297534D01*
X128976173Y-77330098D01*
X129035780Y-77357894D01*
X129087956Y-77403651D01*
X129107375Y-77470276D01*
X129087956Y-77536901D01*
X129035780Y-77582658D01*
X128906589Y-77642900D01*
X128841812Y-77688258D01*
X128841811Y-77688258D01*
X129540000Y-78386446D01*
X129540001Y-78386446D01*
X130238187Y-77688258D01*
X130173406Y-77642898D01*
X130044219Y-77582658D01*
X129992043Y-77536901D01*
X129972623Y-77470276D01*
X129992043Y-77403651D01*
X130044219Y-77357894D01*
X130045407Y-77357340D01*
X130173662Y-77297534D01*
X130354620Y-77170826D01*
X130510826Y-77014620D01*
X130637534Y-76833662D01*
X130730894Y-76633450D01*
X130788070Y-76420068D01*
X130807323Y-76200000D01*
X130788070Y-75979932D01*
X130730894Y-75766550D01*
X130637534Y-75566339D01*
X130510826Y-75385380D01*
X130354620Y-75229174D01*
X130173662Y-75102466D01*
X130044811Y-75042382D01*
X129992635Y-74996625D01*
X129973216Y-74930000D01*
X129992635Y-74863375D01*
X130044811Y-74817618D01*
X130050027Y-74815185D01*
X130173662Y-74757534D01*
X130354620Y-74630826D01*
X130510826Y-74474620D01*
X130637534Y-74293662D01*
X130730894Y-74093450D01*
X130788070Y-73880068D01*
X130807323Y-73660000D01*
X130788070Y-73439932D01*
X130730894Y-73226550D01*
X130637534Y-73026339D01*
X130510826Y-72845380D01*
X130354620Y-72689174D01*
X130173662Y-72562466D01*
X130044811Y-72502382D01*
X129992635Y-72456625D01*
X129973216Y-72390000D01*
X129992635Y-72323375D01*
X130044811Y-72277618D01*
X130050027Y-72275185D01*
X130173662Y-72217534D01*
X130354620Y-72090826D01*
X130510826Y-71934620D01*
X130637534Y-71753662D01*
X130730894Y-71553450D01*
X130788070Y-71340068D01*
X130807323Y-71120000D01*
X130788070Y-70899932D01*
X130730894Y-70686550D01*
X130637534Y-70486339D01*
X130510826Y-70305380D01*
X130354620Y-70149174D01*
X130173662Y-70022466D01*
X130151773Y-70012259D01*
X130044811Y-69962382D01*
X129992635Y-69916625D01*
X129973216Y-69850000D01*
X129992635Y-69783375D01*
X130044811Y-69737618D01*
X130050027Y-69735185D01*
X130173662Y-69677534D01*
X130354620Y-69550826D01*
X130510826Y-69394620D01*
X130604825Y-69260374D01*
X130649142Y-69221511D01*
X130706399Y-69207500D01*
X132022719Y-69207500D01*
X132070172Y-69216939D01*
X132110400Y-69243819D01*
X135641624Y-72775043D01*
X135654562Y-72791192D01*
X135705845Y-72839350D01*
X135708643Y-72842062D01*
X135728204Y-72861623D01*
X135731385Y-72864090D01*
X135740282Y-72871688D01*
X135772230Y-72901691D01*
X135772232Y-72901692D01*
X135772233Y-72901693D01*
X135789878Y-72911393D01*
X135806135Y-72922072D01*
X135822038Y-72934408D01*
X135862262Y-72951814D01*
X135872743Y-72956948D01*
X135911166Y-72978072D01*
X135921720Y-72980781D01*
X135969838Y-73005271D01*
X136002989Y-73047891D01*
X136014884Y-73100559D01*
X136003267Y-73153290D01*
X135969106Y-73226550D01*
X135911929Y-73439934D01*
X135892676Y-73659999D01*
X135911929Y-73880066D01*
X135923109Y-73921790D01*
X135923109Y-73985977D01*
X135891015Y-74041564D01*
X132456954Y-77475625D01*
X132440806Y-77488563D01*
X132392646Y-77539847D01*
X132389940Y-77542640D01*
X132370374Y-77562207D01*
X132367899Y-77565398D01*
X132360317Y-77574275D01*
X132330306Y-77606234D01*
X132320606Y-77623877D01*
X132309928Y-77640133D01*
X132297592Y-77656036D01*
X132280185Y-77696262D01*
X132275047Y-77706750D01*
X132253927Y-77745166D01*
X132248919Y-77764670D01*
X132242619Y-77783069D01*
X132234625Y-77801542D01*
X132227769Y-77844831D01*
X132225401Y-77856267D01*
X132214500Y-77898728D01*
X132214500Y-77918859D01*
X132212973Y-77938258D01*
X132209825Y-77958131D01*
X132213950Y-78001770D01*
X132214500Y-78013439D01*
X132214500Y-98816500D01*
X132197887Y-98878500D01*
X132152500Y-98923887D01*
X132090500Y-98940500D01*
X115652966Y-98940500D01*
X115632398Y-98938229D01*
X115562082Y-98940439D01*
X115558188Y-98940500D01*
X115530524Y-98940500D01*
X115526515Y-98941006D01*
X115514884Y-98941921D01*
X115471057Y-98943298D01*
X115451720Y-98948916D01*
X115432680Y-98952859D01*
X115412709Y-98955383D01*
X115371951Y-98971519D01*
X115360905Y-98975301D01*
X115318806Y-98987532D01*
X115301480Y-98997779D01*
X115284012Y-99006336D01*
X115265295Y-99013746D01*
X115229825Y-99039516D01*
X115220067Y-99045927D01*
X115182344Y-99068237D01*
X115182342Y-99068238D01*
X115182343Y-99068238D01*
X115168107Y-99082473D01*
X115153319Y-99095103D01*
X115137033Y-99106936D01*
X115109091Y-99140711D01*
X115101230Y-99149349D01*
X113822400Y-100428181D01*
X113782172Y-100455061D01*
X113734719Y-100464500D01*
X113699348Y-100464500D01*
X113518103Y-100503023D01*
X113348822Y-100578392D01*
X113198910Y-100687309D01*
X113074922Y-100825012D01*
X112982273Y-100985486D01*
X112925013Y-101161714D01*
X112905644Y-101345999D01*
X104140500Y-101345999D01*
X104140500Y-97367869D01*
X107919500Y-97367869D01*
X107925909Y-97427483D01*
X107976204Y-97562331D01*
X108062454Y-97677546D01*
X108177669Y-97763796D01*
X108312517Y-97814091D01*
X108372127Y-97820500D01*
X110067872Y-97820499D01*
X110127483Y-97814091D01*
X110262331Y-97763796D01*
X110377546Y-97677546D01*
X110384052Y-97668854D01*
X110433304Y-97629699D01*
X110495433Y-97619757D01*
X110554444Y-97641590D01*
X110567264Y-97650567D01*
X110567265Y-97650567D01*
X110567266Y-97650568D01*
X110773504Y-97746739D01*
X110993308Y-97805635D01*
X111220000Y-97825468D01*
X111446692Y-97805635D01*
X111666496Y-97746739D01*
X111872734Y-97650568D01*
X112059139Y-97520047D01*
X112220047Y-97359139D01*
X112350568Y-97172734D01*
X112446739Y-96966496D01*
X112505635Y-96746692D01*
X112525468Y-96520000D01*
X112505635Y-96293308D01*
X112446739Y-96073504D01*
X112350568Y-95867266D01*
X112243014Y-95713662D01*
X112220046Y-95680859D01*
X112059140Y-95519953D01*
X111872735Y-95389432D01*
X111666497Y-95293261D01*
X111446689Y-95234364D01*
X111220000Y-95214531D01*
X110993310Y-95234364D01*
X110773502Y-95293261D01*
X110567266Y-95389432D01*
X110554441Y-95398412D01*
X110495432Y-95420242D01*
X110433304Y-95410301D01*
X110384054Y-95371146D01*
X110377548Y-95362456D01*
X110377546Y-95362455D01*
X110377546Y-95362454D01*
X110262331Y-95276204D01*
X110127483Y-95225909D01*
X110067873Y-95219500D01*
X110067869Y-95219500D01*
X108372130Y-95219500D01*
X108312515Y-95225909D01*
X108177669Y-95276204D01*
X108062454Y-95362454D01*
X107976204Y-95477668D01*
X107925909Y-95612516D01*
X107919500Y-95672130D01*
X107919500Y-97367869D01*
X104140500Y-97367869D01*
X104140500Y-93980000D01*
X128272676Y-93980000D01*
X128291929Y-94200065D01*
X128349106Y-94413451D01*
X128442465Y-94613661D01*
X128442466Y-94613662D01*
X128569174Y-94794620D01*
X128725380Y-94950826D01*
X128906338Y-95077534D01*
X129106550Y-95170894D01*
X129319932Y-95228070D01*
X129540000Y-95247323D01*
X129760068Y-95228070D01*
X129973450Y-95170894D01*
X130173662Y-95077534D01*
X130354620Y-94950826D01*
X130510826Y-94794620D01*
X130637534Y-94613662D01*
X130730894Y-94413450D01*
X130788070Y-94200068D01*
X130807323Y-93980000D01*
X130788070Y-93759932D01*
X130730894Y-93546550D01*
X130637534Y-93346339D01*
X130510826Y-93165380D01*
X130354620Y-93009174D01*
X130173662Y-92882466D01*
X130173661Y-92882465D01*
X130044811Y-92822381D01*
X129992635Y-92776624D01*
X129973216Y-92709998D01*
X129992636Y-92643373D01*
X130044810Y-92597618D01*
X130173662Y-92537534D01*
X130354620Y-92410826D01*
X130510826Y-92254620D01*
X130637534Y-92073662D01*
X130730894Y-91873450D01*
X130788070Y-91660068D01*
X130807323Y-91440000D01*
X130788070Y-91219932D01*
X130730894Y-91006550D01*
X130637534Y-90806339D01*
X130510826Y-90625380D01*
X130354620Y-90469174D01*
X130173662Y-90342466D01*
X130044811Y-90282382D01*
X129992635Y-90236625D01*
X129973216Y-90170000D01*
X129992635Y-90103375D01*
X130044811Y-90057618D01*
X130050027Y-90055185D01*
X130173662Y-89997534D01*
X130354620Y-89870826D01*
X130510826Y-89714620D01*
X130637534Y-89533662D01*
X130730894Y-89333450D01*
X130788070Y-89120068D01*
X130807323Y-88900000D01*
X130788070Y-88679932D01*
X130730894Y-88466550D01*
X130637534Y-88266339D01*
X130510826Y-88085380D01*
X130354620Y-87929174D01*
X130173662Y-87802466D01*
X130044811Y-87742382D01*
X129992635Y-87696625D01*
X129973216Y-87630000D01*
X129992635Y-87563375D01*
X130044811Y-87517618D01*
X130050027Y-87515185D01*
X130173662Y-87457534D01*
X130354620Y-87330826D01*
X130510826Y-87174620D01*
X130637534Y-86993662D01*
X130730894Y-86793450D01*
X130788070Y-86580068D01*
X130807323Y-86360000D01*
X130788070Y-86139932D01*
X130730894Y-85926550D01*
X130637534Y-85726339D01*
X130510826Y-85545380D01*
X130354620Y-85389174D01*
X130173662Y-85262466D01*
X130044811Y-85202382D01*
X129992635Y-85156625D01*
X129973216Y-85090000D01*
X129992635Y-85023375D01*
X130044811Y-84977618D01*
X130050027Y-84975185D01*
X130173662Y-84917534D01*
X130354620Y-84790826D01*
X130510826Y-84634620D01*
X130637534Y-84453662D01*
X130730894Y-84253450D01*
X130788070Y-84040068D01*
X130807323Y-83820000D01*
X130788070Y-83599932D01*
X130730894Y-83386550D01*
X130637534Y-83186339D01*
X130510826Y-83005380D01*
X130354620Y-82849174D01*
X130173662Y-82722466D01*
X130044811Y-82662382D01*
X129992635Y-82616625D01*
X129973216Y-82550000D01*
X129992635Y-82483375D01*
X130044811Y-82437618D01*
X130050027Y-82435185D01*
X130173662Y-82377534D01*
X130354620Y-82250826D01*
X130510826Y-82094620D01*
X130637534Y-81913662D01*
X130730894Y-81713450D01*
X130788070Y-81500068D01*
X130807323Y-81280000D01*
X130788070Y-81059932D01*
X130730894Y-80846550D01*
X130637534Y-80646339D01*
X130510826Y-80465380D01*
X130354620Y-80309174D01*
X130173662Y-80182466D01*
X130044218Y-80122105D01*
X129992042Y-80076348D01*
X129972623Y-80009722D01*
X129992043Y-79943097D01*
X130044220Y-79897340D01*
X130173411Y-79837098D01*
X130238187Y-79791740D01*
X129540001Y-79093553D01*
X129540000Y-79093553D01*
X128841812Y-79791740D01*
X128906592Y-79837100D01*
X129035780Y-79897341D01*
X129087956Y-79943097D01*
X129107376Y-80009722D01*
X129087957Y-80076347D01*
X129035782Y-80122105D01*
X128906336Y-80182467D01*
X128725379Y-80309174D01*
X128569174Y-80465379D01*
X128442466Y-80646338D01*
X128349106Y-80846548D01*
X128291929Y-81059934D01*
X128272676Y-81279999D01*
X128291929Y-81500065D01*
X128349106Y-81713451D01*
X128439593Y-81907500D01*
X128442466Y-81913662D01*
X128569174Y-82094620D01*
X128725380Y-82250826D01*
X128906338Y-82377534D01*
X129025748Y-82433215D01*
X129035189Y-82437618D01*
X129087365Y-82483375D01*
X129106784Y-82550000D01*
X129087365Y-82616625D01*
X129035189Y-82662382D01*
X128906338Y-82722466D01*
X128725379Y-82849174D01*
X128569174Y-83005379D01*
X128442466Y-83186338D01*
X128349106Y-83386548D01*
X128291929Y-83599934D01*
X128272676Y-83819999D01*
X128291929Y-84040065D01*
X128349106Y-84253451D01*
X128432043Y-84431309D01*
X128442466Y-84453662D01*
X128569174Y-84634620D01*
X128725380Y-84790826D01*
X128906338Y-84917534D01*
X129025748Y-84973215D01*
X129035189Y-84977618D01*
X129087365Y-85023375D01*
X129106784Y-85090000D01*
X129087365Y-85156625D01*
X129035189Y-85202382D01*
X128906338Y-85262466D01*
X128725379Y-85389174D01*
X128569174Y-85545379D01*
X128442466Y-85726338D01*
X128349106Y-85926548D01*
X128291929Y-86139934D01*
X128272676Y-86360000D01*
X128291929Y-86580065D01*
X128349106Y-86793451D01*
X128374954Y-86848882D01*
X128442466Y-86993662D01*
X128569174Y-87174620D01*
X128725380Y-87330826D01*
X128906338Y-87457534D01*
X129025748Y-87513215D01*
X129035189Y-87517618D01*
X129087365Y-87563375D01*
X129106784Y-87630000D01*
X129087365Y-87696625D01*
X129035189Y-87742382D01*
X128906338Y-87802466D01*
X128725379Y-87929174D01*
X128569174Y-88085379D01*
X128442466Y-88266338D01*
X128349106Y-88466548D01*
X128291929Y-88679934D01*
X128272676Y-88899999D01*
X128291929Y-89120065D01*
X128349106Y-89333451D01*
X128442465Y-89533661D01*
X128442466Y-89533662D01*
X128569174Y-89714620D01*
X128725380Y-89870826D01*
X128906338Y-89997534D01*
X129025748Y-90053215D01*
X129035189Y-90057618D01*
X129087365Y-90103375D01*
X129106784Y-90170000D01*
X129087365Y-90236625D01*
X129035189Y-90282382D01*
X128906338Y-90342466D01*
X128725379Y-90469174D01*
X128569174Y-90625379D01*
X128442466Y-90806338D01*
X128349106Y-91006548D01*
X128291929Y-91219934D01*
X128272676Y-91440000D01*
X128291929Y-91660065D01*
X128349106Y-91873451D01*
X128442465Y-92073661D01*
X128442466Y-92073662D01*
X128569174Y-92254620D01*
X128725380Y-92410826D01*
X128906338Y-92537534D01*
X129025748Y-92593215D01*
X129035189Y-92597618D01*
X129087365Y-92643375D01*
X129106784Y-92710000D01*
X129087365Y-92776625D01*
X129035189Y-92822382D01*
X128906338Y-92882466D01*
X128725379Y-93009174D01*
X128569174Y-93165379D01*
X128442466Y-93346338D01*
X128349106Y-93546548D01*
X128291929Y-93759934D01*
X128272676Y-93980000D01*
X104140500Y-93980000D01*
X104140500Y-88899999D01*
X119144356Y-88899999D01*
X119164891Y-89147816D01*
X119164891Y-89147819D01*
X119164892Y-89147821D01*
X119225937Y-89388881D01*
X119270960Y-89491523D01*
X119325825Y-89616604D01*
X119325827Y-89616607D01*
X119461836Y-89824785D01*
X119630256Y-90007738D01*
X119630259Y-90007740D01*
X119826485Y-90160470D01*
X119826487Y-90160471D01*
X119826491Y-90160474D01*
X120045190Y-90278828D01*
X120280386Y-90359571D01*
X120525665Y-90400500D01*
X120774335Y-90400500D01*
X121019614Y-90359571D01*
X121254810Y-90278828D01*
X121473509Y-90160474D01*
X121669744Y-90007738D01*
X121838164Y-89824785D01*
X121974173Y-89616607D01*
X122074063Y-89388881D01*
X122135108Y-89147821D01*
X122155643Y-88900000D01*
X122135108Y-88652179D01*
X122074063Y-88411119D01*
X121974173Y-88183393D01*
X121838164Y-87975215D01*
X121669744Y-87792262D01*
X121647612Y-87775036D01*
X121473514Y-87639529D01*
X121473510Y-87639526D01*
X121473509Y-87639526D01*
X121254810Y-87521172D01*
X121254806Y-87521170D01*
X121254805Y-87521170D01*
X121019615Y-87440429D01*
X120774335Y-87399500D01*
X120525665Y-87399500D01*
X120280384Y-87440429D01*
X120045194Y-87521170D01*
X119826485Y-87639529D01*
X119630259Y-87792259D01*
X119630256Y-87792261D01*
X119630256Y-87792262D01*
X119598536Y-87826719D01*
X119461837Y-87975214D01*
X119325825Y-88183395D01*
X119243608Y-88370834D01*
X119225937Y-88411119D01*
X119190611Y-88550617D01*
X119164891Y-88652183D01*
X119144356Y-88899999D01*
X104140500Y-88899999D01*
X104140500Y-86360000D01*
X122954356Y-86360000D01*
X122974891Y-86607816D01*
X122974891Y-86607819D01*
X122974892Y-86607821D01*
X123035937Y-86848881D01*
X123080960Y-86951523D01*
X123135825Y-87076604D01*
X123135827Y-87076607D01*
X123271836Y-87284785D01*
X123440256Y-87467738D01*
X123440259Y-87467740D01*
X123636485Y-87620470D01*
X123636487Y-87620471D01*
X123636491Y-87620474D01*
X123855190Y-87738828D01*
X124090386Y-87819571D01*
X124335665Y-87860500D01*
X124584335Y-87860500D01*
X124829614Y-87819571D01*
X125064810Y-87738828D01*
X125283509Y-87620474D01*
X125479744Y-87467738D01*
X125648164Y-87284785D01*
X125784173Y-87076607D01*
X125884063Y-86848881D01*
X125945108Y-86607821D01*
X125965643Y-86360000D01*
X125945108Y-86112179D01*
X125884063Y-85871119D01*
X125784173Y-85643393D01*
X125648164Y-85435215D01*
X125479744Y-85252262D01*
X125457612Y-85235036D01*
X125283514Y-85099529D01*
X125283510Y-85099526D01*
X125283509Y-85099526D01*
X125064810Y-84981172D01*
X125064806Y-84981170D01*
X125064805Y-84981170D01*
X124829615Y-84900429D01*
X124584335Y-84859500D01*
X124335665Y-84859500D01*
X124090384Y-84900429D01*
X123855194Y-84981170D01*
X123636485Y-85099529D01*
X123440259Y-85252259D01*
X123440256Y-85252261D01*
X123440256Y-85252262D01*
X123271836Y-85435215D01*
X123226499Y-85504607D01*
X123135825Y-85643395D01*
X123045780Y-85848678D01*
X123035937Y-85871119D01*
X123021900Y-85926550D01*
X122974891Y-86112183D01*
X122954356Y-86360000D01*
X104140500Y-86360000D01*
X104140500Y-81100000D01*
X116854722Y-81100000D01*
X116873792Y-81317974D01*
X116873793Y-81317977D01*
X116930425Y-81529330D01*
X117022898Y-81727639D01*
X117148402Y-81906877D01*
X117303123Y-82061598D01*
X117482361Y-82187102D01*
X117680670Y-82279575D01*
X117892023Y-82336207D01*
X118110000Y-82355277D01*
X118327977Y-82336207D01*
X118539330Y-82279575D01*
X118737639Y-82187102D01*
X118916877Y-82061598D01*
X119071598Y-81906877D01*
X119197102Y-81727639D01*
X119289575Y-81529330D01*
X119346207Y-81317977D01*
X119365277Y-81100000D01*
X119346207Y-80882023D01*
X119289575Y-80670670D01*
X119197102Y-80472362D01*
X119071598Y-80293123D01*
X118916877Y-80138402D01*
X118737639Y-80012898D01*
X118646205Y-79970261D01*
X118539331Y-79920425D01*
X118327974Y-79863792D01*
X118110000Y-79844722D01*
X117892025Y-79863792D01*
X117680668Y-79920425D01*
X117482361Y-80012898D01*
X117303122Y-80138402D01*
X117148402Y-80293122D01*
X117022898Y-80472361D01*
X116930425Y-80670668D01*
X116873792Y-80882025D01*
X116854722Y-81100000D01*
X104140500Y-81100000D01*
X104140500Y-76200000D01*
X116854722Y-76200000D01*
X116873792Y-76417974D01*
X116930425Y-76629331D01*
X116980261Y-76736205D01*
X117022898Y-76827639D01*
X117148402Y-77006877D01*
X117303123Y-77161598D01*
X117482361Y-77287102D01*
X117680670Y-77379575D01*
X117892023Y-77436207D01*
X118110000Y-77455277D01*
X118327977Y-77436207D01*
X118539330Y-77379575D01*
X118737639Y-77287102D01*
X118916877Y-77161598D01*
X119071598Y-77006877D01*
X119197102Y-76827639D01*
X119289575Y-76629330D01*
X119346207Y-76417977D01*
X119365277Y-76200000D01*
X119346207Y-75982023D01*
X119289575Y-75770670D01*
X119197102Y-75572362D01*
X119071598Y-75393123D01*
X118916877Y-75238402D01*
X118737639Y-75112898D01*
X118587009Y-75042658D01*
X118539331Y-75020425D01*
X118327974Y-74963792D01*
X118109999Y-74944722D01*
X117892025Y-74963792D01*
X117680668Y-75020425D01*
X117482361Y-75112898D01*
X117303122Y-75238402D01*
X117148402Y-75393122D01*
X117022898Y-75572361D01*
X116930425Y-75770668D01*
X116873792Y-75982025D01*
X116854722Y-76200000D01*
X104140500Y-76200000D01*
X104140500Y-73660000D01*
X122954356Y-73660000D01*
X122974891Y-73907816D01*
X122974891Y-73907819D01*
X122974892Y-73907821D01*
X123035937Y-74148881D01*
X123056035Y-74194699D01*
X123135825Y-74376604D01*
X123135827Y-74376607D01*
X123271836Y-74584785D01*
X123440256Y-74767738D01*
X123440259Y-74767740D01*
X123636485Y-74920470D01*
X123636487Y-74920471D01*
X123636491Y-74920474D01*
X123855190Y-75038828D01*
X124090386Y-75119571D01*
X124335665Y-75160500D01*
X124584335Y-75160500D01*
X124829614Y-75119571D01*
X125064810Y-75038828D01*
X125283509Y-74920474D01*
X125479744Y-74767738D01*
X125648164Y-74584785D01*
X125784173Y-74376607D01*
X125884063Y-74148881D01*
X125945108Y-73907821D01*
X125965643Y-73660000D01*
X125945108Y-73412179D01*
X125884063Y-73171119D01*
X125784173Y-72943393D01*
X125648164Y-72735215D01*
X125479744Y-72552262D01*
X125441944Y-72522841D01*
X125283514Y-72399529D01*
X125283510Y-72399526D01*
X125283509Y-72399526D01*
X125064810Y-72281172D01*
X125064806Y-72281170D01*
X125064805Y-72281170D01*
X124829615Y-72200429D01*
X124584335Y-72159500D01*
X124335665Y-72159500D01*
X124090384Y-72200429D01*
X123855194Y-72281170D01*
X123636485Y-72399529D01*
X123440259Y-72552259D01*
X123440256Y-72552261D01*
X123440256Y-72552262D01*
X123271836Y-72735215D01*
X123226499Y-72804607D01*
X123135825Y-72943395D01*
X123045780Y-73148678D01*
X123035937Y-73171119D01*
X122999647Y-73314426D01*
X122974891Y-73412183D01*
X122954356Y-73660000D01*
X104140500Y-73660000D01*
X104140500Y-66039999D01*
X122954356Y-66039999D01*
X122974891Y-66287816D01*
X122974891Y-66287819D01*
X122974892Y-66287821D01*
X123035937Y-66528881D01*
X123069449Y-66605281D01*
X123135825Y-66756604D01*
X123135827Y-66756607D01*
X123271836Y-66964785D01*
X123440256Y-67147738D01*
X123440259Y-67147740D01*
X123636485Y-67300470D01*
X123636487Y-67300471D01*
X123636491Y-67300474D01*
X123855190Y-67418828D01*
X124090386Y-67499571D01*
X124335665Y-67540500D01*
X124584335Y-67540500D01*
X124829614Y-67499571D01*
X125064810Y-67418828D01*
X125283509Y-67300474D01*
X125479744Y-67147738D01*
X125648164Y-66964785D01*
X125784173Y-66756607D01*
X125884063Y-66528881D01*
X125945108Y-66287821D01*
X125965643Y-66040000D01*
X125945108Y-65792179D01*
X125884063Y-65551119D01*
X125784173Y-65323393D01*
X125648164Y-65115215D01*
X125479744Y-64932262D01*
X125443081Y-64903726D01*
X125283514Y-64779529D01*
X125283510Y-64779526D01*
X125283509Y-64779526D01*
X125064810Y-64661172D01*
X125064806Y-64661170D01*
X125064805Y-64661170D01*
X124829615Y-64580429D01*
X124584335Y-64539500D01*
X124335665Y-64539500D01*
X124090384Y-64580429D01*
X123855194Y-64661170D01*
X123636485Y-64779529D01*
X123440259Y-64932259D01*
X123440256Y-64932261D01*
X123440256Y-64932262D01*
X123376511Y-65001508D01*
X123271837Y-65115214D01*
X123135825Y-65323395D01*
X123099443Y-65406339D01*
X123035937Y-65551119D01*
X123021900Y-65606550D01*
X122974891Y-65792183D01*
X122954356Y-66039999D01*
X104140500Y-66039999D01*
X104140500Y-63500000D01*
X119652356Y-63500000D01*
X119672891Y-63747816D01*
X119672891Y-63747819D01*
X119672892Y-63747821D01*
X119733937Y-63988881D01*
X119743556Y-64010809D01*
X119833825Y-64216604D01*
X119833827Y-64216607D01*
X119969836Y-64424785D01*
X120138256Y-64607738D01*
X120138259Y-64607740D01*
X120334485Y-64760470D01*
X120334487Y-64760471D01*
X120334491Y-64760474D01*
X120553190Y-64878828D01*
X120788386Y-64959571D01*
X121033665Y-65000500D01*
X121282335Y-65000500D01*
X121527614Y-64959571D01*
X121762810Y-64878828D01*
X121981509Y-64760474D01*
X122177744Y-64607738D01*
X122346164Y-64424785D01*
X122482173Y-64216607D01*
X122582063Y-63988881D01*
X122643108Y-63747821D01*
X122663643Y-63500000D01*
X122643108Y-63252179D01*
X122582063Y-63011119D01*
X122482173Y-62783393D01*
X122346164Y-62575215D01*
X122177744Y-62392262D01*
X122155612Y-62375036D01*
X121981514Y-62239529D01*
X121981510Y-62239526D01*
X121981509Y-62239526D01*
X121762810Y-62121172D01*
X121762806Y-62121170D01*
X121762805Y-62121170D01*
X121527615Y-62040429D01*
X121282335Y-61999500D01*
X121033665Y-61999500D01*
X120788384Y-62040429D01*
X120553194Y-62121170D01*
X120553190Y-62121171D01*
X120553190Y-62121172D01*
X120539788Y-62128425D01*
X120334485Y-62239529D01*
X120138259Y-62392259D01*
X120138256Y-62392261D01*
X120138256Y-62392262D01*
X120074511Y-62461508D01*
X119969837Y-62575214D01*
X119833825Y-62783395D01*
X119797443Y-62866339D01*
X119733937Y-63011119D01*
X119719900Y-63066550D01*
X119672891Y-63252183D01*
X119652356Y-63500000D01*
X104140500Y-63500000D01*
X104140500Y-58419999D01*
X150514842Y-58419999D01*
X150535430Y-58655318D01*
X150596569Y-58883492D01*
X150696400Y-59097580D01*
X150755073Y-59181373D01*
X151516447Y-58420001D01*
X152223553Y-58420001D01*
X152984925Y-59181373D01*
X153043600Y-59097576D01*
X153143430Y-58883492D01*
X153204569Y-58655318D01*
X153225157Y-58419999D01*
X153204569Y-58184681D01*
X153143430Y-57956507D01*
X153043599Y-57742421D01*
X152984926Y-57658626D01*
X152984925Y-57658625D01*
X152223553Y-58420000D01*
X152223553Y-58420001D01*
X151516447Y-58420001D01*
X151516447Y-58420000D01*
X150755072Y-57658625D01*
X150696399Y-57742422D01*
X150596569Y-57956507D01*
X150535430Y-58184681D01*
X150514842Y-58419999D01*
X104140500Y-58419999D01*
X104140500Y-55879999D01*
X150514340Y-55879999D01*
X150534936Y-56115407D01*
X150579709Y-56282502D01*
X150596097Y-56343663D01*
X150695965Y-56557830D01*
X150831505Y-56751401D01*
X150998599Y-56918495D01*
X151184597Y-57048732D01*
X151223460Y-57093048D01*
X151237471Y-57150306D01*
X151223460Y-57207563D01*
X151184594Y-57251881D01*
X151108626Y-57305073D01*
X151870000Y-58066447D01*
X151870001Y-58066447D01*
X152631373Y-57305073D01*
X152631373Y-57305072D01*
X152555405Y-57251880D01*
X152516539Y-57207562D01*
X152502528Y-57150305D01*
X152516539Y-57093048D01*
X152555402Y-57048732D01*
X152741401Y-56918495D01*
X152908495Y-56751401D01*
X153044035Y-56557830D01*
X153143903Y-56343663D01*
X153205063Y-56115408D01*
X153225659Y-55880000D01*
X153205063Y-55644592D01*
X153143903Y-55416337D01*
X153044035Y-55202171D01*
X152908495Y-55008599D01*
X152741401Y-54841505D01*
X152555839Y-54711573D01*
X152516974Y-54667255D01*
X152502964Y-54609999D01*
X152516975Y-54552742D01*
X152555837Y-54508428D01*
X152741401Y-54378495D01*
X152908495Y-54211401D01*
X153044035Y-54017830D01*
X153143903Y-53803663D01*
X153205063Y-53575408D01*
X153225659Y-53340000D01*
X153205063Y-53104592D01*
X153143903Y-52876337D01*
X153044035Y-52662171D01*
X152908495Y-52468599D01*
X152741401Y-52301505D01*
X152547830Y-52165965D01*
X152333663Y-52066097D01*
X152272502Y-52049709D01*
X152105407Y-52004936D01*
X151870000Y-51984340D01*
X151634592Y-52004936D01*
X151406336Y-52066097D01*
X151192170Y-52165965D01*
X150998598Y-52301505D01*
X150831505Y-52468598D01*
X150695965Y-52662170D01*
X150596097Y-52876336D01*
X150534936Y-53104592D01*
X150514340Y-53340000D01*
X150534936Y-53575407D01*
X150579709Y-53742502D01*
X150596097Y-53803663D01*
X150695965Y-54017830D01*
X150831505Y-54211401D01*
X150998599Y-54378495D01*
X151184160Y-54508426D01*
X151223024Y-54552743D01*
X151237035Y-54610000D01*
X151223024Y-54667257D01*
X151184159Y-54711575D01*
X150998595Y-54841508D01*
X150831505Y-55008598D01*
X150695965Y-55202170D01*
X150596097Y-55416336D01*
X150534936Y-55644592D01*
X150514340Y-55879999D01*
X104140500Y-55879999D01*
X104140500Y-39247869D01*
X116509500Y-39247869D01*
X116515897Y-39307375D01*
X116515909Y-39307483D01*
X116566204Y-39442331D01*
X116652454Y-39557546D01*
X116767669Y-39643796D01*
X116902517Y-39694091D01*
X116962127Y-39700500D01*
X119257872Y-39700499D01*
X119317483Y-39694091D01*
X119452331Y-39643796D01*
X119567546Y-39557546D01*
X119653796Y-39442331D01*
X119704091Y-39307483D01*
X119710500Y-39247873D01*
X119710499Y-38100000D01*
X121534396Y-38100000D01*
X121554779Y-38358995D01*
X121615426Y-38611610D01*
X121675430Y-38756470D01*
X121714846Y-38851628D01*
X121850406Y-39072843D01*
X121850590Y-39073143D01*
X121917567Y-39151563D01*
X122019311Y-39270689D01*
X122158787Y-39389813D01*
X122216384Y-39439006D01*
X122216860Y-39439412D01*
X122438372Y-39575154D01*
X122603016Y-39643352D01*
X122678389Y-39674573D01*
X122757630Y-39693597D01*
X122931006Y-39735221D01*
X123190000Y-39755604D01*
X123448994Y-39735221D01*
X123701610Y-39674573D01*
X123941628Y-39575154D01*
X124163140Y-39439412D01*
X124360689Y-39270689D01*
X124529412Y-39073140D01*
X124665154Y-38851628D01*
X124764573Y-38611610D01*
X124825221Y-38358994D01*
X124825929Y-38350000D01*
X168580000Y-38350000D01*
X168580000Y-39247824D01*
X168586402Y-39307375D01*
X168636647Y-39442089D01*
X168722811Y-39557188D01*
X168837910Y-39643352D01*
X168972624Y-39693597D01*
X169032176Y-39700000D01*
X169930000Y-39700000D01*
X169930000Y-38350000D01*
X170430000Y-38350000D01*
X170430000Y-39700000D01*
X171327824Y-39700000D01*
X171387375Y-39693597D01*
X171522089Y-39643352D01*
X171637188Y-39557188D01*
X171723352Y-39442089D01*
X171726668Y-39433198D01*
X174280354Y-39433198D01*
X174287155Y-39439006D01*
X174508597Y-39574705D01*
X174748544Y-39674096D01*
X175001083Y-39734724D01*
X175260000Y-39755101D01*
X175518916Y-39734724D01*
X175771455Y-39674096D01*
X176011397Y-39574707D01*
X176232849Y-39439003D01*
X176239645Y-39433198D01*
X175260000Y-38453553D01*
X174280354Y-39433198D01*
X171726668Y-39433198D01*
X171773597Y-39307375D01*
X171780000Y-39247824D01*
X171780000Y-38350000D01*
X170430000Y-38350000D01*
X169930000Y-38350000D01*
X168580000Y-38350000D01*
X124825929Y-38350000D01*
X124845604Y-38100000D01*
X124845604Y-38099999D01*
X173604898Y-38099999D01*
X173625275Y-38358916D01*
X173685903Y-38611455D01*
X173785294Y-38851402D01*
X173920993Y-39072843D01*
X173926801Y-39079644D01*
X174906447Y-38100001D01*
X174906447Y-38100000D01*
X175613553Y-38100000D01*
X176593198Y-39079645D01*
X176599003Y-39072849D01*
X176734707Y-38851397D01*
X176834096Y-38611455D01*
X176894724Y-38358916D01*
X176915101Y-38099999D01*
X176894724Y-37841083D01*
X176834096Y-37588544D01*
X176734705Y-37348597D01*
X176599006Y-37127155D01*
X176593198Y-37120354D01*
X175613553Y-38100000D01*
X174906447Y-38100000D01*
X173926801Y-37120354D01*
X173920992Y-37127156D01*
X173785294Y-37348597D01*
X173685903Y-37588544D01*
X173625275Y-37841083D01*
X173604898Y-38099999D01*
X124845604Y-38099999D01*
X124825929Y-37850000D01*
X168580000Y-37850000D01*
X169930000Y-37850000D01*
X169930000Y-36500000D01*
X170430000Y-36500000D01*
X170430000Y-37850000D01*
X171780000Y-37850000D01*
X171780000Y-36952176D01*
X171773597Y-36892624D01*
X171726668Y-36766801D01*
X174280354Y-36766801D01*
X175260000Y-37746447D01*
X175260001Y-37746447D01*
X176239645Y-36766801D01*
X176232843Y-36760993D01*
X176011402Y-36625294D01*
X175771455Y-36525903D01*
X175518916Y-36465275D01*
X175260000Y-36444898D01*
X175001083Y-36465275D01*
X174748544Y-36525903D01*
X174508597Y-36625294D01*
X174287156Y-36760992D01*
X174280354Y-36766801D01*
X171726668Y-36766801D01*
X171723352Y-36757910D01*
X171637188Y-36642811D01*
X171522089Y-36556647D01*
X171387375Y-36506402D01*
X171327824Y-36500000D01*
X170430000Y-36500000D01*
X169930000Y-36500000D01*
X169032176Y-36500000D01*
X168972624Y-36506402D01*
X168837910Y-36556647D01*
X168722811Y-36642811D01*
X168636647Y-36757910D01*
X168586402Y-36892624D01*
X168580000Y-36952176D01*
X168580000Y-37850000D01*
X124825929Y-37850000D01*
X124825221Y-37841006D01*
X124764573Y-37588390D01*
X124665154Y-37348372D01*
X124529412Y-37126860D01*
X124523855Y-37120354D01*
X124479813Y-37068787D01*
X124360689Y-36929311D01*
X124241563Y-36827567D01*
X124163143Y-36760590D01*
X124158770Y-36757910D01*
X123941628Y-36624846D01*
X123846470Y-36585430D01*
X123701610Y-36525426D01*
X123448995Y-36464779D01*
X123190000Y-36444396D01*
X122931004Y-36464779D01*
X122678389Y-36525426D01*
X122473524Y-36610285D01*
X122438372Y-36624846D01*
X122294359Y-36713096D01*
X122216856Y-36760590D01*
X122019311Y-36929311D01*
X121850590Y-37126856D01*
X121803096Y-37204359D01*
X121714846Y-37348372D01*
X121714845Y-37348375D01*
X121615426Y-37588389D01*
X121554779Y-37841004D01*
X121534396Y-38100000D01*
X119710499Y-38100000D01*
X119710499Y-36952128D01*
X119704091Y-36892517D01*
X119653796Y-36757669D01*
X119567546Y-36642454D01*
X119452331Y-36556204D01*
X119317483Y-36505909D01*
X119257873Y-36499500D01*
X119257869Y-36499500D01*
X116962130Y-36499500D01*
X116902515Y-36505909D01*
X116767669Y-36556204D01*
X116652454Y-36642454D01*
X116566204Y-36757668D01*
X116515909Y-36892516D01*
X116509500Y-36952130D01*
X116509500Y-39247869D01*
X104140500Y-39247869D01*
X104140500Y-33019999D01*
X107436512Y-33019999D01*
X107456432Y-33285813D01*
X107515748Y-33545694D01*
X107613133Y-33793824D01*
X107744466Y-34021301D01*
X107746414Y-34024674D01*
X107912612Y-34233079D01*
X108108014Y-34414386D01*
X108328257Y-34564545D01*
X108568419Y-34680201D01*
X108804214Y-34752934D01*
X108823137Y-34758771D01*
X109086719Y-34798500D01*
X109086720Y-34798500D01*
X109353280Y-34798500D01*
X109353281Y-34798500D01*
X109485071Y-34778635D01*
X109616863Y-34758771D01*
X109871581Y-34680201D01*
X110111744Y-34564545D01*
X110331986Y-34414386D01*
X110527388Y-34233079D01*
X110693586Y-34024674D01*
X110826866Y-33793826D01*
X110924252Y-33545692D01*
X110983567Y-33285815D01*
X111003487Y-33020000D01*
X180588512Y-33020000D01*
X180608432Y-33285813D01*
X180667748Y-33545694D01*
X180765133Y-33793824D01*
X180896466Y-34021301D01*
X180898414Y-34024674D01*
X181064612Y-34233079D01*
X181260014Y-34414386D01*
X181480257Y-34564545D01*
X181720419Y-34680201D01*
X181956214Y-34752934D01*
X181975137Y-34758771D01*
X182238719Y-34798500D01*
X182238720Y-34798500D01*
X182505280Y-34798500D01*
X182505281Y-34798500D01*
X182637071Y-34778635D01*
X182768863Y-34758771D01*
X183023581Y-34680201D01*
X183263744Y-34564545D01*
X183483986Y-34414386D01*
X183679388Y-34233079D01*
X183845586Y-34024674D01*
X183978866Y-33793826D01*
X184076252Y-33545692D01*
X184135567Y-33285815D01*
X184155487Y-33020000D01*
X184135567Y-32754185D01*
X184076252Y-32494308D01*
X183978866Y-32246174D01*
X183845586Y-32015326D01*
X183679388Y-31806921D01*
X183679387Y-31806920D01*
X183483988Y-31625615D01*
X183380331Y-31554943D01*
X183263744Y-31475455D01*
X183263741Y-31475454D01*
X183263739Y-31475452D01*
X183023583Y-31359800D01*
X183023581Y-31359799D01*
X182932779Y-31331790D01*
X182768862Y-31281228D01*
X182505281Y-31241500D01*
X182505280Y-31241500D01*
X182238720Y-31241500D01*
X182238719Y-31241500D01*
X181975137Y-31281228D01*
X181720419Y-31359799D01*
X181480256Y-31475455D01*
X181260014Y-31625613D01*
X181064612Y-31806920D01*
X180898413Y-32015326D01*
X180765133Y-32246175D01*
X180667748Y-32494305D01*
X180608432Y-32754186D01*
X180588512Y-33020000D01*
X111003487Y-33020000D01*
X110983567Y-32754185D01*
X110924252Y-32494308D01*
X110826866Y-32246174D01*
X110693586Y-32015326D01*
X110527388Y-31806921D01*
X110527387Y-31806920D01*
X110331988Y-31625615D01*
X110228331Y-31554943D01*
X110111744Y-31475455D01*
X110111741Y-31475454D01*
X110111739Y-31475452D01*
X109871583Y-31359800D01*
X109871581Y-31359799D01*
X109780779Y-31331790D01*
X109616862Y-31281228D01*
X109353281Y-31241500D01*
X109353280Y-31241500D01*
X109086720Y-31241500D01*
X109086719Y-31241500D01*
X108823137Y-31281228D01*
X108568419Y-31359799D01*
X108328256Y-31475455D01*
X108108014Y-31625613D01*
X107912612Y-31806920D01*
X107746413Y-32015326D01*
X107613133Y-32246175D01*
X107515748Y-32494305D01*
X107456432Y-32754186D01*
X107436512Y-33019999D01*
X104140500Y-33019999D01*
X104140500Y-28064500D01*
X104157113Y-28002500D01*
X104202500Y-27957113D01*
X104264500Y-27940500D01*
X187835500Y-27940500D01*
X187897500Y-27957113D01*
G37*
G04 #@! TD.AperFunction*
M02*
