M48
INCH,TZ
T1C0.0157
T2C0.0197
T3C0.0300
T4C0.0315
T5C0.0394
T6C0.0512
T7C0.1319
%
G90
G05
T1
X56000Y-31000
T2
X73000Y-46000
X73394Y-46000
X73787Y-46000
X74181Y-46000
T3
X60000Y-19000
X60000Y-20000
X60000Y-21000
X60000Y-22000
X60000Y-23000
X60000Y-24000
X60000Y-25000
X60000Y-26000
X60000Y-27000
X60000Y-28000
X60000Y-29000
X60000Y-30000
X60000Y-31000
X60000Y-32000
X63000Y-19000
X63000Y-20000
X63000Y-21000
X63000Y-22000
X63000Y-23000
X63000Y-24000
X63000Y-25000
X63000Y-26000
X63000Y-27000
X63000Y-28000
X63000Y-29000
X63000Y-30000
X63000Y-31000
X63000Y-32000
T4
X55000Y-26000
X55000Y-27929
T5
X57000Y-20000
X57248Y-42000
X57748Y-41000
X58000Y-21000
X58000Y-24000
X58000Y-29000
X58000Y-31000
X58000Y-33000
X58248Y-42000
X58748Y-41000
X60000Y-34000
X63000Y-34000
X64000Y-38000
X65000Y-21000
X65000Y-23000
X66000Y-22000
X66291Y-30500
X66291Y-31500
X66291Y-32500
X66291Y-33500
X66291Y-34500
X66291Y-35500
X66291Y-36500
X66291Y-37500
X68000Y-24000
X68000Y-27000
X70498Y-19500
X70498Y-20500
X70498Y-21500
X70498Y-22500
X70498Y-23500
X70498Y-24500
X70498Y-25500
X70498Y-26500
T6
X55000Y-12000
X57000Y-12000
X70000Y-12000
X72000Y-12000
T7
X56000Y-44500
X60000Y-44500
T0
M30
