%TF.GenerationSoftware,KiCad,Pcbnew,7.0.1*%
%TF.CreationDate,2023-05-15T23:15:40-04:00*%
%TF.ProjectId,weather_station,77656174-6865-4725-9f73-746174696f6e,rev?*%
%TF.SameCoordinates,Original*%
%TF.FileFunction,Soldermask,Top*%
%TF.FilePolarity,Negative*%
%FSLAX46Y46*%
G04 Gerber Fmt 4.6, Leading zero omitted, Abs format (unit mm)*
G04 Created by KiCad (PCBNEW 7.0.1) date 2023-05-15 23:15:40*
%MOMM*%
%LPD*%
G01*
G04 APERTURE LIST*
G04 Aperture macros list*
%AMRoundRect*
0 Rectangle with rounded corners*
0 $1 Rounding radius*
0 $2 $3 $4 $5 $6 $7 $8 $9 X,Y pos of 4 corners*
0 Add a 4 corners polygon primitive as box body*
4,1,4,$2,$3,$4,$5,$6,$7,$8,$9,$2,$3,0*
0 Add four circle primitives for the rounded corners*
1,1,$1+$1,$2,$3*
1,1,$1+$1,$4,$5*
1,1,$1+$1,$6,$7*
1,1,$1+$1,$8,$9*
0 Add four rect primitives between the rounded corners*
20,1,$1+$1,$2,$3,$4,$5,0*
20,1,$1+$1,$4,$5,$6,$7,0*
20,1,$1+$1,$6,$7,$8,$9,0*
20,1,$1+$1,$8,$9,$2,$3,0*%
G04 Aperture macros list end*
%ADD10C,0.100000*%
%ADD11RoundRect,0.250000X0.400000X0.625000X-0.400000X0.625000X-0.400000X-0.625000X0.400000X-0.625000X0*%
%ADD12C,0.800000*%
%ADD13R,1.250000X1.000000*%
%ADD14C,2.000000*%
%ADD15RoundRect,0.250000X0.625000X-0.400000X0.625000X0.400000X-0.625000X0.400000X-0.625000X-0.400000X0*%
%ADD16RoundRect,0.250000X0.300000X-0.300000X0.300000X0.300000X-0.300000X0.300000X-0.300000X-0.300000X0*%
%ADD17C,1.524000*%
%ADD18R,1.100000X1.500000*%
%ADD19RoundRect,0.250000X0.412500X0.650000X-0.412500X0.650000X-0.412500X-0.650000X0.412500X-0.650000X0*%
%ADD20RoundRect,0.250000X-1.075000X-0.550000X1.075000X-0.550000X1.075000X0.550000X-1.075000X0.550000X0*%
%ADD21C,1.500000*%
%ADD22R,1.700000X1.700000*%
%ADD23C,1.700000*%
%ADD24O,1.700000X1.700000*%
%ADD25C,3.350000*%
%ADD26R,2.200000X2.200000*%
%ADD27C,2.300000*%
G04 APERTURE END LIST*
D10*
%TO.C,On/Off1*%
X156710000Y-34080000D02*
X153170000Y-34080000D01*
X153170000Y-34080000D02*
X153170000Y-26880000D01*
X153170000Y-26880000D02*
X156710000Y-26880000D01*
X156710000Y-26880000D02*
X156710000Y-34080000D01*
%TD*%
D11*
%TO.C,R2*%
X142800000Y-99060000D03*
X139700000Y-99060000D03*
%TD*%
D12*
%TO.C,J6*%
X185420000Y-116840000D03*
X186420000Y-116840000D03*
X187420000Y-116840000D03*
X188420000Y-116840000D03*
%TD*%
D13*
%TO.C,SW1*%
X160020000Y-40640000D03*
X152270000Y-40640000D03*
%TD*%
D14*
%TO.C,J11*%
X147320000Y-78740000D03*
%TD*%
D15*
%TO.C,R4*%
X152400000Y-94540000D03*
X152400000Y-91440000D03*
%TD*%
D11*
%TO.C,R1*%
X140260000Y-48260000D03*
X137160000Y-48260000D03*
%TD*%
D14*
%TO.C,J21*%
X172720000Y-68580000D03*
%TD*%
%TO.C,J10*%
X147320000Y-73660000D03*
%TD*%
D16*
%TO.C,D1*%
X147320000Y-93980000D03*
X147320000Y-91180000D03*
%TD*%
D14*
%TO.C,J20*%
X172720000Y-60960000D03*
%TD*%
D11*
%TO.C,R3*%
X142240000Y-93980000D03*
X139140000Y-93980000D03*
%TD*%
D17*
%TO.C,U_ATMega1*%
X152400000Y-48260000D03*
X152400000Y-50800000D03*
X152400000Y-53340000D03*
X152400000Y-55880000D03*
X152400000Y-58420000D03*
X152400000Y-60960000D03*
X152400000Y-63500000D03*
X152400000Y-66040000D03*
X152400000Y-68580000D03*
X152400000Y-71120000D03*
X152400000Y-73660000D03*
X152400000Y-76200000D03*
X152400000Y-78740000D03*
X152400000Y-81280000D03*
X160020000Y-81280000D03*
X160020000Y-78740000D03*
X160020000Y-76200000D03*
X160020000Y-73660000D03*
X160020000Y-71120000D03*
X160020000Y-68580000D03*
X160020000Y-66040000D03*
X160020000Y-63500000D03*
X160020000Y-60960000D03*
X160020000Y-58420000D03*
X160020000Y-55880000D03*
X160020000Y-53340000D03*
X160020000Y-50800000D03*
X160020000Y-48260000D03*
%TD*%
D14*
%TO.C,J12*%
X147320000Y-83820000D03*
%TD*%
D18*
%TO.C,On/Off1*%
X154940000Y-34930000D03*
X154940000Y-26030000D03*
%TD*%
D19*
%TO.C,C1*%
X134620000Y-66040000D03*
X131495000Y-66040000D03*
%TD*%
D14*
%TO.C,J13*%
X152400000Y-86360000D03*
%TD*%
%TO.C,J17*%
X160020000Y-86360000D03*
%TD*%
D20*
%TO.C,C3*%
X139002500Y-86360000D03*
X142352500Y-86360000D03*
%TD*%
D21*
%TO.C,Y1*%
X139700000Y-66040000D03*
X139700000Y-70940000D03*
%TD*%
D22*
%TO.C,J5*%
X168380000Y-95250000D03*
D23*
X168380000Y-92710000D03*
X168380000Y-90170000D03*
X168380000Y-87630000D03*
X168380000Y-85090000D03*
X168380000Y-82550000D03*
X168380000Y-80010000D03*
X168380000Y-77470000D03*
%TD*%
D22*
%TO.C,J4*%
X179065000Y-49530000D03*
D24*
X179065000Y-52070000D03*
X179065000Y-54610000D03*
X179065000Y-57150000D03*
X179065000Y-59690000D03*
X179065000Y-62230000D03*
X179065000Y-64770000D03*
X179065000Y-67310000D03*
%TD*%
D14*
%TO.C,J8*%
X147320000Y-53340000D03*
%TD*%
D11*
%TO.C,R5*%
X185980000Y-40640000D03*
X182880000Y-40640000D03*
%TD*%
D14*
%TO.C,J15*%
X167640000Y-55880000D03*
%TD*%
D25*
%TO.C,J3*%
X142240000Y-113030000D03*
X152400000Y-113030000D03*
D23*
X149220000Y-104140000D03*
X147950000Y-106680000D03*
X146680000Y-104140000D03*
X145410000Y-106680000D03*
%TD*%
D14*
%TO.C,J9*%
X147320000Y-60960000D03*
%TD*%
D26*
%TO.C,J1*%
X144780000Y-30480000D03*
D27*
X139700000Y-30480000D03*
%TD*%
D19*
%TO.C,C2*%
X134620000Y-71120000D03*
X131495000Y-71120000D03*
%TD*%
D14*
%TO.C,J14*%
X165100000Y-53340000D03*
%TD*%
%TO.C,J16*%
X165100000Y-58420000D03*
%TD*%
%TO.C,J7*%
X144780000Y-50800000D03*
%TD*%
D26*
%TO.C,J2*%
X182880000Y-30480000D03*
D27*
X177800000Y-30480000D03*
%TD*%
D14*
%TO.C,J18*%
X162560000Y-96520000D03*
%TD*%
M02*
