%TF.GenerationSoftware,KiCad,Pcbnew,7.0.1*%
%TF.CreationDate,2023-05-15T23:15:40-04:00*%
%TF.ProjectId,weather_station,77656174-6865-4725-9f73-746174696f6e,rev?*%
%TF.SameCoordinates,Original*%
%TF.FileFunction,Soldermask,Bot*%
%TF.FilePolarity,Negative*%
%FSLAX46Y46*%
G04 Gerber Fmt 4.6, Leading zero omitted, Abs format (unit mm)*
G04 Created by KiCad (PCBNEW 7.0.1) date 2023-05-15 23:15:40*
%MOMM*%
%LPD*%
G01*
G04 APERTURE LIST*
%ADD10C,0.800000*%
%ADD11C,2.000000*%
%ADD12C,1.524000*%
%ADD13C,1.500000*%
%ADD14R,1.700000X1.700000*%
%ADD15C,1.700000*%
%ADD16O,1.700000X1.700000*%
%ADD17C,3.350000*%
%ADD18R,2.200000X2.200000*%
%ADD19C,2.300000*%
G04 APERTURE END LIST*
D10*
%TO.C,J6*%
X185420000Y-116840000D03*
X186420000Y-116840000D03*
X187420000Y-116840000D03*
X188420000Y-116840000D03*
%TD*%
D11*
%TO.C,J11*%
X147320000Y-78740000D03*
%TD*%
%TO.C,J21*%
X172720000Y-68580000D03*
%TD*%
%TO.C,J10*%
X147320000Y-73660000D03*
%TD*%
%TO.C,J20*%
X172720000Y-60960000D03*
%TD*%
D12*
%TO.C,U_ATMega1*%
X152400000Y-48260000D03*
X152400000Y-50800000D03*
X152400000Y-53340000D03*
X152400000Y-55880000D03*
X152400000Y-58420000D03*
X152400000Y-60960000D03*
X152400000Y-63500000D03*
X152400000Y-66040000D03*
X152400000Y-68580000D03*
X152400000Y-71120000D03*
X152400000Y-73660000D03*
X152400000Y-76200000D03*
X152400000Y-78740000D03*
X152400000Y-81280000D03*
X160020000Y-81280000D03*
X160020000Y-78740000D03*
X160020000Y-76200000D03*
X160020000Y-73660000D03*
X160020000Y-71120000D03*
X160020000Y-68580000D03*
X160020000Y-66040000D03*
X160020000Y-63500000D03*
X160020000Y-60960000D03*
X160020000Y-58420000D03*
X160020000Y-55880000D03*
X160020000Y-53340000D03*
X160020000Y-50800000D03*
X160020000Y-48260000D03*
%TD*%
D11*
%TO.C,J12*%
X147320000Y-83820000D03*
%TD*%
%TO.C,J13*%
X152400000Y-86360000D03*
%TD*%
%TO.C,J17*%
X160020000Y-86360000D03*
%TD*%
D13*
%TO.C,Y1*%
X139700000Y-66040000D03*
X139700000Y-70940000D03*
%TD*%
D14*
%TO.C,J5*%
X168380000Y-95250000D03*
D15*
X168380000Y-92710000D03*
X168380000Y-90170000D03*
X168380000Y-87630000D03*
X168380000Y-85090000D03*
X168380000Y-82550000D03*
X168380000Y-80010000D03*
X168380000Y-77470000D03*
%TD*%
D14*
%TO.C,J4*%
X179065000Y-49530000D03*
D16*
X179065000Y-52070000D03*
X179065000Y-54610000D03*
X179065000Y-57150000D03*
X179065000Y-59690000D03*
X179065000Y-62230000D03*
X179065000Y-64770000D03*
X179065000Y-67310000D03*
%TD*%
D11*
%TO.C,J8*%
X147320000Y-53340000D03*
%TD*%
%TO.C,J15*%
X167640000Y-55880000D03*
%TD*%
D17*
%TO.C,J3*%
X142240000Y-113030000D03*
X152400000Y-113030000D03*
D15*
X149220000Y-104140000D03*
X147950000Y-106680000D03*
X146680000Y-104140000D03*
X145410000Y-106680000D03*
%TD*%
D11*
%TO.C,J9*%
X147320000Y-60960000D03*
%TD*%
D18*
%TO.C,J1*%
X144780000Y-30480000D03*
D19*
X139700000Y-30480000D03*
%TD*%
D11*
%TO.C,J14*%
X165100000Y-53340000D03*
%TD*%
%TO.C,J16*%
X165100000Y-58420000D03*
%TD*%
%TO.C,J7*%
X144780000Y-50800000D03*
%TD*%
D18*
%TO.C,J2*%
X182880000Y-30480000D03*
D19*
X177800000Y-30480000D03*
%TD*%
D11*
%TO.C,J18*%
X162560000Y-96520000D03*
%TD*%
M02*
