%TF.GenerationSoftware,KiCad,Pcbnew,7.0.1*%
%TF.CreationDate,2023-05-15T23:15:40-04:00*%
%TF.ProjectId,weather_station,77656174-6865-4725-9f73-746174696f6e,rev?*%
%TF.SameCoordinates,Original*%
%TF.FileFunction,Copper,L2,Bot*%
%TF.FilePolarity,Positive*%
%FSLAX46Y46*%
G04 Gerber Fmt 4.6, Leading zero omitted, Abs format (unit mm)*
G04 Created by KiCad (PCBNEW 7.0.1) date 2023-05-15 23:15:40*
%MOMM*%
%LPD*%
G01*
G04 APERTURE LIST*
%TA.AperFunction,ComponentPad*%
%ADD10C,0.800000*%
%TD*%
%TA.AperFunction,ComponentPad*%
%ADD11C,2.000000*%
%TD*%
%TA.AperFunction,ComponentPad*%
%ADD12C,1.524000*%
%TD*%
%TA.AperFunction,ComponentPad*%
%ADD13C,1.500000*%
%TD*%
%TA.AperFunction,ComponentPad*%
%ADD14R,1.700000X1.700000*%
%TD*%
%TA.AperFunction,ComponentPad*%
%ADD15C,1.700000*%
%TD*%
%TA.AperFunction,ComponentPad*%
%ADD16O,1.700000X1.700000*%
%TD*%
%TA.AperFunction,ComponentPad*%
%ADD17R,2.200000X2.200000*%
%TD*%
%TA.AperFunction,ComponentPad*%
%ADD18C,2.300000*%
%TD*%
%TA.AperFunction,ViaPad*%
%ADD19C,0.800000*%
%TD*%
%TA.AperFunction,Conductor*%
%ADD20C,0.250000*%
%TD*%
G04 APERTURE END LIST*
D10*
%TO.P,J6,1,Pin_1*%
%TO.N,GNDREF*%
X185420000Y-116840000D03*
%TO.P,J6,2,Pin_2*%
%TO.N,VCC*%
X186420000Y-116840000D03*
%TO.P,J6,3,Pin_3*%
%TO.N,Net-(J4-SDA)*%
X187420000Y-116840000D03*
%TO.P,J6,4,Pin_4*%
%TO.N,Net-(J4-SCL)*%
X188420000Y-116840000D03*
%TD*%
D11*
%TO.P,J11,1,Pin_1*%
%TO.N,Net-(J11-Pin_1)*%
X147320000Y-78740000D03*
%TD*%
%TO.P,J21,1,Pin_1*%
%TO.N,Net-(J21-Pin_1)*%
X172720000Y-68580000D03*
%TD*%
%TO.P,J10,1,Pin_1*%
%TO.N,Net-(J10-Pin_1)*%
X147320000Y-73660000D03*
%TD*%
%TO.P,J20,1,Pin_1*%
%TO.N,Net-(J20-Pin_1)*%
X172720000Y-60960000D03*
%TD*%
D12*
%TO.P,U_ATMega1,1,RST*%
%TO.N,Net-(U_ATMega1-RST)*%
X152400000Y-48260000D03*
%TO.P,U_ATMega1,2,RXD*%
%TO.N,Net-(J7-Pin_1)*%
X152400000Y-50800000D03*
%TO.P,U_ATMega1,3,TXD*%
%TO.N,Net-(J8-Pin_1)*%
X152400000Y-53340000D03*
%TO.P,U_ATMega1,4,INT0*%
%TO.N,Net-(J4-SQW)*%
X152400000Y-55880000D03*
%TO.P,U_ATMega1,5,INT1*%
%TO.N,Net-(D1-A)*%
X152400000Y-58420000D03*
%TO.P,U_ATMega1,6,Pin_4*%
%TO.N,Net-(J9-Pin_1)*%
X152400000Y-60960000D03*
%TO.P,U_ATMega1,7,VCC*%
%TO.N,VCC*%
X152400000Y-63500000D03*
%TO.P,U_ATMega1,8,GND*%
%TO.N,GNDREF*%
X152400000Y-66040000D03*
%TO.P,U_ATMega1,9,XTAL1*%
%TO.N,Net-(U_ATMega1-XTAL1)*%
X152400000Y-68580000D03*
%TO.P,U_ATMega1,10,XTAL2*%
%TO.N,Net-(U_ATMega1-XTAL2)*%
X152400000Y-71120000D03*
%TO.P,U_ATMega1,11,Pin_5*%
%TO.N,Net-(J10-Pin_1)*%
X152400000Y-73660000D03*
%TO.P,U_ATMega1,12,Pin_6*%
%TO.N,Net-(J11-Pin_1)*%
X152400000Y-76200000D03*
%TO.P,U_ATMega1,13,Pin_7*%
%TO.N,Net-(J12-Pin_1)*%
X152400000Y-78740000D03*
%TO.P,U_ATMega1,14,Pin_8*%
%TO.N,Net-(J13-Pin_1)*%
X152400000Y-81280000D03*
%TO.P,U_ATMega1,15,Pin_9*%
%TO.N,Net-(J17-Pin_1)*%
X160020000Y-81280000D03*
%TO.P,U_ATMega1,16,~SS*%
%TO.N,Net-(J5-CS)*%
X160020000Y-78740000D03*
%TO.P,U_ATMega1,17,MOSI*%
%TO.N,Net-(J5-DI)*%
X160020000Y-76200000D03*
%TO.P,U_ATMega1,18,MISO*%
%TO.N,Net-(J5-DO)*%
X160020000Y-73660000D03*
%TO.P,U_ATMega1,19,SCK*%
%TO.N,Net-(J5-CLK)*%
X160020000Y-71120000D03*
%TO.P,U_ATMega1,20,AVCC*%
%TO.N,VCC*%
X160020000Y-68580000D03*
%TO.P,U_ATMega1,21,AREF*%
X160020000Y-66040000D03*
%TO.P,U_ATMega1,22,GND*%
%TO.N,GNDREF*%
X160020000Y-63500000D03*
%TO.P,U_ATMega1,23,A0*%
%TO.N,Net-(U_ATMega1-A0)*%
X160020000Y-60960000D03*
%TO.P,U_ATMega1,24,A1*%
%TO.N,Net-(J16-Pin_1)*%
X160020000Y-58420000D03*
%TO.P,U_ATMega1,25,A2*%
%TO.N,Net-(J15-Pin_1)*%
X160020000Y-55880000D03*
%TO.P,U_ATMega1,26,A3*%
%TO.N,Net-(J14-Pin_1)*%
X160020000Y-53340000D03*
%TO.P,U_ATMega1,27,SDA*%
%TO.N,Net-(J4-SDA)*%
X160020000Y-50800000D03*
%TO.P,U_ATMega1,28,SCL*%
%TO.N,Net-(J4-SCL)*%
X160020000Y-48260000D03*
%TD*%
D11*
%TO.P,J12,1,Pin_1*%
%TO.N,Net-(J12-Pin_1)*%
X147320000Y-83820000D03*
%TD*%
%TO.P,J13,1,Pin_1*%
%TO.N,Net-(J13-Pin_1)*%
X152400000Y-86360000D03*
%TD*%
%TO.P,J17,1,Pin_1*%
%TO.N,Net-(J17-Pin_1)*%
X160020000Y-86360000D03*
%TD*%
D13*
%TO.P,Y1,1,1*%
%TO.N,Net-(U_ATMega1-XTAL1)*%
X139700000Y-66040000D03*
%TO.P,Y1,2,2*%
%TO.N,Net-(U_ATMega1-XTAL2)*%
X139700000Y-70940000D03*
%TD*%
D14*
%TO.P,J5,1,CD*%
%TO.N,Net-(J18-Pin_1)*%
X168380000Y-95250000D03*
D15*
%TO.P,J5,2,CS*%
%TO.N,Net-(J5-CS)*%
X168380000Y-92710000D03*
%TO.P,J5,3,DI*%
%TO.N,Net-(J5-DI)*%
X168380000Y-90170000D03*
%TO.P,J5,4,DO*%
%TO.N,Net-(J5-DO)*%
X168380000Y-87630000D03*
%TO.P,J5,5,CLK*%
%TO.N,Net-(J5-CLK)*%
X168380000Y-85090000D03*
%TO.P,J5,6,GND*%
%TO.N,GNDREF*%
X168380000Y-82550000D03*
%TO.P,J5,7,3V*%
%TO.N,unconnected-(J5-3V-Pad7)*%
X168380000Y-80010000D03*
%TO.P,J5,8,5V*%
%TO.N,VCC*%
X168380000Y-77470000D03*
%TD*%
D14*
%TO.P,J4,1,Vin*%
%TO.N,VCC*%
X179065000Y-49530000D03*
D16*
%TO.P,J4,2,GND*%
%TO.N,GNDREF*%
X179065000Y-52070000D03*
%TO.P,J4,3,SCL*%
%TO.N,Net-(J4-SCL)*%
X179065000Y-54610000D03*
%TO.P,J4,4,SDA*%
%TO.N,Net-(J4-SDA)*%
X179065000Y-57150000D03*
%TO.P,J4,5,VBAT*%
%TO.N,unconnected-(J4-VBAT-Pad5)*%
X179065000Y-59690000D03*
%TO.P,J4,6,32K*%
%TO.N,Net-(J20-Pin_1)*%
X179065000Y-62230000D03*
%TO.P,J4,7,SQW*%
%TO.N,Net-(J4-SQW)*%
X179065000Y-64770000D03*
%TO.P,J4,8,RST*%
%TO.N,Net-(J21-Pin_1)*%
X179065000Y-67310000D03*
%TD*%
D11*
%TO.P,J8,1,Pin_1*%
%TO.N,Net-(J8-Pin_1)*%
X147320000Y-53340000D03*
%TD*%
%TO.P,J15,1,Pin_1*%
%TO.N,Net-(J15-Pin_1)*%
X167640000Y-55880000D03*
%TD*%
D15*
%TO.P,J3,1*%
%TO.N,GNDREF*%
X149220000Y-104140000D03*
%TO.P,J3,2*%
X147950000Y-106680000D03*
%TO.P,J3,3*%
%TO.N,Net-(D1-K)*%
X146680000Y-104140000D03*
%TO.P,J3,4*%
%TO.N,Net-(U_ATMega1-A0)*%
X145410000Y-106680000D03*
%TD*%
D11*
%TO.P,J9,1,Pin_1*%
%TO.N,Net-(J9-Pin_1)*%
X147320000Y-60960000D03*
%TD*%
D17*
%TO.P,J1,1,Pin_1*%
%TO.N,Net-(J1-Pin_1)*%
X144780000Y-30480000D03*
D18*
%TO.P,J1,2,Pin_2*%
X139700000Y-30480000D03*
%TD*%
D11*
%TO.P,J14,1,Pin_1*%
%TO.N,Net-(J14-Pin_1)*%
X165100000Y-53340000D03*
%TD*%
%TO.P,J16,1,Pin_1*%
%TO.N,Net-(J16-Pin_1)*%
X165100000Y-58420000D03*
%TD*%
%TO.P,J7,1,Pin_1*%
%TO.N,Net-(J7-Pin_1)*%
X144780000Y-50800000D03*
%TD*%
D17*
%TO.P,J2,1,Pin_1*%
%TO.N,GNDREF*%
X182880000Y-30480000D03*
D18*
%TO.P,J2,2,Pin_2*%
X177800000Y-30480000D03*
%TD*%
D11*
%TO.P,J18,1,Pin_1*%
%TO.N,Net-(J18-Pin_1)*%
X162560000Y-96520000D03*
%TD*%
D19*
%TO.N,Net-(D1-A)*%
X142240000Y-78740000D03*
%TD*%
D20*
%TO.N,Net-(D1-A)*%
X142240000Y-78740000D02*
X144780000Y-76200000D01*
X144780000Y-76200000D02*
X144780000Y-58420000D01*
X144780000Y-58420000D02*
X152400000Y-58420000D01*
%TO.N,Net-(U_ATMega1-A0)*%
X147950000Y-109220000D02*
X145410000Y-106680000D01*
X160020000Y-60960000D02*
X157480000Y-63500000D01*
X157480000Y-106680000D02*
X154940000Y-109220000D01*
X157480000Y-63500000D02*
X157480000Y-106680000D01*
X154940000Y-109220000D02*
X147950000Y-109220000D01*
%TD*%
%TA.AperFunction,Conductor*%
%TO.N,GNDREF*%
G36*
X205677500Y-22877113D02*
G01*
X205722887Y-22922500D01*
X205739500Y-22984500D01*
X205739500Y-121795500D01*
X205722887Y-121857500D01*
X205677500Y-121902887D01*
X205615500Y-121919500D01*
X122044500Y-121919500D01*
X121982500Y-121902887D01*
X121937113Y-121857500D01*
X121920500Y-121795500D01*
X121920500Y-116840000D01*
X125216512Y-116840000D01*
X125236432Y-117105813D01*
X125295748Y-117365694D01*
X125383707Y-117589807D01*
X125393134Y-117613826D01*
X125399751Y-117625287D01*
X125524466Y-117841301D01*
X125526414Y-117844674D01*
X125692612Y-118053079D01*
X125888014Y-118234386D01*
X126108257Y-118384545D01*
X126348419Y-118500201D01*
X126584214Y-118572934D01*
X126603137Y-118578771D01*
X126866719Y-118618500D01*
X126866720Y-118618500D01*
X127133280Y-118618500D01*
X127133281Y-118618500D01*
X127265071Y-118598635D01*
X127396863Y-118578771D01*
X127651581Y-118500201D01*
X127891744Y-118384545D01*
X128111986Y-118234386D01*
X128307388Y-118053079D01*
X128473586Y-117844674D01*
X128597188Y-117630589D01*
X184982961Y-117630589D01*
X185140357Y-117700666D01*
X185325405Y-117740000D01*
X185514595Y-117740000D01*
X185699642Y-117700666D01*
X185868949Y-117625286D01*
X185919385Y-117614566D01*
X185969821Y-117625287D01*
X186140197Y-117701144D01*
X186325352Y-117740500D01*
X186325354Y-117740500D01*
X186514646Y-117740500D01*
X186514648Y-117740500D01*
X186638083Y-117714262D01*
X186699803Y-117701144D01*
X186869563Y-117625560D01*
X186919999Y-117614840D01*
X186970435Y-117625561D01*
X187140197Y-117701144D01*
X187325352Y-117740500D01*
X187325354Y-117740500D01*
X187514646Y-117740500D01*
X187514648Y-117740500D01*
X187638083Y-117714262D01*
X187699803Y-117701144D01*
X187869563Y-117625560D01*
X187919999Y-117614840D01*
X187970435Y-117625561D01*
X188140197Y-117701144D01*
X188325352Y-117740500D01*
X188325354Y-117740500D01*
X188514646Y-117740500D01*
X188514648Y-117740500D01*
X188638083Y-117714262D01*
X188699803Y-117701144D01*
X188872730Y-117624151D01*
X189025871Y-117512888D01*
X189152533Y-117372216D01*
X189247179Y-117208284D01*
X189305674Y-117028256D01*
X189325460Y-116840000D01*
X198368512Y-116840000D01*
X198388432Y-117105813D01*
X198447748Y-117365694D01*
X198535707Y-117589807D01*
X198545134Y-117613826D01*
X198551751Y-117625287D01*
X198676466Y-117841301D01*
X198678414Y-117844674D01*
X198844612Y-118053079D01*
X199040014Y-118234386D01*
X199260257Y-118384545D01*
X199500419Y-118500201D01*
X199736214Y-118572934D01*
X199755137Y-118578771D01*
X200018719Y-118618500D01*
X200018720Y-118618500D01*
X200285280Y-118618500D01*
X200285281Y-118618500D01*
X200417071Y-118598635D01*
X200548863Y-118578771D01*
X200803581Y-118500201D01*
X201043744Y-118384545D01*
X201263986Y-118234386D01*
X201459388Y-118053079D01*
X201625586Y-117844674D01*
X201758866Y-117613826D01*
X201856252Y-117365692D01*
X201915567Y-117105815D01*
X201935487Y-116840000D01*
X201915567Y-116574185D01*
X201856252Y-116314308D01*
X201758866Y-116066174D01*
X201625586Y-115835326D01*
X201459388Y-115626921D01*
X201459387Y-115626920D01*
X201263988Y-115445615D01*
X201160331Y-115374943D01*
X201043744Y-115295455D01*
X201043741Y-115295454D01*
X201043739Y-115295452D01*
X200803583Y-115179800D01*
X200803581Y-115179799D01*
X200712779Y-115151790D01*
X200548862Y-115101228D01*
X200285281Y-115061500D01*
X200285280Y-115061500D01*
X200018720Y-115061500D01*
X200018719Y-115061500D01*
X199755137Y-115101228D01*
X199500419Y-115179799D01*
X199260256Y-115295455D01*
X199040014Y-115445613D01*
X198844612Y-115626920D01*
X198678413Y-115835326D01*
X198545133Y-116066175D01*
X198447748Y-116314305D01*
X198388432Y-116574186D01*
X198368512Y-116840000D01*
X189325460Y-116840000D01*
X189305674Y-116651744D01*
X189275332Y-116558363D01*
X189247179Y-116471715D01*
X189152533Y-116307783D01*
X189025870Y-116167110D01*
X188872730Y-116055848D01*
X188699802Y-115978855D01*
X188514648Y-115939500D01*
X188514646Y-115939500D01*
X188325354Y-115939500D01*
X188325352Y-115939500D01*
X188140199Y-115978854D01*
X187970434Y-116054439D01*
X187919999Y-116065159D01*
X187869563Y-116054438D01*
X187699802Y-115978855D01*
X187514648Y-115939500D01*
X187514646Y-115939500D01*
X187325354Y-115939500D01*
X187325352Y-115939500D01*
X187140199Y-115978854D01*
X186970434Y-116054439D01*
X186919999Y-116065159D01*
X186869563Y-116054438D01*
X186699802Y-115978855D01*
X186514648Y-115939500D01*
X186514646Y-115939500D01*
X186325354Y-115939500D01*
X186325352Y-115939500D01*
X186140197Y-115978855D01*
X185969822Y-116054712D01*
X185919386Y-116065433D01*
X185868951Y-116054713D01*
X185699644Y-115979333D01*
X185514595Y-115940000D01*
X185325405Y-115940000D01*
X185140355Y-115979333D01*
X184982961Y-116049409D01*
X185420000Y-116486447D01*
X185497352Y-116563799D01*
X185526559Y-116610088D01*
X185532991Y-116664438D01*
X185514540Y-116840000D01*
X185532991Y-117015559D01*
X185526559Y-117069910D01*
X185497352Y-117116199D01*
X184982961Y-117630589D01*
X128597188Y-117630589D01*
X128606866Y-117613826D01*
X128704252Y-117365692D01*
X128763567Y-117105815D01*
X128783487Y-116840000D01*
X184515043Y-116840000D01*
X184534818Y-117028152D01*
X184593280Y-117208079D01*
X184631745Y-117274700D01*
X185066447Y-116840001D01*
X185066447Y-116840000D01*
X184631745Y-116405298D01*
X184593280Y-116471922D01*
X184534818Y-116651847D01*
X184515043Y-116840000D01*
X128783487Y-116840000D01*
X128763567Y-116574185D01*
X128704252Y-116314308D01*
X128606866Y-116066174D01*
X128473586Y-115835326D01*
X128307388Y-115626921D01*
X128307387Y-115626920D01*
X128111988Y-115445615D01*
X128008331Y-115374943D01*
X127891744Y-115295455D01*
X127891741Y-115295454D01*
X127891739Y-115295452D01*
X127651583Y-115179800D01*
X127651581Y-115179799D01*
X127560779Y-115151790D01*
X127396862Y-115101228D01*
X127133281Y-115061500D01*
X127133280Y-115061500D01*
X126866720Y-115061500D01*
X126866719Y-115061500D01*
X126603137Y-115101228D01*
X126348419Y-115179799D01*
X126108256Y-115295455D01*
X125888014Y-115445613D01*
X125692612Y-115626920D01*
X125526413Y-115835326D01*
X125393133Y-116066175D01*
X125295748Y-116314305D01*
X125236432Y-116574186D01*
X125216512Y-116840000D01*
X121920500Y-116840000D01*
X121920500Y-113029999D01*
X140309581Y-113029999D01*
X140329231Y-113304728D01*
X140387775Y-113573857D01*
X140484031Y-113831927D01*
X140616027Y-114073661D01*
X140698557Y-114183908D01*
X140781087Y-114294155D01*
X140975845Y-114488913D01*
X141141213Y-114612706D01*
X141196338Y-114653972D01*
X141330847Y-114727419D01*
X141438075Y-114785970D01*
X141696138Y-114882223D01*
X141696141Y-114882223D01*
X141696142Y-114882224D01*
X141746444Y-114893166D01*
X141965273Y-114940769D01*
X142155371Y-114954365D01*
X142171237Y-114955500D01*
X142171238Y-114955500D01*
X142308762Y-114955500D01*
X142308763Y-114955500D01*
X142323493Y-114954446D01*
X142514727Y-114940769D01*
X142783862Y-114882223D01*
X143041925Y-114785970D01*
X143283663Y-114653971D01*
X143504155Y-114488913D01*
X143698913Y-114294155D01*
X143863971Y-114073663D01*
X143995970Y-113831925D01*
X144092223Y-113573862D01*
X144150769Y-113304727D01*
X144170418Y-113030000D01*
X144170418Y-113029999D01*
X150469581Y-113029999D01*
X150489231Y-113304728D01*
X150547775Y-113573857D01*
X150644031Y-113831927D01*
X150776027Y-114073661D01*
X150858557Y-114183908D01*
X150941087Y-114294155D01*
X151135845Y-114488913D01*
X151301213Y-114612706D01*
X151356338Y-114653972D01*
X151490847Y-114727419D01*
X151598075Y-114785970D01*
X151856138Y-114882223D01*
X151856141Y-114882223D01*
X151856142Y-114882224D01*
X151906444Y-114893166D01*
X152125273Y-114940769D01*
X152315371Y-114954365D01*
X152331237Y-114955500D01*
X152331238Y-114955500D01*
X152468762Y-114955500D01*
X152468763Y-114955500D01*
X152483493Y-114954446D01*
X152674727Y-114940769D01*
X152943862Y-114882223D01*
X153201925Y-114785970D01*
X153443663Y-114653971D01*
X153664155Y-114488913D01*
X153858913Y-114294155D01*
X154023971Y-114073663D01*
X154155970Y-113831925D01*
X154252223Y-113573862D01*
X154310769Y-113304727D01*
X154330418Y-113030000D01*
X154310769Y-112755273D01*
X154252223Y-112486138D01*
X154155970Y-112228075D01*
X154023971Y-111986337D01*
X153858913Y-111765845D01*
X153664155Y-111571087D01*
X153553909Y-111488558D01*
X153443661Y-111406027D01*
X153201927Y-111274031D01*
X153201926Y-111274030D01*
X153201925Y-111274030D01*
X152943862Y-111177777D01*
X152943857Y-111177775D01*
X152674728Y-111119231D01*
X152468763Y-111104500D01*
X152468762Y-111104500D01*
X152331238Y-111104500D01*
X152331237Y-111104500D01*
X152125271Y-111119231D01*
X151856142Y-111177775D01*
X151598072Y-111274031D01*
X151356338Y-111406027D01*
X151135842Y-111571089D01*
X150941089Y-111765842D01*
X150776027Y-111986338D01*
X150644031Y-112228072D01*
X150547775Y-112486142D01*
X150489231Y-112755271D01*
X150469581Y-113029999D01*
X144170418Y-113029999D01*
X144150769Y-112755273D01*
X144092223Y-112486138D01*
X143995970Y-112228075D01*
X143863971Y-111986337D01*
X143698913Y-111765845D01*
X143504155Y-111571087D01*
X143393909Y-111488558D01*
X143283661Y-111406027D01*
X143041927Y-111274031D01*
X143041926Y-111274030D01*
X143041925Y-111274030D01*
X142783862Y-111177777D01*
X142783857Y-111177775D01*
X142514728Y-111119231D01*
X142308763Y-111104500D01*
X142308762Y-111104500D01*
X142171238Y-111104500D01*
X142171237Y-111104500D01*
X141965271Y-111119231D01*
X141696142Y-111177775D01*
X141438072Y-111274031D01*
X141196338Y-111406027D01*
X140975842Y-111571089D01*
X140781089Y-111765842D01*
X140616027Y-111986338D01*
X140484031Y-112228072D01*
X140387775Y-112486142D01*
X140329231Y-112755271D01*
X140309581Y-113029999D01*
X121920500Y-113029999D01*
X121920500Y-106679999D01*
X144054340Y-106679999D01*
X144074936Y-106915407D01*
X144104161Y-107024474D01*
X144136097Y-107143663D01*
X144235965Y-107357830D01*
X144371505Y-107551401D01*
X144538599Y-107718495D01*
X144732170Y-107854035D01*
X144946337Y-107953903D01*
X145174592Y-108015063D01*
X145410000Y-108035659D01*
X145645408Y-108015063D01*
X145745874Y-107988143D01*
X145810059Y-107988143D01*
X145865647Y-108020237D01*
X147449196Y-109603787D01*
X147462096Y-109619888D01*
X147513223Y-109667900D01*
X147516019Y-109670610D01*
X147535529Y-109690120D01*
X147538711Y-109692588D01*
X147547571Y-109700155D01*
X147579417Y-109730061D01*
X147579418Y-109730062D01*
X147596970Y-109739711D01*
X147613238Y-109750397D01*
X147629064Y-109762673D01*
X147669146Y-109780017D01*
X147679633Y-109785155D01*
X147717907Y-109806197D01*
X147726410Y-109808379D01*
X147737308Y-109811178D01*
X147755713Y-109817478D01*
X147774104Y-109825437D01*
X147817250Y-109832270D01*
X147828668Y-109834635D01*
X147870981Y-109845500D01*
X147891016Y-109845500D01*
X147910415Y-109847027D01*
X147930196Y-109850160D01*
X147973674Y-109846050D01*
X147985344Y-109845500D01*
X154857256Y-109845500D01*
X154877762Y-109847764D01*
X154880665Y-109847672D01*
X154880667Y-109847673D01*
X154947872Y-109845561D01*
X154951768Y-109845500D01*
X154979349Y-109845500D01*
X154979350Y-109845500D01*
X154983319Y-109844998D01*
X154994965Y-109844080D01*
X155038627Y-109842709D01*
X155057859Y-109837120D01*
X155076918Y-109833174D01*
X155084099Y-109832267D01*
X155096792Y-109830664D01*
X155137407Y-109814582D01*
X155148444Y-109810803D01*
X155190390Y-109798618D01*
X155207629Y-109788422D01*
X155225102Y-109779862D01*
X155243732Y-109772486D01*
X155279064Y-109746814D01*
X155288830Y-109740400D01*
X155326418Y-109718171D01*
X155326417Y-109718171D01*
X155326420Y-109718170D01*
X155340585Y-109704004D01*
X155355373Y-109691373D01*
X155371587Y-109679594D01*
X155399438Y-109645926D01*
X155407279Y-109637309D01*
X157863789Y-107180800D01*
X157879885Y-107167906D01*
X157881873Y-107165787D01*
X157881877Y-107165786D01*
X157927948Y-107116723D01*
X157930566Y-107114023D01*
X157950120Y-107094471D01*
X157952581Y-107091298D01*
X157960156Y-107082427D01*
X157990062Y-107050582D01*
X157999717Y-107033018D01*
X158010394Y-107016764D01*
X158022673Y-107000936D01*
X158040018Y-106960852D01*
X158045160Y-106950356D01*
X158066197Y-106912092D01*
X158071179Y-106892684D01*
X158077481Y-106874280D01*
X158085437Y-106855896D01*
X158092269Y-106812752D01*
X158094633Y-106801338D01*
X158105500Y-106759019D01*
X158105500Y-106738984D01*
X158107027Y-106719585D01*
X158107068Y-106719321D01*
X158110160Y-106699804D01*
X158106050Y-106656325D01*
X158105500Y-106644656D01*
X158105500Y-96519999D01*
X161054356Y-96519999D01*
X161074891Y-96767816D01*
X161074891Y-96767819D01*
X161074892Y-96767821D01*
X161135937Y-97008881D01*
X161180960Y-97111523D01*
X161235825Y-97236604D01*
X161235827Y-97236607D01*
X161371836Y-97444785D01*
X161540256Y-97627738D01*
X161540259Y-97627740D01*
X161736485Y-97780470D01*
X161736487Y-97780471D01*
X161736491Y-97780474D01*
X161955190Y-97898828D01*
X162190386Y-97979571D01*
X162435665Y-98020500D01*
X162684335Y-98020500D01*
X162929614Y-97979571D01*
X163164810Y-97898828D01*
X163383509Y-97780474D01*
X163579744Y-97627738D01*
X163748164Y-97444785D01*
X163884173Y-97236607D01*
X163984063Y-97008881D01*
X164045108Y-96767821D01*
X164065643Y-96520000D01*
X164045108Y-96272179D01*
X163984063Y-96031119D01*
X163884173Y-95803393D01*
X163748164Y-95595215D01*
X163579744Y-95412262D01*
X163557612Y-95395036D01*
X163383514Y-95259529D01*
X163383510Y-95259526D01*
X163383509Y-95259526D01*
X163164810Y-95141172D01*
X163164806Y-95141170D01*
X163164805Y-95141170D01*
X162929615Y-95060429D01*
X162684335Y-95019500D01*
X162435665Y-95019500D01*
X162190384Y-95060429D01*
X161955194Y-95141170D01*
X161736485Y-95259529D01*
X161540259Y-95412259D01*
X161371837Y-95595214D01*
X161235825Y-95803395D01*
X161135938Y-96031117D01*
X161074891Y-96272183D01*
X161054356Y-96519999D01*
X158105500Y-96519999D01*
X158105500Y-92709999D01*
X167024340Y-92709999D01*
X167044936Y-92945407D01*
X167089709Y-93112502D01*
X167106097Y-93173663D01*
X167205965Y-93387830D01*
X167341505Y-93581401D01*
X167341508Y-93581404D01*
X167463430Y-93703326D01*
X167494726Y-93756072D01*
X167496915Y-93817365D01*
X167469462Y-93872209D01*
X167419083Y-93907189D01*
X167287669Y-93956204D01*
X167172454Y-94042454D01*
X167086204Y-94157668D01*
X167035909Y-94292516D01*
X167029500Y-94352130D01*
X167029500Y-96147869D01*
X167035909Y-96207484D01*
X167061056Y-96274906D01*
X167086204Y-96342331D01*
X167172454Y-96457546D01*
X167287669Y-96543796D01*
X167422517Y-96594091D01*
X167482127Y-96600500D01*
X169277872Y-96600499D01*
X169337483Y-96594091D01*
X169472331Y-96543796D01*
X169587546Y-96457546D01*
X169673796Y-96342331D01*
X169724091Y-96207483D01*
X169730500Y-96147873D01*
X169730499Y-94352128D01*
X169724091Y-94292517D01*
X169673796Y-94157669D01*
X169587546Y-94042454D01*
X169472331Y-93956204D01*
X169410898Y-93933291D01*
X169340916Y-93907189D01*
X169290537Y-93872209D01*
X169263084Y-93817365D01*
X169265273Y-93756072D01*
X169296566Y-93703329D01*
X169418495Y-93581401D01*
X169554035Y-93387830D01*
X169653903Y-93173663D01*
X169715063Y-92945408D01*
X169735659Y-92710000D01*
X169715063Y-92474592D01*
X169653903Y-92246337D01*
X169554035Y-92032171D01*
X169418495Y-91838599D01*
X169251401Y-91671505D01*
X169065839Y-91541573D01*
X169026975Y-91497257D01*
X169012964Y-91440000D01*
X169026975Y-91382743D01*
X169065839Y-91338426D01*
X169251401Y-91208495D01*
X169418495Y-91041401D01*
X169554035Y-90847830D01*
X169653903Y-90633663D01*
X169715063Y-90405408D01*
X169735659Y-90170000D01*
X169715063Y-89934592D01*
X169653903Y-89706337D01*
X169554035Y-89492171D01*
X169418495Y-89298599D01*
X169251401Y-89131505D01*
X169065839Y-89001573D01*
X169026975Y-88957257D01*
X169012964Y-88900000D01*
X169026975Y-88842743D01*
X169065839Y-88798426D01*
X169251401Y-88668495D01*
X169418495Y-88501401D01*
X169554035Y-88307830D01*
X169653903Y-88093663D01*
X169715063Y-87865408D01*
X169735659Y-87630000D01*
X169715063Y-87394592D01*
X169653903Y-87166337D01*
X169554035Y-86952171D01*
X169418495Y-86758599D01*
X169251401Y-86591505D01*
X169065839Y-86461573D01*
X169026975Y-86417257D01*
X169012964Y-86360000D01*
X169026975Y-86302743D01*
X169065839Y-86258426D01*
X169251401Y-86128495D01*
X169418495Y-85961401D01*
X169554035Y-85767830D01*
X169653903Y-85553663D01*
X169715063Y-85325408D01*
X169735659Y-85090000D01*
X169715063Y-84854592D01*
X169653903Y-84626337D01*
X169554035Y-84412171D01*
X169418495Y-84218599D01*
X169251401Y-84051505D01*
X169065402Y-83921267D01*
X169026539Y-83876951D01*
X169012528Y-83819694D01*
X169026539Y-83762437D01*
X169065405Y-83718119D01*
X169141373Y-83664925D01*
X168380000Y-82903553D01*
X167618625Y-83664925D01*
X167694594Y-83718119D01*
X167733460Y-83762437D01*
X167747471Y-83819694D01*
X167733461Y-83876950D01*
X167694595Y-83921269D01*
X167508595Y-84051508D01*
X167341505Y-84218598D01*
X167205965Y-84412170D01*
X167106097Y-84626336D01*
X167044936Y-84854592D01*
X167024340Y-85090000D01*
X167044936Y-85325407D01*
X167074359Y-85435214D01*
X167106097Y-85553663D01*
X167205965Y-85767830D01*
X167341505Y-85961401D01*
X167508599Y-86128495D01*
X167694160Y-86258426D01*
X167733024Y-86302743D01*
X167747035Y-86360000D01*
X167733024Y-86417257D01*
X167694159Y-86461575D01*
X167508595Y-86591508D01*
X167341505Y-86758598D01*
X167205965Y-86952170D01*
X167106097Y-87166336D01*
X167044936Y-87394592D01*
X167024340Y-87629999D01*
X167044936Y-87865407D01*
X167089709Y-88032501D01*
X167106097Y-88093663D01*
X167205965Y-88307830D01*
X167341505Y-88501401D01*
X167508599Y-88668495D01*
X167694160Y-88798426D01*
X167733024Y-88842743D01*
X167747035Y-88900000D01*
X167733024Y-88957257D01*
X167694159Y-89001575D01*
X167508595Y-89131508D01*
X167341505Y-89298598D01*
X167205965Y-89492170D01*
X167106097Y-89706336D01*
X167044936Y-89934592D01*
X167024340Y-90170000D01*
X167044936Y-90405407D01*
X167089709Y-90572501D01*
X167106097Y-90633663D01*
X167205965Y-90847830D01*
X167341505Y-91041401D01*
X167508599Y-91208495D01*
X167694160Y-91338426D01*
X167733024Y-91382743D01*
X167747035Y-91440000D01*
X167733024Y-91497257D01*
X167694159Y-91541575D01*
X167508595Y-91671508D01*
X167341505Y-91838598D01*
X167205965Y-92032170D01*
X167106097Y-92246336D01*
X167044936Y-92474592D01*
X167024340Y-92709999D01*
X158105500Y-92709999D01*
X158105500Y-86360000D01*
X158514356Y-86360000D01*
X158534891Y-86607816D01*
X158534891Y-86607819D01*
X158534892Y-86607821D01*
X158595937Y-86848881D01*
X158640960Y-86951523D01*
X158695825Y-87076604D01*
X158695827Y-87076607D01*
X158831836Y-87284785D01*
X159000256Y-87467738D01*
X159000259Y-87467740D01*
X159196485Y-87620470D01*
X159196487Y-87620471D01*
X159196491Y-87620474D01*
X159415190Y-87738828D01*
X159650386Y-87819571D01*
X159895665Y-87860500D01*
X160144335Y-87860500D01*
X160389614Y-87819571D01*
X160624810Y-87738828D01*
X160843509Y-87620474D01*
X161039744Y-87467738D01*
X161208164Y-87284785D01*
X161344173Y-87076607D01*
X161444063Y-86848881D01*
X161505108Y-86607821D01*
X161525643Y-86360000D01*
X161505108Y-86112179D01*
X161444063Y-85871119D01*
X161344173Y-85643393D01*
X161208164Y-85435215D01*
X161039744Y-85252262D01*
X161017612Y-85235036D01*
X160843514Y-85099529D01*
X160843510Y-85099526D01*
X160843509Y-85099526D01*
X160624810Y-84981172D01*
X160624806Y-84981170D01*
X160624805Y-84981170D01*
X160389615Y-84900429D01*
X160144335Y-84859500D01*
X159895665Y-84859500D01*
X159650384Y-84900429D01*
X159415194Y-84981170D01*
X159196485Y-85099529D01*
X159000259Y-85252259D01*
X159000256Y-85252261D01*
X159000256Y-85252262D01*
X158831837Y-85435214D01*
X158695825Y-85643395D01*
X158605780Y-85848678D01*
X158595937Y-85871119D01*
X158573074Y-85961404D01*
X158534891Y-86112183D01*
X158514356Y-86360000D01*
X158105500Y-86360000D01*
X158105500Y-82549999D01*
X167024842Y-82549999D01*
X167045430Y-82785318D01*
X167106569Y-83013492D01*
X167206400Y-83227580D01*
X167265073Y-83311373D01*
X168026447Y-82550001D01*
X168733553Y-82550001D01*
X169494925Y-83311373D01*
X169553600Y-83227576D01*
X169653430Y-83013492D01*
X169714569Y-82785318D01*
X169735157Y-82549999D01*
X169714569Y-82314681D01*
X169653430Y-82086507D01*
X169553599Y-81872421D01*
X169494926Y-81788626D01*
X169494925Y-81788625D01*
X168733553Y-82550000D01*
X168733553Y-82550001D01*
X168026447Y-82550001D01*
X168026447Y-82549999D01*
X167265073Y-81788625D01*
X167265072Y-81788625D01*
X167206399Y-81872422D01*
X167106569Y-82086507D01*
X167045430Y-82314681D01*
X167024842Y-82549999D01*
X158105500Y-82549999D01*
X158105500Y-81280000D01*
X158752676Y-81280000D01*
X158771929Y-81500065D01*
X158829106Y-81713451D01*
X158922466Y-81913662D01*
X159049174Y-82094620D01*
X159205380Y-82250826D01*
X159386338Y-82377534D01*
X159586550Y-82470894D01*
X159799932Y-82528070D01*
X160020000Y-82547323D01*
X160240068Y-82528070D01*
X160453450Y-82470894D01*
X160653662Y-82377534D01*
X160834620Y-82250826D01*
X160990826Y-82094620D01*
X161117534Y-81913662D01*
X161210894Y-81713450D01*
X161268070Y-81500068D01*
X161287323Y-81280000D01*
X161268070Y-81059932D01*
X161210894Y-80846550D01*
X161117534Y-80646339D01*
X160990826Y-80465380D01*
X160834620Y-80309174D01*
X160653662Y-80182466D01*
X160524811Y-80122382D01*
X160472635Y-80076625D01*
X160453216Y-80010000D01*
X167024340Y-80010000D01*
X167044936Y-80245407D01*
X167089709Y-80412501D01*
X167106097Y-80473663D01*
X167205965Y-80687830D01*
X167341505Y-80881401D01*
X167508599Y-81048495D01*
X167694597Y-81178732D01*
X167733460Y-81223048D01*
X167747471Y-81280306D01*
X167733460Y-81337563D01*
X167694594Y-81381881D01*
X167618626Y-81435073D01*
X168380000Y-82196447D01*
X168380001Y-82196447D01*
X169141373Y-81435073D01*
X169141373Y-81435072D01*
X169065405Y-81381880D01*
X169026539Y-81337562D01*
X169012528Y-81280305D01*
X169026539Y-81223048D01*
X169065402Y-81178732D01*
X169251401Y-81048495D01*
X169418495Y-80881401D01*
X169554035Y-80687830D01*
X169653903Y-80473663D01*
X169715063Y-80245408D01*
X169735659Y-80010000D01*
X169715063Y-79774592D01*
X169653903Y-79546337D01*
X169554035Y-79332171D01*
X169418495Y-79138599D01*
X169251401Y-78971505D01*
X169065839Y-78841573D01*
X169026975Y-78797257D01*
X169012964Y-78740000D01*
X169026975Y-78682743D01*
X169065839Y-78638426D01*
X169251401Y-78508495D01*
X169418495Y-78341401D01*
X169554035Y-78147830D01*
X169653903Y-77933663D01*
X169715063Y-77705408D01*
X169735659Y-77470000D01*
X169715063Y-77234592D01*
X169653903Y-77006337D01*
X169554035Y-76792171D01*
X169418495Y-76598599D01*
X169251401Y-76431505D01*
X169057830Y-76295965D01*
X168843663Y-76196097D01*
X168748159Y-76170507D01*
X168615407Y-76134936D01*
X168380000Y-76114340D01*
X168144592Y-76134936D01*
X167916336Y-76196097D01*
X167702170Y-76295965D01*
X167508598Y-76431505D01*
X167341505Y-76598598D01*
X167205965Y-76792170D01*
X167106097Y-77006336D01*
X167044936Y-77234592D01*
X167024340Y-77469999D01*
X167044936Y-77705407D01*
X167071135Y-77803181D01*
X167106097Y-77933663D01*
X167205965Y-78147830D01*
X167341505Y-78341401D01*
X167508599Y-78508495D01*
X167694160Y-78638426D01*
X167733024Y-78682743D01*
X167747035Y-78740000D01*
X167733024Y-78797257D01*
X167694159Y-78841575D01*
X167508595Y-78971508D01*
X167341505Y-79138598D01*
X167205965Y-79332170D01*
X167106097Y-79546336D01*
X167044936Y-79774592D01*
X167024340Y-80010000D01*
X160453216Y-80010000D01*
X160472635Y-79943375D01*
X160524811Y-79897618D01*
X160530027Y-79895185D01*
X160653662Y-79837534D01*
X160834620Y-79710826D01*
X160990826Y-79554620D01*
X161117534Y-79373662D01*
X161210894Y-79173450D01*
X161268070Y-78960068D01*
X161287323Y-78740000D01*
X161268070Y-78519932D01*
X161210894Y-78306550D01*
X161117534Y-78106339D01*
X160990826Y-77925380D01*
X160834620Y-77769174D01*
X160653662Y-77642466D01*
X160524811Y-77582381D01*
X160472635Y-77536624D01*
X160453216Y-77469998D01*
X160472636Y-77403373D01*
X160524810Y-77357618D01*
X160653662Y-77297534D01*
X160834620Y-77170826D01*
X160990826Y-77014620D01*
X161117534Y-76833662D01*
X161210894Y-76633450D01*
X161268070Y-76420068D01*
X161287323Y-76200000D01*
X161268070Y-75979932D01*
X161210894Y-75766550D01*
X161117534Y-75566339D01*
X160990826Y-75385380D01*
X160834620Y-75229174D01*
X160653662Y-75102466D01*
X160524811Y-75042382D01*
X160472635Y-74996625D01*
X160453216Y-74930000D01*
X160472635Y-74863375D01*
X160524811Y-74817618D01*
X160530027Y-74815185D01*
X160653662Y-74757534D01*
X160834620Y-74630826D01*
X160990826Y-74474620D01*
X161117534Y-74293662D01*
X161210894Y-74093450D01*
X161268070Y-73880068D01*
X161287323Y-73660000D01*
X161268070Y-73439932D01*
X161210894Y-73226550D01*
X161117534Y-73026339D01*
X160990826Y-72845380D01*
X160834620Y-72689174D01*
X160653662Y-72562466D01*
X160524811Y-72502382D01*
X160472635Y-72456625D01*
X160453216Y-72390000D01*
X160472635Y-72323375D01*
X160524811Y-72277618D01*
X160530027Y-72275185D01*
X160653662Y-72217534D01*
X160834620Y-72090826D01*
X160990826Y-71934620D01*
X161117534Y-71753662D01*
X161210894Y-71553450D01*
X161268070Y-71340068D01*
X161287323Y-71120000D01*
X161268070Y-70899932D01*
X161210894Y-70686550D01*
X161117534Y-70486339D01*
X160990826Y-70305380D01*
X160834620Y-70149174D01*
X160653662Y-70022466D01*
X160524811Y-69962382D01*
X160472635Y-69916625D01*
X160453216Y-69850000D01*
X160472635Y-69783375D01*
X160524811Y-69737618D01*
X160530027Y-69735185D01*
X160653662Y-69677534D01*
X160834620Y-69550826D01*
X160990826Y-69394620D01*
X161117534Y-69213662D01*
X161210894Y-69013450D01*
X161268070Y-68800068D01*
X161287323Y-68580000D01*
X171214356Y-68580000D01*
X171234891Y-68827816D01*
X171234891Y-68827819D01*
X171234892Y-68827821D01*
X171295937Y-69068881D01*
X171340960Y-69171523D01*
X171395825Y-69296604D01*
X171395827Y-69296607D01*
X171531836Y-69504785D01*
X171700256Y-69687738D01*
X171764342Y-69737618D01*
X171896485Y-69840470D01*
X171896487Y-69840471D01*
X171896491Y-69840474D01*
X172115190Y-69958828D01*
X172350386Y-70039571D01*
X172595665Y-70080500D01*
X172844335Y-70080500D01*
X173089614Y-70039571D01*
X173324810Y-69958828D01*
X173543509Y-69840474D01*
X173739744Y-69687738D01*
X173908164Y-69504785D01*
X174044173Y-69296607D01*
X174144063Y-69068881D01*
X174205108Y-68827821D01*
X174225643Y-68580000D01*
X174205108Y-68332179D01*
X174144063Y-68091119D01*
X174044173Y-67863393D01*
X173908164Y-67655215D01*
X173739744Y-67472262D01*
X173717612Y-67455036D01*
X173543514Y-67319529D01*
X173543510Y-67319526D01*
X173543509Y-67319526D01*
X173525906Y-67310000D01*
X177709340Y-67310000D01*
X177729936Y-67545407D01*
X177759359Y-67655214D01*
X177791097Y-67773663D01*
X177890965Y-67987830D01*
X178026505Y-68181401D01*
X178193599Y-68348495D01*
X178387170Y-68484035D01*
X178601337Y-68583903D01*
X178829592Y-68645063D01*
X179065000Y-68665659D01*
X179300408Y-68645063D01*
X179528663Y-68583903D01*
X179742830Y-68484035D01*
X179936401Y-68348495D01*
X180103495Y-68181401D01*
X180239035Y-67987830D01*
X180338903Y-67773663D01*
X180400063Y-67545408D01*
X180420659Y-67310000D01*
X180400063Y-67074592D01*
X180338903Y-66846337D01*
X180239035Y-66632171D01*
X180103495Y-66438599D01*
X179936401Y-66271505D01*
X179750839Y-66141573D01*
X179711975Y-66097257D01*
X179697964Y-66040000D01*
X179711975Y-65982743D01*
X179750839Y-65938426D01*
X179936401Y-65808495D01*
X180103495Y-65641401D01*
X180239035Y-65447830D01*
X180338903Y-65233663D01*
X180400063Y-65005408D01*
X180420659Y-64770000D01*
X180400063Y-64534592D01*
X180338903Y-64306337D01*
X180239035Y-64092171D01*
X180103495Y-63898599D01*
X179936401Y-63731505D01*
X179750839Y-63601573D01*
X179711976Y-63557257D01*
X179697965Y-63500000D01*
X179711976Y-63442743D01*
X179750839Y-63398426D01*
X179936401Y-63268495D01*
X180103495Y-63101401D01*
X180239035Y-62907830D01*
X180338903Y-62693663D01*
X180400063Y-62465408D01*
X180420659Y-62230000D01*
X180400063Y-61994592D01*
X180338903Y-61766337D01*
X180239035Y-61552171D01*
X180103495Y-61358599D01*
X179936401Y-61191505D01*
X179750839Y-61061573D01*
X179711974Y-61017255D01*
X179697964Y-60959999D01*
X179711975Y-60902742D01*
X179750837Y-60858428D01*
X179936401Y-60728495D01*
X180103495Y-60561401D01*
X180239035Y-60367830D01*
X180338903Y-60153663D01*
X180400063Y-59925408D01*
X180420659Y-59690000D01*
X180400063Y-59454592D01*
X180338903Y-59226337D01*
X180239035Y-59012171D01*
X180103495Y-58818599D01*
X179936401Y-58651505D01*
X179750839Y-58521573D01*
X179711975Y-58477257D01*
X179697964Y-58420000D01*
X179711975Y-58362743D01*
X179750839Y-58318426D01*
X179936401Y-58188495D01*
X180103495Y-58021401D01*
X180239035Y-57827830D01*
X180338903Y-57613663D01*
X180400063Y-57385408D01*
X180420659Y-57150000D01*
X180400063Y-56914592D01*
X180338903Y-56686337D01*
X180239035Y-56472171D01*
X180103495Y-56278599D01*
X179936401Y-56111505D01*
X179750839Y-55981573D01*
X179711974Y-55937255D01*
X179697964Y-55879999D01*
X179711975Y-55822742D01*
X179750837Y-55778428D01*
X179936401Y-55648495D01*
X180103495Y-55481401D01*
X180239035Y-55287830D01*
X180338903Y-55073663D01*
X180400063Y-54845408D01*
X180420659Y-54610000D01*
X180400063Y-54374592D01*
X180338903Y-54146337D01*
X180239035Y-53932171D01*
X180103495Y-53738599D01*
X179936401Y-53571505D01*
X179750402Y-53441267D01*
X179711539Y-53396951D01*
X179697528Y-53339694D01*
X179711539Y-53282437D01*
X179750405Y-53238119D01*
X179936078Y-53108109D01*
X180103106Y-52941081D01*
X180238600Y-52747576D01*
X180338430Y-52533492D01*
X180395636Y-52320000D01*
X177734364Y-52320000D01*
X177791569Y-52533492D01*
X177891399Y-52747576D01*
X178026893Y-52941081D01*
X178193918Y-53108106D01*
X178379595Y-53238119D01*
X178418460Y-53282437D01*
X178432471Y-53339694D01*
X178418460Y-53396951D01*
X178379595Y-53441269D01*
X178193595Y-53571508D01*
X178026505Y-53738598D01*
X177890965Y-53932170D01*
X177791097Y-54146336D01*
X177729936Y-54374592D01*
X177709340Y-54609999D01*
X177729936Y-54845407D01*
X177759359Y-54955214D01*
X177791097Y-55073663D01*
X177890965Y-55287830D01*
X178026505Y-55481401D01*
X178193599Y-55648495D01*
X178379160Y-55778426D01*
X178418024Y-55822743D01*
X178432035Y-55880000D01*
X178418024Y-55937257D01*
X178379159Y-55981575D01*
X178193595Y-56111508D01*
X178026505Y-56278598D01*
X177890965Y-56472170D01*
X177791097Y-56686336D01*
X177729936Y-56914592D01*
X177709340Y-57150000D01*
X177729936Y-57385407D01*
X177759359Y-57495214D01*
X177791097Y-57613663D01*
X177890965Y-57827830D01*
X178026505Y-58021401D01*
X178193599Y-58188495D01*
X178379160Y-58318426D01*
X178418024Y-58362743D01*
X178432035Y-58420000D01*
X178418024Y-58477257D01*
X178379159Y-58521575D01*
X178193595Y-58651508D01*
X178026505Y-58818598D01*
X177890965Y-59012170D01*
X177791097Y-59226336D01*
X177729936Y-59454592D01*
X177709340Y-59689999D01*
X177729936Y-59925407D01*
X177759359Y-60035214D01*
X177791097Y-60153663D01*
X177890965Y-60367830D01*
X178026505Y-60561401D01*
X178193599Y-60728495D01*
X178379160Y-60858426D01*
X178418024Y-60902743D01*
X178432035Y-60960000D01*
X178418024Y-61017257D01*
X178379159Y-61061575D01*
X178193595Y-61191508D01*
X178026505Y-61358598D01*
X177890965Y-61552170D01*
X177791097Y-61766336D01*
X177729936Y-61994592D01*
X177709340Y-62230000D01*
X177729936Y-62465407D01*
X177774709Y-62632501D01*
X177791097Y-62693663D01*
X177890965Y-62907830D01*
X178026505Y-63101401D01*
X178193599Y-63268495D01*
X178379160Y-63398426D01*
X178418024Y-63442743D01*
X178432035Y-63500000D01*
X178418024Y-63557257D01*
X178379158Y-63601575D01*
X178206073Y-63722771D01*
X178193595Y-63731508D01*
X178026505Y-63898598D01*
X177890965Y-64092170D01*
X177791097Y-64306336D01*
X177729936Y-64534592D01*
X177709340Y-64769999D01*
X177729936Y-65005407D01*
X177749495Y-65078402D01*
X177791097Y-65233663D01*
X177890965Y-65447830D01*
X178026505Y-65641401D01*
X178193599Y-65808495D01*
X178379160Y-65938426D01*
X178418024Y-65982743D01*
X178432035Y-66040000D01*
X178418024Y-66097257D01*
X178379158Y-66141575D01*
X178210062Y-66259978D01*
X178193595Y-66271508D01*
X178026505Y-66438598D01*
X177890965Y-66632170D01*
X177791097Y-66846336D01*
X177729936Y-67074592D01*
X177709340Y-67310000D01*
X173525906Y-67310000D01*
X173324810Y-67201172D01*
X173324806Y-67201170D01*
X173324805Y-67201170D01*
X173089615Y-67120429D01*
X172844335Y-67079500D01*
X172595665Y-67079500D01*
X172350384Y-67120429D01*
X172115194Y-67201170D01*
X171896485Y-67319529D01*
X171700259Y-67472259D01*
X171700256Y-67472261D01*
X171700256Y-67472262D01*
X171574220Y-67609174D01*
X171531837Y-67655214D01*
X171395825Y-67863395D01*
X171305780Y-68068678D01*
X171295937Y-68091119D01*
X171273074Y-68181404D01*
X171234891Y-68332183D01*
X171214356Y-68580000D01*
X161287323Y-68580000D01*
X161268070Y-68359932D01*
X161210894Y-68146550D01*
X161117534Y-67946339D01*
X160990826Y-67765380D01*
X160834620Y-67609174D01*
X160653662Y-67482466D01*
X160524811Y-67422382D01*
X160472635Y-67376625D01*
X160453216Y-67310000D01*
X160472635Y-67243375D01*
X160524811Y-67197618D01*
X160530027Y-67195185D01*
X160653662Y-67137534D01*
X160834620Y-67010826D01*
X160990826Y-66854620D01*
X161117534Y-66673662D01*
X161210894Y-66473450D01*
X161268070Y-66260068D01*
X161287323Y-66040000D01*
X161268070Y-65819932D01*
X161210894Y-65606550D01*
X161117534Y-65406339D01*
X160990826Y-65225380D01*
X160834620Y-65069174D01*
X160653662Y-64942466D01*
X160653661Y-64942465D01*
X160524218Y-64882105D01*
X160472042Y-64836348D01*
X160452623Y-64769722D01*
X160472043Y-64703097D01*
X160524220Y-64657340D01*
X160653411Y-64597098D01*
X160718187Y-64551740D01*
X160020001Y-63853553D01*
X160020000Y-63853553D01*
X159321812Y-64551740D01*
X159386592Y-64597100D01*
X159515780Y-64657341D01*
X159567956Y-64703097D01*
X159587376Y-64769722D01*
X159567957Y-64836347D01*
X159515782Y-64882105D01*
X159386336Y-64942467D01*
X159205379Y-65069174D01*
X159049174Y-65225379D01*
X158922466Y-65406338D01*
X158829106Y-65606548D01*
X158771929Y-65819934D01*
X158752676Y-66040000D01*
X158771929Y-66260065D01*
X158829106Y-66473451D01*
X158919656Y-66667636D01*
X158922466Y-66673662D01*
X159049174Y-66854620D01*
X159205380Y-67010826D01*
X159386338Y-67137534D01*
X159505748Y-67193215D01*
X159515189Y-67197618D01*
X159567365Y-67243375D01*
X159586784Y-67310000D01*
X159567365Y-67376625D01*
X159515189Y-67422382D01*
X159386338Y-67482466D01*
X159205379Y-67609174D01*
X159049174Y-67765379D01*
X158922466Y-67946338D01*
X158829106Y-68146548D01*
X158771929Y-68359934D01*
X158752676Y-68580000D01*
X158771929Y-68800065D01*
X158829106Y-69013451D01*
X158854954Y-69068882D01*
X158922466Y-69213662D01*
X159049174Y-69394620D01*
X159205380Y-69550826D01*
X159386338Y-69677534D01*
X159442649Y-69703792D01*
X159515189Y-69737618D01*
X159567365Y-69783375D01*
X159586784Y-69850000D01*
X159567365Y-69916625D01*
X159515189Y-69962382D01*
X159386338Y-70022466D01*
X159205379Y-70149174D01*
X159049174Y-70305379D01*
X158922466Y-70486338D01*
X158829106Y-70686548D01*
X158771929Y-70899934D01*
X158752676Y-71120000D01*
X158771929Y-71340065D01*
X158829106Y-71553451D01*
X158922465Y-71753661D01*
X158922466Y-71753662D01*
X159049174Y-71934620D01*
X159205380Y-72090826D01*
X159386338Y-72217534D01*
X159505748Y-72273215D01*
X159515189Y-72277618D01*
X159567365Y-72323375D01*
X159586784Y-72390000D01*
X159567365Y-72456625D01*
X159515189Y-72502382D01*
X159386338Y-72562466D01*
X159205379Y-72689174D01*
X159049174Y-72845379D01*
X158922466Y-73026338D01*
X158829106Y-73226548D01*
X158771929Y-73439934D01*
X158752676Y-73660000D01*
X158771929Y-73880065D01*
X158829106Y-74093451D01*
X158854954Y-74148882D01*
X158922466Y-74293662D01*
X159049174Y-74474620D01*
X159205380Y-74630826D01*
X159386338Y-74757534D01*
X159505748Y-74813215D01*
X159515189Y-74817618D01*
X159567365Y-74863375D01*
X159586784Y-74930000D01*
X159567365Y-74996625D01*
X159515189Y-75042382D01*
X159386338Y-75102466D01*
X159205379Y-75229174D01*
X159049174Y-75385379D01*
X158922466Y-75566338D01*
X158829106Y-75766548D01*
X158771929Y-75979934D01*
X158752676Y-76199999D01*
X158771929Y-76420065D01*
X158829106Y-76633451D01*
X158922465Y-76833661D01*
X158922466Y-76833662D01*
X159049174Y-77014620D01*
X159205380Y-77170826D01*
X159386338Y-77297534D01*
X159505748Y-77353215D01*
X159515189Y-77357618D01*
X159567365Y-77403375D01*
X159586784Y-77470000D01*
X159567365Y-77536625D01*
X159515189Y-77582382D01*
X159386338Y-77642466D01*
X159205379Y-77769174D01*
X159049174Y-77925379D01*
X158922466Y-78106338D01*
X158829106Y-78306548D01*
X158771929Y-78519934D01*
X158752676Y-78740000D01*
X158771929Y-78960065D01*
X158829106Y-79173451D01*
X158922465Y-79373661D01*
X158922466Y-79373662D01*
X159049174Y-79554620D01*
X159205380Y-79710826D01*
X159386338Y-79837534D01*
X159505748Y-79893215D01*
X159515189Y-79897618D01*
X159567365Y-79943375D01*
X159586784Y-80010000D01*
X159567365Y-80076625D01*
X159515189Y-80122382D01*
X159386338Y-80182466D01*
X159205379Y-80309174D01*
X159049174Y-80465379D01*
X158922466Y-80646338D01*
X158829106Y-80846548D01*
X158771929Y-81059934D01*
X158752676Y-81280000D01*
X158105500Y-81280000D01*
X158105500Y-63810452D01*
X158114939Y-63762999D01*
X158141819Y-63722771D01*
X158144612Y-63719978D01*
X158549538Y-63315051D01*
X158600960Y-63284154D01*
X158660874Y-63281014D01*
X158715249Y-63306370D01*
X158751356Y-63354285D01*
X158760742Y-63413543D01*
X158753178Y-63499999D01*
X158772424Y-63719978D01*
X158829579Y-63933281D01*
X158922898Y-64133406D01*
X158968258Y-64198187D01*
X159666445Y-63500001D01*
X160373553Y-63500001D01*
X161071740Y-64198186D01*
X161117100Y-64133408D01*
X161210420Y-63933281D01*
X161267575Y-63719978D01*
X161286821Y-63500000D01*
X161267575Y-63280021D01*
X161210421Y-63066720D01*
X161117098Y-62866589D01*
X161071740Y-62801811D01*
X160373553Y-63500000D01*
X160373553Y-63500001D01*
X159666445Y-63500001D01*
X160020000Y-63146447D01*
X160718187Y-62448258D01*
X160653406Y-62402898D01*
X160524219Y-62342658D01*
X160472043Y-62296901D01*
X160452623Y-62230276D01*
X160472043Y-62163651D01*
X160524219Y-62117894D01*
X160524811Y-62117618D01*
X160653662Y-62057534D01*
X160834620Y-61930826D01*
X160990826Y-61774620D01*
X161117534Y-61593662D01*
X161210894Y-61393450D01*
X161268070Y-61180068D01*
X161287323Y-60960000D01*
X161287323Y-60959999D01*
X171214356Y-60959999D01*
X171234891Y-61207816D01*
X171234891Y-61207819D01*
X171234892Y-61207821D01*
X171295937Y-61448881D01*
X171340960Y-61551523D01*
X171395825Y-61676604D01*
X171395827Y-61676607D01*
X171531836Y-61884785D01*
X171700256Y-62067738D01*
X171700259Y-62067740D01*
X171896485Y-62220470D01*
X171896487Y-62220471D01*
X171896491Y-62220474D01*
X172115190Y-62338828D01*
X172350386Y-62419571D01*
X172595665Y-62460500D01*
X172844335Y-62460500D01*
X173089614Y-62419571D01*
X173324810Y-62338828D01*
X173543509Y-62220474D01*
X173739744Y-62067738D01*
X173908164Y-61884785D01*
X174044173Y-61676607D01*
X174144063Y-61448881D01*
X174205108Y-61207821D01*
X174225643Y-60960000D01*
X174205108Y-60712179D01*
X174144063Y-60471119D01*
X174044173Y-60243393D01*
X173908164Y-60035215D01*
X173739744Y-59852262D01*
X173717612Y-59835036D01*
X173543514Y-59699529D01*
X173543510Y-59699526D01*
X173543509Y-59699526D01*
X173324810Y-59581172D01*
X173324806Y-59581170D01*
X173324805Y-59581170D01*
X173089615Y-59500429D01*
X172844335Y-59459500D01*
X172595665Y-59459500D01*
X172350384Y-59500429D01*
X172115194Y-59581170D01*
X171896485Y-59699529D01*
X171700259Y-59852259D01*
X171700256Y-59852261D01*
X171700256Y-59852262D01*
X171574220Y-59989174D01*
X171531837Y-60035214D01*
X171395825Y-60243395D01*
X171305780Y-60448678D01*
X171295937Y-60471119D01*
X171273074Y-60561404D01*
X171234891Y-60712183D01*
X171214356Y-60959999D01*
X161287323Y-60959999D01*
X161268070Y-60739932D01*
X161210894Y-60526550D01*
X161117534Y-60326339D01*
X160990826Y-60145380D01*
X160834620Y-59989174D01*
X160653662Y-59862466D01*
X160524811Y-59802382D01*
X160472635Y-59756625D01*
X160453216Y-59690000D01*
X160472635Y-59623375D01*
X160524811Y-59577618D01*
X160530027Y-59575185D01*
X160653662Y-59517534D01*
X160834620Y-59390826D01*
X160990826Y-59234620D01*
X161117534Y-59053662D01*
X161210894Y-58853450D01*
X161268070Y-58640068D01*
X161287323Y-58420000D01*
X161287323Y-58419999D01*
X163594356Y-58419999D01*
X163614891Y-58667816D01*
X163614891Y-58667819D01*
X163614892Y-58667821D01*
X163675937Y-58908881D01*
X163720960Y-59011523D01*
X163775825Y-59136604D01*
X163775827Y-59136607D01*
X163911836Y-59344785D01*
X164080256Y-59527738D01*
X164080259Y-59527740D01*
X164276485Y-59680470D01*
X164276487Y-59680471D01*
X164276491Y-59680474D01*
X164495190Y-59798828D01*
X164730386Y-59879571D01*
X164975665Y-59920500D01*
X165224335Y-59920500D01*
X165469614Y-59879571D01*
X165704810Y-59798828D01*
X165923509Y-59680474D01*
X166119744Y-59527738D01*
X166288164Y-59344785D01*
X166424173Y-59136607D01*
X166524063Y-58908881D01*
X166585108Y-58667821D01*
X166605643Y-58420000D01*
X166585108Y-58172179D01*
X166524063Y-57931119D01*
X166424173Y-57703393D01*
X166288164Y-57495215D01*
X166119744Y-57312262D01*
X166097612Y-57295036D01*
X165923514Y-57159529D01*
X165923510Y-57159526D01*
X165923509Y-57159526D01*
X165704810Y-57041172D01*
X165704806Y-57041170D01*
X165704805Y-57041170D01*
X165469615Y-56960429D01*
X165224335Y-56919500D01*
X164975665Y-56919500D01*
X164730384Y-56960429D01*
X164495194Y-57041170D01*
X164276485Y-57159529D01*
X164080259Y-57312259D01*
X164080256Y-57312261D01*
X164080256Y-57312262D01*
X163954220Y-57449174D01*
X163911837Y-57495214D01*
X163775825Y-57703395D01*
X163687616Y-57904494D01*
X163675937Y-57931119D01*
X163641565Y-58066852D01*
X163614891Y-58172183D01*
X163594356Y-58419999D01*
X161287323Y-58419999D01*
X161268070Y-58199932D01*
X161210894Y-57986550D01*
X161117534Y-57786339D01*
X160990826Y-57605380D01*
X160834620Y-57449174D01*
X160653662Y-57322466D01*
X160524811Y-57262381D01*
X160472635Y-57216624D01*
X160453216Y-57149998D01*
X160472636Y-57083373D01*
X160524810Y-57037618D01*
X160653662Y-56977534D01*
X160834620Y-56850826D01*
X160990826Y-56694620D01*
X161117534Y-56513662D01*
X161210894Y-56313450D01*
X161268070Y-56100068D01*
X161287323Y-55880000D01*
X166134356Y-55880000D01*
X166154891Y-56127816D01*
X166154891Y-56127819D01*
X166154892Y-56127821D01*
X166215937Y-56368881D01*
X166260960Y-56471523D01*
X166315825Y-56596604D01*
X166315827Y-56596607D01*
X166451836Y-56804785D01*
X166620256Y-56987738D01*
X166620259Y-56987740D01*
X166816485Y-57140470D01*
X166816487Y-57140471D01*
X166816491Y-57140474D01*
X167035190Y-57258828D01*
X167270386Y-57339571D01*
X167515665Y-57380500D01*
X167764335Y-57380500D01*
X168009614Y-57339571D01*
X168244810Y-57258828D01*
X168463509Y-57140474D01*
X168659744Y-56987738D01*
X168828164Y-56804785D01*
X168964173Y-56596607D01*
X169064063Y-56368881D01*
X169125108Y-56127821D01*
X169145643Y-55880000D01*
X169125108Y-55632179D01*
X169064063Y-55391119D01*
X168964173Y-55163393D01*
X168828164Y-54955215D01*
X168659744Y-54772262D01*
X168637612Y-54755036D01*
X168463514Y-54619529D01*
X168463510Y-54619526D01*
X168463509Y-54619526D01*
X168244810Y-54501172D01*
X168244806Y-54501170D01*
X168244805Y-54501170D01*
X168009615Y-54420429D01*
X167764335Y-54379500D01*
X167515665Y-54379500D01*
X167270384Y-54420429D01*
X167035194Y-54501170D01*
X166816485Y-54619529D01*
X166620259Y-54772259D01*
X166620256Y-54772261D01*
X166620256Y-54772262D01*
X166494220Y-54909174D01*
X166451837Y-54955214D01*
X166315825Y-55163395D01*
X166225780Y-55368678D01*
X166215937Y-55391119D01*
X166193074Y-55481404D01*
X166154891Y-55632183D01*
X166134356Y-55880000D01*
X161287323Y-55880000D01*
X161268070Y-55659932D01*
X161210894Y-55446550D01*
X161117534Y-55246339D01*
X160990826Y-55065380D01*
X160834620Y-54909174D01*
X160653662Y-54782466D01*
X160524811Y-54722382D01*
X160472635Y-54676625D01*
X160453216Y-54610000D01*
X160472635Y-54543375D01*
X160524811Y-54497618D01*
X160530027Y-54495185D01*
X160653662Y-54437534D01*
X160834620Y-54310826D01*
X160990826Y-54154620D01*
X161117534Y-53973662D01*
X161210894Y-53773450D01*
X161268070Y-53560068D01*
X161287323Y-53340000D01*
X161287323Y-53339999D01*
X163594356Y-53339999D01*
X163614891Y-53587816D01*
X163614891Y-53587819D01*
X163614892Y-53587821D01*
X163675937Y-53828881D01*
X163720960Y-53931523D01*
X163775825Y-54056604D01*
X163775827Y-54056607D01*
X163911836Y-54264785D01*
X164080256Y-54447738D01*
X164080259Y-54447740D01*
X164276485Y-54600470D01*
X164276487Y-54600471D01*
X164276491Y-54600474D01*
X164495190Y-54718828D01*
X164730386Y-54799571D01*
X164975665Y-54840500D01*
X165224335Y-54840500D01*
X165469614Y-54799571D01*
X165704810Y-54718828D01*
X165923509Y-54600474D01*
X166119744Y-54447738D01*
X166288164Y-54264785D01*
X166424173Y-54056607D01*
X166524063Y-53828881D01*
X166585108Y-53587821D01*
X166605643Y-53340000D01*
X166585108Y-53092179D01*
X166524063Y-52851119D01*
X166424173Y-52623393D01*
X166288164Y-52415215D01*
X166119744Y-52232262D01*
X166097612Y-52215036D01*
X165923514Y-52079529D01*
X165923510Y-52079526D01*
X165923509Y-52079526D01*
X165704810Y-51961172D01*
X165704806Y-51961170D01*
X165704805Y-51961170D01*
X165469615Y-51880429D01*
X165224335Y-51839500D01*
X164975665Y-51839500D01*
X164730384Y-51880429D01*
X164495194Y-51961170D01*
X164276485Y-52079529D01*
X164080259Y-52232259D01*
X164080256Y-52232261D01*
X164080256Y-52232262D01*
X164017439Y-52300500D01*
X163911837Y-52415214D01*
X163775825Y-52623395D01*
X163739443Y-52706339D01*
X163675937Y-52851119D01*
X163614892Y-53092179D01*
X163614891Y-53092183D01*
X163594356Y-53339999D01*
X161287323Y-53339999D01*
X161268070Y-53119932D01*
X161210894Y-52906550D01*
X161117534Y-52706339D01*
X160990826Y-52525380D01*
X160834620Y-52369174D01*
X160653662Y-52242466D01*
X160524811Y-52182382D01*
X160472635Y-52136625D01*
X160453216Y-52070000D01*
X160472635Y-52003375D01*
X160524811Y-51957618D01*
X160530027Y-51955185D01*
X160653662Y-51897534D01*
X160834620Y-51770826D01*
X160990826Y-51614620D01*
X161117534Y-51433662D01*
X161210894Y-51233450D01*
X161268070Y-51020068D01*
X161287323Y-50800000D01*
X161268070Y-50579932D01*
X161227325Y-50427869D01*
X177714500Y-50427869D01*
X177720909Y-50487484D01*
X177746056Y-50554907D01*
X177771204Y-50622331D01*
X177857454Y-50737546D01*
X177972669Y-50823796D01*
X178104598Y-50873002D01*
X178154978Y-50907981D01*
X178182431Y-50962825D01*
X178180242Y-51024118D01*
X178148947Y-51076865D01*
X178026888Y-51198924D01*
X177891400Y-51392421D01*
X177791569Y-51606507D01*
X177734364Y-51819999D01*
X177734364Y-51820000D01*
X180395636Y-51820000D01*
X180395635Y-51819999D01*
X180338430Y-51606507D01*
X180238599Y-51392421D01*
X180103109Y-51198921D01*
X179981053Y-51076865D01*
X179949757Y-51024119D01*
X179947568Y-50962826D01*
X179975021Y-50907981D01*
X180025398Y-50873003D01*
X180157331Y-50823796D01*
X180272546Y-50737546D01*
X180358796Y-50622331D01*
X180409091Y-50487483D01*
X180415500Y-50427873D01*
X180415499Y-48632128D01*
X180409091Y-48572517D01*
X180358796Y-48437669D01*
X180272546Y-48322454D01*
X180157331Y-48236204D01*
X180022483Y-48185909D01*
X179962873Y-48179500D01*
X179962869Y-48179500D01*
X178167130Y-48179500D01*
X178107515Y-48185909D01*
X177972669Y-48236204D01*
X177857454Y-48322454D01*
X177771204Y-48437668D01*
X177720909Y-48572516D01*
X177714500Y-48632130D01*
X177714500Y-50427869D01*
X161227325Y-50427869D01*
X161210894Y-50366550D01*
X161117534Y-50166339D01*
X160990826Y-49985380D01*
X160834620Y-49829174D01*
X160653662Y-49702466D01*
X160524811Y-49642382D01*
X160472635Y-49596625D01*
X160453216Y-49530000D01*
X160472635Y-49463375D01*
X160524811Y-49417618D01*
X160530027Y-49415185D01*
X160653662Y-49357534D01*
X160834620Y-49230826D01*
X160990826Y-49074620D01*
X161117534Y-48893662D01*
X161210894Y-48693450D01*
X161268070Y-48480068D01*
X161287323Y-48260000D01*
X161268070Y-48039932D01*
X161210894Y-47826550D01*
X161117534Y-47626339D01*
X160990826Y-47445380D01*
X160834620Y-47289174D01*
X160653662Y-47162466D01*
X160653661Y-47162465D01*
X160453451Y-47069106D01*
X160240065Y-47011929D01*
X160020000Y-46992676D01*
X159799934Y-47011929D01*
X159586548Y-47069106D01*
X159386338Y-47162466D01*
X159205379Y-47289174D01*
X159049174Y-47445379D01*
X158922466Y-47626338D01*
X158829106Y-47826548D01*
X158771929Y-48039934D01*
X158752676Y-48259999D01*
X158771929Y-48480065D01*
X158812674Y-48632128D01*
X158829106Y-48693450D01*
X158922466Y-48893662D01*
X159049174Y-49074620D01*
X159205380Y-49230826D01*
X159386338Y-49357534D01*
X159505748Y-49413215D01*
X159515189Y-49417618D01*
X159567365Y-49463375D01*
X159586784Y-49530000D01*
X159567365Y-49596625D01*
X159515189Y-49642382D01*
X159386338Y-49702466D01*
X159205379Y-49829174D01*
X159049174Y-49985379D01*
X158922466Y-50166338D01*
X158829106Y-50366548D01*
X158771929Y-50579934D01*
X158752676Y-50799999D01*
X158771929Y-51020065D01*
X158829106Y-51233451D01*
X158854954Y-51288882D01*
X158922466Y-51433662D01*
X159049174Y-51614620D01*
X159205380Y-51770826D01*
X159386338Y-51897534D01*
X159505748Y-51953215D01*
X159515189Y-51957618D01*
X159567365Y-52003375D01*
X159586784Y-52070000D01*
X159567365Y-52136625D01*
X159515189Y-52182382D01*
X159386338Y-52242466D01*
X159205379Y-52369174D01*
X159049174Y-52525379D01*
X158922466Y-52706338D01*
X158829106Y-52906548D01*
X158771929Y-53119934D01*
X158752676Y-53340000D01*
X158771929Y-53560065D01*
X158829106Y-53773451D01*
X158922465Y-53973661D01*
X158922466Y-53973662D01*
X159049174Y-54154620D01*
X159205380Y-54310826D01*
X159386338Y-54437534D01*
X159505748Y-54493215D01*
X159515189Y-54497618D01*
X159567365Y-54543375D01*
X159586784Y-54610000D01*
X159567365Y-54676625D01*
X159515189Y-54722382D01*
X159386338Y-54782466D01*
X159205379Y-54909174D01*
X159049174Y-55065379D01*
X158922466Y-55246338D01*
X158829106Y-55446548D01*
X158771929Y-55659934D01*
X158752676Y-55879999D01*
X158771929Y-56100065D01*
X158829106Y-56313451D01*
X158922466Y-56513662D01*
X159049174Y-56694620D01*
X159205380Y-56850826D01*
X159386338Y-56977534D01*
X159505748Y-57033215D01*
X159515189Y-57037618D01*
X159567365Y-57083375D01*
X159586784Y-57150000D01*
X159567365Y-57216625D01*
X159515189Y-57262382D01*
X159386338Y-57322466D01*
X159205379Y-57449174D01*
X159049174Y-57605379D01*
X158922466Y-57786338D01*
X158829106Y-57986548D01*
X158771929Y-58199934D01*
X158752676Y-58419999D01*
X158771929Y-58640065D01*
X158829106Y-58853451D01*
X158918660Y-59045500D01*
X158922466Y-59053662D01*
X159049174Y-59234620D01*
X159205380Y-59390826D01*
X159386338Y-59517534D01*
X159505748Y-59573215D01*
X159515189Y-59577618D01*
X159567365Y-59623375D01*
X159586784Y-59690000D01*
X159567365Y-59756625D01*
X159515189Y-59802382D01*
X159386338Y-59862466D01*
X159205379Y-59989174D01*
X159049174Y-60145379D01*
X158922466Y-60326338D01*
X158829106Y-60526548D01*
X158771929Y-60739934D01*
X158752676Y-60959999D01*
X158771929Y-61180064D01*
X158771929Y-61180067D01*
X158771930Y-61180068D01*
X158779366Y-61207821D01*
X158783707Y-61224019D01*
X158783707Y-61288206D01*
X158751613Y-61343794D01*
X157096208Y-62999199D01*
X157080110Y-63012096D01*
X157032096Y-63063225D01*
X157029391Y-63066017D01*
X157009874Y-63085534D01*
X157007415Y-63088705D01*
X156999842Y-63097572D01*
X156969935Y-63129420D01*
X156960285Y-63146974D01*
X156949609Y-63163228D01*
X156937326Y-63179063D01*
X156919975Y-63219158D01*
X156914838Y-63229644D01*
X156893802Y-63267907D01*
X156888821Y-63287309D01*
X156882520Y-63305711D01*
X156874561Y-63324102D01*
X156867728Y-63367242D01*
X156865360Y-63378674D01*
X156854500Y-63420978D01*
X156854500Y-63441016D01*
X156852973Y-63460415D01*
X156849840Y-63480194D01*
X156853950Y-63523675D01*
X156854500Y-63535344D01*
X156854500Y-106369547D01*
X156845061Y-106417000D01*
X156818181Y-106457228D01*
X154717228Y-108558181D01*
X154677000Y-108585061D01*
X154629547Y-108594500D01*
X148260453Y-108594500D01*
X148213000Y-108585061D01*
X148172772Y-108558181D01*
X147861863Y-108247272D01*
X147830961Y-108195840D01*
X147827824Y-108135920D01*
X147853189Y-108081542D01*
X147901114Y-108045440D01*
X147939478Y-108039371D01*
X147939193Y-108036103D01*
X148185318Y-108014569D01*
X148413492Y-107953430D01*
X148627576Y-107853600D01*
X148711373Y-107794925D01*
X147950000Y-107033553D01*
X147596448Y-106680001D01*
X148303553Y-106680001D01*
X149064925Y-107441373D01*
X149123600Y-107357576D01*
X149223430Y-107143492D01*
X149284569Y-106915318D01*
X149305157Y-106680000D01*
X149284569Y-106444681D01*
X149223430Y-106216507D01*
X149123599Y-106002421D01*
X149064926Y-105918626D01*
X149064925Y-105918625D01*
X148303553Y-106680000D01*
X148303553Y-106680001D01*
X147596448Y-106680001D01*
X146835073Y-105918626D01*
X146781881Y-105994594D01*
X146737563Y-106033460D01*
X146680306Y-106047471D01*
X146623048Y-106033460D01*
X146578730Y-105994595D01*
X146448495Y-105808599D01*
X146321536Y-105681640D01*
X146289442Y-105626053D01*
X146289442Y-105561865D01*
X146321536Y-105506278D01*
X146377124Y-105474184D01*
X146433779Y-105474184D01*
X146433785Y-105474118D01*
X146434539Y-105474184D01*
X146441311Y-105474184D01*
X146444592Y-105475063D01*
X146680000Y-105495659D01*
X146915408Y-105475063D01*
X147032192Y-105443770D01*
X147091123Y-105442485D01*
X147143990Y-105468556D01*
X147178846Y-105516092D01*
X147185977Y-105562424D01*
X147950000Y-106326447D01*
X147950001Y-106326447D01*
X148713869Y-105562577D01*
X148721106Y-105515562D01*
X148755962Y-105468025D01*
X148808829Y-105441954D01*
X148867762Y-105443240D01*
X148984683Y-105474569D01*
X149220000Y-105495157D01*
X149455318Y-105474569D01*
X149683492Y-105413430D01*
X149897576Y-105313600D01*
X149981373Y-105254925D01*
X149220000Y-104493553D01*
X148456129Y-105257422D01*
X148448893Y-105304436D01*
X148414038Y-105351972D01*
X148361171Y-105378044D01*
X148302239Y-105376758D01*
X148185320Y-105345430D01*
X147950000Y-105324842D01*
X147714675Y-105345430D01*
X147710598Y-105346523D01*
X147646412Y-105346521D01*
X147590826Y-105314426D01*
X147558735Y-105258838D01*
X147558736Y-105194652D01*
X147590826Y-105139069D01*
X147718495Y-105011401D01*
X147848732Y-104825402D01*
X147893048Y-104786539D01*
X147950305Y-104772528D01*
X148007562Y-104786539D01*
X148051880Y-104825405D01*
X148105073Y-104901373D01*
X148866447Y-104140001D01*
X148866447Y-104140000D01*
X149573553Y-104140000D01*
X150334925Y-104901373D01*
X150393600Y-104817576D01*
X150493430Y-104603492D01*
X150554569Y-104375318D01*
X150575157Y-104139999D01*
X150554569Y-103904681D01*
X150493430Y-103676507D01*
X150393599Y-103462421D01*
X150334926Y-103378626D01*
X150334925Y-103378625D01*
X149573553Y-104140000D01*
X148866447Y-104140000D01*
X148105073Y-103378626D01*
X148051881Y-103454594D01*
X148007563Y-103493460D01*
X147950306Y-103507471D01*
X147893048Y-103493460D01*
X147848730Y-103454595D01*
X147718495Y-103268599D01*
X147551401Y-103101505D01*
X147442243Y-103025072D01*
X148458625Y-103025072D01*
X149220000Y-103786447D01*
X149220001Y-103786447D01*
X149981373Y-103025073D01*
X149981373Y-103025072D01*
X149897580Y-102966400D01*
X149683492Y-102866569D01*
X149455318Y-102805430D01*
X149220000Y-102784842D01*
X148984681Y-102805430D01*
X148756507Y-102866569D01*
X148542422Y-102966399D01*
X148458625Y-103025072D01*
X147442243Y-103025072D01*
X147357830Y-102965965D01*
X147143663Y-102866097D01*
X147082502Y-102849709D01*
X146915407Y-102804936D01*
X146680000Y-102784340D01*
X146444592Y-102804936D01*
X146216336Y-102866097D01*
X146002170Y-102965965D01*
X145808598Y-103101505D01*
X145641505Y-103268598D01*
X145505965Y-103462170D01*
X145406097Y-103676336D01*
X145344936Y-103904592D01*
X145324340Y-104140000D01*
X145344936Y-104375407D01*
X145376593Y-104493553D01*
X145406097Y-104603663D01*
X145505965Y-104817830D01*
X145641505Y-105011401D01*
X145641508Y-105011404D01*
X145768463Y-105138359D01*
X145800556Y-105193945D01*
X145800557Y-105258131D01*
X145768466Y-105313719D01*
X145712880Y-105345814D01*
X145656220Y-105345815D01*
X145656215Y-105345882D01*
X145655458Y-105345815D01*
X145648694Y-105345816D01*
X145645412Y-105344936D01*
X145410000Y-105324340D01*
X145174592Y-105344936D01*
X144946336Y-105406097D01*
X144732170Y-105505965D01*
X144538598Y-105641505D01*
X144371505Y-105808598D01*
X144235965Y-106002170D01*
X144136097Y-106216336D01*
X144074936Y-106444592D01*
X144054340Y-106679999D01*
X121920500Y-106679999D01*
X121920500Y-86360000D01*
X150894356Y-86360000D01*
X150914891Y-86607816D01*
X150914891Y-86607819D01*
X150914892Y-86607821D01*
X150975937Y-86848881D01*
X151020960Y-86951523D01*
X151075825Y-87076604D01*
X151075827Y-87076607D01*
X151211836Y-87284785D01*
X151380256Y-87467738D01*
X151380259Y-87467740D01*
X151576485Y-87620470D01*
X151576487Y-87620471D01*
X151576491Y-87620474D01*
X151795190Y-87738828D01*
X152030386Y-87819571D01*
X152275665Y-87860500D01*
X152524335Y-87860500D01*
X152769614Y-87819571D01*
X153004810Y-87738828D01*
X153223509Y-87620474D01*
X153419744Y-87467738D01*
X153588164Y-87284785D01*
X153724173Y-87076607D01*
X153824063Y-86848881D01*
X153885108Y-86607821D01*
X153905643Y-86360000D01*
X153885108Y-86112179D01*
X153824063Y-85871119D01*
X153724173Y-85643393D01*
X153588164Y-85435215D01*
X153419744Y-85252262D01*
X153397612Y-85235036D01*
X153223514Y-85099529D01*
X153223510Y-85099526D01*
X153223509Y-85099526D01*
X153004810Y-84981172D01*
X153004806Y-84981170D01*
X153004805Y-84981170D01*
X152769615Y-84900429D01*
X152524335Y-84859500D01*
X152275665Y-84859500D01*
X152030384Y-84900429D01*
X151795194Y-84981170D01*
X151576485Y-85099529D01*
X151380259Y-85252259D01*
X151380256Y-85252261D01*
X151380256Y-85252262D01*
X151211837Y-85435214D01*
X151075825Y-85643395D01*
X150985780Y-85848678D01*
X150975937Y-85871119D01*
X150953074Y-85961404D01*
X150914891Y-86112183D01*
X150894356Y-86360000D01*
X121920500Y-86360000D01*
X121920500Y-83820000D01*
X145814356Y-83820000D01*
X145834891Y-84067816D01*
X145834891Y-84067819D01*
X145834892Y-84067821D01*
X145895937Y-84308881D01*
X145940960Y-84411523D01*
X145995825Y-84536604D01*
X145995827Y-84536607D01*
X146131836Y-84744785D01*
X146300256Y-84927738D01*
X146300259Y-84927740D01*
X146496485Y-85080470D01*
X146496487Y-85080471D01*
X146496491Y-85080474D01*
X146715190Y-85198828D01*
X146950386Y-85279571D01*
X147195665Y-85320500D01*
X147444335Y-85320500D01*
X147689614Y-85279571D01*
X147924810Y-85198828D01*
X148143509Y-85080474D01*
X148339744Y-84927738D01*
X148508164Y-84744785D01*
X148644173Y-84536607D01*
X148744063Y-84308881D01*
X148805108Y-84067821D01*
X148825643Y-83820000D01*
X148805108Y-83572179D01*
X148744063Y-83331119D01*
X148644173Y-83103393D01*
X148508164Y-82895215D01*
X148339744Y-82712262D01*
X148317612Y-82695036D01*
X148143514Y-82559529D01*
X148143510Y-82559526D01*
X148143509Y-82559526D01*
X147924810Y-82441172D01*
X147924806Y-82441170D01*
X147924805Y-82441170D01*
X147689615Y-82360429D01*
X147444335Y-82319500D01*
X147195665Y-82319500D01*
X146950384Y-82360429D01*
X146715194Y-82441170D01*
X146715190Y-82441171D01*
X146715190Y-82441172D01*
X146660269Y-82470894D01*
X146496485Y-82559529D01*
X146300259Y-82712259D01*
X146131837Y-82895214D01*
X145995825Y-83103395D01*
X145895938Y-83331117D01*
X145834891Y-83572183D01*
X145814356Y-83820000D01*
X121920500Y-83820000D01*
X121920500Y-81280000D01*
X151132676Y-81280000D01*
X151151929Y-81500065D01*
X151209106Y-81713451D01*
X151302466Y-81913662D01*
X151429174Y-82094620D01*
X151585380Y-82250826D01*
X151766338Y-82377534D01*
X151966550Y-82470894D01*
X152179932Y-82528070D01*
X152400000Y-82547323D01*
X152620068Y-82528070D01*
X152833450Y-82470894D01*
X153033662Y-82377534D01*
X153214620Y-82250826D01*
X153370826Y-82094620D01*
X153497534Y-81913662D01*
X153590894Y-81713450D01*
X153648070Y-81500068D01*
X153667323Y-81280000D01*
X153648070Y-81059932D01*
X153590894Y-80846550D01*
X153497534Y-80646339D01*
X153370826Y-80465380D01*
X153214620Y-80309174D01*
X153033662Y-80182466D01*
X152904811Y-80122382D01*
X152852635Y-80076625D01*
X152833216Y-80010000D01*
X152852635Y-79943375D01*
X152904811Y-79897618D01*
X152910027Y-79895185D01*
X153033662Y-79837534D01*
X153214620Y-79710826D01*
X153370826Y-79554620D01*
X153497534Y-79373662D01*
X153590894Y-79173450D01*
X153648070Y-78960068D01*
X153667323Y-78740000D01*
X153648070Y-78519932D01*
X153590894Y-78306550D01*
X153497534Y-78106339D01*
X153370826Y-77925380D01*
X153214620Y-77769174D01*
X153033662Y-77642466D01*
X152904811Y-77582381D01*
X152852635Y-77536624D01*
X152833216Y-77469998D01*
X152852636Y-77403373D01*
X152904810Y-77357618D01*
X153033662Y-77297534D01*
X153214620Y-77170826D01*
X153370826Y-77014620D01*
X153497534Y-76833662D01*
X153590894Y-76633450D01*
X153648070Y-76420068D01*
X153667323Y-76200000D01*
X153648070Y-75979932D01*
X153590894Y-75766550D01*
X153497534Y-75566339D01*
X153370826Y-75385380D01*
X153214620Y-75229174D01*
X153033662Y-75102466D01*
X152904811Y-75042382D01*
X152852635Y-74996625D01*
X152833216Y-74930000D01*
X152852635Y-74863375D01*
X152904811Y-74817618D01*
X152910027Y-74815185D01*
X153033662Y-74757534D01*
X153214620Y-74630826D01*
X153370826Y-74474620D01*
X153497534Y-74293662D01*
X153590894Y-74093450D01*
X153648070Y-73880068D01*
X153667323Y-73660000D01*
X153648070Y-73439932D01*
X153590894Y-73226550D01*
X153497534Y-73026339D01*
X153370826Y-72845380D01*
X153214620Y-72689174D01*
X153033662Y-72562466D01*
X152904811Y-72502382D01*
X152852635Y-72456625D01*
X152833216Y-72390000D01*
X152852635Y-72323375D01*
X152904811Y-72277618D01*
X152910027Y-72275185D01*
X153033662Y-72217534D01*
X153214620Y-72090826D01*
X153370826Y-71934620D01*
X153497534Y-71753662D01*
X153590894Y-71553450D01*
X153648070Y-71340068D01*
X153667323Y-71120000D01*
X153648070Y-70899932D01*
X153590894Y-70686550D01*
X153497534Y-70486339D01*
X153370826Y-70305380D01*
X153214620Y-70149174D01*
X153033662Y-70022466D01*
X152904811Y-69962382D01*
X152852635Y-69916625D01*
X152833216Y-69850000D01*
X152852635Y-69783375D01*
X152904811Y-69737618D01*
X152910027Y-69735185D01*
X153033662Y-69677534D01*
X153214620Y-69550826D01*
X153370826Y-69394620D01*
X153497534Y-69213662D01*
X153590894Y-69013450D01*
X153648070Y-68800068D01*
X153667323Y-68580000D01*
X153648070Y-68359932D01*
X153590894Y-68146550D01*
X153497534Y-67946339D01*
X153370826Y-67765380D01*
X153214620Y-67609174D01*
X153033662Y-67482466D01*
X152904218Y-67422105D01*
X152852042Y-67376348D01*
X152832623Y-67309722D01*
X152852043Y-67243097D01*
X152904220Y-67197340D01*
X153033411Y-67137098D01*
X153098187Y-67091740D01*
X152400001Y-66393553D01*
X152400000Y-66393553D01*
X151701812Y-67091740D01*
X151766592Y-67137100D01*
X151895780Y-67197341D01*
X151947956Y-67243097D01*
X151967376Y-67309722D01*
X151947957Y-67376347D01*
X151895782Y-67422105D01*
X151766336Y-67482467D01*
X151585379Y-67609174D01*
X151429174Y-67765379D01*
X151302466Y-67946338D01*
X151209106Y-68146548D01*
X151151929Y-68359934D01*
X151132676Y-68580000D01*
X151151929Y-68800065D01*
X151209106Y-69013451D01*
X151234954Y-69068882D01*
X151302466Y-69213662D01*
X151429174Y-69394620D01*
X151585380Y-69550826D01*
X151766338Y-69677534D01*
X151822649Y-69703792D01*
X151895189Y-69737618D01*
X151947365Y-69783375D01*
X151966784Y-69850000D01*
X151947365Y-69916625D01*
X151895189Y-69962382D01*
X151766338Y-70022466D01*
X151585379Y-70149174D01*
X151429174Y-70305379D01*
X151302466Y-70486338D01*
X151209106Y-70686548D01*
X151151929Y-70899934D01*
X151132676Y-71120000D01*
X151151929Y-71340065D01*
X151209106Y-71553451D01*
X151302465Y-71753661D01*
X151302466Y-71753662D01*
X151429174Y-71934620D01*
X151585380Y-72090826D01*
X151766338Y-72217534D01*
X151885748Y-72273215D01*
X151895189Y-72277618D01*
X151947365Y-72323375D01*
X151966784Y-72390000D01*
X151947365Y-72456625D01*
X151895189Y-72502382D01*
X151766338Y-72562466D01*
X151585379Y-72689174D01*
X151429174Y-72845379D01*
X151302466Y-73026338D01*
X151209106Y-73226548D01*
X151151929Y-73439934D01*
X151132676Y-73660000D01*
X151151929Y-73880065D01*
X151209106Y-74093451D01*
X151234954Y-74148882D01*
X151302466Y-74293662D01*
X151429174Y-74474620D01*
X151585380Y-74630826D01*
X151766338Y-74757534D01*
X151885748Y-74813215D01*
X151895189Y-74817618D01*
X151947365Y-74863375D01*
X151966784Y-74930000D01*
X151947365Y-74996625D01*
X151895189Y-75042382D01*
X151766338Y-75102466D01*
X151585379Y-75229174D01*
X151429174Y-75385379D01*
X151302466Y-75566338D01*
X151209106Y-75766548D01*
X151151929Y-75979934D01*
X151132676Y-76199999D01*
X151151929Y-76420065D01*
X151209106Y-76633451D01*
X151302465Y-76833661D01*
X151302466Y-76833662D01*
X151429174Y-77014620D01*
X151585380Y-77170826D01*
X151766338Y-77297534D01*
X151885748Y-77353215D01*
X151895189Y-77357618D01*
X151947365Y-77403375D01*
X151966784Y-77470000D01*
X151947365Y-77536625D01*
X151895189Y-77582382D01*
X151766338Y-77642466D01*
X151585379Y-77769174D01*
X151429174Y-77925379D01*
X151302466Y-78106338D01*
X151209106Y-78306548D01*
X151151929Y-78519934D01*
X151132676Y-78740000D01*
X151151929Y-78960065D01*
X151209106Y-79173451D01*
X151302465Y-79373661D01*
X151302466Y-79373662D01*
X151429174Y-79554620D01*
X151585380Y-79710826D01*
X151766338Y-79837534D01*
X151885748Y-79893215D01*
X151895189Y-79897618D01*
X151947365Y-79943375D01*
X151966784Y-80010000D01*
X151947365Y-80076625D01*
X151895189Y-80122382D01*
X151766338Y-80182466D01*
X151585379Y-80309174D01*
X151429174Y-80465379D01*
X151302466Y-80646338D01*
X151209106Y-80846548D01*
X151151929Y-81059934D01*
X151132676Y-81280000D01*
X121920500Y-81280000D01*
X121920500Y-78740000D01*
X141334540Y-78740000D01*
X141354326Y-78928257D01*
X141412820Y-79108284D01*
X141507466Y-79272216D01*
X141634129Y-79412889D01*
X141787269Y-79524151D01*
X141960197Y-79601144D01*
X142145352Y-79640500D01*
X142145354Y-79640500D01*
X142334646Y-79640500D01*
X142334648Y-79640500D01*
X142458084Y-79614262D01*
X142519803Y-79601144D01*
X142692730Y-79524151D01*
X142845871Y-79412888D01*
X142972533Y-79272216D01*
X143067179Y-79108284D01*
X143125674Y-78928256D01*
X143143322Y-78760341D01*
X143149059Y-78739999D01*
X145814356Y-78739999D01*
X145834891Y-78987816D01*
X145834891Y-78987819D01*
X145834892Y-78987821D01*
X145895937Y-79228881D01*
X145914946Y-79272216D01*
X145995825Y-79456604D01*
X145995827Y-79456607D01*
X146131836Y-79664785D01*
X146300256Y-79847738D01*
X146300259Y-79847740D01*
X146496485Y-80000470D01*
X146496487Y-80000471D01*
X146496491Y-80000474D01*
X146715190Y-80118828D01*
X146950386Y-80199571D01*
X147195665Y-80240500D01*
X147444335Y-80240500D01*
X147689614Y-80199571D01*
X147924810Y-80118828D01*
X148143509Y-80000474D01*
X148339744Y-79847738D01*
X148508164Y-79664785D01*
X148644173Y-79456607D01*
X148744063Y-79228881D01*
X148805108Y-78987821D01*
X148825643Y-78740000D01*
X148805108Y-78492179D01*
X148744063Y-78251119D01*
X148644173Y-78023393D01*
X148508164Y-77815215D01*
X148339744Y-77632262D01*
X148317612Y-77615036D01*
X148143514Y-77479529D01*
X148143510Y-77479526D01*
X148143509Y-77479526D01*
X147924810Y-77361172D01*
X147924806Y-77361170D01*
X147924805Y-77361170D01*
X147689615Y-77280429D01*
X147444335Y-77239500D01*
X147195665Y-77239500D01*
X146950384Y-77280429D01*
X146715194Y-77361170D01*
X146496485Y-77479529D01*
X146300259Y-77632259D01*
X146300256Y-77632261D01*
X146300256Y-77632262D01*
X146174220Y-77769174D01*
X146131837Y-77815214D01*
X145995825Y-78023395D01*
X145905780Y-78228678D01*
X145895937Y-78251119D01*
X145873074Y-78341404D01*
X145834891Y-78492183D01*
X145814356Y-78739999D01*
X143149059Y-78739999D01*
X143154720Y-78719927D01*
X143178957Y-78685632D01*
X145163789Y-76700800D01*
X145179885Y-76687906D01*
X145181873Y-76685787D01*
X145181877Y-76685786D01*
X145227948Y-76636723D01*
X145230566Y-76634023D01*
X145250120Y-76614471D01*
X145252581Y-76611298D01*
X145260156Y-76602427D01*
X145290062Y-76570582D01*
X145299717Y-76553018D01*
X145310394Y-76536764D01*
X145322673Y-76520936D01*
X145340018Y-76480852D01*
X145345160Y-76470356D01*
X145366197Y-76432092D01*
X145371179Y-76412684D01*
X145377481Y-76394280D01*
X145385437Y-76375896D01*
X145392269Y-76332752D01*
X145394633Y-76321338D01*
X145405500Y-76279019D01*
X145405500Y-76258984D01*
X145407027Y-76239585D01*
X145407068Y-76239321D01*
X145410160Y-76219804D01*
X145406050Y-76176325D01*
X145405500Y-76164656D01*
X145405500Y-73659999D01*
X145814356Y-73659999D01*
X145834891Y-73907816D01*
X145834891Y-73907819D01*
X145834892Y-73907821D01*
X145895937Y-74148881D01*
X145940960Y-74251523D01*
X145995825Y-74376604D01*
X145995827Y-74376607D01*
X146131836Y-74584785D01*
X146300256Y-74767738D01*
X146300259Y-74767740D01*
X146496485Y-74920470D01*
X146496487Y-74920471D01*
X146496491Y-74920474D01*
X146715190Y-75038828D01*
X146950386Y-75119571D01*
X147195665Y-75160500D01*
X147444335Y-75160500D01*
X147689614Y-75119571D01*
X147924810Y-75038828D01*
X148143509Y-74920474D01*
X148339744Y-74767738D01*
X148508164Y-74584785D01*
X148644173Y-74376607D01*
X148744063Y-74148881D01*
X148805108Y-73907821D01*
X148825643Y-73660000D01*
X148805108Y-73412179D01*
X148744063Y-73171119D01*
X148644173Y-72943393D01*
X148508164Y-72735215D01*
X148339744Y-72552262D01*
X148317612Y-72535036D01*
X148143514Y-72399529D01*
X148143510Y-72399526D01*
X148143509Y-72399526D01*
X147924810Y-72281172D01*
X147924806Y-72281170D01*
X147924805Y-72281170D01*
X147689615Y-72200429D01*
X147444335Y-72159500D01*
X147195665Y-72159500D01*
X146950384Y-72200429D01*
X146715194Y-72281170D01*
X146496485Y-72399529D01*
X146300259Y-72552259D01*
X146131837Y-72735214D01*
X145995825Y-72943395D01*
X145959443Y-73026339D01*
X145895937Y-73171119D01*
X145881900Y-73226550D01*
X145834891Y-73412183D01*
X145814356Y-73659999D01*
X145405500Y-73659999D01*
X145405500Y-66039999D01*
X151133178Y-66039999D01*
X151152424Y-66259978D01*
X151209579Y-66473281D01*
X151302898Y-66673406D01*
X151348258Y-66738187D01*
X152046446Y-66040001D01*
X152753553Y-66040001D01*
X153451740Y-66738186D01*
X153497100Y-66673408D01*
X153590420Y-66473281D01*
X153647575Y-66259978D01*
X153666821Y-66039999D01*
X153647575Y-65820021D01*
X153590421Y-65606720D01*
X153497098Y-65406589D01*
X153451740Y-65341811D01*
X152753553Y-66040000D01*
X152753553Y-66040001D01*
X152046446Y-66040001D01*
X152046446Y-66040000D01*
X151348258Y-65341811D01*
X151348258Y-65341812D01*
X151302900Y-65406589D01*
X151209578Y-65606719D01*
X151152424Y-65820021D01*
X151133178Y-66039999D01*
X145405500Y-66039999D01*
X145405500Y-60959999D01*
X145814356Y-60959999D01*
X145834891Y-61207816D01*
X145834891Y-61207819D01*
X145834892Y-61207821D01*
X145895937Y-61448881D01*
X145940960Y-61551523D01*
X145995825Y-61676604D01*
X145995827Y-61676607D01*
X146131836Y-61884785D01*
X146300256Y-62067738D01*
X146300259Y-62067740D01*
X146496485Y-62220470D01*
X146496487Y-62220471D01*
X146496491Y-62220474D01*
X146715190Y-62338828D01*
X146950386Y-62419571D01*
X147195665Y-62460500D01*
X147444335Y-62460500D01*
X147689614Y-62419571D01*
X147924810Y-62338828D01*
X148143509Y-62220474D01*
X148339744Y-62067738D01*
X148508164Y-61884785D01*
X148644173Y-61676607D01*
X148744063Y-61448881D01*
X148805108Y-61207821D01*
X148825643Y-60960000D01*
X148805108Y-60712179D01*
X148744063Y-60471119D01*
X148644173Y-60243393D01*
X148508164Y-60035215D01*
X148339744Y-59852262D01*
X148317612Y-59835036D01*
X148143514Y-59699529D01*
X148143510Y-59699526D01*
X148143509Y-59699526D01*
X147924810Y-59581172D01*
X147924806Y-59581170D01*
X147924805Y-59581170D01*
X147689615Y-59500429D01*
X147444335Y-59459500D01*
X147195665Y-59459500D01*
X146950384Y-59500429D01*
X146715194Y-59581170D01*
X146496485Y-59699529D01*
X146300259Y-59852259D01*
X146300256Y-59852261D01*
X146300256Y-59852262D01*
X146174220Y-59989174D01*
X146131837Y-60035214D01*
X145995825Y-60243395D01*
X145905780Y-60448678D01*
X145895937Y-60471119D01*
X145873074Y-60561404D01*
X145834891Y-60712183D01*
X145814356Y-60959999D01*
X145405500Y-60959999D01*
X145405500Y-59169500D01*
X145422113Y-59107500D01*
X145467500Y-59062113D01*
X145529500Y-59045500D01*
X151232201Y-59045500D01*
X151289458Y-59059511D01*
X151333775Y-59098376D01*
X151429174Y-59234620D01*
X151585380Y-59390826D01*
X151766338Y-59517534D01*
X151885748Y-59573215D01*
X151895189Y-59577618D01*
X151947365Y-59623375D01*
X151966784Y-59690000D01*
X151947365Y-59756625D01*
X151895189Y-59802382D01*
X151766338Y-59862466D01*
X151585379Y-59989174D01*
X151429174Y-60145379D01*
X151302466Y-60326338D01*
X151209106Y-60526548D01*
X151151929Y-60739934D01*
X151132676Y-60959999D01*
X151151929Y-61180065D01*
X151209106Y-61393451D01*
X151302465Y-61593661D01*
X151302466Y-61593662D01*
X151429174Y-61774620D01*
X151585380Y-61930826D01*
X151766338Y-62057534D01*
X151885748Y-62113215D01*
X151895189Y-62117618D01*
X151947365Y-62163375D01*
X151966784Y-62230000D01*
X151947365Y-62296625D01*
X151895189Y-62342382D01*
X151766338Y-62402466D01*
X151585379Y-62529174D01*
X151429174Y-62685379D01*
X151302466Y-62866338D01*
X151209106Y-63066548D01*
X151151929Y-63279934D01*
X151132676Y-63499999D01*
X151151929Y-63720065D01*
X151209106Y-63933451D01*
X151302347Y-64133406D01*
X151302466Y-64133662D01*
X151429174Y-64314620D01*
X151585380Y-64470826D01*
X151766338Y-64597534D01*
X151836173Y-64630098D01*
X151895780Y-64657894D01*
X151947956Y-64703651D01*
X151967375Y-64770276D01*
X151947956Y-64836901D01*
X151895780Y-64882658D01*
X151766589Y-64942900D01*
X151701812Y-64988258D01*
X151701811Y-64988258D01*
X152400000Y-65686446D01*
X152400001Y-65686446D01*
X153098187Y-64988258D01*
X153033406Y-64942898D01*
X152904219Y-64882658D01*
X152852043Y-64836901D01*
X152832623Y-64770276D01*
X152852043Y-64703651D01*
X152904219Y-64657894D01*
X152905407Y-64657340D01*
X153033662Y-64597534D01*
X153214620Y-64470826D01*
X153370826Y-64314620D01*
X153497534Y-64133662D01*
X153590894Y-63933450D01*
X153648070Y-63720068D01*
X153667323Y-63500000D01*
X153648070Y-63279932D01*
X153590894Y-63066550D01*
X153497534Y-62866339D01*
X153370826Y-62685380D01*
X153214620Y-62529174D01*
X153033662Y-62402466D01*
X152904811Y-62342382D01*
X152852635Y-62296625D01*
X152833216Y-62230000D01*
X152852635Y-62163375D01*
X152904811Y-62117618D01*
X152910027Y-62115185D01*
X153033662Y-62057534D01*
X153214620Y-61930826D01*
X153370826Y-61774620D01*
X153497534Y-61593662D01*
X153590894Y-61393450D01*
X153648070Y-61180068D01*
X153667323Y-60960000D01*
X153648070Y-60739932D01*
X153590894Y-60526550D01*
X153497534Y-60326339D01*
X153370826Y-60145380D01*
X153214620Y-59989174D01*
X153033662Y-59862466D01*
X152904811Y-59802382D01*
X152852635Y-59756625D01*
X152833216Y-59690000D01*
X152852635Y-59623375D01*
X152904811Y-59577618D01*
X152910027Y-59575185D01*
X153033662Y-59517534D01*
X153214620Y-59390826D01*
X153370826Y-59234620D01*
X153497534Y-59053662D01*
X153590894Y-58853450D01*
X153648070Y-58640068D01*
X153667323Y-58420000D01*
X153648070Y-58199932D01*
X153590894Y-57986550D01*
X153497534Y-57786339D01*
X153370826Y-57605380D01*
X153214620Y-57449174D01*
X153033662Y-57322466D01*
X152904811Y-57262381D01*
X152852635Y-57216624D01*
X152833216Y-57149998D01*
X152852636Y-57083373D01*
X152904810Y-57037618D01*
X153033662Y-56977534D01*
X153214620Y-56850826D01*
X153370826Y-56694620D01*
X153497534Y-56513662D01*
X153590894Y-56313450D01*
X153648070Y-56100068D01*
X153667323Y-55880000D01*
X153648070Y-55659932D01*
X153590894Y-55446550D01*
X153497534Y-55246339D01*
X153370826Y-55065380D01*
X153214620Y-54909174D01*
X153033662Y-54782466D01*
X152904811Y-54722382D01*
X152852635Y-54676625D01*
X152833216Y-54610000D01*
X152852635Y-54543375D01*
X152904811Y-54497618D01*
X152910027Y-54495185D01*
X153033662Y-54437534D01*
X153214620Y-54310826D01*
X153370826Y-54154620D01*
X153497534Y-53973662D01*
X153590894Y-53773450D01*
X153648070Y-53560068D01*
X153667323Y-53340000D01*
X153648070Y-53119932D01*
X153590894Y-52906550D01*
X153497534Y-52706339D01*
X153370826Y-52525380D01*
X153214620Y-52369174D01*
X153033662Y-52242466D01*
X152904811Y-52182382D01*
X152852635Y-52136625D01*
X152833216Y-52070000D01*
X152852635Y-52003375D01*
X152904811Y-51957618D01*
X152910027Y-51955185D01*
X153033662Y-51897534D01*
X153214620Y-51770826D01*
X153370826Y-51614620D01*
X153497534Y-51433662D01*
X153590894Y-51233450D01*
X153648070Y-51020068D01*
X153667323Y-50800000D01*
X153648070Y-50579932D01*
X153590894Y-50366550D01*
X153497534Y-50166339D01*
X153370826Y-49985380D01*
X153214620Y-49829174D01*
X153033662Y-49702466D01*
X152904811Y-49642382D01*
X152852635Y-49596625D01*
X152833216Y-49530000D01*
X152852635Y-49463375D01*
X152904811Y-49417618D01*
X152910027Y-49415185D01*
X153033662Y-49357534D01*
X153214620Y-49230826D01*
X153370826Y-49074620D01*
X153497534Y-48893662D01*
X153590894Y-48693450D01*
X153648070Y-48480068D01*
X153667323Y-48260000D01*
X153648070Y-48039932D01*
X153590894Y-47826550D01*
X153497534Y-47626339D01*
X153370826Y-47445380D01*
X153214620Y-47289174D01*
X153033662Y-47162466D01*
X153033661Y-47162465D01*
X152833451Y-47069106D01*
X152620065Y-47011929D01*
X152400000Y-46992676D01*
X152179934Y-47011929D01*
X151966548Y-47069106D01*
X151766338Y-47162466D01*
X151585379Y-47289174D01*
X151429174Y-47445379D01*
X151302466Y-47626338D01*
X151209106Y-47826548D01*
X151151929Y-48039934D01*
X151132676Y-48259999D01*
X151151929Y-48480065D01*
X151192674Y-48632128D01*
X151209106Y-48693450D01*
X151302466Y-48893662D01*
X151429174Y-49074620D01*
X151585380Y-49230826D01*
X151766338Y-49357534D01*
X151885748Y-49413215D01*
X151895189Y-49417618D01*
X151947365Y-49463375D01*
X151966784Y-49530000D01*
X151947365Y-49596625D01*
X151895189Y-49642382D01*
X151766338Y-49702466D01*
X151585379Y-49829174D01*
X151429174Y-49985379D01*
X151302466Y-50166338D01*
X151209106Y-50366548D01*
X151151929Y-50579934D01*
X151132676Y-50799999D01*
X151151929Y-51020065D01*
X151209106Y-51233451D01*
X151234954Y-51288882D01*
X151302466Y-51433662D01*
X151429174Y-51614620D01*
X151585380Y-51770826D01*
X151766338Y-51897534D01*
X151885748Y-51953215D01*
X151895189Y-51957618D01*
X151947365Y-52003375D01*
X151966784Y-52070000D01*
X151947365Y-52136625D01*
X151895189Y-52182382D01*
X151766338Y-52242466D01*
X151585379Y-52369174D01*
X151429174Y-52525379D01*
X151302466Y-52706338D01*
X151209106Y-52906548D01*
X151151929Y-53119934D01*
X151132676Y-53340000D01*
X151151929Y-53560065D01*
X151209106Y-53773451D01*
X151302465Y-53973661D01*
X151302466Y-53973662D01*
X151429174Y-54154620D01*
X151585380Y-54310826D01*
X151766338Y-54437534D01*
X151885748Y-54493215D01*
X151895189Y-54497618D01*
X151947365Y-54543375D01*
X151966784Y-54610000D01*
X151947365Y-54676625D01*
X151895189Y-54722382D01*
X151766338Y-54782466D01*
X151585379Y-54909174D01*
X151429174Y-55065379D01*
X151302466Y-55246338D01*
X151209106Y-55446548D01*
X151151929Y-55659934D01*
X151132676Y-55879999D01*
X151151929Y-56100065D01*
X151209106Y-56313451D01*
X151302466Y-56513662D01*
X151429174Y-56694620D01*
X151585380Y-56850826D01*
X151766338Y-56977534D01*
X151885748Y-57033215D01*
X151895189Y-57037618D01*
X151947365Y-57083375D01*
X151966784Y-57150000D01*
X151947365Y-57216625D01*
X151895189Y-57262382D01*
X151766338Y-57322466D01*
X151585379Y-57449174D01*
X151429174Y-57605379D01*
X151333776Y-57741623D01*
X151289458Y-57780489D01*
X151232201Y-57794500D01*
X144850849Y-57794500D01*
X144827615Y-57792304D01*
X144819587Y-57790772D01*
X144764241Y-57794255D01*
X144756455Y-57794500D01*
X144740650Y-57794500D01*
X144724957Y-57796481D01*
X144717215Y-57797212D01*
X144661862Y-57800695D01*
X144654085Y-57803222D01*
X144631322Y-57808310D01*
X144623210Y-57809335D01*
X144571619Y-57829760D01*
X144564296Y-57832396D01*
X144511559Y-57849532D01*
X144504656Y-57853913D01*
X144483876Y-57864501D01*
X144476268Y-57867513D01*
X144431389Y-57900119D01*
X144424952Y-57904494D01*
X144378120Y-57934215D01*
X144372528Y-57940171D01*
X144355031Y-57955597D01*
X144348412Y-57960406D01*
X144313053Y-58003146D01*
X144307905Y-58008986D01*
X144269938Y-58049417D01*
X144265997Y-58056586D01*
X144252886Y-58075878D01*
X144247675Y-58082176D01*
X144224060Y-58132360D01*
X144220526Y-58139296D01*
X144193802Y-58187908D01*
X144191770Y-58195823D01*
X144183868Y-58217774D01*
X144180385Y-58225174D01*
X144169993Y-58279650D01*
X144168295Y-58287247D01*
X144154500Y-58340980D01*
X144154500Y-58349151D01*
X144152304Y-58372385D01*
X144150772Y-58380412D01*
X144154255Y-58435759D01*
X144154500Y-58443545D01*
X144154500Y-75889547D01*
X144145061Y-75937000D01*
X144118181Y-75977228D01*
X142292228Y-77803181D01*
X142252000Y-77830061D01*
X142204547Y-77839500D01*
X142145352Y-77839500D01*
X141960197Y-77878855D01*
X141787269Y-77955848D01*
X141634129Y-78067110D01*
X141507466Y-78207783D01*
X141412820Y-78371715D01*
X141354326Y-78551742D01*
X141334540Y-78740000D01*
X121920500Y-78740000D01*
X121920500Y-70940000D01*
X138444722Y-70940000D01*
X138463792Y-71157974D01*
X138463793Y-71157977D01*
X138520425Y-71369330D01*
X138612898Y-71567639D01*
X138738402Y-71746877D01*
X138893123Y-71901598D01*
X139072361Y-72027102D01*
X139270670Y-72119575D01*
X139482023Y-72176207D01*
X139700000Y-72195277D01*
X139917977Y-72176207D01*
X140129330Y-72119575D01*
X140327639Y-72027102D01*
X140506877Y-71901598D01*
X140661598Y-71746877D01*
X140787102Y-71567639D01*
X140879575Y-71369330D01*
X140936207Y-71157977D01*
X140955277Y-70940000D01*
X140936207Y-70722023D01*
X140879575Y-70510670D01*
X140787102Y-70312362D01*
X140661598Y-70133123D01*
X140506877Y-69978402D01*
X140327639Y-69852898D01*
X140236205Y-69810261D01*
X140129331Y-69760425D01*
X139917974Y-69703792D01*
X139700000Y-69684722D01*
X139482025Y-69703792D01*
X139270668Y-69760425D01*
X139072361Y-69852898D01*
X138893122Y-69978402D01*
X138738402Y-70133122D01*
X138612898Y-70312361D01*
X138520425Y-70510668D01*
X138463792Y-70722025D01*
X138444722Y-70940000D01*
X121920500Y-70940000D01*
X121920500Y-66040000D01*
X138444722Y-66040000D01*
X138463792Y-66257974D01*
X138520425Y-66469331D01*
X138570261Y-66576205D01*
X138612898Y-66667639D01*
X138738402Y-66846877D01*
X138893123Y-67001598D01*
X139072361Y-67127102D01*
X139270670Y-67219575D01*
X139482023Y-67276207D01*
X139700000Y-67295277D01*
X139917977Y-67276207D01*
X140129330Y-67219575D01*
X140327639Y-67127102D01*
X140506877Y-67001598D01*
X140661598Y-66846877D01*
X140787102Y-66667639D01*
X140879575Y-66469330D01*
X140936207Y-66257977D01*
X140955277Y-66040000D01*
X140936207Y-65822023D01*
X140879575Y-65610670D01*
X140787102Y-65412362D01*
X140661598Y-65233123D01*
X140506877Y-65078402D01*
X140327639Y-64952898D01*
X140175823Y-64882105D01*
X140129331Y-64860425D01*
X139917974Y-64803792D01*
X139700000Y-64784722D01*
X139482025Y-64803792D01*
X139270668Y-64860425D01*
X139072361Y-64952898D01*
X138893122Y-65078402D01*
X138738402Y-65233122D01*
X138612898Y-65412361D01*
X138520425Y-65610668D01*
X138463792Y-65822025D01*
X138444722Y-66040000D01*
X121920500Y-66040000D01*
X121920500Y-53339999D01*
X145814356Y-53339999D01*
X145834891Y-53587816D01*
X145834891Y-53587819D01*
X145834892Y-53587821D01*
X145895937Y-53828881D01*
X145940960Y-53931523D01*
X145995825Y-54056604D01*
X145995827Y-54056607D01*
X146131836Y-54264785D01*
X146300256Y-54447738D01*
X146300259Y-54447740D01*
X146496485Y-54600470D01*
X146496487Y-54600471D01*
X146496491Y-54600474D01*
X146715190Y-54718828D01*
X146950386Y-54799571D01*
X147195665Y-54840500D01*
X147444335Y-54840500D01*
X147689614Y-54799571D01*
X147924810Y-54718828D01*
X148143509Y-54600474D01*
X148339744Y-54447738D01*
X148508164Y-54264785D01*
X148644173Y-54056607D01*
X148744063Y-53828881D01*
X148805108Y-53587821D01*
X148825643Y-53340000D01*
X148805108Y-53092179D01*
X148744063Y-52851119D01*
X148644173Y-52623393D01*
X148508164Y-52415215D01*
X148339744Y-52232262D01*
X148317612Y-52215036D01*
X148143514Y-52079529D01*
X148143510Y-52079526D01*
X148143509Y-52079526D01*
X147924810Y-51961172D01*
X147924806Y-51961170D01*
X147924805Y-51961170D01*
X147689615Y-51880429D01*
X147444335Y-51839500D01*
X147195665Y-51839500D01*
X146950384Y-51880429D01*
X146715194Y-51961170D01*
X146496485Y-52079529D01*
X146300259Y-52232259D01*
X146300256Y-52232261D01*
X146300256Y-52232262D01*
X146237439Y-52300500D01*
X146131837Y-52415214D01*
X145995825Y-52623395D01*
X145959443Y-52706339D01*
X145895937Y-52851119D01*
X145834892Y-53092179D01*
X145834891Y-53092183D01*
X145814356Y-53339999D01*
X121920500Y-53339999D01*
X121920500Y-50799999D01*
X143274356Y-50799999D01*
X143294891Y-51047816D01*
X143294891Y-51047819D01*
X143294892Y-51047821D01*
X143355937Y-51288881D01*
X143400960Y-51391523D01*
X143455825Y-51516604D01*
X143455827Y-51516607D01*
X143591836Y-51724785D01*
X143760256Y-51907738D01*
X143760259Y-51907740D01*
X143956485Y-52060470D01*
X143956487Y-52060471D01*
X143956491Y-52060474D01*
X144175190Y-52178828D01*
X144410386Y-52259571D01*
X144655665Y-52300500D01*
X144904335Y-52300500D01*
X145149614Y-52259571D01*
X145384810Y-52178828D01*
X145603509Y-52060474D01*
X145799744Y-51907738D01*
X145968164Y-51724785D01*
X146104173Y-51516607D01*
X146204063Y-51288881D01*
X146265108Y-51047821D01*
X146285643Y-50800000D01*
X146265108Y-50552179D01*
X146204063Y-50311119D01*
X146104173Y-50083393D01*
X145968164Y-49875215D01*
X145799744Y-49692262D01*
X145777612Y-49675036D01*
X145603514Y-49539529D01*
X145603510Y-49539526D01*
X145603509Y-49539526D01*
X145384810Y-49421172D01*
X145384806Y-49421170D01*
X145384805Y-49421170D01*
X145149615Y-49340429D01*
X144904335Y-49299500D01*
X144655665Y-49299500D01*
X144410384Y-49340429D01*
X144175194Y-49421170D01*
X143956485Y-49539529D01*
X143760259Y-49692259D01*
X143591837Y-49875214D01*
X143455825Y-50083395D01*
X143419443Y-50166339D01*
X143355937Y-50311119D01*
X143341900Y-50366550D01*
X143294891Y-50552183D01*
X143274356Y-50799999D01*
X121920500Y-50799999D01*
X121920500Y-30480000D01*
X138044396Y-30480000D01*
X138064779Y-30738995D01*
X138125426Y-30991610D01*
X138185430Y-31136470D01*
X138224846Y-31231628D01*
X138360406Y-31452843D01*
X138360590Y-31453143D01*
X138427567Y-31531563D01*
X138529311Y-31650689D01*
X138668787Y-31769813D01*
X138726384Y-31819006D01*
X138726860Y-31819412D01*
X138948372Y-31955154D01*
X139113016Y-32023352D01*
X139188389Y-32054573D01*
X139267630Y-32073597D01*
X139441006Y-32115221D01*
X139700000Y-32135604D01*
X139958994Y-32115221D01*
X140211610Y-32054573D01*
X140451628Y-31955154D01*
X140673140Y-31819412D01*
X140870689Y-31650689D01*
X140890179Y-31627869D01*
X143179500Y-31627869D01*
X143185897Y-31687375D01*
X143185909Y-31687483D01*
X143236204Y-31822331D01*
X143322454Y-31937546D01*
X143437669Y-32023796D01*
X143572517Y-32074091D01*
X143632127Y-32080500D01*
X145927872Y-32080499D01*
X145987483Y-32074091D01*
X146122331Y-32023796D01*
X146237546Y-31937546D01*
X146323796Y-31822331D01*
X146327202Y-31813198D01*
X176820354Y-31813198D01*
X176827155Y-31819006D01*
X177048597Y-31954705D01*
X177288544Y-32054096D01*
X177541083Y-32114724D01*
X177800000Y-32135101D01*
X178058916Y-32114724D01*
X178311455Y-32054096D01*
X178551397Y-31954707D01*
X178772849Y-31819003D01*
X178779645Y-31813198D01*
X177800000Y-30833553D01*
X176820354Y-31813198D01*
X146327202Y-31813198D01*
X146374091Y-31687483D01*
X146380500Y-31627873D01*
X146380499Y-30480000D01*
X176144898Y-30480000D01*
X176165275Y-30738916D01*
X176225903Y-30991455D01*
X176325294Y-31231402D01*
X176460993Y-31452843D01*
X176466801Y-31459644D01*
X177446447Y-30480001D01*
X178153553Y-30480001D01*
X179133198Y-31459645D01*
X179139003Y-31452849D01*
X179274707Y-31231397D01*
X179374096Y-30991455D01*
X179434724Y-30738916D01*
X179435426Y-30730000D01*
X181280000Y-30730000D01*
X181280000Y-31627824D01*
X181286402Y-31687375D01*
X181336647Y-31822089D01*
X181422811Y-31937188D01*
X181537910Y-32023352D01*
X181672624Y-32073597D01*
X181732176Y-32080000D01*
X182630000Y-32080000D01*
X182630000Y-30730000D01*
X183130000Y-30730000D01*
X183130000Y-32080000D01*
X184027824Y-32080000D01*
X184087375Y-32073597D01*
X184222089Y-32023352D01*
X184337188Y-31937188D01*
X184423352Y-31822089D01*
X184473597Y-31687375D01*
X184480000Y-31627824D01*
X184480000Y-30730000D01*
X183130000Y-30730000D01*
X182630000Y-30730000D01*
X181280000Y-30730000D01*
X179435426Y-30730000D01*
X179455101Y-30480000D01*
X179435426Y-30230000D01*
X181280000Y-30230000D01*
X182630000Y-30230000D01*
X182630000Y-28880000D01*
X183130000Y-28880000D01*
X183130000Y-30230000D01*
X184480000Y-30230000D01*
X184480000Y-29332176D01*
X184473597Y-29272624D01*
X184423352Y-29137910D01*
X184337188Y-29022811D01*
X184222089Y-28936647D01*
X184087375Y-28886402D01*
X184027824Y-28880000D01*
X183130000Y-28880000D01*
X182630000Y-28880000D01*
X181732176Y-28880000D01*
X181672624Y-28886402D01*
X181537910Y-28936647D01*
X181422811Y-29022811D01*
X181336647Y-29137910D01*
X181286402Y-29272624D01*
X181280000Y-29332176D01*
X181280000Y-30230000D01*
X179435426Y-30230000D01*
X179434724Y-30221083D01*
X179374096Y-29968544D01*
X179274705Y-29728597D01*
X179139006Y-29507155D01*
X179133198Y-29500354D01*
X178153553Y-30480000D01*
X178153553Y-30480001D01*
X177446447Y-30480001D01*
X177446447Y-30480000D01*
X176466801Y-29500354D01*
X176460992Y-29507156D01*
X176325294Y-29728597D01*
X176225903Y-29968544D01*
X176165275Y-30221083D01*
X176144898Y-30480000D01*
X146380499Y-30480000D01*
X146380499Y-29332128D01*
X146374091Y-29272517D01*
X146327202Y-29146801D01*
X176820354Y-29146801D01*
X177800000Y-30126447D01*
X177800001Y-30126447D01*
X178779645Y-29146801D01*
X178772843Y-29140993D01*
X178551402Y-29005294D01*
X178311455Y-28905903D01*
X178058916Y-28845275D01*
X177800000Y-28824898D01*
X177541083Y-28845275D01*
X177288544Y-28905903D01*
X177048597Y-29005294D01*
X176827156Y-29140992D01*
X176820354Y-29146801D01*
X146327202Y-29146801D01*
X146323796Y-29137669D01*
X146237546Y-29022454D01*
X146122331Y-28936204D01*
X145987483Y-28885909D01*
X145927873Y-28879500D01*
X145927869Y-28879500D01*
X143632130Y-28879500D01*
X143572515Y-28885909D01*
X143437669Y-28936204D01*
X143322454Y-29022454D01*
X143236204Y-29137668D01*
X143185909Y-29272515D01*
X143185909Y-29272517D01*
X143179761Y-29329705D01*
X143179500Y-29332130D01*
X143179500Y-31627869D01*
X140890179Y-31627869D01*
X141039412Y-31453140D01*
X141175154Y-31231628D01*
X141274573Y-30991610D01*
X141335221Y-30738994D01*
X141355604Y-30480000D01*
X141335221Y-30221006D01*
X141274573Y-29968390D01*
X141175154Y-29728372D01*
X141039412Y-29506860D01*
X141033855Y-29500354D01*
X140989813Y-29448787D01*
X140870689Y-29309311D01*
X140751563Y-29207567D01*
X140673143Y-29140590D01*
X140668770Y-29137910D01*
X140451628Y-29004846D01*
X140356470Y-28965430D01*
X140211610Y-28905426D01*
X139958995Y-28844779D01*
X139700000Y-28824396D01*
X139441004Y-28844779D01*
X139188389Y-28905426D01*
X138983524Y-28990285D01*
X138948372Y-29004846D01*
X138804359Y-29093096D01*
X138726856Y-29140590D01*
X138529311Y-29309311D01*
X138360590Y-29506856D01*
X138313096Y-29584359D01*
X138224846Y-29728372D01*
X138224845Y-29728375D01*
X138125426Y-29968389D01*
X138064779Y-30221004D01*
X138044396Y-30480000D01*
X121920500Y-30480000D01*
X121920500Y-27939999D01*
X125216512Y-27939999D01*
X125236432Y-28205813D01*
X125295748Y-28465694D01*
X125393133Y-28713824D01*
X125524466Y-28941301D01*
X125526414Y-28944674D01*
X125692612Y-29153079D01*
X125888014Y-29334386D01*
X126108257Y-29484545D01*
X126348419Y-29600201D01*
X126584214Y-29672934D01*
X126603137Y-29678771D01*
X126866719Y-29718500D01*
X126866720Y-29718500D01*
X127133280Y-29718500D01*
X127133281Y-29718500D01*
X127265071Y-29698635D01*
X127396863Y-29678771D01*
X127651581Y-29600201D01*
X127891744Y-29484545D01*
X128111986Y-29334386D01*
X128307388Y-29153079D01*
X128473586Y-28944674D01*
X128606866Y-28713826D01*
X128704252Y-28465692D01*
X128763567Y-28205815D01*
X128783487Y-27940000D01*
X128783487Y-27939999D01*
X198368512Y-27939999D01*
X198388432Y-28205813D01*
X198447748Y-28465694D01*
X198545133Y-28713824D01*
X198676466Y-28941301D01*
X198678414Y-28944674D01*
X198844612Y-29153079D01*
X199040014Y-29334386D01*
X199260257Y-29484545D01*
X199500419Y-29600201D01*
X199736214Y-29672934D01*
X199755137Y-29678771D01*
X200018719Y-29718500D01*
X200018720Y-29718500D01*
X200285280Y-29718500D01*
X200285281Y-29718500D01*
X200417071Y-29698635D01*
X200548863Y-29678771D01*
X200803581Y-29600201D01*
X201043744Y-29484545D01*
X201263986Y-29334386D01*
X201459388Y-29153079D01*
X201625586Y-28944674D01*
X201758866Y-28713826D01*
X201856252Y-28465692D01*
X201915567Y-28205815D01*
X201935487Y-27940000D01*
X201915567Y-27674185D01*
X201856252Y-27414308D01*
X201758866Y-27166174D01*
X201625586Y-26935326D01*
X201459388Y-26726921D01*
X201459387Y-26726920D01*
X201263988Y-26545615D01*
X201160331Y-26474943D01*
X201043744Y-26395455D01*
X201043741Y-26395454D01*
X201043739Y-26395452D01*
X200803583Y-26279800D01*
X200803581Y-26279799D01*
X200712779Y-26251790D01*
X200548862Y-26201228D01*
X200285281Y-26161500D01*
X200285280Y-26161500D01*
X200018720Y-26161500D01*
X200018719Y-26161500D01*
X199755137Y-26201228D01*
X199500419Y-26279799D01*
X199260256Y-26395455D01*
X199040014Y-26545613D01*
X198844612Y-26726920D01*
X198678413Y-26935326D01*
X198545133Y-27166175D01*
X198447748Y-27414305D01*
X198388432Y-27674186D01*
X198368512Y-27939999D01*
X128783487Y-27939999D01*
X128763567Y-27674185D01*
X128704252Y-27414308D01*
X128606866Y-27166174D01*
X128473586Y-26935326D01*
X128307388Y-26726921D01*
X128307387Y-26726920D01*
X128111988Y-26545615D01*
X128008331Y-26474943D01*
X127891744Y-26395455D01*
X127891741Y-26395454D01*
X127891739Y-26395452D01*
X127651583Y-26279800D01*
X127651581Y-26279799D01*
X127560779Y-26251790D01*
X127396862Y-26201228D01*
X127133281Y-26161500D01*
X127133280Y-26161500D01*
X126866720Y-26161500D01*
X126866719Y-26161500D01*
X126603137Y-26201228D01*
X126348419Y-26279799D01*
X126108256Y-26395455D01*
X125888014Y-26545613D01*
X125692612Y-26726920D01*
X125526413Y-26935326D01*
X125393133Y-27166175D01*
X125295748Y-27414305D01*
X125236432Y-27674186D01*
X125216512Y-27939999D01*
X121920500Y-27939999D01*
X121920500Y-22984500D01*
X121937113Y-22922500D01*
X121982500Y-22877113D01*
X122044500Y-22860500D01*
X205615500Y-22860500D01*
X205677500Y-22877113D01*
G37*
%TD.AperFunction*%
%TD*%
M02*
