G04 #@! TF.GenerationSoftware,KiCad,Pcbnew,7.0.1*
G04 #@! TF.CreationDate,2025-05-28T12:54:30-04:00*
G04 #@! TF.ProjectId,weather_station_lowpower,77656174-6865-4725-9f73-746174696f6e,V.5B*
G04 #@! TF.SameCoordinates,Original*
G04 #@! TF.FileFunction,Soldermask,Bot*
G04 #@! TF.FilePolarity,Negative*
%FSLAX46Y46*%
G04 Gerber Fmt 4.6, Leading zero omitted, Abs format (unit mm)*
G04 Created by KiCad (PCBNEW 7.0.1) date 2025-05-28 12:54:30*
%MOMM*%
%LPD*%
G01*
G04 APERTURE LIST*
%ADD10C,2.000000*%
%ADD11R,1.700000X1.700000*%
%ADD12C,1.700000*%
%ADD13C,1.524000*%
%ADD14C,3.350000*%
%ADD15C,1.500000*%
%ADD16R,1.600000X1.600000*%
%ADD17C,1.600000*%
%ADD18O,1.700000X1.700000*%
%ADD19R,2.200000X2.200000*%
%ADD20C,2.300000*%
G04 APERTURE END LIST*
D10*
X151690000Y-97790000D03*
D11*
X151870000Y-71120000D03*
D12*
X151870000Y-68580000D03*
X151870000Y-66040000D03*
X151870000Y-63500000D03*
X151870000Y-60960000D03*
X151870000Y-58420000D03*
X151870000Y-55880000D03*
X151870000Y-53340000D03*
D10*
X124460000Y-86360000D03*
D13*
X129540000Y-60960000D03*
X129540000Y-63500000D03*
X129540000Y-66040000D03*
X129540000Y-68580000D03*
X129540000Y-71120000D03*
X129540000Y-73660000D03*
X129540000Y-76200000D03*
X129540000Y-78740000D03*
X129540000Y-81280000D03*
X129540000Y-83820000D03*
X129540000Y-86360000D03*
X129540000Y-88900000D03*
X129540000Y-91440000D03*
X129540000Y-93980000D03*
X137160000Y-93980000D03*
X137160000Y-91440000D03*
X137160000Y-88900000D03*
X137160000Y-86360000D03*
X137160000Y-83820000D03*
X137160000Y-81280000D03*
X137160000Y-78740000D03*
X137160000Y-76200000D03*
X137160000Y-73660000D03*
X137160000Y-71120000D03*
X137160000Y-68580000D03*
X137160000Y-66040000D03*
X137160000Y-63500000D03*
X137160000Y-60960000D03*
D10*
X151690000Y-102870000D03*
D14*
X114940000Y-118110000D03*
X125100000Y-118110000D03*
D12*
X121920000Y-109220000D03*
X120650000Y-111760000D03*
X119380000Y-109220000D03*
X118110000Y-111760000D03*
D10*
X124460000Y-66040000D03*
X145288000Y-68580000D03*
X121158000Y-63500000D03*
D15*
X118110000Y-76200000D03*
X118110000Y-81100000D03*
D10*
X151892000Y-78740000D03*
X142240000Y-71120000D03*
D16*
X109220000Y-96520000D03*
D17*
X111220000Y-96520000D03*
D10*
X120650000Y-88900000D03*
X142240000Y-66040000D03*
D11*
X158040000Y-85090000D03*
D18*
X158040000Y-87630000D03*
X158040000Y-90170000D03*
X158040000Y-92710000D03*
X158040000Y-95250000D03*
X158040000Y-97790000D03*
X158040000Y-100330000D03*
X158040000Y-102870000D03*
D19*
X118110000Y-38100000D03*
D20*
X123190000Y-38100000D03*
D10*
X137160000Y-99060000D03*
X124460000Y-73660000D03*
D19*
X170180000Y-38100000D03*
D20*
X175260000Y-38100000D03*
M02*
