G04 #@! TF.GenerationSoftware,KiCad,Pcbnew,7.0.1*
G04 #@! TF.CreationDate,2025-05-28T12:54:30-04:00*
G04 #@! TF.ProjectId,weather_station_lowpower,77656174-6865-4725-9f73-746174696f6e,V.5B*
G04 #@! TF.SameCoordinates,Original*
G04 #@! TF.FileFunction,Soldermask,Top*
G04 #@! TF.FilePolarity,Negative*
%FSLAX46Y46*%
G04 Gerber Fmt 4.6, Leading zero omitted, Abs format (unit mm)*
G04 Created by KiCad (PCBNEW 7.0.1) date 2025-05-28 12:54:30*
%MOMM*%
%LPD*%
G01*
G04 APERTURE LIST*
G04 Aperture macros list*
%AMRoundRect*
0 Rectangle with rounded corners*
0 $1 Rounding radius*
0 $2 $3 $4 $5 $6 $7 $8 $9 X,Y pos of 4 corners*
0 Add a 4 corners polygon primitive as box body*
4,1,4,$2,$3,$4,$5,$6,$7,$8,$9,$2,$3,0*
0 Add four circle primitives for the rounded corners*
1,1,$1+$1,$2,$3*
1,1,$1+$1,$4,$5*
1,1,$1+$1,$6,$7*
1,1,$1+$1,$8,$9*
0 Add four rect primitives between the rounded corners*
20,1,$1+$1,$2,$3,$4,$5,0*
20,1,$1+$1,$4,$5,$6,$7,0*
20,1,$1+$1,$6,$7,$8,$9,0*
20,1,$1+$1,$8,$9,$2,$3,0*%
G04 Aperture macros list end*
%ADD10C,2.000000*%
%ADD11RoundRect,0.250000X-0.625000X0.400000X-0.625000X-0.400000X0.625000X-0.400000X0.625000X0.400000X0*%
%ADD12R,1.700000X1.700000*%
%ADD13C,1.700000*%
%ADD14R,0.889000X1.397000*%
%ADD15RoundRect,0.250000X0.412500X0.650000X-0.412500X0.650000X-0.412500X-0.650000X0.412500X-0.650000X0*%
%ADD16RoundRect,0.250000X0.400000X0.625000X-0.400000X0.625000X-0.400000X-0.625000X0.400000X-0.625000X0*%
%ADD17C,1.524000*%
%ADD18C,3.350000*%
%ADD19RoundRect,0.225000X0.225000X0.375000X-0.225000X0.375000X-0.225000X-0.375000X0.225000X-0.375000X0*%
%ADD20R,1.100000X1.500000*%
%ADD21RoundRect,0.250000X0.300000X-0.300000X0.300000X0.300000X-0.300000X0.300000X-0.300000X-0.300000X0*%
%ADD22C,1.500000*%
%ADD23RoundRect,0.150000X-0.512500X-0.150000X0.512500X-0.150000X0.512500X0.150000X-0.512500X0.150000X0*%
%ADD24RoundRect,0.250000X-0.400000X-0.625000X0.400000X-0.625000X0.400000X0.625000X-0.400000X0.625000X0*%
%ADD25R,0.889000X0.812800*%
%ADD26R,1.600000X1.600000*%
%ADD27C,1.600000*%
%ADD28RoundRect,0.250000X0.625000X-0.400000X0.625000X0.400000X-0.625000X0.400000X-0.625000X-0.400000X0*%
%ADD29O,1.700000X1.700000*%
%ADD30R,2.200000X2.200000*%
%ADD31C,2.300000*%
%ADD32R,0.393700X0.812800*%
G04 APERTURE END LIST*
D10*
X151690000Y-97790000D03*
D11*
X177038000Y-85064000D03*
X177038000Y-88164000D03*
D12*
X151870000Y-71120000D03*
D13*
X151870000Y-68580000D03*
X151870000Y-66040000D03*
X151870000Y-63500000D03*
X151870000Y-60960000D03*
X151870000Y-58420000D03*
X151870000Y-55880000D03*
X151870000Y-53340000D03*
D14*
X145490001Y-53340000D03*
X138989999Y-53340000D03*
D15*
X112345000Y-81026000D03*
X109220000Y-81026000D03*
D10*
X124460000Y-86360000D03*
D16*
X118390000Y-104140000D03*
X115290000Y-104140000D03*
D17*
X129540000Y-60960000D03*
X129540000Y-63500000D03*
X129540000Y-66040000D03*
X129540000Y-68580000D03*
X129540000Y-71120000D03*
X129540000Y-73660000D03*
X129540000Y-76200000D03*
X129540000Y-78740000D03*
X129540000Y-81280000D03*
X129540000Y-83820000D03*
X129540000Y-86360000D03*
X129540000Y-88900000D03*
X129540000Y-91440000D03*
X129540000Y-93980000D03*
X137160000Y-93980000D03*
X137160000Y-91440000D03*
X137160000Y-88900000D03*
X137160000Y-86360000D03*
X137160000Y-83820000D03*
X137160000Y-81280000D03*
X137160000Y-78740000D03*
X137160000Y-76200000D03*
X137160000Y-73660000D03*
X137160000Y-71120000D03*
X137160000Y-68580000D03*
X137160000Y-66040000D03*
X137160000Y-63500000D03*
X137160000Y-60960000D03*
D10*
X151690000Y-102870000D03*
D18*
X114940000Y-118110000D03*
X125100000Y-118110000D03*
D13*
X121920000Y-109220000D03*
X120650000Y-111760000D03*
X119380000Y-109220000D03*
X118110000Y-111760000D03*
D19*
X158240000Y-38100000D03*
X154940000Y-38100000D03*
D10*
X124460000Y-66040000D03*
X145288000Y-68580000D03*
D20*
X130810000Y-43434000D03*
X130810000Y-34534000D03*
D11*
X149860000Y-115290000D03*
X149860000Y-118390000D03*
X132080000Y-110210000D03*
X132080000Y-113310000D03*
D10*
X121158000Y-63500000D03*
D21*
X116840000Y-97790000D03*
X116840000Y-94990000D03*
D22*
X118110000Y-76200000D03*
X118110000Y-81100000D03*
D23*
X137425000Y-110810000D03*
X137425000Y-112710000D03*
X139700000Y-111760000D03*
D10*
X151892000Y-78740000D03*
X142240000Y-71120000D03*
D24*
X162560000Y-43180000D03*
X165660000Y-43180000D03*
D25*
X156067999Y-117339001D03*
X154178000Y-116314002D03*
X154178000Y-118364000D03*
D26*
X109220000Y-96520000D03*
D27*
X111220000Y-96520000D03*
D28*
X121158000Y-98070000D03*
X121158000Y-94970000D03*
D10*
X120650000Y-88900000D03*
X142240000Y-66040000D03*
D16*
X112320000Y-104140000D03*
X109220000Y-104140000D03*
D12*
X158040000Y-85090000D03*
D29*
X158040000Y-87630000D03*
X158040000Y-90170000D03*
X158040000Y-92710000D03*
X158040000Y-95250000D03*
X158040000Y-97790000D03*
X158040000Y-100330000D03*
X158040000Y-102870000D03*
D16*
X127560000Y-55880000D03*
X124460000Y-55880000D03*
D14*
X148387999Y-43180000D03*
X154888001Y-43180000D03*
D30*
X118110000Y-38100000D03*
D31*
X123190000Y-38100000D03*
D15*
X112345000Y-76200000D03*
X109220000Y-76200000D03*
D10*
X137160000Y-99060000D03*
D32*
X162560000Y-38100000D03*
X161353500Y-38100000D03*
D10*
X124460000Y-73660000D03*
D30*
X170180000Y-38100000D03*
D31*
X175260000Y-38100000D03*
M02*
