G04 #@! TF.GenerationSoftware,KiCad,Pcbnew,7.0.1*
G04 #@! TF.CreationDate,2025-05-28T12:54:30-04:00*
G04 #@! TF.ProjectId,weather_station_lowpower,77656174-6865-4725-9f73-746174696f6e,V.5B*
G04 #@! TF.SameCoordinates,Original*
G04 #@! TF.FileFunction,Copper,L1,Top*
G04 #@! TF.FilePolarity,Positive*
%FSLAX46Y46*%
G04 Gerber Fmt 4.6, Leading zero omitted, Abs format (unit mm)*
G04 Created by KiCad (PCBNEW 7.0.1) date 2025-05-28 12:54:30*
%MOMM*%
%LPD*%
G01*
G04 APERTURE LIST*
G04 Aperture macros list*
%AMRoundRect*
0 Rectangle with rounded corners*
0 $1 Rounding radius*
0 $2 $3 $4 $5 $6 $7 $8 $9 X,Y pos of 4 corners*
0 Add a 4 corners polygon primitive as box body*
4,1,4,$2,$3,$4,$5,$6,$7,$8,$9,$2,$3,0*
0 Add four circle primitives for the rounded corners*
1,1,$1+$1,$2,$3*
1,1,$1+$1,$4,$5*
1,1,$1+$1,$6,$7*
1,1,$1+$1,$8,$9*
0 Add four rect primitives between the rounded corners*
20,1,$1+$1,$2,$3,$4,$5,0*
20,1,$1+$1,$4,$5,$6,$7,0*
20,1,$1+$1,$6,$7,$8,$9,0*
20,1,$1+$1,$8,$9,$2,$3,0*%
G04 Aperture macros list end*
G04 #@! TA.AperFunction,ComponentPad*
%ADD10C,2.000000*%
G04 #@! TD*
G04 #@! TA.AperFunction,SMDPad,CuDef*
%ADD11RoundRect,0.250000X-0.625000X0.400000X-0.625000X-0.400000X0.625000X-0.400000X0.625000X0.400000X0*%
G04 #@! TD*
G04 #@! TA.AperFunction,ComponentPad*
%ADD12R,1.700000X1.700000*%
G04 #@! TD*
G04 #@! TA.AperFunction,ComponentPad*
%ADD13C,1.700000*%
G04 #@! TD*
G04 #@! TA.AperFunction,SMDPad,CuDef*
%ADD14R,0.889000X1.397000*%
G04 #@! TD*
G04 #@! TA.AperFunction,SMDPad,CuDef*
%ADD15RoundRect,0.250000X0.412500X0.650000X-0.412500X0.650000X-0.412500X-0.650000X0.412500X-0.650000X0*%
G04 #@! TD*
G04 #@! TA.AperFunction,SMDPad,CuDef*
%ADD16RoundRect,0.250000X0.400000X0.625000X-0.400000X0.625000X-0.400000X-0.625000X0.400000X-0.625000X0*%
G04 #@! TD*
G04 #@! TA.AperFunction,ComponentPad*
%ADD17C,1.524000*%
G04 #@! TD*
G04 #@! TA.AperFunction,SMDPad,CuDef*
%ADD18RoundRect,0.225000X0.225000X0.375000X-0.225000X0.375000X-0.225000X-0.375000X0.225000X-0.375000X0*%
G04 #@! TD*
G04 #@! TA.AperFunction,SMDPad,CuDef*
%ADD19R,1.100000X1.500000*%
G04 #@! TD*
G04 #@! TA.AperFunction,SMDPad,CuDef*
%ADD20RoundRect,0.250000X0.300000X-0.300000X0.300000X0.300000X-0.300000X0.300000X-0.300000X-0.300000X0*%
G04 #@! TD*
G04 #@! TA.AperFunction,ComponentPad*
%ADD21C,1.500000*%
G04 #@! TD*
G04 #@! TA.AperFunction,SMDPad,CuDef*
%ADD22RoundRect,0.150000X-0.512500X-0.150000X0.512500X-0.150000X0.512500X0.150000X-0.512500X0.150000X0*%
G04 #@! TD*
G04 #@! TA.AperFunction,SMDPad,CuDef*
%ADD23RoundRect,0.250000X-0.400000X-0.625000X0.400000X-0.625000X0.400000X0.625000X-0.400000X0.625000X0*%
G04 #@! TD*
G04 #@! TA.AperFunction,SMDPad,CuDef*
%ADD24R,0.889000X0.812800*%
G04 #@! TD*
G04 #@! TA.AperFunction,ComponentPad*
%ADD25R,1.600000X1.600000*%
G04 #@! TD*
G04 #@! TA.AperFunction,ComponentPad*
%ADD26C,1.600000*%
G04 #@! TD*
G04 #@! TA.AperFunction,SMDPad,CuDef*
%ADD27RoundRect,0.250000X0.625000X-0.400000X0.625000X0.400000X-0.625000X0.400000X-0.625000X-0.400000X0*%
G04 #@! TD*
G04 #@! TA.AperFunction,ComponentPad*
%ADD28O,1.700000X1.700000*%
G04 #@! TD*
G04 #@! TA.AperFunction,ComponentPad*
%ADD29R,2.200000X2.200000*%
G04 #@! TD*
G04 #@! TA.AperFunction,ComponentPad*
%ADD30C,2.300000*%
G04 #@! TD*
G04 #@! TA.AperFunction,SMDPad,CuDef*
%ADD31R,0.393700X0.812800*%
G04 #@! TD*
G04 #@! TA.AperFunction,ViaPad*
%ADD32C,0.762000*%
G04 #@! TD*
G04 #@! TA.AperFunction,Conductor*
%ADD33C,0.254000*%
G04 #@! TD*
G04 APERTURE END LIST*
D10*
X151690000Y-97790000D03*
D11*
X177038000Y-85064000D03*
X177038000Y-88164000D03*
D12*
X151870000Y-71120000D03*
D13*
X151870000Y-68580000D03*
X151870000Y-66040000D03*
X151870000Y-63500000D03*
X151870000Y-60960000D03*
X151870000Y-58420000D03*
X151870000Y-55880000D03*
X151870000Y-53340000D03*
D14*
X145490001Y-53340000D03*
X138989999Y-53340000D03*
D15*
X112345000Y-81026000D03*
X109220000Y-81026000D03*
D10*
X124460000Y-86360000D03*
D16*
X118390000Y-104140000D03*
X115290000Y-104140000D03*
D17*
X129540000Y-60960000D03*
X129540000Y-63500000D03*
X129540000Y-66040000D03*
X129540000Y-68580000D03*
X129540000Y-71120000D03*
X129540000Y-73660000D03*
X129540000Y-76200000D03*
X129540000Y-78740000D03*
X129540000Y-81280000D03*
X129540000Y-83820000D03*
X129540000Y-86360000D03*
X129540000Y-88900000D03*
X129540000Y-91440000D03*
X129540000Y-93980000D03*
X137160000Y-93980000D03*
X137160000Y-91440000D03*
X137160000Y-88900000D03*
X137160000Y-86360000D03*
X137160000Y-83820000D03*
X137160000Y-81280000D03*
X137160000Y-78740000D03*
X137160000Y-76200000D03*
X137160000Y-73660000D03*
X137160000Y-71120000D03*
X137160000Y-68580000D03*
X137160000Y-66040000D03*
X137160000Y-63500000D03*
X137160000Y-60960000D03*
D10*
X151690000Y-102870000D03*
D13*
X121920000Y-109220000D03*
X120650000Y-111760000D03*
X119380000Y-109220000D03*
X118110000Y-111760000D03*
D18*
X158240000Y-38100000D03*
X154940000Y-38100000D03*
D10*
X124460000Y-66040000D03*
X145288000Y-68580000D03*
D19*
X130810000Y-43434000D03*
X130810000Y-34534000D03*
D11*
X149860000Y-115290000D03*
X149860000Y-118390000D03*
X132080000Y-110210000D03*
X132080000Y-113310000D03*
D10*
X121158000Y-63500000D03*
D20*
X116840000Y-97790000D03*
X116840000Y-94990000D03*
D21*
X118110000Y-76200000D03*
X118110000Y-81100000D03*
D22*
X137425000Y-110810000D03*
X137425000Y-112710000D03*
X139700000Y-111760000D03*
D10*
X151892000Y-78740000D03*
X142240000Y-71120000D03*
D23*
X162560000Y-43180000D03*
X165660000Y-43180000D03*
D24*
X156067999Y-117339001D03*
X154178000Y-116314002D03*
X154178000Y-118364000D03*
D25*
X109220000Y-96520000D03*
D26*
X111220000Y-96520000D03*
D27*
X121158000Y-98070000D03*
X121158000Y-94970000D03*
D10*
X120650000Y-88900000D03*
X142240000Y-66040000D03*
D16*
X112320000Y-104140000D03*
X109220000Y-104140000D03*
D12*
X158040000Y-85090000D03*
D28*
X158040000Y-87630000D03*
X158040000Y-90170000D03*
X158040000Y-92710000D03*
X158040000Y-95250000D03*
X158040000Y-97790000D03*
X158040000Y-100330000D03*
X158040000Y-102870000D03*
D16*
X127560000Y-55880000D03*
X124460000Y-55880000D03*
D14*
X148387999Y-43180000D03*
X154888001Y-43180000D03*
D29*
X118110000Y-38100000D03*
D30*
X123190000Y-38100000D03*
D15*
X112345000Y-76200000D03*
X109220000Y-76200000D03*
D10*
X137160000Y-99060000D03*
D31*
X162560000Y-38100000D03*
X161353500Y-38100000D03*
D10*
X124460000Y-73660000D03*
D29*
X170180000Y-38100000D03*
D30*
X175260000Y-38100000D03*
D32*
X146304000Y-85090000D03*
X123698000Y-91440000D03*
X113792000Y-101346000D03*
D33*
X124968000Y-81280000D02*
X129540000Y-81280000D01*
X118110000Y-76200000D02*
X119888000Y-76200000D01*
X112345000Y-76200000D02*
X118110000Y-76200000D01*
X119888000Y-76200000D02*
X124968000Y-81280000D01*
X120830000Y-83820000D02*
X129540000Y-83820000D01*
X118110000Y-81100000D02*
X120830000Y-83820000D01*
X112345000Y-81026000D02*
X112419000Y-81100000D01*
X112419000Y-81100000D02*
X118110000Y-81100000D01*
X105918000Y-93218000D02*
X109220000Y-96520000D01*
X109220000Y-112014000D02*
X111252000Y-114046000D01*
X130810000Y-46736000D02*
X124460000Y-53086000D01*
X149886000Y-118364000D02*
X149860000Y-118390000D01*
X109220000Y-104140000D02*
X109220000Y-112014000D01*
X105918000Y-70866000D02*
X105918000Y-93218000D01*
X111252000Y-114046000D02*
X119888000Y-114046000D01*
X110236000Y-55880000D02*
X105918000Y-60198000D01*
X109220000Y-99568000D02*
X109220000Y-104140000D01*
X134620000Y-76200000D02*
X137160000Y-78740000D01*
X130810000Y-43434000D02*
X130810000Y-46736000D01*
X146304000Y-85090000D02*
X158040000Y-85090000D01*
X145568000Y-122682000D02*
X149860000Y-118390000D01*
X124460000Y-53086000D02*
X124460000Y-55880000D01*
X154178000Y-118364000D02*
X149886000Y-118364000D01*
X115316000Y-99568000D02*
X115316000Y-104114000D01*
X109220000Y-99568000D02*
X115316000Y-99568000D01*
X177012000Y-85090000D02*
X177038000Y-85064000D01*
X158040000Y-85090000D02*
X177012000Y-85090000D01*
X115316000Y-104114000D02*
X115290000Y-104140000D01*
X119888000Y-122682000D02*
X145568000Y-122682000D01*
X124460000Y-55880000D02*
X110236000Y-55880000D01*
X129540000Y-76200000D02*
X134620000Y-76200000D01*
X105918000Y-60198000D02*
X105918000Y-70866000D01*
X120142000Y-70866000D02*
X122174000Y-72898000D01*
X122174000Y-76200000D02*
X129540000Y-76200000D01*
X105918000Y-70866000D02*
X120142000Y-70866000D01*
X137160000Y-78740000D02*
X137160000Y-81280000D01*
X122174000Y-72898000D02*
X122174000Y-76200000D01*
X130810000Y-43434000D02*
X148133999Y-43434000D01*
X148133999Y-43434000D02*
X148387999Y-43180000D01*
X109220000Y-96520000D02*
X109220000Y-99568000D01*
X119888000Y-114046000D02*
X119888000Y-122682000D01*
X115310000Y-96520000D02*
X116840000Y-94990000D01*
X116840000Y-94990000D02*
X121138000Y-94990000D01*
X121158000Y-94970000D02*
X121158000Y-93980000D01*
X121138000Y-94990000D02*
X121158000Y-94970000D01*
X121158000Y-93980000D02*
X123698000Y-91440000D01*
X111220000Y-96520000D02*
X115310000Y-96520000D01*
X158240000Y-38100000D02*
X161321750Y-38100000D01*
X154888001Y-43180000D02*
X154888001Y-38151999D01*
X154888001Y-38151999D02*
X154940000Y-38100000D01*
X116840000Y-97790000D02*
X116840000Y-101600000D01*
X118390000Y-104140000D02*
X118390000Y-108230000D01*
X118364000Y-101600000D02*
X118364000Y-104114000D01*
X118390000Y-108230000D02*
X119380000Y-109220000D01*
X116840000Y-101600000D02*
X118364000Y-101600000D01*
X118364000Y-104114000D02*
X118390000Y-104140000D01*
X121158000Y-104140000D02*
X118390000Y-104140000D01*
X121158000Y-98070000D02*
X121158000Y-104140000D01*
X126756000Y-34534000D02*
X130810000Y-34534000D01*
X118110000Y-38100000D02*
X123190000Y-38100000D01*
X123190000Y-38100000D02*
X126756000Y-34534000D01*
X121158000Y-63500000D02*
X129540000Y-63500000D01*
X124460000Y-66040000D02*
X129540000Y-66040000D01*
X124460000Y-73660000D02*
X129540000Y-73660000D01*
X124460000Y-86360000D02*
X129540000Y-86360000D01*
X120650000Y-88900000D02*
X129540000Y-88900000D01*
X120650000Y-111760000D02*
X121920000Y-110490000D01*
X128524000Y-111252000D02*
X128524000Y-116840000D01*
X139700000Y-117348000D02*
X139700000Y-111760000D01*
X121920000Y-110490000D02*
X121920000Y-109220000D01*
X121920000Y-109220000D02*
X126492000Y-109220000D01*
X129032000Y-117348000D02*
X139700000Y-117348000D01*
X128524000Y-116840000D02*
X129032000Y-117348000D01*
X126492000Y-109220000D02*
X128524000Y-111252000D01*
X112320000Y-104140000D02*
X112320000Y-102818000D01*
X112320000Y-104140000D02*
X112320000Y-105970000D01*
X112320000Y-102818000D02*
X113792000Y-101346000D01*
X112320000Y-105970000D02*
X118110000Y-111760000D01*
X137160000Y-66040000D02*
X142240000Y-66040000D01*
X137160000Y-68580000D02*
X145288000Y-68580000D01*
X137160000Y-71120000D02*
X142240000Y-71120000D01*
X137160000Y-99060000D02*
X137160000Y-93980000D01*
X151892000Y-78740000D02*
X151892000Y-71142000D01*
X151892000Y-71142000D02*
X151870000Y-71120000D01*
X151690000Y-97790000D02*
X158040000Y-97790000D01*
X158040000Y-100330000D02*
X164872000Y-100330000D01*
X164872000Y-100330000D02*
X177038000Y-88164000D01*
X151690000Y-102870000D02*
X158040000Y-102870000D01*
X149860000Y-70590000D02*
X151870000Y-68580000D01*
X149860000Y-78740000D02*
X149860000Y-70590000D01*
X137160000Y-91440000D02*
X149860000Y-78740000D01*
X148844000Y-77216000D02*
X148844000Y-69066000D01*
X148844000Y-69066000D02*
X151870000Y-66040000D01*
X137160000Y-88900000D02*
X148844000Y-77216000D01*
X148082000Y-67288000D02*
X151870000Y-63500000D01*
X148082000Y-75438000D02*
X148082000Y-67288000D01*
X137160000Y-86360000D02*
X148082000Y-75438000D01*
X147320000Y-65510000D02*
X151870000Y-60960000D01*
X137160000Y-83820000D02*
X147320000Y-73660000D01*
X147320000Y-73660000D02*
X147320000Y-65510000D01*
X156464000Y-53340000D02*
X182118000Y-78994000D01*
X182118000Y-78994000D02*
X182118000Y-116586000D01*
X156067999Y-117339001D02*
X181364999Y-117339001D01*
X181364999Y-117339001D02*
X182118000Y-116586000D01*
X151870000Y-53340000D02*
X156464000Y-53340000D01*
X132080000Y-110210000D02*
X132080000Y-104140000D01*
X132080000Y-110210000D02*
X136825000Y-110210000D01*
X136825000Y-110210000D02*
X137425000Y-110810000D01*
X132080000Y-104140000D02*
X125730000Y-97790000D01*
X125730000Y-91440000D02*
X129540000Y-91440000D01*
X125730000Y-97790000D02*
X125730000Y-91440000D01*
X162591750Y-43148250D02*
X162591750Y-38100000D01*
X162560000Y-43180000D02*
X162591750Y-43148250D01*
X127560000Y-55880000D02*
X130100000Y-53340000D01*
X129540000Y-57860000D02*
X127560000Y-55880000D01*
X129540000Y-60960000D02*
X129540000Y-57860000D01*
X130100000Y-53340000D02*
X138989999Y-53340000D01*
X149860000Y-115290000D02*
X147548000Y-115290000D01*
X129540000Y-97282000D02*
X129540000Y-93980000D01*
X150884002Y-116314002D02*
X149860000Y-115290000D01*
X154178000Y-116314002D02*
X150884002Y-116314002D01*
X147548000Y-115290000D02*
X129540000Y-97282000D01*
G04 #@! TA.AperFunction,Conductor*
G36*
X187897500Y-27957113D02*
G01*
X187942887Y-28002500D01*
X187959500Y-28064500D01*
X187959500Y-126875500D01*
X187942887Y-126937500D01*
X187897500Y-126982887D01*
X187835500Y-126999500D01*
X104264500Y-126999500D01*
X104202500Y-126982887D01*
X104157113Y-126937500D01*
X104140500Y-126875500D01*
X104140500Y-121920000D01*
X107436512Y-121920000D01*
X107456432Y-122185813D01*
X107515748Y-122445694D01*
X107613133Y-122693824D01*
X107746413Y-122924673D01*
X107874399Y-123085162D01*
X107912612Y-123133079D01*
X108108014Y-123314386D01*
X108328257Y-123464545D01*
X108568419Y-123580201D01*
X108804214Y-123652934D01*
X108823137Y-123658771D01*
X109086719Y-123698500D01*
X109086720Y-123698500D01*
X109353280Y-123698500D01*
X109353281Y-123698500D01*
X109485071Y-123678635D01*
X109616863Y-123658771D01*
X109871581Y-123580201D01*
X110111744Y-123464545D01*
X110331986Y-123314386D01*
X110527388Y-123133079D01*
X110693586Y-122924674D01*
X110826866Y-122693826D01*
X110924252Y-122445692D01*
X110983567Y-122185815D01*
X111003487Y-121920000D01*
X110983567Y-121654185D01*
X110924252Y-121394308D01*
X110826866Y-121146174D01*
X110693586Y-120915326D01*
X110527388Y-120706921D01*
X110527387Y-120706920D01*
X110331988Y-120525615D01*
X110228331Y-120454943D01*
X110111744Y-120375455D01*
X110111741Y-120375454D01*
X110111739Y-120375452D01*
X109871583Y-120259800D01*
X109871581Y-120259799D01*
X109780779Y-120231790D01*
X109616862Y-120181228D01*
X109353281Y-120141500D01*
X109353280Y-120141500D01*
X109086720Y-120141500D01*
X109086719Y-120141500D01*
X108823137Y-120181228D01*
X108568419Y-120259799D01*
X108328256Y-120375455D01*
X108108014Y-120525613D01*
X107912612Y-120706920D01*
X107746413Y-120915326D01*
X107613133Y-121146175D01*
X107515748Y-121394305D01*
X107456432Y-121654186D01*
X107436512Y-121920000D01*
X104140500Y-121920000D01*
X104140500Y-118245080D01*
X113137500Y-118245080D01*
X113177764Y-118512218D01*
X113232832Y-118690742D01*
X113257395Y-118770374D01*
X113374612Y-119013777D01*
X113487526Y-119179391D01*
X113526798Y-119236993D01*
X113662005Y-119382711D01*
X113710551Y-119435031D01*
X113921769Y-119603471D01*
X114155732Y-119738550D01*
X114407214Y-119837249D01*
X114670598Y-119897365D01*
X114721088Y-119901148D01*
X114872556Y-119912500D01*
X114872559Y-119912500D01*
X115007441Y-119912500D01*
X115007444Y-119912500D01*
X115128617Y-119903419D01*
X115209402Y-119897365D01*
X115472786Y-119837249D01*
X115724268Y-119738550D01*
X115958231Y-119603471D01*
X116169449Y-119435031D01*
X116353203Y-119236991D01*
X116505388Y-119013777D01*
X116622605Y-118770374D01*
X116702235Y-118512219D01*
X116742500Y-118245079D01*
X116742500Y-117974921D01*
X116742287Y-117973511D01*
X116702235Y-117707781D01*
X116692924Y-117677596D01*
X116622605Y-117449626D01*
X116505388Y-117206223D01*
X116353203Y-116983009D01*
X116353201Y-116983006D01*
X116169449Y-116784969D01*
X115958230Y-116616528D01*
X115724266Y-116481449D01*
X115472788Y-116382751D01*
X115209400Y-116322634D01*
X115007444Y-116307500D01*
X115007441Y-116307500D01*
X114872559Y-116307500D01*
X114872556Y-116307500D01*
X114670599Y-116322634D01*
X114407211Y-116382751D01*
X114155733Y-116481449D01*
X113921769Y-116616528D01*
X113710550Y-116784969D01*
X113526798Y-116983006D01*
X113374611Y-117206225D01*
X113257395Y-117449626D01*
X113177764Y-117707781D01*
X113137500Y-117974920D01*
X113137500Y-118245080D01*
X104140500Y-118245080D01*
X104140500Y-60178131D01*
X105285825Y-60178131D01*
X105289950Y-60221770D01*
X105290500Y-60233439D01*
X105290500Y-70794962D01*
X105288304Y-70818196D01*
X105286760Y-70826286D01*
X105290255Y-70881821D01*
X105290500Y-70889608D01*
X105290500Y-93135034D01*
X105288229Y-93155601D01*
X105290439Y-93225919D01*
X105290500Y-93229813D01*
X105290500Y-93257476D01*
X105291006Y-93261484D01*
X105291921Y-93273118D01*
X105293298Y-93316943D01*
X105298916Y-93336278D01*
X105302861Y-93355328D01*
X105305383Y-93375293D01*
X105321519Y-93416049D01*
X105325302Y-93427098D01*
X105337530Y-93469187D01*
X105337531Y-93469189D01*
X105337532Y-93469191D01*
X105347779Y-93486517D01*
X105356338Y-93503989D01*
X105363747Y-93522705D01*
X105389511Y-93558165D01*
X105395925Y-93567929D01*
X105403894Y-93581404D01*
X105418237Y-93605656D01*
X105432475Y-93619894D01*
X105445107Y-93634685D01*
X105456937Y-93650967D01*
X105490705Y-93678902D01*
X105499346Y-93686765D01*
X107883181Y-96070600D01*
X107910061Y-96110828D01*
X107919500Y-96158281D01*
X107919500Y-97367869D01*
X107925909Y-97427484D01*
X107945019Y-97478719D01*
X107976204Y-97562331D01*
X108062454Y-97677546D01*
X108177669Y-97763796D01*
X108312517Y-97814091D01*
X108372127Y-97820500D01*
X108468500Y-97820500D01*
X108530500Y-97837113D01*
X108575887Y-97882500D01*
X108592500Y-97944500D01*
X108592500Y-99496962D01*
X108590304Y-99520196D01*
X108588760Y-99528286D01*
X108592255Y-99583821D01*
X108592500Y-99591608D01*
X108592500Y-102710214D01*
X108581878Y-102760429D01*
X108551830Y-102802040D01*
X108507506Y-102827919D01*
X108500667Y-102830185D01*
X108351342Y-102922288D01*
X108227288Y-103046342D01*
X108135186Y-103195665D01*
X108080000Y-103362202D01*
X108069500Y-103464990D01*
X108069500Y-104815008D01*
X108080000Y-104917796D01*
X108135186Y-105084334D01*
X108227288Y-105233657D01*
X108351342Y-105357711D01*
X108351344Y-105357712D01*
X108500666Y-105449814D01*
X108503637Y-105450798D01*
X108507506Y-105452081D01*
X108551830Y-105477960D01*
X108581878Y-105519571D01*
X108592500Y-105569786D01*
X108592500Y-111931034D01*
X108590229Y-111951601D01*
X108592439Y-112021919D01*
X108592500Y-112025813D01*
X108592500Y-112053476D01*
X108593006Y-112057484D01*
X108593921Y-112069118D01*
X108595298Y-112112943D01*
X108600916Y-112132278D01*
X108604861Y-112151328D01*
X108607383Y-112171293D01*
X108623519Y-112212049D01*
X108627302Y-112223098D01*
X108639530Y-112265187D01*
X108639531Y-112265189D01*
X108639532Y-112265191D01*
X108649779Y-112282517D01*
X108658338Y-112299989D01*
X108665747Y-112318705D01*
X108691511Y-112354165D01*
X108697925Y-112363929D01*
X108717920Y-112397738D01*
X108720237Y-112401656D01*
X108734475Y-112415894D01*
X108747108Y-112430686D01*
X108758936Y-112446966D01*
X108792705Y-112474902D01*
X108801346Y-112482765D01*
X110749624Y-114431043D01*
X110762562Y-114447192D01*
X110813845Y-114495350D01*
X110816644Y-114498063D01*
X110836204Y-114517623D01*
X110839385Y-114520090D01*
X110848282Y-114527688D01*
X110880230Y-114557691D01*
X110880232Y-114557692D01*
X110880233Y-114557693D01*
X110897878Y-114567393D01*
X110914135Y-114578072D01*
X110930038Y-114590408D01*
X110970262Y-114607814D01*
X110980743Y-114612948D01*
X111019166Y-114634072D01*
X111038217Y-114638963D01*
X111038660Y-114639077D01*
X111057069Y-114645380D01*
X111069214Y-114650635D01*
X111075542Y-114653374D01*
X111118851Y-114660233D01*
X111130258Y-114662595D01*
X111172728Y-114673500D01*
X111192859Y-114673500D01*
X111212256Y-114675026D01*
X111232133Y-114678175D01*
X111272208Y-114674386D01*
X111275770Y-114674050D01*
X111287439Y-114673500D01*
X119136500Y-114673500D01*
X119198500Y-114690113D01*
X119243887Y-114735500D01*
X119260500Y-114797500D01*
X119260500Y-122610962D01*
X119258304Y-122634196D01*
X119256760Y-122642286D01*
X119260255Y-122697821D01*
X119260500Y-122705608D01*
X119260500Y-122721477D01*
X119262489Y-122737227D01*
X119263221Y-122744977D01*
X119266715Y-122800514D01*
X119269260Y-122808346D01*
X119274352Y-122831126D01*
X119275383Y-122839293D01*
X119295875Y-122891051D01*
X119298513Y-122898377D01*
X119315709Y-122951301D01*
X119320118Y-122958248D01*
X119330712Y-122979040D01*
X119333745Y-122986702D01*
X119366463Y-123031734D01*
X119370841Y-123038176D01*
X119400659Y-123085161D01*
X119406663Y-123090799D01*
X119422095Y-123108302D01*
X119426937Y-123114967D01*
X119448831Y-123133079D01*
X119469817Y-123150441D01*
X119475658Y-123155591D01*
X119516233Y-123193693D01*
X119523458Y-123197665D01*
X119542759Y-123210783D01*
X119549096Y-123216026D01*
X119599439Y-123239715D01*
X119606382Y-123243253D01*
X119655163Y-123270071D01*
X119655165Y-123270071D01*
X119655166Y-123270072D01*
X119662248Y-123271890D01*
X119663139Y-123272119D01*
X119685096Y-123280023D01*
X119692551Y-123283531D01*
X119747230Y-123293961D01*
X119754800Y-123295653D01*
X119808728Y-123309500D01*
X119816962Y-123309500D01*
X119840196Y-123311696D01*
X119848286Y-123313239D01*
X119903822Y-123309744D01*
X119911608Y-123309500D01*
X145485034Y-123309500D01*
X145505601Y-123311770D01*
X145508475Y-123311679D01*
X145508477Y-123311680D01*
X145575918Y-123309561D01*
X145579813Y-123309500D01*
X145607474Y-123309500D01*
X145607476Y-123309500D01*
X145611470Y-123308995D01*
X145623114Y-123308077D01*
X145666943Y-123306701D01*
X145686280Y-123301082D01*
X145705321Y-123297138D01*
X145725293Y-123294616D01*
X145766055Y-123278476D01*
X145777092Y-123274698D01*
X145819191Y-123262468D01*
X145836510Y-123252224D01*
X145853994Y-123243659D01*
X145872703Y-123236253D01*
X145908168Y-123210485D01*
X145917915Y-123204081D01*
X145955656Y-123181763D01*
X145969892Y-123167526D01*
X145984679Y-123154896D01*
X146000967Y-123143063D01*
X146028904Y-123109290D01*
X146036756Y-123100661D01*
X147217418Y-121919999D01*
X180588512Y-121919999D01*
X180608432Y-122185813D01*
X180667748Y-122445694D01*
X180765133Y-122693824D01*
X180898413Y-122924673D01*
X181026399Y-123085162D01*
X181064612Y-123133079D01*
X181260014Y-123314386D01*
X181480257Y-123464545D01*
X181720419Y-123580201D01*
X181956214Y-123652934D01*
X181975137Y-123658771D01*
X182238719Y-123698500D01*
X182238720Y-123698500D01*
X182505280Y-123698500D01*
X182505281Y-123698500D01*
X182637071Y-123678635D01*
X182768863Y-123658771D01*
X183023581Y-123580201D01*
X183263744Y-123464545D01*
X183483986Y-123314386D01*
X183679388Y-123133079D01*
X183845586Y-122924674D01*
X183978866Y-122693826D01*
X184076252Y-122445692D01*
X184135567Y-122185815D01*
X184155487Y-121920000D01*
X184135567Y-121654185D01*
X184076252Y-121394308D01*
X183978866Y-121146174D01*
X183845586Y-120915326D01*
X183679388Y-120706921D01*
X183679387Y-120706920D01*
X183483988Y-120525615D01*
X183380331Y-120454943D01*
X183263744Y-120375455D01*
X183263741Y-120375454D01*
X183263739Y-120375452D01*
X183023583Y-120259800D01*
X183023581Y-120259799D01*
X182932779Y-120231790D01*
X182768862Y-120181228D01*
X182505281Y-120141500D01*
X182505280Y-120141500D01*
X182238720Y-120141500D01*
X182238719Y-120141500D01*
X181975137Y-120181228D01*
X181720419Y-120259799D01*
X181480256Y-120375455D01*
X181260014Y-120525613D01*
X181064612Y-120706920D01*
X180898413Y-120915326D01*
X180765133Y-121146175D01*
X180667748Y-121394305D01*
X180608432Y-121654186D01*
X180588512Y-121919999D01*
X147217418Y-121919999D01*
X149560600Y-119576817D01*
X149600828Y-119549938D01*
X149648281Y-119540499D01*
X150535009Y-119540499D01*
X150586402Y-119535249D01*
X150637797Y-119529999D01*
X150804334Y-119474814D01*
X150953656Y-119382712D01*
X151077712Y-119258656D01*
X151169814Y-119109334D01*
X151180695Y-119076494D01*
X151206574Y-119032171D01*
X151248186Y-119002123D01*
X151298401Y-118991500D01*
X153211741Y-118991500D01*
X153267245Y-119004616D01*
X153311007Y-119041188D01*
X153375954Y-119127946D01*
X153491169Y-119214196D01*
X153626017Y-119264491D01*
X153685627Y-119270900D01*
X154670372Y-119270899D01*
X154729983Y-119264491D01*
X154864831Y-119214196D01*
X154980046Y-119127946D01*
X155066296Y-119012731D01*
X155116591Y-118877883D01*
X155123000Y-118818273D01*
X155122999Y-118243652D01*
X155141504Y-118178487D01*
X155191494Y-118132770D01*
X155258051Y-118120148D01*
X155321309Y-118144386D01*
X155381168Y-118189197D01*
X155516016Y-118239492D01*
X155575626Y-118245901D01*
X156560371Y-118245900D01*
X156619982Y-118239492D01*
X156754830Y-118189197D01*
X156870045Y-118102947D01*
X156934991Y-118016189D01*
X156978754Y-117979617D01*
X157034258Y-117966501D01*
X181282033Y-117966501D01*
X181302600Y-117968771D01*
X181305474Y-117968680D01*
X181305476Y-117968681D01*
X181372917Y-117966562D01*
X181376812Y-117966501D01*
X181404473Y-117966501D01*
X181404475Y-117966501D01*
X181408469Y-117965996D01*
X181420113Y-117965078D01*
X181463942Y-117963702D01*
X181483279Y-117958083D01*
X181502320Y-117954139D01*
X181522292Y-117951617D01*
X181563054Y-117935477D01*
X181574091Y-117931699D01*
X181616190Y-117919469D01*
X181633509Y-117909225D01*
X181650993Y-117900660D01*
X181669702Y-117893254D01*
X181705167Y-117867486D01*
X181714914Y-117861082D01*
X181752655Y-117838764D01*
X181766891Y-117824527D01*
X181781678Y-117811897D01*
X181797966Y-117800064D01*
X181825903Y-117766291D01*
X181833755Y-117757662D01*
X182503044Y-117088373D01*
X182519190Y-117075439D01*
X182521159Y-117073341D01*
X182521162Y-117073340D01*
X182567383Y-117024118D01*
X182570001Y-117021416D01*
X182589623Y-117001796D01*
X182592100Y-116998601D01*
X182599681Y-116989724D01*
X182629693Y-116957767D01*
X182639392Y-116940122D01*
X182650071Y-116923864D01*
X182662408Y-116907962D01*
X182679817Y-116867728D01*
X182684954Y-116857245D01*
X182706072Y-116818834D01*
X182711080Y-116799326D01*
X182717374Y-116780942D01*
X182725373Y-116762459D01*
X182732230Y-116719157D01*
X182734595Y-116707739D01*
X182745500Y-116665272D01*
X182745500Y-116645141D01*
X182747027Y-116625742D01*
X182748486Y-116616528D01*
X182750175Y-116605867D01*
X182746050Y-116562230D01*
X182745500Y-116550561D01*
X182745500Y-79076966D01*
X182747770Y-79056398D01*
X182745561Y-78986082D01*
X182745500Y-78982188D01*
X182745500Y-78954525D01*
X182744994Y-78950521D01*
X182744077Y-78938869D01*
X182742701Y-78895058D01*
X182737082Y-78875718D01*
X182733139Y-78856680D01*
X182730616Y-78836707D01*
X182714478Y-78795949D01*
X182710698Y-78784907D01*
X182698468Y-78742809D01*
X182688222Y-78725485D01*
X182679661Y-78708009D01*
X182672253Y-78689297D01*
X182646489Y-78653837D01*
X182640074Y-78644070D01*
X182617763Y-78606344D01*
X182603530Y-78592111D01*
X182590893Y-78577316D01*
X182579063Y-78561033D01*
X182579060Y-78561031D01*
X182579060Y-78561030D01*
X182545287Y-78533090D01*
X182536647Y-78525228D01*
X156966375Y-52954956D01*
X156953439Y-52938809D01*
X156902153Y-52890648D01*
X156899354Y-52887935D01*
X156879795Y-52868375D01*
X156876606Y-52865902D01*
X156867716Y-52858310D01*
X156862238Y-52853166D01*
X156835767Y-52828307D01*
X156833465Y-52827041D01*
X156818120Y-52818605D01*
X156801858Y-52807922D01*
X156785963Y-52795592D01*
X156745736Y-52778184D01*
X156735248Y-52773046D01*
X156696831Y-52751926D01*
X156677337Y-52746921D01*
X156658933Y-52740620D01*
X156640458Y-52732625D01*
X156597171Y-52725769D01*
X156585736Y-52723401D01*
X156543274Y-52712500D01*
X156543272Y-52712500D01*
X156523142Y-52712500D01*
X156503743Y-52710973D01*
X156483868Y-52707825D01*
X156483867Y-52707825D01*
X156463261Y-52709772D01*
X156440230Y-52711950D01*
X156428561Y-52712500D01*
X153143826Y-52712500D01*
X153086569Y-52698489D01*
X153042251Y-52659623D01*
X152954300Y-52534016D01*
X152908495Y-52468599D01*
X152741401Y-52301505D01*
X152547830Y-52165965D01*
X152333663Y-52066097D01*
X152272502Y-52049709D01*
X152105407Y-52004936D01*
X151870000Y-51984340D01*
X151634592Y-52004936D01*
X151406336Y-52066097D01*
X151192170Y-52165965D01*
X150998598Y-52301505D01*
X150831505Y-52468598D01*
X150695965Y-52662170D01*
X150596097Y-52876336D01*
X150534936Y-53104592D01*
X150514340Y-53340000D01*
X150534936Y-53575407D01*
X150579709Y-53742502D01*
X150596097Y-53803663D01*
X150695965Y-54017830D01*
X150831505Y-54211401D01*
X150998599Y-54378495D01*
X151184160Y-54508426D01*
X151223024Y-54552743D01*
X151237035Y-54610000D01*
X151223024Y-54667257D01*
X151184160Y-54711574D01*
X151077378Y-54786344D01*
X150998595Y-54841508D01*
X150831505Y-55008598D01*
X150695965Y-55202170D01*
X150596097Y-55416336D01*
X150534936Y-55644592D01*
X150514340Y-55879999D01*
X150534936Y-56115407D01*
X150552083Y-56179399D01*
X150596097Y-56343663D01*
X150695965Y-56557830D01*
X150831505Y-56751401D01*
X150998599Y-56918495D01*
X151184597Y-57048732D01*
X151223460Y-57093048D01*
X151237471Y-57150306D01*
X151223460Y-57207563D01*
X151184594Y-57251881D01*
X151108626Y-57305073D01*
X151870000Y-58066447D01*
X151870001Y-58066447D01*
X152631373Y-57305073D01*
X152631373Y-57305072D01*
X152555405Y-57251880D01*
X152516539Y-57207562D01*
X152502528Y-57150305D01*
X152516539Y-57093048D01*
X152555402Y-57048732D01*
X152741401Y-56918495D01*
X152908495Y-56751401D01*
X153044035Y-56557830D01*
X153143903Y-56343663D01*
X153205063Y-56115408D01*
X153225659Y-55880000D01*
X153205063Y-55644592D01*
X153143903Y-55416337D01*
X153044035Y-55202171D01*
X152908495Y-55008599D01*
X152741401Y-54841505D01*
X152555839Y-54711573D01*
X152516974Y-54667255D01*
X152502964Y-54609999D01*
X152516975Y-54552742D01*
X152555837Y-54508428D01*
X152741401Y-54378495D01*
X152908495Y-54211401D01*
X153042252Y-54020375D01*
X153086570Y-53981511D01*
X153143827Y-53967500D01*
X156152719Y-53967500D01*
X156200172Y-53976939D01*
X156240400Y-54003819D01*
X181454181Y-79217600D01*
X181481061Y-79257828D01*
X181490500Y-79305281D01*
X181490500Y-116274719D01*
X181481061Y-116322172D01*
X181454181Y-116362400D01*
X181141399Y-116675182D01*
X181101171Y-116702062D01*
X181053718Y-116711501D01*
X157034258Y-116711501D01*
X156978754Y-116698385D01*
X156934991Y-116661812D01*
X156915206Y-116635383D01*
X156870045Y-116575055D01*
X156754830Y-116488805D01*
X156619982Y-116438510D01*
X156560372Y-116432101D01*
X156560368Y-116432101D01*
X155575629Y-116432101D01*
X155516014Y-116438510D01*
X155381168Y-116488805D01*
X155321309Y-116533615D01*
X155258051Y-116557854D01*
X155191494Y-116545231D01*
X155141503Y-116499514D01*
X155122999Y-116434349D01*
X155122999Y-115859730D01*
X155116591Y-115800119D01*
X155066296Y-115665271D01*
X154980046Y-115550056D01*
X154864831Y-115463806D01*
X154729983Y-115413511D01*
X154670373Y-115407102D01*
X154670369Y-115407102D01*
X153685630Y-115407102D01*
X153626015Y-115413511D01*
X153491169Y-115463806D01*
X153375953Y-115550056D01*
X153311008Y-115636813D01*
X153267245Y-115673386D01*
X153211741Y-115686502D01*
X151359500Y-115686502D01*
X151297500Y-115669889D01*
X151252113Y-115624502D01*
X151235500Y-115562502D01*
X151235499Y-114839991D01*
X151224999Y-114737203D01*
X151205439Y-114678175D01*
X151169814Y-114570666D01*
X151101555Y-114460000D01*
X151077711Y-114421342D01*
X150953657Y-114297288D01*
X150804334Y-114205186D01*
X150637797Y-114150000D01*
X150535009Y-114139500D01*
X149184991Y-114139500D01*
X149082203Y-114150000D01*
X148915665Y-114205186D01*
X148766342Y-114297288D01*
X148642288Y-114421342D01*
X148550185Y-114570667D01*
X148547919Y-114577506D01*
X148522040Y-114621830D01*
X148480429Y-114651878D01*
X148430214Y-114662500D01*
X147859281Y-114662500D01*
X147811828Y-114653061D01*
X147771600Y-114626181D01*
X136015419Y-102870000D01*
X150184356Y-102870000D01*
X150204891Y-103117816D01*
X150204891Y-103117819D01*
X150204892Y-103117821D01*
X150265937Y-103358881D01*
X150284457Y-103401102D01*
X150365825Y-103586604D01*
X150365826Y-103586605D01*
X150365827Y-103586607D01*
X150501836Y-103794785D01*
X150670256Y-103977738D01*
X150702285Y-104002667D01*
X150866485Y-104130470D01*
X150866487Y-104130471D01*
X150866491Y-104130474D01*
X151085190Y-104248828D01*
X151320386Y-104329571D01*
X151565665Y-104370500D01*
X151814335Y-104370500D01*
X152059614Y-104329571D01*
X152294810Y-104248828D01*
X152513509Y-104130474D01*
X152709744Y-103977738D01*
X152878164Y-103794785D01*
X153014173Y-103586607D01*
X153020717Y-103571689D01*
X153047809Y-103532619D01*
X153087611Y-103506615D01*
X153134273Y-103497500D01*
X156766173Y-103497500D01*
X156823430Y-103511511D01*
X156867747Y-103550375D01*
X157001505Y-103741401D01*
X157168599Y-103908495D01*
X157362170Y-104044035D01*
X157576337Y-104143903D01*
X157804592Y-104205063D01*
X158040000Y-104225659D01*
X158275408Y-104205063D01*
X158503663Y-104143903D01*
X158717830Y-104044035D01*
X158911401Y-103908495D01*
X159078495Y-103741401D01*
X159214035Y-103547830D01*
X159313903Y-103333663D01*
X159375063Y-103105408D01*
X159395659Y-102870000D01*
X159375063Y-102634592D01*
X159313903Y-102406337D01*
X159214035Y-102192171D01*
X159078495Y-101998599D01*
X158911401Y-101831505D01*
X158725839Y-101701573D01*
X158686974Y-101657255D01*
X158672964Y-101599999D01*
X158686975Y-101542742D01*
X158725837Y-101498428D01*
X158911401Y-101368495D01*
X159078495Y-101201401D01*
X159212252Y-101010375D01*
X159256570Y-100971511D01*
X159313827Y-100957500D01*
X164789034Y-100957500D01*
X164809601Y-100959770D01*
X164812475Y-100959679D01*
X164812477Y-100959680D01*
X164879918Y-100957561D01*
X164883813Y-100957500D01*
X164911474Y-100957500D01*
X164911476Y-100957500D01*
X164915470Y-100956995D01*
X164927114Y-100956077D01*
X164970943Y-100954701D01*
X164990280Y-100949082D01*
X165009321Y-100945138D01*
X165029293Y-100942616D01*
X165070055Y-100926476D01*
X165081092Y-100922698D01*
X165123191Y-100910468D01*
X165140510Y-100900224D01*
X165157994Y-100891659D01*
X165176703Y-100884253D01*
X165212168Y-100858485D01*
X165221915Y-100852081D01*
X165259656Y-100829763D01*
X165273892Y-100815526D01*
X165288679Y-100802896D01*
X165304967Y-100791063D01*
X165332904Y-100757290D01*
X165340756Y-100748661D01*
X176738599Y-89350818D01*
X176778828Y-89323938D01*
X176826281Y-89314499D01*
X177713009Y-89314499D01*
X177764402Y-89309249D01*
X177815797Y-89303999D01*
X177982334Y-89248814D01*
X178131656Y-89156712D01*
X178255712Y-89032656D01*
X178347814Y-88883334D01*
X178402999Y-88716797D01*
X178413500Y-88614009D01*
X178413499Y-87713992D01*
X178402999Y-87611203D01*
X178347814Y-87444666D01*
X178255712Y-87295344D01*
X178255711Y-87295342D01*
X178131657Y-87171288D01*
X177982334Y-87079186D01*
X177815797Y-87024000D01*
X177713009Y-87013500D01*
X176362991Y-87013500D01*
X176260203Y-87024000D01*
X176093665Y-87079186D01*
X175944342Y-87171288D01*
X175820288Y-87295342D01*
X175728186Y-87444665D01*
X175673000Y-87611202D01*
X175662500Y-87713991D01*
X175662500Y-88600717D01*
X175653061Y-88648170D01*
X175626181Y-88688398D01*
X164648400Y-99666181D01*
X164608172Y-99693061D01*
X164560719Y-99702500D01*
X159313826Y-99702500D01*
X159256569Y-99688489D01*
X159212251Y-99649623D01*
X159144020Y-99552179D01*
X159078495Y-99458599D01*
X158911401Y-99291505D01*
X158725839Y-99161573D01*
X158686974Y-99117255D01*
X158672964Y-99059999D01*
X158686975Y-99002742D01*
X158725837Y-98958428D01*
X158911401Y-98828495D01*
X159078495Y-98661401D01*
X159214035Y-98467830D01*
X159313903Y-98253663D01*
X159375063Y-98025408D01*
X159395659Y-97790000D01*
X159375063Y-97554592D01*
X159313903Y-97326337D01*
X159214035Y-97112171D01*
X159078495Y-96918599D01*
X158911401Y-96751505D01*
X158725839Y-96621573D01*
X158686975Y-96577257D01*
X158672964Y-96520000D01*
X158686975Y-96462743D01*
X158725839Y-96418426D01*
X158911401Y-96288495D01*
X159078495Y-96121401D01*
X159214035Y-95927830D01*
X159313903Y-95713663D01*
X159375063Y-95485408D01*
X159395659Y-95250000D01*
X159375063Y-95014592D01*
X159313903Y-94786337D01*
X159214035Y-94572171D01*
X159078495Y-94378599D01*
X158911401Y-94211505D01*
X158725839Y-94081573D01*
X158686975Y-94037257D01*
X158672964Y-93980000D01*
X158686975Y-93922743D01*
X158725839Y-93878426D01*
X158911401Y-93748495D01*
X159078495Y-93581401D01*
X159214035Y-93387830D01*
X159313903Y-93173663D01*
X159375063Y-92945408D01*
X159395659Y-92710000D01*
X159375063Y-92474592D01*
X159313903Y-92246337D01*
X159214035Y-92032171D01*
X159078495Y-91838599D01*
X158911401Y-91671505D01*
X158725839Y-91541573D01*
X158686975Y-91497257D01*
X158672964Y-91440000D01*
X158686975Y-91382743D01*
X158725839Y-91338426D01*
X158911401Y-91208495D01*
X159078495Y-91041401D01*
X159214035Y-90847830D01*
X159313903Y-90633663D01*
X159375063Y-90405408D01*
X159395659Y-90170000D01*
X159375063Y-89934592D01*
X159313903Y-89706337D01*
X159214035Y-89492171D01*
X159078495Y-89298599D01*
X158911401Y-89131505D01*
X158725402Y-89001267D01*
X158686539Y-88956951D01*
X158672528Y-88899694D01*
X158686539Y-88842437D01*
X158725405Y-88798119D01*
X158911078Y-88668109D01*
X159078106Y-88501081D01*
X159213600Y-88307576D01*
X159313430Y-88093492D01*
X159370636Y-87880000D01*
X156709364Y-87880000D01*
X156766569Y-88093492D01*
X156866399Y-88307576D01*
X157001893Y-88501081D01*
X157168918Y-88668106D01*
X157354595Y-88798119D01*
X157393460Y-88842437D01*
X157407471Y-88899694D01*
X157393460Y-88956951D01*
X157354595Y-89001269D01*
X157168595Y-89131508D01*
X157001505Y-89298598D01*
X156865965Y-89492170D01*
X156766097Y-89706336D01*
X156704936Y-89934592D01*
X156684340Y-90170000D01*
X156704936Y-90405407D01*
X156745957Y-90558500D01*
X156766097Y-90633663D01*
X156865965Y-90847830D01*
X157001505Y-91041401D01*
X157168599Y-91208495D01*
X157354160Y-91338426D01*
X157393024Y-91382743D01*
X157407035Y-91440000D01*
X157393024Y-91497257D01*
X157354158Y-91541575D01*
X157236037Y-91624285D01*
X157168595Y-91671508D01*
X157001505Y-91838598D01*
X156865965Y-92032170D01*
X156766097Y-92246336D01*
X156704936Y-92474592D01*
X156684340Y-92709999D01*
X156704936Y-92945407D01*
X156749709Y-93112501D01*
X156766097Y-93173663D01*
X156865965Y-93387830D01*
X157001505Y-93581401D01*
X157168599Y-93748495D01*
X157354160Y-93878426D01*
X157393024Y-93922743D01*
X157407035Y-93980000D01*
X157393024Y-94037257D01*
X157354159Y-94081575D01*
X157168595Y-94211508D01*
X157001505Y-94378598D01*
X156865965Y-94572170D01*
X156766097Y-94786336D01*
X156704936Y-95014592D01*
X156684340Y-95250000D01*
X156704936Y-95485407D01*
X156743178Y-95628127D01*
X156766097Y-95713663D01*
X156865965Y-95927830D01*
X157001505Y-96121401D01*
X157168599Y-96288495D01*
X157354160Y-96418426D01*
X157393024Y-96462743D01*
X157407035Y-96520000D01*
X157393024Y-96577257D01*
X157354158Y-96621575D01*
X157170749Y-96750000D01*
X157168595Y-96751508D01*
X157001505Y-96918598D01*
X156867749Y-97109623D01*
X156823431Y-97148489D01*
X156766174Y-97162500D01*
X153134273Y-97162500D01*
X153087611Y-97153385D01*
X153047809Y-97127381D01*
X153020717Y-97088311D01*
X153017798Y-97081658D01*
X153014173Y-97073393D01*
X152878164Y-96865215D01*
X152709744Y-96682262D01*
X152661956Y-96645067D01*
X152513514Y-96529529D01*
X152513510Y-96529526D01*
X152513509Y-96529526D01*
X152294810Y-96411172D01*
X152294806Y-96411170D01*
X152294805Y-96411170D01*
X152059615Y-96330429D01*
X151814335Y-96289500D01*
X151565665Y-96289500D01*
X151320384Y-96330429D01*
X151085194Y-96411170D01*
X150866485Y-96529529D01*
X150670259Y-96682259D01*
X150670256Y-96682261D01*
X150670256Y-96682262D01*
X150606511Y-96751508D01*
X150501837Y-96865214D01*
X150365825Y-97073395D01*
X150275780Y-97278678D01*
X150265937Y-97301119D01*
X150217828Y-97491098D01*
X150204891Y-97542183D01*
X150184356Y-97789999D01*
X150204891Y-98037816D01*
X150204891Y-98037819D01*
X150204892Y-98037821D01*
X150265937Y-98278881D01*
X150310960Y-98381523D01*
X150365825Y-98506604D01*
X150365826Y-98506605D01*
X150365827Y-98506607D01*
X150501836Y-98714785D01*
X150670256Y-98897738D01*
X150720393Y-98936761D01*
X150866485Y-99050470D01*
X150866487Y-99050471D01*
X150866491Y-99050474D01*
X151085190Y-99168828D01*
X151320386Y-99249571D01*
X151565665Y-99290500D01*
X151814335Y-99290500D01*
X152059614Y-99249571D01*
X152294810Y-99168828D01*
X152513509Y-99050474D01*
X152709744Y-98897738D01*
X152878164Y-98714785D01*
X153014173Y-98506607D01*
X153020717Y-98491689D01*
X153047809Y-98452619D01*
X153087611Y-98426615D01*
X153134273Y-98417500D01*
X156766173Y-98417500D01*
X156823430Y-98431511D01*
X156867747Y-98470375D01*
X157001505Y-98661401D01*
X157168599Y-98828495D01*
X157354160Y-98958426D01*
X157393024Y-99002743D01*
X157407035Y-99060000D01*
X157393024Y-99117257D01*
X157354160Y-99161574D01*
X157170035Y-99290500D01*
X157168595Y-99291508D01*
X157001505Y-99458598D01*
X156865965Y-99652170D01*
X156766097Y-99866336D01*
X156704936Y-100094592D01*
X156684340Y-100329999D01*
X156704936Y-100565407D01*
X156749709Y-100732502D01*
X156766097Y-100793663D01*
X156865965Y-101007830D01*
X157001505Y-101201401D01*
X157168599Y-101368495D01*
X157354160Y-101498426D01*
X157393024Y-101542743D01*
X157407035Y-101600000D01*
X157393024Y-101657257D01*
X157354160Y-101701574D01*
X157195506Y-101812665D01*
X157168595Y-101831508D01*
X157001505Y-101998598D01*
X156867749Y-102189623D01*
X156823431Y-102228489D01*
X156766174Y-102242500D01*
X153134273Y-102242500D01*
X153087611Y-102233385D01*
X153047809Y-102207381D01*
X153020717Y-102168311D01*
X153016069Y-102157715D01*
X153014173Y-102153393D01*
X152878164Y-101945215D01*
X152709744Y-101762262D01*
X152638118Y-101706513D01*
X152513514Y-101609529D01*
X152513510Y-101609526D01*
X152513509Y-101609526D01*
X152294810Y-101491172D01*
X152294806Y-101491170D01*
X152294805Y-101491170D01*
X152059615Y-101410429D01*
X151814335Y-101369500D01*
X151565665Y-101369500D01*
X151320384Y-101410429D01*
X151085194Y-101491170D01*
X151085190Y-101491171D01*
X151085190Y-101491172D01*
X151071788Y-101498425D01*
X150866485Y-101609529D01*
X150670259Y-101762259D01*
X150670256Y-101762261D01*
X150670256Y-101762262D01*
X150501836Y-101945215D01*
X150462979Y-102004690D01*
X150365825Y-102153395D01*
X150294665Y-102315625D01*
X150265937Y-102381119D01*
X150223993Y-102546750D01*
X150204891Y-102622183D01*
X150184356Y-102870000D01*
X136015419Y-102870000D01*
X130203819Y-97058400D01*
X130176939Y-97018172D01*
X130167500Y-96970719D01*
X130167500Y-95146399D01*
X130181511Y-95089142D01*
X130220374Y-95044825D01*
X130354620Y-94950826D01*
X130510826Y-94794620D01*
X130637534Y-94613662D01*
X130730894Y-94413450D01*
X130788070Y-94200068D01*
X130807323Y-93980000D01*
X130788070Y-93759932D01*
X130730894Y-93546550D01*
X130637534Y-93346339D01*
X130510826Y-93165380D01*
X130354620Y-93009174D01*
X130173662Y-92882466D01*
X130173661Y-92882465D01*
X130044811Y-92822381D01*
X129992635Y-92776624D01*
X129973216Y-92709998D01*
X129992636Y-92643373D01*
X130044810Y-92597618D01*
X130173662Y-92537534D01*
X130354620Y-92410826D01*
X130510826Y-92254620D01*
X130637534Y-92073662D01*
X130730894Y-91873450D01*
X130788070Y-91660068D01*
X130807323Y-91440000D01*
X130788070Y-91219932D01*
X130730894Y-91006550D01*
X130637534Y-90806339D01*
X130510826Y-90625380D01*
X130354620Y-90469174D01*
X130173662Y-90342466D01*
X130044811Y-90282382D01*
X129992635Y-90236625D01*
X129973216Y-90170000D01*
X129992635Y-90103375D01*
X130044811Y-90057618D01*
X130050027Y-90055185D01*
X130173662Y-89997534D01*
X130354620Y-89870826D01*
X130510826Y-89714620D01*
X130637534Y-89533662D01*
X130730894Y-89333450D01*
X130788070Y-89120068D01*
X130807323Y-88900000D01*
X130788070Y-88679932D01*
X130730894Y-88466550D01*
X130637534Y-88266339D01*
X130510826Y-88085380D01*
X130354620Y-87929174D01*
X130173662Y-87802466D01*
X130044811Y-87742382D01*
X129992635Y-87696625D01*
X129973216Y-87630000D01*
X129992635Y-87563375D01*
X130044811Y-87517618D01*
X130050027Y-87515185D01*
X130173662Y-87457534D01*
X130354620Y-87330826D01*
X130510826Y-87174620D01*
X130637534Y-86993662D01*
X130730894Y-86793450D01*
X130788070Y-86580068D01*
X130807323Y-86360000D01*
X130788070Y-86139932D01*
X130730894Y-85926550D01*
X130637534Y-85726339D01*
X130510826Y-85545380D01*
X130354620Y-85389174D01*
X130173662Y-85262466D01*
X130044811Y-85202382D01*
X129992635Y-85156625D01*
X129973216Y-85090000D01*
X129992635Y-85023375D01*
X130044811Y-84977618D01*
X130050027Y-84975185D01*
X130173662Y-84917534D01*
X130354620Y-84790826D01*
X130510826Y-84634620D01*
X130637534Y-84453662D01*
X130730894Y-84253450D01*
X130788070Y-84040068D01*
X130807323Y-83820000D01*
X130788070Y-83599932D01*
X130730894Y-83386550D01*
X130637534Y-83186339D01*
X130510826Y-83005380D01*
X130354620Y-82849174D01*
X130173662Y-82722466D01*
X130044811Y-82662382D01*
X129992635Y-82616625D01*
X129973216Y-82550000D01*
X129992635Y-82483375D01*
X130044811Y-82437618D01*
X130050027Y-82435185D01*
X130173662Y-82377534D01*
X130354620Y-82250826D01*
X130510826Y-82094620D01*
X130637534Y-81913662D01*
X130730894Y-81713450D01*
X130788070Y-81500068D01*
X130807323Y-81280000D01*
X130788070Y-81059932D01*
X130730894Y-80846550D01*
X130637534Y-80646339D01*
X130510826Y-80465380D01*
X130354620Y-80309174D01*
X130173662Y-80182466D01*
X130148771Y-80170859D01*
X130044218Y-80122105D01*
X129992042Y-80076348D01*
X129972623Y-80009722D01*
X129992043Y-79943097D01*
X130044220Y-79897340D01*
X130173411Y-79837098D01*
X130238187Y-79791740D01*
X129540001Y-79093553D01*
X129540000Y-79093553D01*
X128841812Y-79791740D01*
X128906592Y-79837100D01*
X129035780Y-79897341D01*
X129087956Y-79943097D01*
X129107376Y-80009722D01*
X129087957Y-80076347D01*
X129035782Y-80122105D01*
X128906336Y-80182467D01*
X128725379Y-80309174D01*
X128569174Y-80465379D01*
X128475177Y-80599623D01*
X128430859Y-80638489D01*
X128373602Y-80652500D01*
X125279281Y-80652500D01*
X125231828Y-80643061D01*
X125191600Y-80616181D01*
X123315419Y-78740000D01*
X128273178Y-78740000D01*
X128292424Y-78959978D01*
X128349579Y-79173281D01*
X128442898Y-79373406D01*
X128488258Y-79438187D01*
X129186446Y-78740001D01*
X129893553Y-78740001D01*
X130591740Y-79438186D01*
X130637100Y-79373408D01*
X130730420Y-79173281D01*
X130787575Y-78959978D01*
X130806821Y-78740000D01*
X130787575Y-78520021D01*
X130730421Y-78306720D01*
X130637098Y-78106589D01*
X130591740Y-78041811D01*
X129893553Y-78740000D01*
X129893553Y-78740001D01*
X129186446Y-78740001D01*
X129186446Y-78740000D01*
X128488258Y-78041811D01*
X128488258Y-78041812D01*
X128442900Y-78106589D01*
X128349578Y-78306719D01*
X128292424Y-78520021D01*
X128273178Y-78740000D01*
X123315419Y-78740000D01*
X120390375Y-75814956D01*
X120377439Y-75798809D01*
X120326153Y-75750648D01*
X120323354Y-75747935D01*
X120303795Y-75728375D01*
X120300606Y-75725902D01*
X120291716Y-75718310D01*
X120259767Y-75688307D01*
X120257465Y-75687041D01*
X120242120Y-75678605D01*
X120225858Y-75667922D01*
X120209963Y-75655592D01*
X120169736Y-75638184D01*
X120159248Y-75633046D01*
X120120831Y-75611926D01*
X120101337Y-75606921D01*
X120082933Y-75600620D01*
X120064458Y-75592625D01*
X120021171Y-75585769D01*
X120009736Y-75583401D01*
X119967274Y-75572500D01*
X119967272Y-75572500D01*
X119947142Y-75572500D01*
X119927743Y-75570973D01*
X119907868Y-75567825D01*
X119907867Y-75567825D01*
X119887261Y-75569772D01*
X119864230Y-75571950D01*
X119852561Y-75572500D01*
X119261749Y-75572500D01*
X119204492Y-75558489D01*
X119160174Y-75519623D01*
X119138260Y-75488326D01*
X119071598Y-75393123D01*
X118916877Y-75238402D01*
X118737639Y-75112898D01*
X118587009Y-75042658D01*
X118539331Y-75020425D01*
X118327974Y-74963792D01*
X118109999Y-74944722D01*
X117892025Y-74963792D01*
X117680668Y-75020425D01*
X117482361Y-75112898D01*
X117303122Y-75238402D01*
X117148402Y-75393122D01*
X117059826Y-75519623D01*
X117015508Y-75558489D01*
X116958251Y-75572500D01*
X113627384Y-75572500D01*
X113569063Y-75557929D01*
X113524448Y-75517639D01*
X113504026Y-75461101D01*
X113497499Y-75397203D01*
X113444877Y-75238402D01*
X113442314Y-75230666D01*
X113378199Y-75126719D01*
X113350211Y-75081342D01*
X113226157Y-74957288D01*
X113076834Y-74865186D01*
X112910297Y-74810000D01*
X112807509Y-74799500D01*
X111882491Y-74799500D01*
X111779703Y-74810000D01*
X111613165Y-74865186D01*
X111463842Y-74957288D01*
X111339788Y-75081342D01*
X111247686Y-75230665D01*
X111192500Y-75397202D01*
X111182000Y-75499990D01*
X111182000Y-76900008D01*
X111192500Y-77002796D01*
X111247686Y-77169334D01*
X111339788Y-77318657D01*
X111463842Y-77442711D01*
X111484215Y-77455277D01*
X111613166Y-77534814D01*
X111724517Y-77571712D01*
X111779702Y-77589999D01*
X111790203Y-77591071D01*
X111882491Y-77600500D01*
X112807508Y-77600499D01*
X112910297Y-77589999D01*
X113076834Y-77534814D01*
X113226156Y-77442712D01*
X113350212Y-77318656D01*
X113442314Y-77169334D01*
X113497499Y-77002797D01*
X113504027Y-76938897D01*
X113524450Y-76882360D01*
X113569064Y-76842071D01*
X113627385Y-76827500D01*
X116958250Y-76827500D01*
X117015507Y-76841511D01*
X117059824Y-76880375D01*
X117148402Y-77006877D01*
X117303123Y-77161598D01*
X117482361Y-77287102D01*
X117680670Y-77379575D01*
X117892023Y-77436207D01*
X118110000Y-77455277D01*
X118327977Y-77436207D01*
X118539330Y-77379575D01*
X118737639Y-77287102D01*
X118916877Y-77161598D01*
X119071598Y-77006877D01*
X119160175Y-76880375D01*
X119204493Y-76841511D01*
X119261750Y-76827500D01*
X119576719Y-76827500D01*
X119624172Y-76836939D01*
X119664400Y-76863819D01*
X124465624Y-81665043D01*
X124478562Y-81681192D01*
X124529845Y-81729350D01*
X124532644Y-81732063D01*
X124552204Y-81751623D01*
X124555385Y-81754090D01*
X124564282Y-81761688D01*
X124596230Y-81791691D01*
X124596232Y-81791692D01*
X124596233Y-81791693D01*
X124613878Y-81801393D01*
X124630135Y-81812072D01*
X124646038Y-81824408D01*
X124686262Y-81841814D01*
X124696743Y-81846948D01*
X124735166Y-81868072D01*
X124754217Y-81872963D01*
X124754660Y-81873077D01*
X124773069Y-81879380D01*
X124785214Y-81884635D01*
X124791542Y-81887374D01*
X124834851Y-81894233D01*
X124846258Y-81896595D01*
X124888728Y-81907500D01*
X124908859Y-81907500D01*
X124928256Y-81909026D01*
X124948133Y-81912175D01*
X124988208Y-81908386D01*
X124991770Y-81908050D01*
X125003439Y-81907500D01*
X128373601Y-81907500D01*
X128430858Y-81921511D01*
X128475174Y-81960374D01*
X128569174Y-82094620D01*
X128725380Y-82250826D01*
X128906338Y-82377534D01*
X129025748Y-82433215D01*
X129035189Y-82437618D01*
X129087365Y-82483375D01*
X129106784Y-82550000D01*
X129087365Y-82616625D01*
X129035189Y-82662382D01*
X128906338Y-82722466D01*
X128725379Y-82849174D01*
X128569174Y-83005379D01*
X128475177Y-83139623D01*
X128430859Y-83178489D01*
X128373602Y-83192500D01*
X121141281Y-83192500D01*
X121093828Y-83183061D01*
X121053600Y-83156181D01*
X119369186Y-81471767D01*
X119337092Y-81416178D01*
X119337093Y-81351990D01*
X119346207Y-81317976D01*
X119349530Y-81279999D01*
X119365277Y-81100000D01*
X119346207Y-80882023D01*
X119289575Y-80670670D01*
X119197102Y-80472362D01*
X119071598Y-80293123D01*
X118916877Y-80138402D01*
X118737639Y-80012898D01*
X118646205Y-79970261D01*
X118539331Y-79920425D01*
X118327974Y-79863792D01*
X118110000Y-79844722D01*
X117892025Y-79863792D01*
X117680668Y-79920425D01*
X117482361Y-80012898D01*
X117303122Y-80138402D01*
X117148402Y-80293122D01*
X117059826Y-80419623D01*
X117015508Y-80458489D01*
X116958251Y-80472500D01*
X113631999Y-80472500D01*
X113569999Y-80455887D01*
X113524612Y-80410500D01*
X113507999Y-80348500D01*
X113507999Y-80325991D01*
X113497499Y-80223203D01*
X113480154Y-80170859D01*
X113442314Y-80056666D01*
X113385093Y-79963895D01*
X113350211Y-79907342D01*
X113226157Y-79783288D01*
X113076834Y-79691186D01*
X112910297Y-79636000D01*
X112807509Y-79625500D01*
X111882491Y-79625500D01*
X111779703Y-79636000D01*
X111613165Y-79691186D01*
X111463842Y-79783288D01*
X111339788Y-79907342D01*
X111247686Y-80056665D01*
X111192500Y-80223202D01*
X111182000Y-80325990D01*
X111182000Y-81726008D01*
X111192500Y-81828796D01*
X111247686Y-81995334D01*
X111339788Y-82144657D01*
X111463842Y-82268711D01*
X111463844Y-82268712D01*
X111613166Y-82360814D01*
X111724516Y-82397712D01*
X111779702Y-82415999D01*
X111790202Y-82417071D01*
X111882491Y-82426500D01*
X112807508Y-82426499D01*
X112910297Y-82415999D01*
X113076834Y-82360814D01*
X113226156Y-82268712D01*
X113350212Y-82144656D01*
X113442314Y-81995334D01*
X113497499Y-81828797D01*
X113501771Y-81815906D01*
X113504452Y-81816794D01*
X113516885Y-81782367D01*
X113561500Y-81742073D01*
X113619825Y-81727500D01*
X116958250Y-81727500D01*
X117015507Y-81741511D01*
X117059824Y-81780375D01*
X117148402Y-81906877D01*
X117303123Y-82061598D01*
X117482361Y-82187102D01*
X117680670Y-82279575D01*
X117892023Y-82336207D01*
X118110000Y-82355277D01*
X118327977Y-82336207D01*
X118361990Y-82327092D01*
X118426178Y-82327092D01*
X118481767Y-82359186D01*
X120327624Y-84205043D01*
X120340562Y-84221192D01*
X120391845Y-84269350D01*
X120394644Y-84272063D01*
X120414204Y-84291623D01*
X120417385Y-84294090D01*
X120426282Y-84301688D01*
X120458230Y-84331691D01*
X120458232Y-84331692D01*
X120458233Y-84331693D01*
X120475878Y-84341393D01*
X120492135Y-84352072D01*
X120508038Y-84364408D01*
X120548262Y-84381814D01*
X120558743Y-84386948D01*
X120597166Y-84408072D01*
X120616217Y-84412963D01*
X120616660Y-84413077D01*
X120635069Y-84419380D01*
X120647214Y-84424635D01*
X120653542Y-84427374D01*
X120696851Y-84434233D01*
X120708258Y-84436595D01*
X120750728Y-84447500D01*
X120770859Y-84447500D01*
X120790256Y-84449026D01*
X120810133Y-84452175D01*
X120850208Y-84448386D01*
X120853770Y-84448050D01*
X120865439Y-84447500D01*
X128373601Y-84447500D01*
X128430858Y-84461511D01*
X128475174Y-84500374D01*
X128569174Y-84634620D01*
X128725380Y-84790826D01*
X128906338Y-84917534D01*
X129025748Y-84973215D01*
X129035189Y-84977618D01*
X129087365Y-85023375D01*
X129106784Y-85090000D01*
X129087365Y-85156625D01*
X129035189Y-85202382D01*
X128906338Y-85262466D01*
X128725379Y-85389174D01*
X128569174Y-85545379D01*
X128505012Y-85637012D01*
X128490100Y-85658311D01*
X128475177Y-85679623D01*
X128430859Y-85718489D01*
X128373602Y-85732500D01*
X125904273Y-85732500D01*
X125857611Y-85723385D01*
X125817809Y-85697381D01*
X125790717Y-85658311D01*
X125787809Y-85651682D01*
X125784173Y-85643393D01*
X125648164Y-85435215D01*
X125479744Y-85252262D01*
X125457612Y-85235036D01*
X125283514Y-85099529D01*
X125283510Y-85099526D01*
X125283509Y-85099526D01*
X125064810Y-84981172D01*
X125064806Y-84981170D01*
X125064805Y-84981170D01*
X124829615Y-84900429D01*
X124584335Y-84859500D01*
X124335665Y-84859500D01*
X124090384Y-84900429D01*
X123855194Y-84981170D01*
X123855190Y-84981171D01*
X123855190Y-84981172D01*
X123800269Y-85010894D01*
X123636485Y-85099529D01*
X123440259Y-85252259D01*
X123440256Y-85252261D01*
X123440256Y-85252262D01*
X123271836Y-85435215D01*
X123226499Y-85504607D01*
X123135825Y-85643395D01*
X123074443Y-85783334D01*
X123035937Y-85871119D01*
X122988938Y-86056712D01*
X122974891Y-86112183D01*
X122954356Y-86360000D01*
X122974891Y-86607816D01*
X122974891Y-86607819D01*
X122974892Y-86607821D01*
X123035937Y-86848881D01*
X123080960Y-86951523D01*
X123135825Y-87076604D01*
X123135826Y-87076605D01*
X123135827Y-87076607D01*
X123271836Y-87284785D01*
X123440256Y-87467738D01*
X123440259Y-87467740D01*
X123636485Y-87620470D01*
X123636487Y-87620471D01*
X123636491Y-87620474D01*
X123855190Y-87738828D01*
X124090386Y-87819571D01*
X124335665Y-87860500D01*
X124584335Y-87860500D01*
X124829614Y-87819571D01*
X125064810Y-87738828D01*
X125283509Y-87620474D01*
X125479744Y-87467738D01*
X125648164Y-87284785D01*
X125784173Y-87076607D01*
X125790717Y-87061689D01*
X125817809Y-87022619D01*
X125857611Y-86996615D01*
X125904273Y-86987500D01*
X128373601Y-86987500D01*
X128430858Y-87001511D01*
X128475174Y-87040374D01*
X128569174Y-87174620D01*
X128725380Y-87330826D01*
X128906338Y-87457534D01*
X129025748Y-87513215D01*
X129035189Y-87517618D01*
X129087365Y-87563375D01*
X129106784Y-87630000D01*
X129087365Y-87696625D01*
X129035189Y-87742382D01*
X128906338Y-87802466D01*
X128725379Y-87929174D01*
X128569174Y-88085379D01*
X128505012Y-88177012D01*
X128490100Y-88198311D01*
X128475177Y-88219623D01*
X128430859Y-88258489D01*
X128373602Y-88272500D01*
X122094273Y-88272500D01*
X122047611Y-88263385D01*
X122007809Y-88237381D01*
X121980717Y-88198311D01*
X121977809Y-88191682D01*
X121974173Y-88183393D01*
X121838164Y-87975215D01*
X121669744Y-87792262D01*
X121647612Y-87775036D01*
X121473514Y-87639529D01*
X121473510Y-87639526D01*
X121473509Y-87639526D01*
X121254810Y-87521172D01*
X121254806Y-87521170D01*
X121254805Y-87521170D01*
X121019615Y-87440429D01*
X120774335Y-87399500D01*
X120525665Y-87399500D01*
X120280384Y-87440429D01*
X120045194Y-87521170D01*
X120045190Y-87521171D01*
X120045190Y-87521172D01*
X119990269Y-87550894D01*
X119826485Y-87639529D01*
X119630259Y-87792259D01*
X119630256Y-87792261D01*
X119630256Y-87792262D01*
X119567439Y-87860500D01*
X119461837Y-87975214D01*
X119325825Y-88183395D01*
X119271355Y-88307576D01*
X119225937Y-88411119D01*
X119177924Y-88600717D01*
X119164891Y-88652183D01*
X119144356Y-88899999D01*
X119164891Y-89147816D01*
X119164891Y-89147819D01*
X119164892Y-89147821D01*
X119225937Y-89388881D01*
X119270960Y-89491523D01*
X119325825Y-89616604D01*
X119325826Y-89616605D01*
X119325827Y-89616607D01*
X119461836Y-89824785D01*
X119630256Y-90007738D01*
X119630259Y-90007740D01*
X119826485Y-90160470D01*
X119826487Y-90160471D01*
X119826491Y-90160474D01*
X120045190Y-90278828D01*
X120280386Y-90359571D01*
X120525665Y-90400500D01*
X120774335Y-90400500D01*
X121019614Y-90359571D01*
X121254810Y-90278828D01*
X121473509Y-90160474D01*
X121669744Y-90007738D01*
X121838164Y-89824785D01*
X121974173Y-89616607D01*
X121980717Y-89601689D01*
X122007809Y-89562619D01*
X122047611Y-89536615D01*
X122094273Y-89527500D01*
X128373601Y-89527500D01*
X128430858Y-89541511D01*
X128475174Y-89580374D01*
X128569174Y-89714620D01*
X128725380Y-89870826D01*
X128906338Y-89997534D01*
X129025748Y-90053215D01*
X129035189Y-90057618D01*
X129087365Y-90103375D01*
X129106784Y-90170000D01*
X129087365Y-90236625D01*
X129035189Y-90282382D01*
X128906338Y-90342466D01*
X128725379Y-90469174D01*
X128569174Y-90625379D01*
X128475177Y-90759623D01*
X128430859Y-90798489D01*
X128373602Y-90812500D01*
X125801038Y-90812500D01*
X125777804Y-90810304D01*
X125769713Y-90808760D01*
X125716740Y-90812093D01*
X125714177Y-90812255D01*
X125706392Y-90812500D01*
X125690523Y-90812500D01*
X125674773Y-90814489D01*
X125667023Y-90815221D01*
X125611483Y-90818715D01*
X125603645Y-90821262D01*
X125580873Y-90826352D01*
X125572706Y-90827383D01*
X125520956Y-90847872D01*
X125513632Y-90850509D01*
X125460698Y-90867709D01*
X125453743Y-90872123D01*
X125432958Y-90882713D01*
X125425297Y-90885746D01*
X125380255Y-90918470D01*
X125373817Y-90922845D01*
X125326838Y-90952659D01*
X125321194Y-90958670D01*
X125303695Y-90974096D01*
X125297033Y-90978936D01*
X125261558Y-91021816D01*
X125256410Y-91027655D01*
X125218305Y-91068233D01*
X125214332Y-91075460D01*
X125201225Y-91094748D01*
X125195973Y-91101096D01*
X125172284Y-91151437D01*
X125168751Y-91158373D01*
X125141927Y-91207168D01*
X125139878Y-91215148D01*
X125131977Y-91237093D01*
X125128469Y-91244547D01*
X125118043Y-91299200D01*
X125116345Y-91306796D01*
X125102500Y-91360726D01*
X125102500Y-91368962D01*
X125100304Y-91392196D01*
X125098760Y-91400286D01*
X125102255Y-91455821D01*
X125102500Y-91463608D01*
X125102500Y-97707034D01*
X125100229Y-97727601D01*
X125102439Y-97797919D01*
X125102500Y-97801813D01*
X125102500Y-97829476D01*
X125103006Y-97833484D01*
X125103921Y-97845118D01*
X125105298Y-97888943D01*
X125110916Y-97908278D01*
X125114861Y-97927328D01*
X125117383Y-97947293D01*
X125133519Y-97988049D01*
X125137302Y-97999098D01*
X125149530Y-98041187D01*
X125149531Y-98041189D01*
X125149532Y-98041191D01*
X125159779Y-98058517D01*
X125168338Y-98075989D01*
X125175747Y-98094705D01*
X125201511Y-98130165D01*
X125207925Y-98139929D01*
X125230235Y-98177653D01*
X125230237Y-98177656D01*
X125244475Y-98191894D01*
X125257107Y-98206685D01*
X125268937Y-98222967D01*
X125302705Y-98250902D01*
X125311346Y-98258765D01*
X131416181Y-104363600D01*
X131443061Y-104403828D01*
X131452500Y-104451281D01*
X131452500Y-108942669D01*
X131437929Y-109000990D01*
X131397640Y-109045604D01*
X131341102Y-109066027D01*
X131302203Y-109070000D01*
X131135665Y-109125186D01*
X130986342Y-109217288D01*
X130862288Y-109341342D01*
X130770186Y-109490665D01*
X130715000Y-109657202D01*
X130704500Y-109759990D01*
X130704500Y-110660008D01*
X130715000Y-110762796D01*
X130770186Y-110929334D01*
X130862288Y-111078657D01*
X130986342Y-111202711D01*
X131015016Y-111220397D01*
X131135666Y-111294814D01*
X131215523Y-111321276D01*
X131302202Y-111349999D01*
X131312702Y-111351071D01*
X131404991Y-111360500D01*
X132755008Y-111360499D01*
X132857797Y-111349999D01*
X133024334Y-111294814D01*
X133173656Y-111202712D01*
X133297712Y-111078656D01*
X133389814Y-110929334D01*
X133392081Y-110922494D01*
X133417960Y-110878170D01*
X133459571Y-110848122D01*
X133509786Y-110837500D01*
X136138000Y-110837500D01*
X136200000Y-110854113D01*
X136245387Y-110899500D01*
X136262000Y-110961500D01*
X136262000Y-111025692D01*
X136264902Y-111062572D01*
X136310755Y-111220397D01*
X136310756Y-111220398D01*
X136394419Y-111361865D01*
X136510635Y-111478081D01*
X136574462Y-111515828D01*
X136652102Y-111561744D01*
X136809927Y-111607597D01*
X136809931Y-111607598D01*
X136846806Y-111610500D01*
X138003192Y-111610500D01*
X138003194Y-111610500D01*
X138040069Y-111607598D01*
X138197898Y-111561744D01*
X138339365Y-111478081D01*
X138339365Y-111478080D01*
X138349879Y-111471863D01*
X138412026Y-111454599D01*
X138474437Y-111470885D01*
X138520224Y-111516314D01*
X138537000Y-111578595D01*
X138537000Y-111941985D01*
X138520224Y-112004266D01*
X138474437Y-112049695D01*
X138412026Y-112065981D01*
X138349879Y-112048717D01*
X138197697Y-111958717D01*
X138039993Y-111912900D01*
X138003139Y-111910000D01*
X137675000Y-111910000D01*
X137675000Y-112460000D01*
X138584796Y-112460000D01*
X138609059Y-112433752D01*
X138664897Y-112399029D01*
X138730638Y-112397738D01*
X138771603Y-112421033D01*
X138772152Y-112420107D01*
X138785634Y-112428080D01*
X138785635Y-112428081D01*
X138864805Y-112474902D01*
X138927102Y-112511744D01*
X138983095Y-112528012D01*
X139029524Y-112553221D01*
X139061245Y-112595469D01*
X139072500Y-112647088D01*
X139072500Y-116596500D01*
X139055887Y-116658500D01*
X139010500Y-116703887D01*
X138948500Y-116720500D01*
X129343281Y-116720500D01*
X129295828Y-116711061D01*
X129255600Y-116684181D01*
X129187819Y-116616400D01*
X129160939Y-116576172D01*
X129151500Y-116528719D01*
X129151500Y-113560000D01*
X130705001Y-113560000D01*
X130705001Y-113759979D01*
X130715493Y-113862695D01*
X130770642Y-114029122D01*
X130862683Y-114178345D01*
X130986654Y-114302316D01*
X131135877Y-114394357D01*
X131302303Y-114449506D01*
X131405021Y-114460000D01*
X131830000Y-114460000D01*
X131830000Y-113560000D01*
X132330000Y-113560000D01*
X132330000Y-114459999D01*
X132754979Y-114459999D01*
X132857695Y-114449506D01*
X133024122Y-114394357D01*
X133173345Y-114302316D01*
X133297316Y-114178345D01*
X133389357Y-114029122D01*
X133444506Y-113862696D01*
X133455000Y-113759979D01*
X133455000Y-113560000D01*
X132330000Y-113560000D01*
X131830000Y-113560000D01*
X130705001Y-113560000D01*
X129151500Y-113560000D01*
X129151500Y-113060000D01*
X130705000Y-113060000D01*
X131830000Y-113060000D01*
X131830000Y-112160001D01*
X131405021Y-112160001D01*
X131302304Y-112170493D01*
X131135877Y-112225642D01*
X130986654Y-112317683D01*
X130862683Y-112441654D01*
X130770642Y-112590877D01*
X130715493Y-112757303D01*
X130705000Y-112860021D01*
X130705000Y-113060000D01*
X129151500Y-113060000D01*
X129151500Y-112160000D01*
X132330000Y-112160000D01*
X132330000Y-113060000D01*
X133454999Y-113060000D01*
X133454999Y-112960000D01*
X136265204Y-112960000D01*
X136265400Y-112962488D01*
X136311219Y-113120200D01*
X136394817Y-113261557D01*
X136510942Y-113377682D01*
X136652302Y-113461282D01*
X136810006Y-113507099D01*
X136846861Y-113510000D01*
X137175000Y-113510000D01*
X137175000Y-112960000D01*
X137675000Y-112960000D01*
X137675000Y-113510000D01*
X138003139Y-113510000D01*
X138039993Y-113507099D01*
X138197697Y-113461282D01*
X138339057Y-113377682D01*
X138455182Y-113261557D01*
X138538780Y-113120200D01*
X138584599Y-112962488D01*
X138584795Y-112960000D01*
X137675000Y-112960000D01*
X137175000Y-112960000D01*
X136265204Y-112960000D01*
X133454999Y-112960000D01*
X133454999Y-112860021D01*
X133444506Y-112757304D01*
X133389357Y-112590877D01*
X133308631Y-112459999D01*
X136265204Y-112459999D01*
X136265205Y-112460000D01*
X137175000Y-112460000D01*
X137175000Y-111910000D01*
X136846861Y-111910000D01*
X136810006Y-111912900D01*
X136652302Y-111958717D01*
X136510942Y-112042317D01*
X136394817Y-112158442D01*
X136311219Y-112299799D01*
X136265400Y-112457511D01*
X136265204Y-112459999D01*
X133308631Y-112459999D01*
X133297316Y-112441654D01*
X133173345Y-112317683D01*
X133024122Y-112225642D01*
X132857696Y-112170493D01*
X132754979Y-112160000D01*
X132330000Y-112160000D01*
X129151500Y-112160000D01*
X129151500Y-111334966D01*
X129153770Y-111314398D01*
X129153524Y-111306583D01*
X129151561Y-111244081D01*
X129151500Y-111240187D01*
X129151500Y-111212525D01*
X129150994Y-111208521D01*
X129150077Y-111196869D01*
X129148701Y-111153057D01*
X129143083Y-111133722D01*
X129139138Y-111114679D01*
X129136616Y-111094707D01*
X129120481Y-111053955D01*
X129116698Y-111042907D01*
X129104468Y-111000809D01*
X129094222Y-110983485D01*
X129085661Y-110966009D01*
X129078253Y-110947297D01*
X129052489Y-110911837D01*
X129046074Y-110902070D01*
X129023763Y-110864344D01*
X129009530Y-110850111D01*
X128996893Y-110835316D01*
X128985063Y-110819033D01*
X128985060Y-110819031D01*
X128985060Y-110819030D01*
X128951287Y-110791090D01*
X128942647Y-110783228D01*
X126994375Y-108834956D01*
X126981439Y-108818809D01*
X126930153Y-108770648D01*
X126927354Y-108767935D01*
X126907795Y-108748375D01*
X126904606Y-108745902D01*
X126895716Y-108738310D01*
X126863767Y-108708307D01*
X126861465Y-108707041D01*
X126846120Y-108698605D01*
X126829858Y-108687922D01*
X126813963Y-108675592D01*
X126773736Y-108658184D01*
X126763248Y-108653046D01*
X126724831Y-108631926D01*
X126705337Y-108626921D01*
X126686933Y-108620620D01*
X126668458Y-108612625D01*
X126625171Y-108605769D01*
X126613736Y-108603401D01*
X126571274Y-108592500D01*
X126571272Y-108592500D01*
X126551142Y-108592500D01*
X126531743Y-108590973D01*
X126511868Y-108587825D01*
X126511867Y-108587825D01*
X126491261Y-108589772D01*
X126468230Y-108591950D01*
X126456561Y-108592500D01*
X123193826Y-108592500D01*
X123136569Y-108578489D01*
X123092251Y-108539623D01*
X122958494Y-108348598D01*
X122791404Y-108181508D01*
X122791401Y-108181505D01*
X122597830Y-108045965D01*
X122383663Y-107946097D01*
X122282501Y-107918991D01*
X122155407Y-107884936D01*
X121920000Y-107864340D01*
X121684592Y-107884936D01*
X121456336Y-107946097D01*
X121242170Y-108045965D01*
X121048598Y-108181505D01*
X120881505Y-108348598D01*
X120751575Y-108534159D01*
X120707257Y-108573025D01*
X120650000Y-108587036D01*
X120592743Y-108573025D01*
X120548425Y-108534159D01*
X120523464Y-108498511D01*
X120418495Y-108348599D01*
X120251401Y-108181505D01*
X120057830Y-108045965D01*
X119843663Y-107946097D01*
X119742501Y-107918991D01*
X119615407Y-107884936D01*
X119379999Y-107864340D01*
X119152307Y-107884261D01*
X119085849Y-107871543D01*
X119035962Y-107825830D01*
X119017500Y-107760733D01*
X119017500Y-105569786D01*
X119028122Y-105519571D01*
X119058170Y-105477960D01*
X119102494Y-105452081D01*
X119105190Y-105451186D01*
X119109334Y-105449814D01*
X119258656Y-105357712D01*
X119382712Y-105233656D01*
X119474814Y-105084334D01*
X119529999Y-104917797D01*
X119533972Y-104878898D01*
X119554396Y-104822360D01*
X119599010Y-104782071D01*
X119657331Y-104767500D01*
X121086962Y-104767500D01*
X121110196Y-104769696D01*
X121118286Y-104771239D01*
X121173822Y-104767744D01*
X121181608Y-104767500D01*
X121197479Y-104767500D01*
X121213217Y-104765511D01*
X121220932Y-104764780D01*
X121276516Y-104761284D01*
X121284342Y-104758740D01*
X121307122Y-104753647D01*
X121315293Y-104752616D01*
X121367042Y-104732126D01*
X121374353Y-104729493D01*
X121427300Y-104712291D01*
X121434246Y-104707882D01*
X121455041Y-104697286D01*
X121462703Y-104694253D01*
X121507735Y-104661533D01*
X121514161Y-104657166D01*
X121561162Y-104627340D01*
X121566798Y-104621336D01*
X121584312Y-104605897D01*
X121590967Y-104601063D01*
X121626451Y-104558168D01*
X121631573Y-104552359D01*
X121669693Y-104511767D01*
X121673659Y-104504551D01*
X121686780Y-104485243D01*
X121692026Y-104478903D01*
X121715720Y-104428548D01*
X121719240Y-104421639D01*
X121746072Y-104372834D01*
X121748121Y-104364852D01*
X121756023Y-104342901D01*
X121759531Y-104335449D01*
X121769961Y-104280767D01*
X121771649Y-104273212D01*
X121785500Y-104219272D01*
X121785500Y-104211038D01*
X121787696Y-104187804D01*
X121789239Y-104179713D01*
X121785745Y-104124179D01*
X121785500Y-104116392D01*
X121785500Y-99337331D01*
X121800071Y-99279010D01*
X121840360Y-99234396D01*
X121896898Y-99213973D01*
X121928299Y-99210764D01*
X121935797Y-99209999D01*
X122102334Y-99154814D01*
X122251656Y-99062712D01*
X122375712Y-98938656D01*
X122467814Y-98789334D01*
X122522999Y-98622797D01*
X122533500Y-98520009D01*
X122533499Y-97619992D01*
X122530098Y-97586703D01*
X122522999Y-97517203D01*
X122510687Y-97480049D01*
X122467814Y-97350666D01*
X122375712Y-97201344D01*
X122375711Y-97201342D01*
X122251657Y-97077288D01*
X122102334Y-96985186D01*
X121935797Y-96930000D01*
X121833009Y-96919500D01*
X120482991Y-96919500D01*
X120380203Y-96930000D01*
X120213665Y-96985186D01*
X120064342Y-97077288D01*
X119940288Y-97201342D01*
X119848186Y-97350665D01*
X119793000Y-97517202D01*
X119782500Y-97619990D01*
X119782500Y-98520008D01*
X119793000Y-98622796D01*
X119848186Y-98789334D01*
X119940288Y-98938657D01*
X120064342Y-99062711D01*
X120064344Y-99062712D01*
X120213666Y-99154814D01*
X120325016Y-99191712D01*
X120380202Y-99209999D01*
X120419102Y-99213973D01*
X120475640Y-99234396D01*
X120515929Y-99279010D01*
X120530500Y-99337331D01*
X120530500Y-103388500D01*
X120513887Y-103450500D01*
X120468500Y-103495887D01*
X120406500Y-103512500D01*
X119657331Y-103512500D01*
X119599010Y-103497929D01*
X119554396Y-103457640D01*
X119533973Y-103401102D01*
X119529999Y-103362203D01*
X119520541Y-103333662D01*
X119474814Y-103195666D01*
X119382712Y-103046344D01*
X119382711Y-103046342D01*
X119258657Y-102922288D01*
X119109334Y-102830186D01*
X119109331Y-102830185D01*
X119076494Y-102819304D01*
X119032171Y-102793426D01*
X119002123Y-102751814D01*
X118991500Y-102701599D01*
X118991500Y-101671038D01*
X118993696Y-101647804D01*
X118995239Y-101639713D01*
X118991745Y-101584179D01*
X118991500Y-101576392D01*
X118991500Y-101560521D01*
X118989511Y-101544783D01*
X118988780Y-101537069D01*
X118985284Y-101481484D01*
X118982738Y-101473651D01*
X118977646Y-101450864D01*
X118976616Y-101442706D01*
X118956125Y-101390953D01*
X118953486Y-101383622D01*
X118936291Y-101330700D01*
X118931882Y-101323753D01*
X118921285Y-101302956D01*
X118918253Y-101295297D01*
X118885535Y-101250265D01*
X118881156Y-101243821D01*
X118876878Y-101237081D01*
X118851340Y-101196838D01*
X118845334Y-101191198D01*
X118829904Y-101173697D01*
X118825063Y-101167033D01*
X118818632Y-101161713D01*
X118782191Y-101131566D01*
X118776348Y-101126415D01*
X118735765Y-101088305D01*
X118728542Y-101084334D01*
X118709247Y-101071221D01*
X118702905Y-101065974D01*
X118664750Y-101048020D01*
X118652549Y-101042279D01*
X118645616Y-101038746D01*
X118596830Y-101011926D01*
X118588848Y-101009876D01*
X118566901Y-101001975D01*
X118559449Y-100998468D01*
X118504769Y-100988037D01*
X118497170Y-100986338D01*
X118443274Y-100972500D01*
X118443272Y-100972500D01*
X118435038Y-100972500D01*
X118411804Y-100970304D01*
X118403713Y-100968760D01*
X118350740Y-100972093D01*
X118348177Y-100972255D01*
X118340392Y-100972500D01*
X117591500Y-100972500D01*
X117529500Y-100955887D01*
X117484113Y-100910500D01*
X117467500Y-100848500D01*
X117467500Y-98838984D01*
X117483223Y-98778552D01*
X117526404Y-98733445D01*
X117608656Y-98682712D01*
X117732712Y-98558656D01*
X117824814Y-98409334D01*
X117879999Y-98242797D01*
X117890500Y-98140009D01*
X117890499Y-97439992D01*
X117887399Y-97409649D01*
X117879999Y-97337203D01*
X117864974Y-97291860D01*
X117824814Y-97170666D01*
X117732712Y-97021344D01*
X117732711Y-97021342D01*
X117608657Y-96897288D01*
X117459334Y-96805186D01*
X117292797Y-96750000D01*
X117199535Y-96740473D01*
X117190008Y-96739500D01*
X116489991Y-96739500D01*
X116387203Y-96750000D01*
X116256018Y-96793471D01*
X116190528Y-96796903D01*
X116132446Y-96766453D01*
X116098018Y-96710637D01*
X116096874Y-96645067D01*
X116129331Y-96588086D01*
X116640600Y-96076818D01*
X116680828Y-96049938D01*
X116728281Y-96040499D01*
X117190009Y-96040499D01*
X117241402Y-96035248D01*
X117292797Y-96029999D01*
X117459334Y-95974814D01*
X117608656Y-95882712D01*
X117732712Y-95758656D01*
X117783445Y-95676403D01*
X117828552Y-95633223D01*
X117888984Y-95617500D01*
X119734842Y-95617500D01*
X119785067Y-95628127D01*
X119826683Y-95658186D01*
X119838433Y-95678321D01*
X119840578Y-95676999D01*
X119940288Y-95838657D01*
X120064342Y-95962711D01*
X120120895Y-95997592D01*
X120213666Y-96054814D01*
X120280070Y-96076818D01*
X120380202Y-96109999D01*
X120390703Y-96111071D01*
X120482991Y-96120500D01*
X121833008Y-96120499D01*
X121935797Y-96109999D01*
X122102334Y-96054814D01*
X122251656Y-95962712D01*
X122375712Y-95838656D01*
X122467814Y-95689334D01*
X122522999Y-95522797D01*
X122533500Y-95420009D01*
X122533499Y-94519992D01*
X122522999Y-94417203D01*
X122467814Y-94250666D01*
X122375712Y-94101344D01*
X122251656Y-93977288D01*
X122251653Y-93977286D01*
X122241407Y-93967040D01*
X122242742Y-93965704D01*
X122219765Y-93943057D01*
X122201184Y-93890828D01*
X122207220Y-93835721D01*
X122236663Y-93788754D01*
X123667599Y-92357819D01*
X123707828Y-92330939D01*
X123755281Y-92321500D01*
X123790652Y-92321500D01*
X123971896Y-92282976D01*
X123971897Y-92282975D01*
X123971899Y-92282975D01*
X124141178Y-92207607D01*
X124291088Y-92098691D01*
X124319173Y-92067500D01*
X124415077Y-91960987D01*
X124507726Y-91800513D01*
X124507726Y-91800512D01*
X124564987Y-91624284D01*
X124584356Y-91440000D01*
X124564987Y-91255716D01*
X124514748Y-91101097D01*
X124507726Y-91079486D01*
X124415077Y-90919012D01*
X124291089Y-90781309D01*
X124141177Y-90672392D01*
X123971896Y-90597023D01*
X123790652Y-90558500D01*
X123790649Y-90558500D01*
X123605351Y-90558500D01*
X123605348Y-90558500D01*
X123424103Y-90597023D01*
X123254822Y-90672392D01*
X123104910Y-90781309D01*
X122980922Y-90919012D01*
X122888273Y-91079486D01*
X122831013Y-91255713D01*
X122816358Y-91395143D01*
X122804957Y-91435564D01*
X122780718Y-91469861D01*
X120772954Y-93477625D01*
X120756806Y-93490563D01*
X120708646Y-93541847D01*
X120705940Y-93544640D01*
X120686374Y-93564207D01*
X120683899Y-93567398D01*
X120676317Y-93576275D01*
X120646306Y-93608234D01*
X120636606Y-93625877D01*
X120625928Y-93642133D01*
X120613592Y-93658036D01*
X120596185Y-93698262D01*
X120591046Y-93708752D01*
X120564309Y-93757386D01*
X120524117Y-93801030D01*
X120468249Y-93821006D01*
X120380203Y-93830000D01*
X120213665Y-93885186D01*
X120064342Y-93977288D01*
X119940288Y-94101342D01*
X119848186Y-94250665D01*
X119839293Y-94277504D01*
X119813414Y-94321829D01*
X119771802Y-94351877D01*
X119721587Y-94362500D01*
X117888984Y-94362500D01*
X117828552Y-94346777D01*
X117783445Y-94303596D01*
X117732713Y-94221346D01*
X117732712Y-94221344D01*
X117608656Y-94097288D01*
X117608655Y-94097287D01*
X117608654Y-94097286D01*
X117459334Y-94005186D01*
X117292797Y-93950000D01*
X117199535Y-93940473D01*
X117190008Y-93939500D01*
X116489991Y-93939500D01*
X116387203Y-93950000D01*
X116220665Y-94005186D01*
X116071342Y-94097288D01*
X115947288Y-94221342D01*
X115855186Y-94370665D01*
X115800000Y-94537202D01*
X115789500Y-94639991D01*
X115789500Y-95101718D01*
X115780061Y-95149171D01*
X115753181Y-95189399D01*
X115086400Y-95856181D01*
X115046172Y-95883061D01*
X114998719Y-95892500D01*
X112432787Y-95892500D01*
X112375530Y-95878489D01*
X112331212Y-95839623D01*
X112220046Y-95680859D01*
X112059140Y-95519953D01*
X111872735Y-95389432D01*
X111666497Y-95293261D01*
X111446689Y-95234364D01*
X111220000Y-95214531D01*
X110993310Y-95234364D01*
X110773502Y-95293261D01*
X110567266Y-95389432D01*
X110554441Y-95398412D01*
X110495432Y-95420242D01*
X110433304Y-95410301D01*
X110384054Y-95371146D01*
X110377548Y-95362456D01*
X110377546Y-95362455D01*
X110377546Y-95362454D01*
X110262331Y-95276204D01*
X110127483Y-95225909D01*
X110067873Y-95219500D01*
X110067869Y-95219500D01*
X108858281Y-95219500D01*
X108810828Y-95210061D01*
X108770600Y-95183181D01*
X106581819Y-92994400D01*
X106554939Y-92954172D01*
X106545500Y-92906719D01*
X106545500Y-81276000D01*
X108057501Y-81276000D01*
X108057501Y-81725979D01*
X108067993Y-81828695D01*
X108123142Y-81995122D01*
X108215183Y-82144345D01*
X108339154Y-82268316D01*
X108488377Y-82360357D01*
X108654803Y-82415506D01*
X108757521Y-82426000D01*
X108970000Y-82426000D01*
X108970000Y-81276000D01*
X109470000Y-81276000D01*
X109470000Y-82425999D01*
X109682479Y-82425999D01*
X109785195Y-82415506D01*
X109951622Y-82360357D01*
X110100845Y-82268316D01*
X110224816Y-82144345D01*
X110316857Y-81995122D01*
X110372006Y-81828696D01*
X110382500Y-81725979D01*
X110382500Y-81276000D01*
X109470000Y-81276000D01*
X108970000Y-81276000D01*
X108057501Y-81276000D01*
X106545500Y-81276000D01*
X106545500Y-80776000D01*
X108057500Y-80776000D01*
X108970000Y-80776000D01*
X108970000Y-79626001D01*
X108757521Y-79626001D01*
X108654804Y-79636493D01*
X108488377Y-79691642D01*
X108339154Y-79783683D01*
X108215183Y-79907654D01*
X108123142Y-80056877D01*
X108067993Y-80223303D01*
X108057500Y-80326021D01*
X108057500Y-80776000D01*
X106545500Y-80776000D01*
X106545500Y-79626000D01*
X109470000Y-79626000D01*
X109470000Y-80776000D01*
X110382499Y-80776000D01*
X110382499Y-80326021D01*
X110372006Y-80223304D01*
X110316857Y-80056877D01*
X110224816Y-79907654D01*
X110100845Y-79783683D01*
X109951622Y-79691642D01*
X109785196Y-79636493D01*
X109682479Y-79626000D01*
X109470000Y-79626000D01*
X106545500Y-79626000D01*
X106545500Y-76450000D01*
X108057501Y-76450000D01*
X108057501Y-76899979D01*
X108067993Y-77002695D01*
X108123142Y-77169122D01*
X108215183Y-77318345D01*
X108339154Y-77442316D01*
X108488377Y-77534357D01*
X108654803Y-77589506D01*
X108757521Y-77600000D01*
X108970000Y-77600000D01*
X108970000Y-76450000D01*
X109470000Y-76450000D01*
X109470000Y-77599999D01*
X109682479Y-77599999D01*
X109785195Y-77589506D01*
X109951622Y-77534357D01*
X110100845Y-77442316D01*
X110224816Y-77318345D01*
X110316857Y-77169122D01*
X110372006Y-77002696D01*
X110382500Y-76899979D01*
X110382500Y-76450000D01*
X109470000Y-76450000D01*
X108970000Y-76450000D01*
X108057501Y-76450000D01*
X106545500Y-76450000D01*
X106545500Y-75950000D01*
X108057500Y-75950000D01*
X108970000Y-75950000D01*
X108970000Y-74800001D01*
X108757521Y-74800001D01*
X108654804Y-74810493D01*
X108488377Y-74865642D01*
X108339154Y-74957683D01*
X108215183Y-75081654D01*
X108123142Y-75230877D01*
X108067993Y-75397303D01*
X108057500Y-75500021D01*
X108057500Y-75950000D01*
X106545500Y-75950000D01*
X106545500Y-74800000D01*
X109470000Y-74800000D01*
X109470000Y-75950000D01*
X110382499Y-75950000D01*
X110382499Y-75500021D01*
X110372006Y-75397304D01*
X110316857Y-75230877D01*
X110224816Y-75081654D01*
X110100845Y-74957683D01*
X109951622Y-74865642D01*
X109785196Y-74810493D01*
X109682479Y-74800000D01*
X109470000Y-74800000D01*
X106545500Y-74800000D01*
X106545500Y-71617500D01*
X106562113Y-71555500D01*
X106607500Y-71510113D01*
X106669500Y-71493500D01*
X119830719Y-71493500D01*
X119878172Y-71502939D01*
X119918400Y-71529819D01*
X121510181Y-73121600D01*
X121537061Y-73161828D01*
X121546500Y-73209281D01*
X121546500Y-76128962D01*
X121544304Y-76152196D01*
X121542760Y-76160286D01*
X121546255Y-76215821D01*
X121546500Y-76223608D01*
X121546500Y-76239477D01*
X121548489Y-76255227D01*
X121549221Y-76262977D01*
X121552715Y-76318514D01*
X121555260Y-76326346D01*
X121560352Y-76349126D01*
X121561383Y-76357293D01*
X121581875Y-76409051D01*
X121584513Y-76416377D01*
X121601709Y-76469301D01*
X121606118Y-76476248D01*
X121616712Y-76497040D01*
X121619745Y-76504702D01*
X121652463Y-76549734D01*
X121656841Y-76556176D01*
X121686659Y-76603161D01*
X121692663Y-76608799D01*
X121708095Y-76626302D01*
X121712937Y-76632967D01*
X121739435Y-76654888D01*
X121755817Y-76668441D01*
X121761658Y-76673591D01*
X121802233Y-76711693D01*
X121809458Y-76715665D01*
X121828759Y-76728783D01*
X121835096Y-76734026D01*
X121885439Y-76757715D01*
X121892382Y-76761253D01*
X121941163Y-76788071D01*
X121941165Y-76788071D01*
X121941166Y-76788072D01*
X121948248Y-76789890D01*
X121949139Y-76790119D01*
X121971096Y-76798023D01*
X121978551Y-76801531D01*
X122033230Y-76811961D01*
X122040800Y-76813653D01*
X122094728Y-76827500D01*
X122102962Y-76827500D01*
X122126196Y-76829696D01*
X122134286Y-76831239D01*
X122189822Y-76827744D01*
X122197608Y-76827500D01*
X128373601Y-76827500D01*
X128430858Y-76841511D01*
X128475174Y-76880374D01*
X128569174Y-77014620D01*
X128725380Y-77170826D01*
X128906338Y-77297534D01*
X128951637Y-77318657D01*
X129035780Y-77357894D01*
X129087956Y-77403651D01*
X129107375Y-77470276D01*
X129087956Y-77536901D01*
X129035780Y-77582658D01*
X128906589Y-77642900D01*
X128841812Y-77688258D01*
X128841811Y-77688258D01*
X129540000Y-78386446D01*
X129540001Y-78386446D01*
X130238187Y-77688258D01*
X130173406Y-77642898D01*
X130044219Y-77582658D01*
X129992043Y-77536901D01*
X129972623Y-77470276D01*
X129992043Y-77403651D01*
X130044219Y-77357894D01*
X130128363Y-77318657D01*
X130173662Y-77297534D01*
X130354620Y-77170826D01*
X130510826Y-77014620D01*
X130604825Y-76880374D01*
X130649142Y-76841511D01*
X130706399Y-76827500D01*
X134308719Y-76827500D01*
X134356172Y-76836939D01*
X134396400Y-76863819D01*
X135891015Y-78358434D01*
X135923109Y-78414021D01*
X135923109Y-78478207D01*
X135911929Y-78519931D01*
X135892676Y-78740000D01*
X135911929Y-78960065D01*
X135969106Y-79173451D01*
X136062347Y-79373406D01*
X136062466Y-79373662D01*
X136189174Y-79554620D01*
X136345380Y-79710826D01*
X136479625Y-79804825D01*
X136518489Y-79849142D01*
X136532500Y-79906399D01*
X136532500Y-80113602D01*
X136518489Y-80170859D01*
X136479623Y-80215176D01*
X136468016Y-80223304D01*
X136345379Y-80309174D01*
X136189174Y-80465379D01*
X136062466Y-80646338D01*
X135969106Y-80846548D01*
X135911929Y-81059934D01*
X135892676Y-81279999D01*
X135911929Y-81500065D01*
X135969106Y-81713451D01*
X136031360Y-81846954D01*
X136062466Y-81913662D01*
X136189174Y-82094620D01*
X136345380Y-82250826D01*
X136526338Y-82377534D01*
X136645748Y-82433215D01*
X136655189Y-82437618D01*
X136707365Y-82483375D01*
X136726784Y-82550000D01*
X136707365Y-82616625D01*
X136655189Y-82662382D01*
X136526338Y-82722466D01*
X136345379Y-82849174D01*
X136189174Y-83005379D01*
X136062466Y-83186338D01*
X135969106Y-83386548D01*
X135911929Y-83599934D01*
X135892676Y-83819999D01*
X135911929Y-84040065D01*
X135969106Y-84253451D01*
X136031360Y-84386954D01*
X136062466Y-84453662D01*
X136189174Y-84634620D01*
X136345380Y-84790826D01*
X136526338Y-84917534D01*
X136645748Y-84973215D01*
X136655189Y-84977618D01*
X136707365Y-85023375D01*
X136726784Y-85090000D01*
X136707365Y-85156625D01*
X136655189Y-85202382D01*
X136526338Y-85262466D01*
X136345379Y-85389174D01*
X136189174Y-85545379D01*
X136062466Y-85726338D01*
X135969106Y-85926548D01*
X135911929Y-86139934D01*
X135892676Y-86360000D01*
X135911929Y-86580065D01*
X135969106Y-86793451D01*
X135994954Y-86848882D01*
X136062466Y-86993662D01*
X136189174Y-87174620D01*
X136345380Y-87330826D01*
X136526338Y-87457534D01*
X136645748Y-87513215D01*
X136655189Y-87517618D01*
X136707365Y-87563375D01*
X136726784Y-87630000D01*
X136707365Y-87696625D01*
X136655189Y-87742382D01*
X136526338Y-87802466D01*
X136345379Y-87929174D01*
X136189174Y-88085379D01*
X136062466Y-88266338D01*
X135969106Y-88466548D01*
X135911929Y-88679934D01*
X135892676Y-88899999D01*
X135911929Y-89120065D01*
X135969106Y-89333451D01*
X136059593Y-89527500D01*
X136062466Y-89533662D01*
X136189174Y-89714620D01*
X136345380Y-89870826D01*
X136526338Y-89997534D01*
X136645748Y-90053215D01*
X136655189Y-90057618D01*
X136707365Y-90103375D01*
X136726784Y-90170000D01*
X136707365Y-90236625D01*
X136655189Y-90282382D01*
X136526338Y-90342466D01*
X136345379Y-90469174D01*
X136189174Y-90625379D01*
X136062466Y-90806338D01*
X135969106Y-91006548D01*
X135911929Y-91219934D01*
X135892676Y-91440000D01*
X135911929Y-91660065D01*
X135969106Y-91873451D01*
X136059593Y-92067500D01*
X136062466Y-92073662D01*
X136189174Y-92254620D01*
X136345380Y-92410826D01*
X136526338Y-92537534D01*
X136645748Y-92593215D01*
X136655189Y-92597618D01*
X136707365Y-92643375D01*
X136726784Y-92710000D01*
X136707365Y-92776625D01*
X136655189Y-92822382D01*
X136526338Y-92882466D01*
X136345379Y-93009174D01*
X136189174Y-93165379D01*
X136062466Y-93346338D01*
X135969106Y-93546548D01*
X135911929Y-93759934D01*
X135892676Y-93980000D01*
X135911929Y-94200065D01*
X135969106Y-94413451D01*
X136062465Y-94613661D01*
X136062466Y-94613662D01*
X136189174Y-94794620D01*
X136345380Y-94950826D01*
X136479625Y-95044825D01*
X136518489Y-95089142D01*
X136532500Y-95146399D01*
X136532500Y-97619563D01*
X136515023Y-97683037D01*
X136467519Y-97728617D01*
X136402516Y-97763795D01*
X136336485Y-97799529D01*
X136140259Y-97952259D01*
X136140256Y-97952261D01*
X136140256Y-97952262D01*
X135971836Y-98135215D01*
X135968705Y-98140008D01*
X135835825Y-98343395D01*
X135758356Y-98520008D01*
X135735937Y-98571119D01*
X135699556Y-98714785D01*
X135674891Y-98812183D01*
X135654356Y-99060000D01*
X135674891Y-99307816D01*
X135674891Y-99307819D01*
X135674892Y-99307821D01*
X135735937Y-99548881D01*
X135775484Y-99639038D01*
X135835825Y-99776604D01*
X135835827Y-99776607D01*
X135971836Y-99984785D01*
X136140256Y-100167738D01*
X136140259Y-100167740D01*
X136336485Y-100320470D01*
X136336487Y-100320471D01*
X136336491Y-100320474D01*
X136555190Y-100438828D01*
X136790386Y-100519571D01*
X137035665Y-100560500D01*
X137284335Y-100560500D01*
X137529614Y-100519571D01*
X137764810Y-100438828D01*
X137983509Y-100320474D01*
X138179744Y-100167738D01*
X138348164Y-99984785D01*
X138484173Y-99776607D01*
X138584063Y-99548881D01*
X138645108Y-99307821D01*
X138665643Y-99060000D01*
X138645108Y-98812179D01*
X138584063Y-98571119D01*
X138484173Y-98343393D01*
X138348164Y-98135215D01*
X138179744Y-97952262D01*
X138135273Y-97917649D01*
X137983514Y-97799529D01*
X137983510Y-97799526D01*
X137983509Y-97799526D01*
X137852480Y-97728617D01*
X137804977Y-97683037D01*
X137787500Y-97619563D01*
X137787500Y-95146399D01*
X137801511Y-95089142D01*
X137840374Y-95044825D01*
X137974620Y-94950826D01*
X138130826Y-94794620D01*
X138257534Y-94613662D01*
X138350894Y-94413450D01*
X138408070Y-94200068D01*
X138427323Y-93980000D01*
X138408070Y-93759932D01*
X138350894Y-93546550D01*
X138257534Y-93346339D01*
X138130826Y-93165380D01*
X137974620Y-93009174D01*
X137793662Y-92882466D01*
X137793661Y-92882465D01*
X137664811Y-92822381D01*
X137612635Y-92776624D01*
X137593216Y-92709998D01*
X137612636Y-92643373D01*
X137664810Y-92597618D01*
X137793662Y-92537534D01*
X137974620Y-92410826D01*
X138130826Y-92254620D01*
X138257534Y-92073662D01*
X138350894Y-91873450D01*
X138408070Y-91660068D01*
X138427323Y-91440000D01*
X138408070Y-91219932D01*
X138396890Y-91178208D01*
X138396890Y-91114021D01*
X138428982Y-91058435D01*
X144397417Y-85090000D01*
X145417644Y-85090000D01*
X145437013Y-85274285D01*
X145494273Y-85450513D01*
X145586922Y-85610987D01*
X145710910Y-85748690D01*
X145860822Y-85857607D01*
X146030103Y-85932976D01*
X146211348Y-85971500D01*
X146211351Y-85971500D01*
X146396649Y-85971500D01*
X146396652Y-85971500D01*
X146577896Y-85932976D01*
X146577897Y-85932975D01*
X146577899Y-85932975D01*
X146747178Y-85857607D01*
X146897088Y-85748691D01*
X146897088Y-85748690D01*
X146907423Y-85741182D01*
X146941991Y-85723569D01*
X146980309Y-85717500D01*
X156565501Y-85717500D01*
X156627501Y-85734113D01*
X156672888Y-85779500D01*
X156689501Y-85841500D01*
X156689501Y-85987870D01*
X156695909Y-86047484D01*
X156721056Y-86114906D01*
X156746204Y-86182331D01*
X156832454Y-86297546D01*
X156947669Y-86383796D01*
X157079598Y-86433002D01*
X157129978Y-86467981D01*
X157157431Y-86522825D01*
X157155242Y-86584118D01*
X157123947Y-86636865D01*
X157001888Y-86758924D01*
X156866400Y-86952421D01*
X156766569Y-87166507D01*
X156709364Y-87379999D01*
X156709364Y-87380000D01*
X159370636Y-87380000D01*
X159370635Y-87379999D01*
X159313430Y-87166507D01*
X159213599Y-86952421D01*
X159078109Y-86758921D01*
X158956053Y-86636865D01*
X158924757Y-86584119D01*
X158922568Y-86522826D01*
X158950021Y-86467981D01*
X159000398Y-86433003D01*
X159132331Y-86383796D01*
X159247546Y-86297546D01*
X159333796Y-86182331D01*
X159384091Y-86047483D01*
X159390500Y-85987873D01*
X159390500Y-85841500D01*
X159407113Y-85779500D01*
X159452500Y-85734113D01*
X159514500Y-85717500D01*
X175618373Y-85717500D01*
X175678805Y-85733223D01*
X175723912Y-85776404D01*
X175820288Y-85932657D01*
X175944342Y-86056711D01*
X175944344Y-86056712D01*
X176093666Y-86148814D01*
X176205017Y-86185712D01*
X176260202Y-86203999D01*
X176270702Y-86205071D01*
X176362991Y-86214500D01*
X177713008Y-86214499D01*
X177815797Y-86203999D01*
X177982334Y-86148814D01*
X178131656Y-86056712D01*
X178255712Y-85932656D01*
X178347814Y-85783334D01*
X178402999Y-85616797D01*
X178413500Y-85514009D01*
X178413499Y-84613992D01*
X178402999Y-84511203D01*
X178347814Y-84344666D01*
X178263827Y-84208500D01*
X178255711Y-84195342D01*
X178131657Y-84071288D01*
X177982334Y-83979186D01*
X177815797Y-83924000D01*
X177713009Y-83913500D01*
X176362991Y-83913500D01*
X176260203Y-83924000D01*
X176093665Y-83979186D01*
X175944342Y-84071288D01*
X175820288Y-84195342D01*
X175728186Y-84344665D01*
X175717305Y-84377504D01*
X175691426Y-84421829D01*
X175649814Y-84451877D01*
X175599599Y-84462500D01*
X159514499Y-84462500D01*
X159452499Y-84445887D01*
X159407112Y-84400500D01*
X159390499Y-84338500D01*
X159390499Y-84192130D01*
X159390499Y-84192127D01*
X159384091Y-84132517D01*
X159333796Y-83997669D01*
X159247546Y-83882454D01*
X159132331Y-83796204D01*
X158997483Y-83745909D01*
X158937873Y-83739500D01*
X158937869Y-83739500D01*
X157142130Y-83739500D01*
X157082515Y-83745909D01*
X156947669Y-83796204D01*
X156832454Y-83882454D01*
X156746204Y-83997668D01*
X156695909Y-84132516D01*
X156689500Y-84192131D01*
X156689500Y-84338500D01*
X156672887Y-84400500D01*
X156627500Y-84445887D01*
X156565500Y-84462500D01*
X146980309Y-84462500D01*
X146941991Y-84456431D01*
X146907423Y-84438818D01*
X146891670Y-84427373D01*
X146805007Y-84364408D01*
X146747177Y-84322392D01*
X146577896Y-84247023D01*
X146396652Y-84208500D01*
X146396649Y-84208500D01*
X146211351Y-84208500D01*
X146211348Y-84208500D01*
X146030103Y-84247023D01*
X145860822Y-84322392D01*
X145710910Y-84431309D01*
X145586922Y-84569012D01*
X145494273Y-84729486D01*
X145437013Y-84905714D01*
X145417644Y-85090000D01*
X144397417Y-85090000D01*
X150245044Y-79242373D01*
X150261189Y-79229439D01*
X150263157Y-79227342D01*
X150263162Y-79227340D01*
X150273750Y-79216063D01*
X150324752Y-79183370D01*
X150385158Y-79178741D01*
X150440547Y-79203282D01*
X150477699Y-79251137D01*
X150567825Y-79456604D01*
X150567827Y-79456607D01*
X150703836Y-79664785D01*
X150872256Y-79847738D01*
X150935985Y-79897340D01*
X151068485Y-80000470D01*
X151068487Y-80000471D01*
X151068491Y-80000474D01*
X151287190Y-80118828D01*
X151522386Y-80199571D01*
X151767665Y-80240500D01*
X152016335Y-80240500D01*
X152261614Y-80199571D01*
X152496810Y-80118828D01*
X152715509Y-80000474D01*
X152911744Y-79847738D01*
X153080164Y-79664785D01*
X153216173Y-79456607D01*
X153316063Y-79228881D01*
X153377108Y-78987821D01*
X153397643Y-78740000D01*
X153377108Y-78492179D01*
X153316063Y-78251119D01*
X153216173Y-78023393D01*
X153080164Y-77815215D01*
X152911744Y-77632262D01*
X152848013Y-77582658D01*
X152715514Y-77479529D01*
X152715510Y-77479526D01*
X152715509Y-77479526D01*
X152584480Y-77408617D01*
X152536977Y-77363037D01*
X152519500Y-77299563D01*
X152519500Y-72594499D01*
X152536113Y-72532499D01*
X152581500Y-72487112D01*
X152643500Y-72470499D01*
X152767870Y-72470499D01*
X152767872Y-72470499D01*
X152827483Y-72464091D01*
X152962331Y-72413796D01*
X153077546Y-72327546D01*
X153163796Y-72212331D01*
X153214091Y-72077483D01*
X153220500Y-72017873D01*
X153220499Y-70222128D01*
X153214091Y-70162517D01*
X153163796Y-70027669D01*
X153077546Y-69912454D01*
X152962331Y-69826204D01*
X152869872Y-69791719D01*
X152830916Y-69777189D01*
X152780537Y-69742209D01*
X152753084Y-69687365D01*
X152755273Y-69626072D01*
X152786566Y-69573329D01*
X152908495Y-69451401D01*
X153044035Y-69257830D01*
X153143903Y-69043663D01*
X153205063Y-68815408D01*
X153225659Y-68580000D01*
X153205063Y-68344592D01*
X153143903Y-68116337D01*
X153044035Y-67902171D01*
X152908495Y-67708599D01*
X152741401Y-67541505D01*
X152555839Y-67411573D01*
X152516975Y-67367257D01*
X152502964Y-67310000D01*
X152516975Y-67252743D01*
X152555839Y-67208426D01*
X152741401Y-67078495D01*
X152908495Y-66911401D01*
X153044035Y-66717830D01*
X153143903Y-66503663D01*
X153205063Y-66275408D01*
X153225659Y-66040000D01*
X153205063Y-65804592D01*
X153143903Y-65576337D01*
X153044035Y-65362171D01*
X152908495Y-65168599D01*
X152741401Y-65001505D01*
X152555839Y-64871573D01*
X152516976Y-64827257D01*
X152502965Y-64770000D01*
X152516976Y-64712743D01*
X152555839Y-64668426D01*
X152741401Y-64538495D01*
X152908495Y-64371401D01*
X153044035Y-64177830D01*
X153143903Y-63963663D01*
X153205063Y-63735408D01*
X153225659Y-63500000D01*
X153205063Y-63264592D01*
X153143903Y-63036337D01*
X153044035Y-62822171D01*
X152908495Y-62628599D01*
X152741401Y-62461505D01*
X152555839Y-62331573D01*
X152516974Y-62287255D01*
X152502964Y-62229999D01*
X152516975Y-62172742D01*
X152555837Y-62128428D01*
X152741401Y-61998495D01*
X152908495Y-61831401D01*
X153044035Y-61637830D01*
X153143903Y-61423663D01*
X153205063Y-61195408D01*
X153225659Y-60960000D01*
X153205063Y-60724592D01*
X153143903Y-60496337D01*
X153044035Y-60282171D01*
X152908495Y-60088599D01*
X152741401Y-59921505D01*
X152555402Y-59791267D01*
X152516539Y-59746951D01*
X152502528Y-59689694D01*
X152516539Y-59632437D01*
X152555405Y-59588119D01*
X152631373Y-59534925D01*
X151870000Y-58773553D01*
X151108625Y-59534925D01*
X151184594Y-59588119D01*
X151223460Y-59632437D01*
X151237471Y-59689694D01*
X151223461Y-59746950D01*
X151184595Y-59791269D01*
X150998595Y-59921508D01*
X150831505Y-60088598D01*
X150695965Y-60282170D01*
X150596097Y-60496336D01*
X150534936Y-60724592D01*
X150514340Y-60959999D01*
X150534936Y-61195406D01*
X150561258Y-61293640D01*
X150561258Y-61357828D01*
X150529164Y-61413415D01*
X146934954Y-65007625D01*
X146918806Y-65020563D01*
X146870646Y-65071847D01*
X146867940Y-65074640D01*
X146848374Y-65094207D01*
X146845899Y-65097398D01*
X146838317Y-65106275D01*
X146808306Y-65138234D01*
X146798606Y-65155877D01*
X146787928Y-65172133D01*
X146775592Y-65188036D01*
X146758185Y-65228262D01*
X146753047Y-65238750D01*
X146731927Y-65277166D01*
X146726919Y-65296670D01*
X146720619Y-65315069D01*
X146712625Y-65333542D01*
X146705769Y-65376831D01*
X146703401Y-65388267D01*
X146692500Y-65430728D01*
X146692500Y-65450859D01*
X146690973Y-65470258D01*
X146687825Y-65490131D01*
X146691950Y-65533770D01*
X146692500Y-65545439D01*
X146692500Y-67572434D01*
X146678516Y-67629640D01*
X146639717Y-67673943D01*
X146584855Y-67695351D01*
X146526304Y-67689034D01*
X146477270Y-67656417D01*
X146476165Y-67655216D01*
X146476164Y-67655215D01*
X146307744Y-67472262D01*
X146285612Y-67455036D01*
X146111514Y-67319529D01*
X146111510Y-67319526D01*
X146111509Y-67319526D01*
X145892810Y-67201172D01*
X145892806Y-67201170D01*
X145892805Y-67201170D01*
X145657615Y-67120429D01*
X145412335Y-67079500D01*
X145163665Y-67079500D01*
X144918384Y-67120429D01*
X144683194Y-67201170D01*
X144464485Y-67319529D01*
X144268259Y-67472259D01*
X144268256Y-67472261D01*
X144268256Y-67472262D01*
X144099836Y-67655215D01*
X144077741Y-67689034D01*
X143963826Y-67863394D01*
X143957283Y-67878311D01*
X143930191Y-67917381D01*
X143890389Y-67943385D01*
X143843727Y-67952500D01*
X138326398Y-67952500D01*
X138269141Y-67938489D01*
X138224823Y-67899623D01*
X138209900Y-67878311D01*
X138130826Y-67765380D01*
X137974620Y-67609174D01*
X137793662Y-67482466D01*
X137664811Y-67422382D01*
X137612635Y-67376625D01*
X137593216Y-67310000D01*
X137612635Y-67243375D01*
X137664811Y-67197618D01*
X137670027Y-67195185D01*
X137793662Y-67137534D01*
X137974620Y-67010826D01*
X138130826Y-66854620D01*
X138224825Y-66720374D01*
X138269142Y-66681511D01*
X138326399Y-66667500D01*
X140795727Y-66667500D01*
X140842389Y-66676615D01*
X140882191Y-66702619D01*
X140909283Y-66741689D01*
X140915827Y-66756607D01*
X141051836Y-66964785D01*
X141220256Y-67147738D01*
X141220259Y-67147740D01*
X141416485Y-67300470D01*
X141416487Y-67300471D01*
X141416491Y-67300474D01*
X141635190Y-67418828D01*
X141870386Y-67499571D01*
X142115665Y-67540500D01*
X142364335Y-67540500D01*
X142609614Y-67499571D01*
X142844810Y-67418828D01*
X143063509Y-67300474D01*
X143259744Y-67147738D01*
X143428164Y-66964785D01*
X143564173Y-66756607D01*
X143664063Y-66528881D01*
X143725108Y-66287821D01*
X143745643Y-66040000D01*
X143725108Y-65792179D01*
X143664063Y-65551119D01*
X143564173Y-65323393D01*
X143428164Y-65115215D01*
X143259744Y-64932262D01*
X143237612Y-64915036D01*
X143063514Y-64779529D01*
X143063510Y-64779526D01*
X143063509Y-64779526D01*
X142844810Y-64661172D01*
X142844806Y-64661170D01*
X142844805Y-64661170D01*
X142609615Y-64580429D01*
X142364335Y-64539500D01*
X142115665Y-64539500D01*
X141870384Y-64580429D01*
X141635194Y-64661170D01*
X141416485Y-64779529D01*
X141220259Y-64932259D01*
X141220256Y-64932261D01*
X141220256Y-64932262D01*
X141060066Y-65106275D01*
X141051837Y-65115214D01*
X140915826Y-65323394D01*
X140909283Y-65338311D01*
X140882191Y-65377381D01*
X140842389Y-65403385D01*
X140795727Y-65412500D01*
X138326398Y-65412500D01*
X138269141Y-65398489D01*
X138224823Y-65359623D01*
X138209900Y-65338311D01*
X138130826Y-65225380D01*
X137974620Y-65069174D01*
X137793662Y-64942466D01*
X137793661Y-64942465D01*
X137664811Y-64882381D01*
X137612635Y-64836624D01*
X137593216Y-64769998D01*
X137612636Y-64703373D01*
X137664810Y-64657618D01*
X137793662Y-64597534D01*
X137974620Y-64470826D01*
X138130826Y-64314620D01*
X138257534Y-64133662D01*
X138350894Y-63933450D01*
X138408070Y-63720068D01*
X138427323Y-63500000D01*
X138408070Y-63279932D01*
X138350894Y-63066550D01*
X138257534Y-62866339D01*
X138130826Y-62685380D01*
X137974620Y-62529174D01*
X137793662Y-62402466D01*
X137664811Y-62342382D01*
X137612635Y-62296625D01*
X137593216Y-62230000D01*
X137612635Y-62163375D01*
X137664811Y-62117618D01*
X137670027Y-62115185D01*
X137793662Y-62057534D01*
X137974620Y-61930826D01*
X138130826Y-61774620D01*
X138257534Y-61593662D01*
X138350894Y-61393450D01*
X138408070Y-61180068D01*
X138427323Y-60960000D01*
X138408070Y-60739932D01*
X138350894Y-60526550D01*
X138257534Y-60326339D01*
X138130826Y-60145380D01*
X137974620Y-59989174D01*
X137793662Y-59862466D01*
X137768771Y-59850859D01*
X137593451Y-59769106D01*
X137380065Y-59711929D01*
X137160000Y-59692676D01*
X136939934Y-59711929D01*
X136726548Y-59769106D01*
X136526338Y-59862466D01*
X136345379Y-59989174D01*
X136189174Y-60145379D01*
X136062466Y-60326338D01*
X135969106Y-60526548D01*
X135911929Y-60739934D01*
X135892676Y-60960000D01*
X135911929Y-61180065D01*
X135969106Y-61393451D01*
X135983194Y-61423662D01*
X136062466Y-61593662D01*
X136189174Y-61774620D01*
X136345380Y-61930826D01*
X136526338Y-62057534D01*
X136645748Y-62113215D01*
X136655189Y-62117618D01*
X136707365Y-62163375D01*
X136726784Y-62230000D01*
X136707365Y-62296625D01*
X136655189Y-62342382D01*
X136526338Y-62402466D01*
X136345379Y-62529174D01*
X136189174Y-62685379D01*
X136062466Y-62866338D01*
X135969106Y-63066548D01*
X135911929Y-63279934D01*
X135892676Y-63499999D01*
X135911929Y-63720065D01*
X135969106Y-63933451D01*
X135994954Y-63988882D01*
X136062466Y-64133662D01*
X136189174Y-64314620D01*
X136345380Y-64470826D01*
X136526338Y-64597534D01*
X136645748Y-64653215D01*
X136655189Y-64657618D01*
X136707365Y-64703375D01*
X136726784Y-64770000D01*
X136707365Y-64836625D01*
X136655189Y-64882382D01*
X136526338Y-64942466D01*
X136345379Y-65069174D01*
X136189174Y-65225379D01*
X136062466Y-65406338D01*
X135969106Y-65606548D01*
X135911929Y-65819934D01*
X135892676Y-66040000D01*
X135911929Y-66260065D01*
X135969106Y-66473451D01*
X135994954Y-66528882D01*
X136062466Y-66673662D01*
X136189174Y-66854620D01*
X136345380Y-67010826D01*
X136526338Y-67137534D01*
X136645748Y-67193215D01*
X136655189Y-67197618D01*
X136707365Y-67243375D01*
X136726784Y-67310000D01*
X136707365Y-67376625D01*
X136655189Y-67422382D01*
X136526338Y-67482466D01*
X136345379Y-67609174D01*
X136189174Y-67765379D01*
X136062466Y-67946338D01*
X135969106Y-68146548D01*
X135911929Y-68359934D01*
X135892676Y-68580000D01*
X135911929Y-68800065D01*
X135969106Y-69013451D01*
X136059593Y-69207500D01*
X136062466Y-69213662D01*
X136189174Y-69394620D01*
X136345380Y-69550826D01*
X136526338Y-69677534D01*
X136645748Y-69733215D01*
X136655189Y-69737618D01*
X136707365Y-69783375D01*
X136726784Y-69850000D01*
X136707365Y-69916625D01*
X136655189Y-69962382D01*
X136526338Y-70022466D01*
X136345379Y-70149174D01*
X136189174Y-70305379D01*
X136062466Y-70486338D01*
X135969106Y-70686548D01*
X135911929Y-70899934D01*
X135892676Y-71120000D01*
X135911929Y-71340065D01*
X135969106Y-71553451D01*
X135994954Y-71608882D01*
X136062466Y-71753662D01*
X136189174Y-71934620D01*
X136345380Y-72090826D01*
X136526338Y-72217534D01*
X136645748Y-72273215D01*
X136655189Y-72277618D01*
X136707365Y-72323375D01*
X136726784Y-72390000D01*
X136707365Y-72456625D01*
X136655189Y-72502382D01*
X136526338Y-72562466D01*
X136345379Y-72689174D01*
X136189174Y-72845379D01*
X136062466Y-73026338D01*
X135969106Y-73226548D01*
X135911929Y-73439934D01*
X135892676Y-73660000D01*
X135911929Y-73880065D01*
X135969106Y-74093451D01*
X135998269Y-74155991D01*
X136062466Y-74293662D01*
X136189174Y-74474620D01*
X136345380Y-74630826D01*
X136526338Y-74757534D01*
X136596173Y-74790098D01*
X136655780Y-74817894D01*
X136707956Y-74863651D01*
X136727375Y-74930276D01*
X136707956Y-74996901D01*
X136655780Y-75042658D01*
X136526589Y-75102900D01*
X136461812Y-75148258D01*
X136461811Y-75148258D01*
X137160000Y-75846446D01*
X137160001Y-75846446D01*
X137858187Y-75148258D01*
X137793406Y-75102898D01*
X137664219Y-75042658D01*
X137612043Y-74996901D01*
X137592623Y-74930276D01*
X137612043Y-74863651D01*
X137664219Y-74817894D01*
X137664811Y-74817618D01*
X137793662Y-74757534D01*
X137974620Y-74630826D01*
X138130826Y-74474620D01*
X138257534Y-74293662D01*
X138350894Y-74093450D01*
X138408070Y-73880068D01*
X138427323Y-73660000D01*
X138408070Y-73439932D01*
X138350894Y-73226550D01*
X138257534Y-73026339D01*
X138130826Y-72845380D01*
X137974620Y-72689174D01*
X137793662Y-72562466D01*
X137664811Y-72502382D01*
X137612635Y-72456625D01*
X137593216Y-72390000D01*
X137612635Y-72323375D01*
X137664811Y-72277618D01*
X137670027Y-72275185D01*
X137793662Y-72217534D01*
X137974620Y-72090826D01*
X138130826Y-71934620D01*
X138224825Y-71800374D01*
X138269142Y-71761511D01*
X138326399Y-71747500D01*
X140795727Y-71747500D01*
X140842389Y-71756615D01*
X140882191Y-71782619D01*
X140909283Y-71821689D01*
X140915827Y-71836607D01*
X141051836Y-72044785D01*
X141220256Y-72227738D01*
X141220259Y-72227740D01*
X141416485Y-72380470D01*
X141416487Y-72380471D01*
X141416491Y-72380474D01*
X141635190Y-72498828D01*
X141870386Y-72579571D01*
X142115665Y-72620500D01*
X142364335Y-72620500D01*
X142609614Y-72579571D01*
X142844810Y-72498828D01*
X143063509Y-72380474D01*
X143259744Y-72227738D01*
X143428164Y-72044785D01*
X143564173Y-71836607D01*
X143664063Y-71608881D01*
X143725108Y-71367821D01*
X143745643Y-71120000D01*
X143725108Y-70872179D01*
X143664063Y-70631119D01*
X143564173Y-70403393D01*
X143428164Y-70195215D01*
X143259744Y-70012262D01*
X143237612Y-69995036D01*
X143063514Y-69859529D01*
X143063510Y-69859526D01*
X143063509Y-69859526D01*
X142844810Y-69741172D01*
X142844806Y-69741170D01*
X142844805Y-69741170D01*
X142609615Y-69660429D01*
X142364335Y-69619500D01*
X142115665Y-69619500D01*
X141870384Y-69660429D01*
X141635194Y-69741170D01*
X141635190Y-69741171D01*
X141635190Y-69741172D01*
X141580269Y-69770894D01*
X141416485Y-69859529D01*
X141220259Y-70012259D01*
X141220256Y-70012261D01*
X141220256Y-70012262D01*
X141051836Y-70195215D01*
X141014888Y-70251769D01*
X140915826Y-70403394D01*
X140909283Y-70418311D01*
X140882191Y-70457381D01*
X140842389Y-70483385D01*
X140795727Y-70492500D01*
X138326398Y-70492500D01*
X138269141Y-70478489D01*
X138224823Y-70439623D01*
X138209900Y-70418311D01*
X138130826Y-70305380D01*
X137974620Y-70149174D01*
X137793662Y-70022466D01*
X137664811Y-69962382D01*
X137612635Y-69916625D01*
X137593216Y-69850000D01*
X137612635Y-69783375D01*
X137664811Y-69737618D01*
X137670027Y-69735185D01*
X137793662Y-69677534D01*
X137974620Y-69550826D01*
X138130826Y-69394620D01*
X138224825Y-69260374D01*
X138269142Y-69221511D01*
X138326399Y-69207500D01*
X143843727Y-69207500D01*
X143890389Y-69216615D01*
X143930191Y-69242619D01*
X143957283Y-69281689D01*
X143963827Y-69296607D01*
X144099836Y-69504785D01*
X144268256Y-69687738D01*
X144268259Y-69687740D01*
X144464485Y-69840470D01*
X144464487Y-69840471D01*
X144464491Y-69840474D01*
X144683190Y-69958828D01*
X144918386Y-70039571D01*
X145163665Y-70080500D01*
X145412335Y-70080500D01*
X145657614Y-70039571D01*
X145892810Y-69958828D01*
X146111509Y-69840474D01*
X146307744Y-69687738D01*
X146476164Y-69504785D01*
X146476165Y-69504783D01*
X146477270Y-69503583D01*
X146526304Y-69470966D01*
X146584855Y-69464649D01*
X146639717Y-69486057D01*
X146678516Y-69530360D01*
X146692500Y-69587566D01*
X146692500Y-73348719D01*
X146683061Y-73396172D01*
X146656181Y-73436400D01*
X138631288Y-81461291D01*
X138579861Y-81492192D01*
X138519947Y-81495332D01*
X138465571Y-81469976D01*
X138429464Y-81422060D01*
X138420079Y-81362802D01*
X138427323Y-81279999D01*
X138408070Y-81059934D01*
X138408070Y-81059932D01*
X138350894Y-80846550D01*
X138257534Y-80646339D01*
X138130826Y-80465380D01*
X137974620Y-80309174D01*
X137840374Y-80215174D01*
X137801511Y-80170858D01*
X137787500Y-80113601D01*
X137787500Y-79906399D01*
X137801511Y-79849142D01*
X137840374Y-79804825D01*
X137974620Y-79710826D01*
X138130826Y-79554620D01*
X138257534Y-79373662D01*
X138350894Y-79173450D01*
X138408070Y-78960068D01*
X138427323Y-78740000D01*
X138408070Y-78519932D01*
X138350894Y-78306550D01*
X138257534Y-78106339D01*
X138130826Y-77925380D01*
X137974620Y-77769174D01*
X137793662Y-77642466D01*
X137664218Y-77582105D01*
X137612042Y-77536348D01*
X137592623Y-77469722D01*
X137612043Y-77403097D01*
X137664220Y-77357340D01*
X137793411Y-77297098D01*
X137858187Y-77251740D01*
X137160000Y-76553553D01*
X136806448Y-76200001D01*
X137513553Y-76200001D01*
X138211740Y-76898186D01*
X138257100Y-76833408D01*
X138350420Y-76633281D01*
X138407575Y-76419978D01*
X138426821Y-76199999D01*
X138407575Y-75980021D01*
X138350421Y-75766720D01*
X138257098Y-75566589D01*
X138211740Y-75501811D01*
X137513553Y-76200000D01*
X137513553Y-76200001D01*
X136806448Y-76200001D01*
X136108258Y-75501812D01*
X136062900Y-75566589D01*
X135969578Y-75766719D01*
X135912424Y-75980021D01*
X135893178Y-76200000D01*
X135900471Y-76283355D01*
X135891086Y-76342613D01*
X135854979Y-76390528D01*
X135800603Y-76415884D01*
X135740689Y-76412744D01*
X135689262Y-76381843D01*
X135122375Y-75814956D01*
X135109439Y-75798809D01*
X135058153Y-75750648D01*
X135055354Y-75747935D01*
X135035795Y-75728375D01*
X135032606Y-75725902D01*
X135023716Y-75718310D01*
X134991767Y-75688307D01*
X134989465Y-75687041D01*
X134974120Y-75678605D01*
X134957858Y-75667922D01*
X134941963Y-75655592D01*
X134901736Y-75638184D01*
X134891248Y-75633046D01*
X134852831Y-75611926D01*
X134833337Y-75606921D01*
X134814933Y-75600620D01*
X134796458Y-75592625D01*
X134753171Y-75585769D01*
X134741736Y-75583401D01*
X134699274Y-75572500D01*
X134699272Y-75572500D01*
X134679142Y-75572500D01*
X134659743Y-75570973D01*
X134639868Y-75567825D01*
X134639867Y-75567825D01*
X134619261Y-75569772D01*
X134596230Y-75571950D01*
X134584561Y-75572500D01*
X130706398Y-75572500D01*
X130649141Y-75558489D01*
X130604823Y-75519623D01*
X130591077Y-75499992D01*
X130510826Y-75385380D01*
X130354620Y-75229174D01*
X130173662Y-75102466D01*
X130044811Y-75042382D01*
X129992635Y-74996625D01*
X129973216Y-74930000D01*
X129992635Y-74863375D01*
X130044811Y-74817618D01*
X130050027Y-74815185D01*
X130173662Y-74757534D01*
X130354620Y-74630826D01*
X130510826Y-74474620D01*
X130637534Y-74293662D01*
X130730894Y-74093450D01*
X130788070Y-73880068D01*
X130807323Y-73660000D01*
X130788070Y-73439932D01*
X130730894Y-73226550D01*
X130637534Y-73026339D01*
X130510826Y-72845380D01*
X130354620Y-72689174D01*
X130173662Y-72562466D01*
X130044811Y-72502382D01*
X129992635Y-72456625D01*
X129973216Y-72390000D01*
X129992635Y-72323375D01*
X130044811Y-72277618D01*
X130050027Y-72275185D01*
X130173662Y-72217534D01*
X130354620Y-72090826D01*
X130510826Y-71934620D01*
X130637534Y-71753662D01*
X130730894Y-71553450D01*
X130788070Y-71340068D01*
X130807323Y-71120000D01*
X130788070Y-70899932D01*
X130730894Y-70686550D01*
X130637534Y-70486339D01*
X130510826Y-70305380D01*
X130354620Y-70149174D01*
X130173662Y-70022466D01*
X130044811Y-69962382D01*
X129992635Y-69916625D01*
X129973216Y-69850000D01*
X129992635Y-69783375D01*
X130044811Y-69737618D01*
X130050027Y-69735185D01*
X130173662Y-69677534D01*
X130354620Y-69550826D01*
X130510826Y-69394620D01*
X130637534Y-69213662D01*
X130730894Y-69013450D01*
X130788070Y-68800068D01*
X130807323Y-68580000D01*
X130788070Y-68359932D01*
X130730894Y-68146550D01*
X130637534Y-67946339D01*
X130510826Y-67765380D01*
X130354620Y-67609174D01*
X130173662Y-67482466D01*
X130044811Y-67422382D01*
X129992635Y-67376625D01*
X129973216Y-67310000D01*
X129992635Y-67243375D01*
X130044811Y-67197618D01*
X130050027Y-67195185D01*
X130173662Y-67137534D01*
X130354620Y-67010826D01*
X130510826Y-66854620D01*
X130637534Y-66673662D01*
X130730894Y-66473450D01*
X130788070Y-66260068D01*
X130807323Y-66040000D01*
X130788070Y-65819932D01*
X130730894Y-65606550D01*
X130637534Y-65406339D01*
X130510826Y-65225380D01*
X130354620Y-65069174D01*
X130173662Y-64942466D01*
X130173661Y-64942465D01*
X130044811Y-64882381D01*
X129992635Y-64836624D01*
X129973216Y-64769998D01*
X129992636Y-64703373D01*
X130044810Y-64657618D01*
X130173662Y-64597534D01*
X130354620Y-64470826D01*
X130510826Y-64314620D01*
X130637534Y-64133662D01*
X130730894Y-63933450D01*
X130788070Y-63720068D01*
X130807323Y-63500000D01*
X130788070Y-63279932D01*
X130730894Y-63066550D01*
X130637534Y-62866339D01*
X130510826Y-62685380D01*
X130354620Y-62529174D01*
X130173662Y-62402466D01*
X130044811Y-62342382D01*
X129992635Y-62296625D01*
X129973216Y-62230000D01*
X129992635Y-62163375D01*
X130044811Y-62117618D01*
X130050027Y-62115185D01*
X130173662Y-62057534D01*
X130354620Y-61930826D01*
X130510826Y-61774620D01*
X130637534Y-61593662D01*
X130730894Y-61393450D01*
X130788070Y-61180068D01*
X130807323Y-60960000D01*
X130788070Y-60739932D01*
X130730894Y-60526550D01*
X130637534Y-60326339D01*
X130510826Y-60145380D01*
X130354620Y-59989174D01*
X130220374Y-59895174D01*
X130181511Y-59850858D01*
X130167500Y-59793601D01*
X130167500Y-58419999D01*
X150514842Y-58419999D01*
X150535430Y-58655318D01*
X150596569Y-58883492D01*
X150696400Y-59097580D01*
X150755073Y-59181373D01*
X151516447Y-58420001D01*
X152223553Y-58420001D01*
X152984925Y-59181373D01*
X153043600Y-59097576D01*
X153143430Y-58883492D01*
X153204569Y-58655318D01*
X153225157Y-58419999D01*
X153204569Y-58184681D01*
X153143430Y-57956507D01*
X153043599Y-57742421D01*
X152984926Y-57658626D01*
X152984925Y-57658625D01*
X152223553Y-58420000D01*
X152223553Y-58420001D01*
X151516447Y-58420001D01*
X151516447Y-58420000D01*
X150755072Y-57658625D01*
X150696399Y-57742422D01*
X150596569Y-57956507D01*
X150535430Y-58184681D01*
X150514842Y-58419999D01*
X130167500Y-58419999D01*
X130167500Y-57942966D01*
X130169770Y-57922398D01*
X130167561Y-57852081D01*
X130167500Y-57848187D01*
X130167500Y-57820525D01*
X130166994Y-57816521D01*
X130166077Y-57804869D01*
X130164701Y-57761057D01*
X130159083Y-57741722D01*
X130155138Y-57722679D01*
X130152616Y-57702707D01*
X130136481Y-57661955D01*
X130132698Y-57650907D01*
X130120468Y-57608809D01*
X130110222Y-57591485D01*
X130101661Y-57574009D01*
X130094253Y-57555297D01*
X130068489Y-57519837D01*
X130062074Y-57510070D01*
X130039763Y-57472344D01*
X130025530Y-57458111D01*
X130012893Y-57443316D01*
X130001063Y-57427033D01*
X130001060Y-57427031D01*
X130001060Y-57427030D01*
X129967287Y-57399090D01*
X129958647Y-57391228D01*
X128746818Y-56179399D01*
X128719938Y-56139171D01*
X128710499Y-56091718D01*
X128710499Y-55668281D01*
X128719938Y-55620828D01*
X128746818Y-55580600D01*
X130323600Y-54003819D01*
X130363828Y-53976939D01*
X130411281Y-53967500D01*
X137921000Y-53967500D01*
X137983000Y-53984113D01*
X138028387Y-54029500D01*
X138041923Y-54080019D01*
X138044290Y-54079765D01*
X138045000Y-54086369D01*
X138045000Y-54086372D01*
X138051408Y-54145983D01*
X138101703Y-54280831D01*
X138187953Y-54396046D01*
X138303168Y-54482296D01*
X138438016Y-54532591D01*
X138497626Y-54539000D01*
X139482371Y-54538999D01*
X139541982Y-54532591D01*
X139676830Y-54482296D01*
X139792045Y-54396046D01*
X139878295Y-54280831D01*
X139928590Y-54145983D01*
X139934999Y-54086373D01*
X139934999Y-53590000D01*
X144545501Y-53590000D01*
X144545501Y-54086324D01*
X144551903Y-54145875D01*
X144602148Y-54280589D01*
X144688312Y-54395688D01*
X144803411Y-54481852D01*
X144938125Y-54532097D01*
X144997677Y-54538500D01*
X145240001Y-54538500D01*
X145240001Y-53590000D01*
X145740001Y-53590000D01*
X145740001Y-54538500D01*
X145982325Y-54538500D01*
X146041876Y-54532097D01*
X146176590Y-54481852D01*
X146291689Y-54395688D01*
X146377853Y-54280589D01*
X146428098Y-54145875D01*
X146434501Y-54086324D01*
X146434501Y-53590000D01*
X145740001Y-53590000D01*
X145240001Y-53590000D01*
X144545501Y-53590000D01*
X139934999Y-53590000D01*
X139934998Y-53090000D01*
X144545501Y-53090000D01*
X145240001Y-53090000D01*
X145240001Y-52141500D01*
X145740001Y-52141500D01*
X145740001Y-53090000D01*
X146434501Y-53090000D01*
X146434501Y-52593676D01*
X146428098Y-52534124D01*
X146377853Y-52399410D01*
X146291689Y-52284311D01*
X146176590Y-52198147D01*
X146041876Y-52147902D01*
X145982325Y-52141500D01*
X145740001Y-52141500D01*
X145240001Y-52141500D01*
X144997677Y-52141500D01*
X144938125Y-52147902D01*
X144803411Y-52198147D01*
X144688312Y-52284311D01*
X144602148Y-52399410D01*
X144551903Y-52534124D01*
X144545501Y-52593676D01*
X144545501Y-53090000D01*
X139934998Y-53090000D01*
X139934998Y-52593628D01*
X139928590Y-52534017D01*
X139878295Y-52399169D01*
X139792045Y-52283954D01*
X139676830Y-52197704D01*
X139541982Y-52147409D01*
X139482372Y-52141000D01*
X139482368Y-52141000D01*
X138497629Y-52141000D01*
X138438014Y-52147409D01*
X138303168Y-52197704D01*
X138187953Y-52283954D01*
X138101703Y-52399168D01*
X138051408Y-52534015D01*
X138051408Y-52534017D01*
X138046075Y-52583625D01*
X138044289Y-52600235D01*
X138041922Y-52599980D01*
X138028386Y-52650500D01*
X137982999Y-52695887D01*
X137920999Y-52712500D01*
X130182966Y-52712500D01*
X130162403Y-52710229D01*
X130092095Y-52712439D01*
X130088200Y-52712500D01*
X130060523Y-52712500D01*
X130056506Y-52713007D01*
X130044874Y-52713922D01*
X130001057Y-52715299D01*
X129981724Y-52720916D01*
X129962679Y-52724860D01*
X129942707Y-52727383D01*
X129901954Y-52743518D01*
X129890907Y-52747300D01*
X129848804Y-52759532D01*
X129831476Y-52769780D01*
X129814009Y-52778337D01*
X129795298Y-52785745D01*
X129759837Y-52811509D01*
X129750077Y-52817920D01*
X129712345Y-52840235D01*
X129698107Y-52854473D01*
X129683319Y-52867103D01*
X129667033Y-52878936D01*
X129639091Y-52912711D01*
X129631230Y-52921349D01*
X128084398Y-54468181D01*
X128044170Y-54495061D01*
X127996717Y-54504500D01*
X127109991Y-54504500D01*
X127007203Y-54515000D01*
X126840665Y-54570186D01*
X126691342Y-54662288D01*
X126567288Y-54786342D01*
X126475186Y-54935665D01*
X126420000Y-55102202D01*
X126409500Y-55204990D01*
X126409500Y-56555008D01*
X126420000Y-56657796D01*
X126475186Y-56824334D01*
X126567288Y-56973657D01*
X126691342Y-57097711D01*
X126691344Y-57097712D01*
X126840666Y-57189814D01*
X126952017Y-57226712D01*
X127007202Y-57244999D01*
X127017702Y-57246071D01*
X127109991Y-57255500D01*
X127996718Y-57255499D01*
X128044171Y-57264938D01*
X128084399Y-57291818D01*
X128876181Y-58083600D01*
X128903061Y-58123828D01*
X128912500Y-58171281D01*
X128912500Y-59793602D01*
X128898489Y-59850859D01*
X128859623Y-59895177D01*
X128725379Y-59989174D01*
X128569174Y-60145379D01*
X128442466Y-60326338D01*
X128349106Y-60526548D01*
X128291929Y-60739934D01*
X128272676Y-60960000D01*
X128291929Y-61180065D01*
X128349106Y-61393451D01*
X128363194Y-61423662D01*
X128442466Y-61593662D01*
X128569174Y-61774620D01*
X128725380Y-61930826D01*
X128906338Y-62057534D01*
X129025748Y-62113215D01*
X129035189Y-62117618D01*
X129087365Y-62163375D01*
X129106784Y-62230000D01*
X129087365Y-62296625D01*
X129035189Y-62342382D01*
X128906338Y-62402466D01*
X128725379Y-62529174D01*
X128569174Y-62685379D01*
X128505012Y-62777012D01*
X128490100Y-62798311D01*
X128475177Y-62819623D01*
X128430859Y-62858489D01*
X128373602Y-62872500D01*
X122602273Y-62872500D01*
X122555611Y-62863385D01*
X122515809Y-62837381D01*
X122488717Y-62798311D01*
X122485809Y-62791682D01*
X122482173Y-62783393D01*
X122346164Y-62575215D01*
X122177744Y-62392262D01*
X122155612Y-62375036D01*
X121981514Y-62239529D01*
X121981510Y-62239526D01*
X121981509Y-62239526D01*
X121762810Y-62121172D01*
X121762806Y-62121170D01*
X121762805Y-62121170D01*
X121527615Y-62040429D01*
X121282335Y-61999500D01*
X121033665Y-61999500D01*
X120788384Y-62040429D01*
X120553194Y-62121170D01*
X120553190Y-62121171D01*
X120553190Y-62121172D01*
X120529421Y-62134035D01*
X120334485Y-62239529D01*
X120138259Y-62392259D01*
X120138256Y-62392261D01*
X120138256Y-62392262D01*
X120074511Y-62461508D01*
X119969837Y-62575214D01*
X119833825Y-62783395D01*
X119743780Y-62988678D01*
X119733937Y-63011119D01*
X119719900Y-63066550D01*
X119672891Y-63252183D01*
X119652356Y-63500000D01*
X119672891Y-63747816D01*
X119672891Y-63747819D01*
X119672892Y-63747821D01*
X119733937Y-63988881D01*
X119778960Y-64091523D01*
X119833825Y-64216604D01*
X119833826Y-64216605D01*
X119833827Y-64216607D01*
X119969836Y-64424785D01*
X120138256Y-64607738D01*
X120138259Y-64607740D01*
X120334485Y-64760470D01*
X120334487Y-64760471D01*
X120334491Y-64760474D01*
X120553190Y-64878828D01*
X120788386Y-64959571D01*
X121033665Y-65000500D01*
X121282335Y-65000500D01*
X121527614Y-64959571D01*
X121762810Y-64878828D01*
X121981509Y-64760474D01*
X122177744Y-64607738D01*
X122346164Y-64424785D01*
X122482173Y-64216607D01*
X122488717Y-64201689D01*
X122515809Y-64162619D01*
X122555611Y-64136615D01*
X122602273Y-64127500D01*
X128373601Y-64127500D01*
X128430858Y-64141511D01*
X128475174Y-64180374D01*
X128569174Y-64314620D01*
X128725380Y-64470826D01*
X128906338Y-64597534D01*
X129025748Y-64653215D01*
X129035189Y-64657618D01*
X129087365Y-64703375D01*
X129106784Y-64770000D01*
X129087365Y-64836625D01*
X129035189Y-64882382D01*
X128906338Y-64942466D01*
X128725379Y-65069174D01*
X128569174Y-65225379D01*
X128505012Y-65317012D01*
X128490100Y-65338311D01*
X128475177Y-65359623D01*
X128430859Y-65398489D01*
X128373602Y-65412500D01*
X125904273Y-65412500D01*
X125857611Y-65403385D01*
X125817809Y-65377381D01*
X125790717Y-65338311D01*
X125787809Y-65331682D01*
X125784173Y-65323393D01*
X125648164Y-65115215D01*
X125479744Y-64932262D01*
X125457612Y-64915036D01*
X125283514Y-64779529D01*
X125283510Y-64779526D01*
X125283509Y-64779526D01*
X125064810Y-64661172D01*
X125064806Y-64661170D01*
X125064805Y-64661170D01*
X124829615Y-64580429D01*
X124584335Y-64539500D01*
X124335665Y-64539500D01*
X124090384Y-64580429D01*
X123855194Y-64661170D01*
X123636485Y-64779529D01*
X123440259Y-64932259D01*
X123440256Y-64932261D01*
X123440256Y-64932262D01*
X123280066Y-65106275D01*
X123271837Y-65115214D01*
X123135825Y-65323395D01*
X123088745Y-65430728D01*
X123035937Y-65551119D01*
X123021900Y-65606550D01*
X122974891Y-65792183D01*
X122954356Y-66039999D01*
X122974891Y-66287816D01*
X122974891Y-66287819D01*
X122974892Y-66287821D01*
X123035937Y-66528881D01*
X123038657Y-66535081D01*
X123135825Y-66756604D01*
X123135826Y-66756605D01*
X123135827Y-66756607D01*
X123271836Y-66964785D01*
X123440256Y-67147738D01*
X123440259Y-67147740D01*
X123636485Y-67300470D01*
X123636487Y-67300471D01*
X123636491Y-67300474D01*
X123855190Y-67418828D01*
X124090386Y-67499571D01*
X124335665Y-67540500D01*
X124584335Y-67540500D01*
X124829614Y-67499571D01*
X125064810Y-67418828D01*
X125283509Y-67300474D01*
X125479744Y-67147738D01*
X125648164Y-66964785D01*
X125784173Y-66756607D01*
X125790717Y-66741689D01*
X125817809Y-66702619D01*
X125857611Y-66676615D01*
X125904273Y-66667500D01*
X128373601Y-66667500D01*
X128430858Y-66681511D01*
X128475174Y-66720374D01*
X128569174Y-66854620D01*
X128725380Y-67010826D01*
X128906338Y-67137534D01*
X129025748Y-67193215D01*
X129035189Y-67197618D01*
X129087365Y-67243375D01*
X129106784Y-67310000D01*
X129087365Y-67376625D01*
X129035189Y-67422382D01*
X128906338Y-67482466D01*
X128725379Y-67609174D01*
X128569174Y-67765379D01*
X128442466Y-67946338D01*
X128349106Y-68146548D01*
X128291929Y-68359934D01*
X128272676Y-68580000D01*
X128291929Y-68800065D01*
X128349106Y-69013451D01*
X128439593Y-69207500D01*
X128442466Y-69213662D01*
X128569174Y-69394620D01*
X128725380Y-69550826D01*
X128906338Y-69677534D01*
X129025748Y-69733215D01*
X129035189Y-69737618D01*
X129087365Y-69783375D01*
X129106784Y-69850000D01*
X129087365Y-69916625D01*
X129035189Y-69962382D01*
X128906338Y-70022466D01*
X128725379Y-70149174D01*
X128569174Y-70305379D01*
X128442466Y-70486338D01*
X128349106Y-70686548D01*
X128291929Y-70899934D01*
X128272676Y-71120000D01*
X128291929Y-71340065D01*
X128349106Y-71553451D01*
X128374954Y-71608882D01*
X128442466Y-71753662D01*
X128569174Y-71934620D01*
X128725380Y-72090826D01*
X128906338Y-72217534D01*
X129025748Y-72273215D01*
X129035189Y-72277618D01*
X129087365Y-72323375D01*
X129106784Y-72390000D01*
X129087365Y-72456625D01*
X129035189Y-72502382D01*
X128906338Y-72562466D01*
X128725379Y-72689174D01*
X128569174Y-72845379D01*
X128539233Y-72888140D01*
X128490100Y-72958311D01*
X128475177Y-72979623D01*
X128430859Y-73018489D01*
X128373602Y-73032500D01*
X125904273Y-73032500D01*
X125857611Y-73023385D01*
X125817809Y-72997381D01*
X125790717Y-72958311D01*
X125787809Y-72951682D01*
X125784173Y-72943393D01*
X125648164Y-72735215D01*
X125479744Y-72552262D01*
X125425888Y-72510344D01*
X125283514Y-72399529D01*
X125283510Y-72399526D01*
X125283509Y-72399526D01*
X125064810Y-72281172D01*
X125064806Y-72281170D01*
X125064805Y-72281170D01*
X124829615Y-72200429D01*
X124584335Y-72159500D01*
X124335665Y-72159500D01*
X124090384Y-72200429D01*
X123855194Y-72281170D01*
X123636485Y-72399529D01*
X123440259Y-72552259D01*
X123440256Y-72552261D01*
X123440256Y-72552262D01*
X123271836Y-72735215D01*
X123248881Y-72770350D01*
X123135825Y-72943395D01*
X123060904Y-73114199D01*
X123040013Y-73161828D01*
X123039056Y-73164009D01*
X122996717Y-73215708D01*
X122933695Y-73237928D01*
X122868294Y-73224215D01*
X122819506Y-73178551D01*
X122801500Y-73114199D01*
X122801500Y-72980966D01*
X122803770Y-72960398D01*
X122801561Y-72890081D01*
X122801500Y-72886187D01*
X122801500Y-72858525D01*
X122800994Y-72854521D01*
X122800077Y-72842869D01*
X122798701Y-72799057D01*
X122793083Y-72779722D01*
X122789138Y-72760679D01*
X122786616Y-72740707D01*
X122770481Y-72699955D01*
X122766698Y-72688907D01*
X122754468Y-72646809D01*
X122744222Y-72629485D01*
X122735661Y-72612009D01*
X122728253Y-72593297D01*
X122718280Y-72579571D01*
X122702485Y-72557832D01*
X122696074Y-72548070D01*
X122673763Y-72510344D01*
X122659530Y-72496111D01*
X122646893Y-72481316D01*
X122635063Y-72465033D01*
X122635060Y-72465031D01*
X122635060Y-72465030D01*
X122601287Y-72437090D01*
X122592647Y-72429228D01*
X120644375Y-70480956D01*
X120631439Y-70464809D01*
X120580153Y-70416648D01*
X120577354Y-70413935D01*
X120557795Y-70394375D01*
X120554606Y-70391902D01*
X120545716Y-70384310D01*
X120513767Y-70354307D01*
X120511465Y-70353041D01*
X120496120Y-70344605D01*
X120479858Y-70333922D01*
X120463963Y-70321592D01*
X120423736Y-70304184D01*
X120413248Y-70299046D01*
X120374831Y-70277926D01*
X120355337Y-70272921D01*
X120336933Y-70266620D01*
X120318458Y-70258625D01*
X120275171Y-70251769D01*
X120263736Y-70249401D01*
X120221274Y-70238500D01*
X120221272Y-70238500D01*
X120201142Y-70238500D01*
X120181743Y-70236973D01*
X120161868Y-70233825D01*
X120161867Y-70233825D01*
X120141261Y-70235772D01*
X120118230Y-70237950D01*
X120106561Y-70238500D01*
X106669500Y-70238500D01*
X106607500Y-70221887D01*
X106562113Y-70176500D01*
X106545500Y-70114500D01*
X106545500Y-60509281D01*
X106554939Y-60461828D01*
X106581819Y-60421600D01*
X110459600Y-56543819D01*
X110499828Y-56516939D01*
X110547281Y-56507500D01*
X123192669Y-56507500D01*
X123250990Y-56522071D01*
X123295604Y-56562360D01*
X123316027Y-56618898D01*
X123320000Y-56657796D01*
X123375186Y-56824334D01*
X123467288Y-56973657D01*
X123591342Y-57097711D01*
X123591344Y-57097712D01*
X123740666Y-57189814D01*
X123852017Y-57226712D01*
X123907202Y-57244999D01*
X123917702Y-57246071D01*
X124009991Y-57255500D01*
X124910008Y-57255499D01*
X125012797Y-57244999D01*
X125179334Y-57189814D01*
X125328656Y-57097712D01*
X125452712Y-56973656D01*
X125544814Y-56824334D01*
X125599999Y-56657797D01*
X125610500Y-56555009D01*
X125610499Y-55204992D01*
X125599999Y-55102203D01*
X125544814Y-54935666D01*
X125452712Y-54786344D01*
X125452711Y-54786342D01*
X125328657Y-54662288D01*
X125179332Y-54570185D01*
X125172494Y-54567919D01*
X125128170Y-54542040D01*
X125098122Y-54500429D01*
X125087500Y-54450214D01*
X125087500Y-53397281D01*
X125096939Y-53349828D01*
X125123819Y-53309600D01*
X126449079Y-51984340D01*
X131195044Y-47238373D01*
X131211190Y-47225439D01*
X131213159Y-47223341D01*
X131213162Y-47223340D01*
X131259383Y-47174118D01*
X131262001Y-47171416D01*
X131281623Y-47151796D01*
X131284100Y-47148601D01*
X131291681Y-47139724D01*
X131321693Y-47107767D01*
X131331387Y-47090131D01*
X131342078Y-47073856D01*
X131354408Y-47057962D01*
X131354408Y-47057961D01*
X131371818Y-47017727D01*
X131376944Y-47007262D01*
X131398072Y-46968834D01*
X131403078Y-46949330D01*
X131409376Y-46930937D01*
X131417374Y-46912459D01*
X131424231Y-46869154D01*
X131426600Y-46857721D01*
X131437500Y-46815273D01*
X131437500Y-46795141D01*
X131439027Y-46775742D01*
X131442175Y-46755867D01*
X131438050Y-46712230D01*
X131437500Y-46700561D01*
X131437500Y-44775369D01*
X131447512Y-44726556D01*
X131475930Y-44685626D01*
X131518167Y-44659187D01*
X131602331Y-44627796D01*
X131717546Y-44541546D01*
X131803796Y-44426331D01*
X131854091Y-44291483D01*
X131860500Y-44231873D01*
X131860500Y-44185500D01*
X131877113Y-44123500D01*
X131922500Y-44078113D01*
X131984500Y-44061500D01*
X147393219Y-44061500D01*
X147448723Y-44074616D01*
X147492486Y-44111189D01*
X147499702Y-44120828D01*
X147499703Y-44120831D01*
X147585953Y-44236046D01*
X147701168Y-44322296D01*
X147836016Y-44372591D01*
X147895626Y-44379000D01*
X148880371Y-44378999D01*
X148939982Y-44372591D01*
X149074830Y-44322296D01*
X149190045Y-44236046D01*
X149276295Y-44120831D01*
X149326590Y-43985983D01*
X149332999Y-43926373D01*
X149332999Y-43926369D01*
X153943001Y-43926369D01*
X153946369Y-43957695D01*
X153949410Y-43985983D01*
X153999705Y-44120831D01*
X154085955Y-44236046D01*
X154201170Y-44322296D01*
X154336018Y-44372591D01*
X154395628Y-44379000D01*
X155380373Y-44378999D01*
X155439984Y-44372591D01*
X155574832Y-44322296D01*
X155690047Y-44236046D01*
X155776297Y-44120831D01*
X155826592Y-43985983D01*
X155833001Y-43926373D01*
X155833000Y-42433628D01*
X155826592Y-42374017D01*
X155776297Y-42239169D01*
X155690047Y-42123954D01*
X155574832Y-42037704D01*
X155574829Y-42037703D01*
X155565190Y-42030487D01*
X155528617Y-41986724D01*
X155515501Y-41931220D01*
X155515501Y-39180424D01*
X155531224Y-39119992D01*
X155574405Y-39074885D01*
X155577716Y-39072843D01*
X155618044Y-39047968D01*
X155737968Y-38928044D01*
X155737970Y-38928041D01*
X155827002Y-38783699D01*
X155829160Y-38777189D01*
X155880349Y-38622708D01*
X155890500Y-38523345D01*
X155890500Y-38523344D01*
X157289500Y-38523344D01*
X157299650Y-38622707D01*
X157352997Y-38783699D01*
X157442031Y-38928044D01*
X157561955Y-39047968D01*
X157706300Y-39137002D01*
X157706302Y-39137002D01*
X157706303Y-39137003D01*
X157867292Y-39190349D01*
X157966655Y-39200500D01*
X158513344Y-39200499D01*
X158612708Y-39190349D01*
X158773697Y-39137003D01*
X158918044Y-39047968D01*
X159037968Y-38928044D01*
X159037970Y-38928041D01*
X159125335Y-38786403D01*
X159170442Y-38743222D01*
X159230873Y-38727500D01*
X160634891Y-38727500D01*
X160690395Y-38740616D01*
X160734157Y-38777188D01*
X160743374Y-38789500D01*
X160789713Y-38851402D01*
X160799104Y-38863946D01*
X160914319Y-38950196D01*
X161049167Y-39000491D01*
X161108777Y-39006900D01*
X161598222Y-39006899D01*
X161657833Y-39000491D01*
X161792681Y-38950196D01*
X161792681Y-38950195D01*
X161796917Y-38948616D01*
X161855704Y-38941765D01*
X161910970Y-38962942D01*
X161950126Y-39007323D01*
X161964250Y-39064798D01*
X161964250Y-41739693D01*
X161953627Y-41789908D01*
X161923580Y-41831520D01*
X161879255Y-41857398D01*
X161869391Y-41860667D01*
X161840664Y-41870186D01*
X161691342Y-41962288D01*
X161567288Y-42086342D01*
X161475186Y-42235665D01*
X161420000Y-42402202D01*
X161409500Y-42504990D01*
X161409500Y-43855008D01*
X161420000Y-43957796D01*
X161475186Y-44124334D01*
X161567288Y-44273657D01*
X161691342Y-44397711D01*
X161691344Y-44397712D01*
X161840666Y-44489814D01*
X161952017Y-44526712D01*
X162007202Y-44544999D01*
X162017703Y-44546071D01*
X162109991Y-44555500D01*
X163010008Y-44555499D01*
X163112797Y-44544999D01*
X163279334Y-44489814D01*
X163428656Y-44397712D01*
X163552712Y-44273656D01*
X163644814Y-44124334D01*
X163699999Y-43957797D01*
X163710500Y-43855009D01*
X163710500Y-43430000D01*
X164510001Y-43430000D01*
X164510001Y-43854979D01*
X164520493Y-43957695D01*
X164575642Y-44124122D01*
X164667683Y-44273345D01*
X164791654Y-44397316D01*
X164940877Y-44489357D01*
X165107303Y-44544506D01*
X165210021Y-44555000D01*
X165410000Y-44555000D01*
X165410000Y-43430000D01*
X165910000Y-43430000D01*
X165910000Y-44554999D01*
X166109979Y-44554999D01*
X166212695Y-44544506D01*
X166379122Y-44489357D01*
X166528345Y-44397316D01*
X166652316Y-44273345D01*
X166744357Y-44124122D01*
X166799506Y-43957696D01*
X166810000Y-43854979D01*
X166810000Y-43430000D01*
X165910000Y-43430000D01*
X165410000Y-43430000D01*
X164510001Y-43430000D01*
X163710500Y-43430000D01*
X163710499Y-42930000D01*
X164510000Y-42930000D01*
X165410000Y-42930000D01*
X165410000Y-41805001D01*
X165210021Y-41805001D01*
X165107304Y-41815493D01*
X164940877Y-41870642D01*
X164791654Y-41962683D01*
X164667683Y-42086654D01*
X164575642Y-42235877D01*
X164520493Y-42402303D01*
X164510000Y-42505021D01*
X164510000Y-42930000D01*
X163710499Y-42930000D01*
X163710499Y-42504992D01*
X163704030Y-42441669D01*
X163699999Y-42402203D01*
X163674898Y-42326454D01*
X163644814Y-42235666D01*
X163552712Y-42086344D01*
X163552711Y-42086342D01*
X163428657Y-41962288D01*
X163278154Y-41869458D01*
X163234973Y-41824351D01*
X163229938Y-41805000D01*
X165910000Y-41805000D01*
X165910000Y-42930000D01*
X166809999Y-42930000D01*
X166809999Y-42505021D01*
X166799506Y-42402304D01*
X166744357Y-42235877D01*
X166652316Y-42086654D01*
X166528345Y-41962683D01*
X166379122Y-41870642D01*
X166212696Y-41815493D01*
X166109979Y-41805000D01*
X165910000Y-41805000D01*
X163229938Y-41805000D01*
X163219250Y-41763919D01*
X163219250Y-38721223D01*
X163227068Y-38677889D01*
X163247649Y-38622708D01*
X163250941Y-38613883D01*
X163257350Y-38554273D01*
X163257350Y-38350000D01*
X168580000Y-38350000D01*
X168580000Y-39247824D01*
X168586402Y-39307375D01*
X168636647Y-39442089D01*
X168722811Y-39557188D01*
X168837910Y-39643352D01*
X168972624Y-39693597D01*
X169032176Y-39700000D01*
X169930000Y-39700000D01*
X169930000Y-38350000D01*
X170430000Y-38350000D01*
X170430000Y-39700000D01*
X171327824Y-39700000D01*
X171387375Y-39693597D01*
X171522089Y-39643352D01*
X171637188Y-39557188D01*
X171723352Y-39442089D01*
X171726668Y-39433198D01*
X174280354Y-39433198D01*
X174287155Y-39439006D01*
X174508597Y-39574705D01*
X174748544Y-39674096D01*
X175001083Y-39734724D01*
X175260000Y-39755101D01*
X175518916Y-39734724D01*
X175771455Y-39674096D01*
X176011397Y-39574707D01*
X176232849Y-39439003D01*
X176239645Y-39433198D01*
X175260000Y-38453553D01*
X174280354Y-39433198D01*
X171726668Y-39433198D01*
X171773597Y-39307375D01*
X171780000Y-39247824D01*
X171780000Y-38350000D01*
X170430000Y-38350000D01*
X169930000Y-38350000D01*
X168580000Y-38350000D01*
X163257350Y-38350000D01*
X163257349Y-38099999D01*
X173604898Y-38099999D01*
X173625275Y-38358916D01*
X173685903Y-38611455D01*
X173785294Y-38851402D01*
X173920993Y-39072843D01*
X173926801Y-39079644D01*
X174906447Y-38100001D01*
X174906447Y-38100000D01*
X175613553Y-38100000D01*
X176593198Y-39079645D01*
X176599003Y-39072849D01*
X176734707Y-38851397D01*
X176834096Y-38611455D01*
X176894724Y-38358916D01*
X176915101Y-38099999D01*
X176894724Y-37841083D01*
X176834096Y-37588544D01*
X176734705Y-37348597D01*
X176599006Y-37127155D01*
X176593198Y-37120354D01*
X175613553Y-38100000D01*
X174906447Y-38100000D01*
X173926801Y-37120354D01*
X173920992Y-37127156D01*
X173785294Y-37348597D01*
X173685903Y-37588544D01*
X173625275Y-37841083D01*
X173604898Y-38099999D01*
X163257349Y-38099999D01*
X163257349Y-37850000D01*
X168580000Y-37850000D01*
X169930000Y-37850000D01*
X169930000Y-36500000D01*
X170430000Y-36500000D01*
X170430000Y-37850000D01*
X171780000Y-37850000D01*
X171780000Y-36952176D01*
X171773597Y-36892624D01*
X171726668Y-36766801D01*
X174280354Y-36766801D01*
X175260000Y-37746447D01*
X175260001Y-37746447D01*
X176239645Y-36766801D01*
X176232843Y-36760993D01*
X176011402Y-36625294D01*
X175771455Y-36525903D01*
X175518916Y-36465275D01*
X175260000Y-36444898D01*
X175001083Y-36465275D01*
X174748544Y-36525903D01*
X174508597Y-36625294D01*
X174287156Y-36760992D01*
X174280354Y-36766801D01*
X171726668Y-36766801D01*
X171723352Y-36757910D01*
X171637188Y-36642811D01*
X171522089Y-36556647D01*
X171387375Y-36506402D01*
X171327824Y-36500000D01*
X170430000Y-36500000D01*
X169930000Y-36500000D01*
X169032176Y-36500000D01*
X168972624Y-36506402D01*
X168837910Y-36556647D01*
X168722811Y-36642811D01*
X168636647Y-36757910D01*
X168586402Y-36892624D01*
X168580000Y-36952176D01*
X168580000Y-37850000D01*
X163257349Y-37850000D01*
X163257349Y-37645728D01*
X163250941Y-37586117D01*
X163200646Y-37451269D01*
X163114396Y-37336054D01*
X162999181Y-37249804D01*
X162864333Y-37199509D01*
X162804723Y-37193100D01*
X162804719Y-37193100D01*
X162315280Y-37193100D01*
X162255665Y-37199509D01*
X162120819Y-37249804D01*
X162031061Y-37316997D01*
X161983108Y-37338896D01*
X161930392Y-37338896D01*
X161882439Y-37316997D01*
X161792681Y-37249804D01*
X161657833Y-37199509D01*
X161657832Y-37199508D01*
X161598223Y-37193100D01*
X161598219Y-37193100D01*
X161108780Y-37193100D01*
X161049165Y-37199509D01*
X160914319Y-37249804D01*
X160799103Y-37336054D01*
X160734158Y-37422811D01*
X160690395Y-37459384D01*
X160634891Y-37472500D01*
X159230873Y-37472500D01*
X159170442Y-37456778D01*
X159125335Y-37413597D01*
X159037969Y-37271956D01*
X158918044Y-37152031D01*
X158773699Y-37062997D01*
X158612707Y-37009650D01*
X158523494Y-37000536D01*
X158513344Y-36999500D01*
X157966655Y-36999500D01*
X157867292Y-37009650D01*
X157706300Y-37062997D01*
X157561955Y-37152031D01*
X157442031Y-37271955D01*
X157352997Y-37416300D01*
X157299650Y-37577292D01*
X157289500Y-37676655D01*
X157289500Y-38523344D01*
X155890500Y-38523344D01*
X155890499Y-37676656D01*
X155880349Y-37577292D01*
X155827003Y-37416303D01*
X155827002Y-37416302D01*
X155827002Y-37416300D01*
X155737968Y-37271955D01*
X155618044Y-37152031D01*
X155473699Y-37062997D01*
X155312707Y-37009650D01*
X155223494Y-37000536D01*
X155213344Y-36999500D01*
X154666655Y-36999500D01*
X154567292Y-37009650D01*
X154406300Y-37062997D01*
X154261955Y-37152031D01*
X154142031Y-37271955D01*
X154052997Y-37416300D01*
X153999650Y-37577292D01*
X153989500Y-37676655D01*
X153989500Y-38523344D01*
X153999650Y-38622707D01*
X154052997Y-38783699D01*
X154142029Y-38928041D01*
X154142031Y-38928043D01*
X154142032Y-38928044D01*
X154224184Y-39010196D01*
X154251062Y-39050422D01*
X154260501Y-39097875D01*
X154260501Y-41931220D01*
X154247385Y-41986724D01*
X154210812Y-42030487D01*
X154201172Y-42037703D01*
X154201170Y-42037704D01*
X154139240Y-42084064D01*
X154085954Y-42123954D01*
X153999705Y-42239168D01*
X153949410Y-42374016D01*
X153943001Y-42433630D01*
X153943001Y-43926369D01*
X149332999Y-43926369D01*
X149332998Y-42433628D01*
X149326590Y-42374017D01*
X149276295Y-42239169D01*
X149190045Y-42123954D01*
X149074830Y-42037704D01*
X148939982Y-41987409D01*
X148880372Y-41981000D01*
X148880368Y-41981000D01*
X147895629Y-41981000D01*
X147836014Y-41987409D01*
X147701168Y-42037704D01*
X147585953Y-42123954D01*
X147499703Y-42239168D01*
X147449408Y-42374016D01*
X147442999Y-42433631D01*
X147442999Y-42682500D01*
X147426386Y-42744500D01*
X147380999Y-42789887D01*
X147318999Y-42806500D01*
X131984499Y-42806500D01*
X131922499Y-42789887D01*
X131877112Y-42744500D01*
X131860499Y-42682500D01*
X131860499Y-42636130D01*
X131860499Y-42636127D01*
X131854091Y-42576517D01*
X131803796Y-42441669D01*
X131717546Y-42326454D01*
X131602331Y-42240204D01*
X131467483Y-42189909D01*
X131407873Y-42183500D01*
X131407869Y-42183500D01*
X130212130Y-42183500D01*
X130152515Y-42189909D01*
X130017669Y-42240204D01*
X129902454Y-42326454D01*
X129816204Y-42441668D01*
X129765909Y-42576516D01*
X129759500Y-42636130D01*
X129759500Y-44231869D01*
X129765909Y-44291483D01*
X129816204Y-44426331D01*
X129902454Y-44541546D01*
X130017669Y-44627796D01*
X130101833Y-44659187D01*
X130144070Y-44685626D01*
X130172488Y-44726556D01*
X130182500Y-44775369D01*
X130182500Y-46424719D01*
X130173061Y-46472172D01*
X130146181Y-46512400D01*
X124074954Y-52583625D01*
X124058806Y-52596563D01*
X124010646Y-52647847D01*
X124007940Y-52650640D01*
X123988374Y-52670207D01*
X123985899Y-52673398D01*
X123978317Y-52682275D01*
X123948306Y-52714234D01*
X123938606Y-52731877D01*
X123927928Y-52748133D01*
X123915592Y-52764036D01*
X123898185Y-52804262D01*
X123893047Y-52814750D01*
X123871927Y-52853166D01*
X123866919Y-52872670D01*
X123860619Y-52891069D01*
X123852625Y-52909542D01*
X123845769Y-52952831D01*
X123843401Y-52964267D01*
X123832500Y-53006728D01*
X123832500Y-53026859D01*
X123830973Y-53046258D01*
X123827825Y-53066131D01*
X123831950Y-53109770D01*
X123832500Y-53121439D01*
X123832500Y-54450214D01*
X123821878Y-54500429D01*
X123791830Y-54542040D01*
X123747506Y-54567919D01*
X123740667Y-54570185D01*
X123591342Y-54662288D01*
X123467288Y-54786342D01*
X123375186Y-54935665D01*
X123320000Y-55102202D01*
X123316027Y-55141102D01*
X123295604Y-55197640D01*
X123250990Y-55237929D01*
X123192669Y-55252500D01*
X110318966Y-55252500D01*
X110298399Y-55250229D01*
X110228095Y-55252439D01*
X110224200Y-55252500D01*
X110196523Y-55252500D01*
X110192506Y-55253007D01*
X110180874Y-55253922D01*
X110137057Y-55255299D01*
X110117724Y-55260916D01*
X110098678Y-55264860D01*
X110078705Y-55267383D01*
X110037953Y-55283518D01*
X110026905Y-55287301D01*
X109984807Y-55299532D01*
X109967480Y-55309779D01*
X109950012Y-55318336D01*
X109931295Y-55325746D01*
X109895825Y-55351516D01*
X109886067Y-55357927D01*
X109848344Y-55380237D01*
X109848342Y-55380238D01*
X109848343Y-55380238D01*
X109834107Y-55394473D01*
X109819319Y-55407103D01*
X109803033Y-55418936D01*
X109775091Y-55452711D01*
X109767230Y-55461349D01*
X105532954Y-59695625D01*
X105516806Y-59708563D01*
X105468646Y-59759847D01*
X105465940Y-59762640D01*
X105446374Y-59782207D01*
X105443899Y-59785398D01*
X105436317Y-59794275D01*
X105406306Y-59826234D01*
X105396606Y-59843877D01*
X105385928Y-59860133D01*
X105373592Y-59876036D01*
X105356185Y-59916262D01*
X105351047Y-59926750D01*
X105329927Y-59965166D01*
X105324919Y-59984670D01*
X105318619Y-60003069D01*
X105310625Y-60021542D01*
X105303769Y-60064831D01*
X105301401Y-60076267D01*
X105290500Y-60118728D01*
X105290500Y-60138859D01*
X105288973Y-60158258D01*
X105285825Y-60178131D01*
X104140500Y-60178131D01*
X104140500Y-39247869D01*
X116509500Y-39247869D01*
X116515897Y-39307375D01*
X116515909Y-39307483D01*
X116566204Y-39442331D01*
X116652454Y-39557546D01*
X116767669Y-39643796D01*
X116902517Y-39694091D01*
X116962127Y-39700500D01*
X119257872Y-39700499D01*
X119317483Y-39694091D01*
X119452331Y-39643796D01*
X119567546Y-39557546D01*
X119653796Y-39442331D01*
X119704091Y-39307483D01*
X119710500Y-39247873D01*
X119710500Y-38851500D01*
X119727113Y-38789500D01*
X119772500Y-38744113D01*
X119834500Y-38727500D01*
X121580576Y-38727500D01*
X121628028Y-38736939D01*
X121668257Y-38763818D01*
X121695136Y-38804044D01*
X121714846Y-38851628D01*
X121845476Y-39064798D01*
X121850590Y-39073143D01*
X121890603Y-39119992D01*
X122019311Y-39270689D01*
X122158787Y-39389813D01*
X122216384Y-39439006D01*
X122216860Y-39439412D01*
X122438372Y-39575154D01*
X122603016Y-39643352D01*
X122678389Y-39674573D01*
X122757630Y-39693597D01*
X122931006Y-39735221D01*
X123190000Y-39755604D01*
X123448994Y-39735221D01*
X123701610Y-39674573D01*
X123941628Y-39575154D01*
X124163140Y-39439412D01*
X124360689Y-39270689D01*
X124529412Y-39073140D01*
X124665154Y-38851628D01*
X124764573Y-38611610D01*
X124825221Y-38358994D01*
X124845604Y-38100000D01*
X124825221Y-37841006D01*
X124764573Y-37588390D01*
X124764573Y-37588389D01*
X124744864Y-37540807D01*
X124735425Y-37493354D01*
X124744864Y-37445901D01*
X124771741Y-37405676D01*
X126979599Y-35197819D01*
X127019828Y-35170939D01*
X127067281Y-35161500D01*
X129635501Y-35161500D01*
X129697501Y-35178113D01*
X129742888Y-35223500D01*
X129759501Y-35285500D01*
X129759501Y-35331872D01*
X129765909Y-35391483D01*
X129816204Y-35526331D01*
X129902454Y-35641546D01*
X130017669Y-35727796D01*
X130152517Y-35778091D01*
X130212127Y-35784500D01*
X131407872Y-35784499D01*
X131467483Y-35778091D01*
X131602331Y-35727796D01*
X131717546Y-35641546D01*
X131803796Y-35526331D01*
X131854091Y-35391483D01*
X131860500Y-35331873D01*
X131860499Y-33736128D01*
X131854091Y-33676517D01*
X131803796Y-33541669D01*
X131717546Y-33426454D01*
X131602331Y-33340204D01*
X131467483Y-33289909D01*
X131407873Y-33283500D01*
X131407869Y-33283500D01*
X130212130Y-33283500D01*
X130152515Y-33289909D01*
X130017669Y-33340204D01*
X129902454Y-33426454D01*
X129816204Y-33541668D01*
X129765909Y-33676516D01*
X129759500Y-33736131D01*
X129759500Y-33782500D01*
X129742887Y-33844500D01*
X129697500Y-33889887D01*
X129635500Y-33906500D01*
X126838966Y-33906500D01*
X126818398Y-33904229D01*
X126748082Y-33906439D01*
X126744188Y-33906500D01*
X126716524Y-33906500D01*
X126712515Y-33907006D01*
X126700884Y-33907921D01*
X126657058Y-33909298D01*
X126637716Y-33914917D01*
X126618679Y-33918859D01*
X126598708Y-33921383D01*
X126557963Y-33937514D01*
X126546919Y-33941295D01*
X126504811Y-33953529D01*
X126487476Y-33963781D01*
X126470011Y-33972337D01*
X126451295Y-33979747D01*
X126415840Y-34005507D01*
X126406080Y-34011919D01*
X126368343Y-34034237D01*
X126354107Y-34048473D01*
X126339319Y-34061103D01*
X126323033Y-34072936D01*
X126295091Y-34106711D01*
X126287230Y-34115349D01*
X123884324Y-36518255D01*
X123844096Y-36545135D01*
X123796643Y-36554574D01*
X123749191Y-36545135D01*
X123701612Y-36525427D01*
X123448995Y-36464779D01*
X123190000Y-36444396D01*
X122931004Y-36464779D01*
X122678389Y-36525426D01*
X122473524Y-36610285D01*
X122438372Y-36624846D01*
X122294359Y-36713096D01*
X122216856Y-36760590D01*
X122019311Y-36929311D01*
X121850590Y-37126856D01*
X121809996Y-37193100D01*
X121714846Y-37348372D01*
X121714846Y-37348373D01*
X121695137Y-37395954D01*
X121668257Y-37436182D01*
X121628028Y-37463061D01*
X121580576Y-37472500D01*
X119834499Y-37472500D01*
X119772499Y-37455887D01*
X119727112Y-37410500D01*
X119710499Y-37348500D01*
X119710499Y-36952130D01*
X119708046Y-36929311D01*
X119704091Y-36892517D01*
X119653796Y-36757669D01*
X119567546Y-36642454D01*
X119452331Y-36556204D01*
X119317483Y-36505909D01*
X119257873Y-36499500D01*
X119257869Y-36499500D01*
X116962130Y-36499500D01*
X116902515Y-36505909D01*
X116767669Y-36556204D01*
X116652454Y-36642454D01*
X116566204Y-36757668D01*
X116515909Y-36892516D01*
X116509500Y-36952130D01*
X116509500Y-39247869D01*
X104140500Y-39247869D01*
X104140500Y-33019999D01*
X107436512Y-33019999D01*
X107456432Y-33285813D01*
X107515748Y-33545694D01*
X107613133Y-33793824D01*
X107746413Y-34024673D01*
X107815424Y-34111210D01*
X107912612Y-34233079D01*
X108108014Y-34414386D01*
X108328257Y-34564545D01*
X108568419Y-34680201D01*
X108804214Y-34752934D01*
X108823137Y-34758771D01*
X109086719Y-34798500D01*
X109086720Y-34798500D01*
X109353280Y-34798500D01*
X109353281Y-34798500D01*
X109485071Y-34778635D01*
X109616863Y-34758771D01*
X109871581Y-34680201D01*
X110111744Y-34564545D01*
X110331986Y-34414386D01*
X110527388Y-34233079D01*
X110693586Y-34024674D01*
X110826866Y-33793826D01*
X110924252Y-33545692D01*
X110983567Y-33285815D01*
X111003487Y-33020000D01*
X180588512Y-33020000D01*
X180608432Y-33285813D01*
X180667748Y-33545694D01*
X180765133Y-33793824D01*
X180898413Y-34024673D01*
X180967424Y-34111210D01*
X181064612Y-34233079D01*
X181260014Y-34414386D01*
X181480257Y-34564545D01*
X181720419Y-34680201D01*
X181956214Y-34752934D01*
X181975137Y-34758771D01*
X182238719Y-34798500D01*
X182238720Y-34798500D01*
X182505280Y-34798500D01*
X182505281Y-34798500D01*
X182637071Y-34778635D01*
X182768863Y-34758771D01*
X183023581Y-34680201D01*
X183263744Y-34564545D01*
X183483986Y-34414386D01*
X183679388Y-34233079D01*
X183845586Y-34024674D01*
X183978866Y-33793826D01*
X184076252Y-33545692D01*
X184135567Y-33285815D01*
X184155487Y-33020000D01*
X184135567Y-32754185D01*
X184076252Y-32494308D01*
X183978866Y-32246174D01*
X183845586Y-32015326D01*
X183679388Y-31806921D01*
X183679387Y-31806920D01*
X183483988Y-31625615D01*
X183380331Y-31554943D01*
X183263744Y-31475455D01*
X183263741Y-31475454D01*
X183263739Y-31475452D01*
X183023583Y-31359800D01*
X183023581Y-31359799D01*
X182932779Y-31331790D01*
X182768862Y-31281228D01*
X182505281Y-31241500D01*
X182505280Y-31241500D01*
X182238720Y-31241500D01*
X182238719Y-31241500D01*
X181975137Y-31281228D01*
X181720419Y-31359799D01*
X181480256Y-31475455D01*
X181260014Y-31625613D01*
X181064612Y-31806920D01*
X180898413Y-32015326D01*
X180765133Y-32246175D01*
X180667748Y-32494305D01*
X180608432Y-32754186D01*
X180588512Y-33020000D01*
X111003487Y-33020000D01*
X110983567Y-32754185D01*
X110924252Y-32494308D01*
X110826866Y-32246174D01*
X110693586Y-32015326D01*
X110527388Y-31806921D01*
X110527387Y-31806920D01*
X110331988Y-31625615D01*
X110228331Y-31554943D01*
X110111744Y-31475455D01*
X110111741Y-31475454D01*
X110111739Y-31475452D01*
X109871583Y-31359800D01*
X109871581Y-31359799D01*
X109780779Y-31331790D01*
X109616862Y-31281228D01*
X109353281Y-31241500D01*
X109353280Y-31241500D01*
X109086720Y-31241500D01*
X109086719Y-31241500D01*
X108823137Y-31281228D01*
X108568419Y-31359799D01*
X108328256Y-31475455D01*
X108108014Y-31625613D01*
X107912612Y-31806920D01*
X107746413Y-32015326D01*
X107613133Y-32246175D01*
X107515748Y-32494305D01*
X107456432Y-32754186D01*
X107436512Y-33019999D01*
X104140500Y-33019999D01*
X104140500Y-28064500D01*
X104157113Y-28002500D01*
X104202500Y-27957113D01*
X104264500Y-27940500D01*
X187835500Y-27940500D01*
X187897500Y-27957113D01*
G37*
G04 #@! TD.AperFunction*
M02*
