M48
; DRILL file {KiCad 7.0.1} date Wed May 28 12:54:40 2025
; FORMAT={-:-/ absolute / metric / decimal}
; #@! TF.CreationDate,2025-05-28T12:54:40-04:00
; #@! TF.GenerationSoftware,Kicad,Pcbnew,7.0.1
; #@! TF.FileFunction,Plated,1,2,PTH
FMAT,2
METRIC
; #@! TA.AperFunction,Plated,PTH,ViaDrill
T1C0.381
; #@! TA.AperFunction,Plated,PTH,ComponentDrill
T2C0.762
; #@! TA.AperFunction,Plated,PTH,ComponentDrill
T3C0.800
; #@! TA.AperFunction,Plated,PTH,ComponentDrill
T4C1.000
; #@! TA.AperFunction,Plated,PTH,ComponentDrill
T5C1.300
%
G90
G05
T1
X113.792Y-101.346
X123.698Y-91.44
X146.304Y-85.09
T2
X129.54Y-60.96
X129.54Y-63.5
X129.54Y-66.04
X129.54Y-68.58
X129.54Y-71.12
X129.54Y-73.66
X129.54Y-76.2
X129.54Y-78.74
X129.54Y-81.28
X129.54Y-83.82
X129.54Y-86.36
X129.54Y-88.9
X129.54Y-91.44
X129.54Y-93.98
X137.16Y-60.96
X137.16Y-63.5
X137.16Y-66.04
X137.16Y-68.58
X137.16Y-71.12
X137.16Y-73.66
X137.16Y-76.2
X137.16Y-78.74
X137.16Y-81.28
X137.16Y-83.82
X137.16Y-86.36
X137.16Y-88.9
X137.16Y-91.44
X137.16Y-93.98
T3
X109.22Y-96.52
X111.22Y-96.52
X118.11Y-76.2
X118.11Y-81.1
T4
X118.11Y-111.76
X119.38Y-109.22
X120.65Y-88.9
X120.65Y-111.76
X121.158Y-63.5
X121.92Y-109.22
X124.46Y-66.04
X124.46Y-73.66
X124.46Y-86.36
X137.16Y-99.06
X142.24Y-66.04
X142.24Y-71.12
X145.288Y-68.58
X151.69Y-97.79
X151.69Y-102.87
X151.87Y-53.34
X151.87Y-55.88
X151.87Y-58.42
X151.87Y-60.96
X151.87Y-63.5
X151.87Y-66.04
X151.87Y-68.58
X151.87Y-71.12
X151.892Y-78.74
X158.04Y-85.09
X158.04Y-87.63
X158.04Y-90.17
X158.04Y-92.71
X158.04Y-95.25
X158.04Y-97.79
X158.04Y-100.33
X158.04Y-102.87
T5
X118.11Y-38.1
X123.19Y-38.1
X170.18Y-38.1
X175.26Y-38.1
T0
M30
