%TF.GenerationSoftware,KiCad,Pcbnew,7.0.1*%
%TF.CreationDate,2023-05-15T23:15:40-04:00*%
%TF.ProjectId,weather_station,77656174-6865-4725-9f73-746174696f6e,rev?*%
%TF.SameCoordinates,Original*%
%TF.FileFunction,Copper,L1,Top*%
%TF.FilePolarity,Positive*%
%FSLAX46Y46*%
G04 Gerber Fmt 4.6, Leading zero omitted, Abs format (unit mm)*
G04 Created by KiCad (PCBNEW 7.0.1) date 2023-05-15 23:15:40*
%MOMM*%
%LPD*%
G01*
G04 APERTURE LIST*
G04 Aperture macros list*
%AMRoundRect*
0 Rectangle with rounded corners*
0 $1 Rounding radius*
0 $2 $3 $4 $5 $6 $7 $8 $9 X,Y pos of 4 corners*
0 Add a 4 corners polygon primitive as box body*
4,1,4,$2,$3,$4,$5,$6,$7,$8,$9,$2,$3,0*
0 Add four circle primitives for the rounded corners*
1,1,$1+$1,$2,$3*
1,1,$1+$1,$4,$5*
1,1,$1+$1,$6,$7*
1,1,$1+$1,$8,$9*
0 Add four rect primitives between the rounded corners*
20,1,$1+$1,$2,$3,$4,$5,0*
20,1,$1+$1,$4,$5,$6,$7,0*
20,1,$1+$1,$6,$7,$8,$9,0*
20,1,$1+$1,$8,$9,$2,$3,0*%
G04 Aperture macros list end*
%TA.AperFunction,SMDPad,CuDef*%
%ADD10RoundRect,0.250000X0.400000X0.625000X-0.400000X0.625000X-0.400000X-0.625000X0.400000X-0.625000X0*%
%TD*%
%TA.AperFunction,ComponentPad*%
%ADD11C,0.800000*%
%TD*%
%TA.AperFunction,SMDPad,CuDef*%
%ADD12R,1.250000X1.000000*%
%TD*%
%TA.AperFunction,ComponentPad*%
%ADD13C,2.000000*%
%TD*%
%TA.AperFunction,SMDPad,CuDef*%
%ADD14RoundRect,0.250000X0.625000X-0.400000X0.625000X0.400000X-0.625000X0.400000X-0.625000X-0.400000X0*%
%TD*%
%TA.AperFunction,SMDPad,CuDef*%
%ADD15RoundRect,0.250000X0.300000X-0.300000X0.300000X0.300000X-0.300000X0.300000X-0.300000X-0.300000X0*%
%TD*%
%TA.AperFunction,ComponentPad*%
%ADD16C,1.524000*%
%TD*%
%TA.AperFunction,SMDPad,CuDef*%
%ADD17R,1.100000X1.500000*%
%TD*%
%TA.AperFunction,SMDPad,CuDef*%
%ADD18RoundRect,0.250000X0.412500X0.650000X-0.412500X0.650000X-0.412500X-0.650000X0.412500X-0.650000X0*%
%TD*%
%TA.AperFunction,SMDPad,CuDef*%
%ADD19RoundRect,0.250000X-1.075000X-0.550000X1.075000X-0.550000X1.075000X0.550000X-1.075000X0.550000X0*%
%TD*%
%TA.AperFunction,ComponentPad*%
%ADD20C,1.500000*%
%TD*%
%TA.AperFunction,ComponentPad*%
%ADD21R,1.700000X1.700000*%
%TD*%
%TA.AperFunction,ComponentPad*%
%ADD22C,1.700000*%
%TD*%
%TA.AperFunction,ComponentPad*%
%ADD23O,1.700000X1.700000*%
%TD*%
%TA.AperFunction,ComponentPad*%
%ADD24R,2.200000X2.200000*%
%TD*%
%TA.AperFunction,ComponentPad*%
%ADD25C,2.300000*%
%TD*%
%TA.AperFunction,ViaPad*%
%ADD26C,0.800000*%
%TD*%
%TA.AperFunction,Conductor*%
%ADD27C,0.250000*%
%TD*%
%TA.AperFunction,Conductor*%
%ADD28C,0.152400*%
%TD*%
G04 APERTURE END LIST*
D10*
%TO.P,R2,1*%
%TO.N,Net-(U_ATMega1-A0)*%
X142800000Y-99060000D03*
%TO.P,R2,2*%
%TO.N,VCC*%
X139700000Y-99060000D03*
%TD*%
D11*
%TO.P,J6,1,Pin_1*%
%TO.N,GNDREF*%
X185420000Y-116840000D03*
%TO.P,J6,2,Pin_2*%
%TO.N,VCC*%
X186420000Y-116840000D03*
%TO.P,J6,3,Pin_3*%
%TO.N,Net-(J4-SDA)*%
X187420000Y-116840000D03*
%TO.P,J6,4,Pin_4*%
%TO.N,Net-(J4-SCL)*%
X188420000Y-116840000D03*
%TD*%
D12*
%TO.P,SW1,1,1*%
%TO.N,GNDREF*%
X160020000Y-40640000D03*
%TO.P,SW1,2,2*%
%TO.N,Net-(U_ATMega1-RST)*%
X152270000Y-40640000D03*
%TD*%
D13*
%TO.P,J11,1,Pin_1*%
%TO.N,Net-(J11-Pin_1)*%
X147320000Y-78740000D03*
%TD*%
D14*
%TO.P,R4,1*%
%TO.N,Net-(D1-K)*%
X152400000Y-94540000D03*
%TO.P,R4,2*%
%TO.N,Net-(D1-A)*%
X152400000Y-91440000D03*
%TD*%
D10*
%TO.P,R1,1*%
%TO.N,Net-(U_ATMega1-RST)*%
X140260000Y-48260000D03*
%TO.P,R1,2*%
%TO.N,VCC*%
X137160000Y-48260000D03*
%TD*%
D13*
%TO.P,J21,1,Pin_1*%
%TO.N,Net-(J21-Pin_1)*%
X172720000Y-68580000D03*
%TD*%
%TO.P,J10,1,Pin_1*%
%TO.N,Net-(J10-Pin_1)*%
X147320000Y-73660000D03*
%TD*%
D15*
%TO.P,D1,1,K*%
%TO.N,Net-(D1-K)*%
X147320000Y-93980000D03*
%TO.P,D1,2,A*%
%TO.N,Net-(D1-A)*%
X147320000Y-91180000D03*
%TD*%
D13*
%TO.P,J20,1,Pin_1*%
%TO.N,Net-(J20-Pin_1)*%
X172720000Y-60960000D03*
%TD*%
D10*
%TO.P,R3,1*%
%TO.N,Net-(D1-K)*%
X142240000Y-93980000D03*
%TO.P,R3,2*%
%TO.N,VCC*%
X139140000Y-93980000D03*
%TD*%
D16*
%TO.P,U_ATMega1,1,RST*%
%TO.N,Net-(U_ATMega1-RST)*%
X152400000Y-48260000D03*
%TO.P,U_ATMega1,2,RXD*%
%TO.N,Net-(J7-Pin_1)*%
X152400000Y-50800000D03*
%TO.P,U_ATMega1,3,TXD*%
%TO.N,Net-(J8-Pin_1)*%
X152400000Y-53340000D03*
%TO.P,U_ATMega1,4,INT0*%
%TO.N,Net-(J4-SQW)*%
X152400000Y-55880000D03*
%TO.P,U_ATMega1,5,INT1*%
%TO.N,Net-(D1-A)*%
X152400000Y-58420000D03*
%TO.P,U_ATMega1,6,Pin_4*%
%TO.N,Net-(J9-Pin_1)*%
X152400000Y-60960000D03*
%TO.P,U_ATMega1,7,VCC*%
%TO.N,VCC*%
X152400000Y-63500000D03*
%TO.P,U_ATMega1,8,GND*%
%TO.N,GNDREF*%
X152400000Y-66040000D03*
%TO.P,U_ATMega1,9,XTAL1*%
%TO.N,Net-(U_ATMega1-XTAL1)*%
X152400000Y-68580000D03*
%TO.P,U_ATMega1,10,XTAL2*%
%TO.N,Net-(U_ATMega1-XTAL2)*%
X152400000Y-71120000D03*
%TO.P,U_ATMega1,11,Pin_5*%
%TO.N,Net-(J10-Pin_1)*%
X152400000Y-73660000D03*
%TO.P,U_ATMega1,12,Pin_6*%
%TO.N,Net-(J11-Pin_1)*%
X152400000Y-76200000D03*
%TO.P,U_ATMega1,13,Pin_7*%
%TO.N,Net-(J12-Pin_1)*%
X152400000Y-78740000D03*
%TO.P,U_ATMega1,14,Pin_8*%
%TO.N,Net-(J13-Pin_1)*%
X152400000Y-81280000D03*
%TO.P,U_ATMega1,15,Pin_9*%
%TO.N,Net-(J17-Pin_1)*%
X160020000Y-81280000D03*
%TO.P,U_ATMega1,16,~SS*%
%TO.N,Net-(J5-CS)*%
X160020000Y-78740000D03*
%TO.P,U_ATMega1,17,MOSI*%
%TO.N,Net-(J5-DI)*%
X160020000Y-76200000D03*
%TO.P,U_ATMega1,18,MISO*%
%TO.N,Net-(J5-DO)*%
X160020000Y-73660000D03*
%TO.P,U_ATMega1,19,SCK*%
%TO.N,Net-(J5-CLK)*%
X160020000Y-71120000D03*
%TO.P,U_ATMega1,20,AVCC*%
%TO.N,VCC*%
X160020000Y-68580000D03*
%TO.P,U_ATMega1,21,AREF*%
X160020000Y-66040000D03*
%TO.P,U_ATMega1,22,GND*%
%TO.N,GNDREF*%
X160020000Y-63500000D03*
%TO.P,U_ATMega1,23,A0*%
%TO.N,Net-(U_ATMega1-A0)*%
X160020000Y-60960000D03*
%TO.P,U_ATMega1,24,A1*%
%TO.N,Net-(J16-Pin_1)*%
X160020000Y-58420000D03*
%TO.P,U_ATMega1,25,A2*%
%TO.N,Net-(J15-Pin_1)*%
X160020000Y-55880000D03*
%TO.P,U_ATMega1,26,A3*%
%TO.N,Net-(J14-Pin_1)*%
X160020000Y-53340000D03*
%TO.P,U_ATMega1,27,SDA*%
%TO.N,Net-(J4-SDA)*%
X160020000Y-50800000D03*
%TO.P,U_ATMega1,28,SCL*%
%TO.N,Net-(J4-SCL)*%
X160020000Y-48260000D03*
%TD*%
D13*
%TO.P,J12,1,Pin_1*%
%TO.N,Net-(J12-Pin_1)*%
X147320000Y-83820000D03*
%TD*%
D17*
%TO.P,On/Off1,1,A*%
%TO.N,VCC*%
X154940000Y-34930000D03*
%TO.P,On/Off1,2,B*%
%TO.N,Net-(J1-Pin_1)*%
X154940000Y-26030000D03*
%TD*%
D18*
%TO.P,C1,1*%
%TO.N,Net-(U_ATMega1-XTAL1)*%
X134620000Y-66040000D03*
%TO.P,C1,2*%
%TO.N,GNDREF*%
X131495000Y-66040000D03*
%TD*%
D13*
%TO.P,J13,1,Pin_1*%
%TO.N,Net-(J13-Pin_1)*%
X152400000Y-86360000D03*
%TD*%
%TO.P,J17,1,Pin_1*%
%TO.N,Net-(J17-Pin_1)*%
X160020000Y-86360000D03*
%TD*%
D19*
%TO.P,C3,1*%
%TO.N,VCC*%
X139002500Y-86360000D03*
%TO.P,C3,2*%
%TO.N,Net-(D1-A)*%
X142352500Y-86360000D03*
%TD*%
D20*
%TO.P,Y1,1,1*%
%TO.N,Net-(U_ATMega1-XTAL1)*%
X139700000Y-66040000D03*
%TO.P,Y1,2,2*%
%TO.N,Net-(U_ATMega1-XTAL2)*%
X139700000Y-70940000D03*
%TD*%
D21*
%TO.P,J5,1,CD*%
%TO.N,Net-(J18-Pin_1)*%
X168380000Y-95250000D03*
D22*
%TO.P,J5,2,CS*%
%TO.N,Net-(J5-CS)*%
X168380000Y-92710000D03*
%TO.P,J5,3,DI*%
%TO.N,Net-(J5-DI)*%
X168380000Y-90170000D03*
%TO.P,J5,4,DO*%
%TO.N,Net-(J5-DO)*%
X168380000Y-87630000D03*
%TO.P,J5,5,CLK*%
%TO.N,Net-(J5-CLK)*%
X168380000Y-85090000D03*
%TO.P,J5,6,GND*%
%TO.N,GNDREF*%
X168380000Y-82550000D03*
%TO.P,J5,7,3V*%
%TO.N,unconnected-(J5-3V-Pad7)*%
X168380000Y-80010000D03*
%TO.P,J5,8,5V*%
%TO.N,VCC*%
X168380000Y-77470000D03*
%TD*%
D21*
%TO.P,J4,1,Vin*%
%TO.N,VCC*%
X179065000Y-49530000D03*
D23*
%TO.P,J4,2,GND*%
%TO.N,GNDREF*%
X179065000Y-52070000D03*
%TO.P,J4,3,SCL*%
%TO.N,Net-(J4-SCL)*%
X179065000Y-54610000D03*
%TO.P,J4,4,SDA*%
%TO.N,Net-(J4-SDA)*%
X179065000Y-57150000D03*
%TO.P,J4,5,VBAT*%
%TO.N,unconnected-(J4-VBAT-Pad5)*%
X179065000Y-59690000D03*
%TO.P,J4,6,32K*%
%TO.N,Net-(J20-Pin_1)*%
X179065000Y-62230000D03*
%TO.P,J4,7,SQW*%
%TO.N,Net-(J4-SQW)*%
X179065000Y-64770000D03*
%TO.P,J4,8,RST*%
%TO.N,Net-(J21-Pin_1)*%
X179065000Y-67310000D03*
%TD*%
D13*
%TO.P,J8,1,Pin_1*%
%TO.N,Net-(J8-Pin_1)*%
X147320000Y-53340000D03*
%TD*%
D10*
%TO.P,R5,1*%
%TO.N,VCC*%
X185980000Y-40640000D03*
%TO.P,R5,2*%
%TO.N,Net-(J4-SQW)*%
X182880000Y-40640000D03*
%TD*%
D13*
%TO.P,J15,1,Pin_1*%
%TO.N,Net-(J15-Pin_1)*%
X167640000Y-55880000D03*
%TD*%
D22*
%TO.P,J3,1*%
%TO.N,GNDREF*%
X149220000Y-104140000D03*
%TO.P,J3,2*%
X147950000Y-106680000D03*
%TO.P,J3,3*%
%TO.N,Net-(D1-K)*%
X146680000Y-104140000D03*
%TO.P,J3,4*%
%TO.N,Net-(U_ATMega1-A0)*%
X145410000Y-106680000D03*
%TD*%
D13*
%TO.P,J9,1,Pin_1*%
%TO.N,Net-(J9-Pin_1)*%
X147320000Y-60960000D03*
%TD*%
D24*
%TO.P,J1,1,Pin_1*%
%TO.N,Net-(J1-Pin_1)*%
X144780000Y-30480000D03*
D25*
%TO.P,J1,2,Pin_2*%
X139700000Y-30480000D03*
%TD*%
D18*
%TO.P,C2,1*%
%TO.N,Net-(U_ATMega1-XTAL2)*%
X134620000Y-71120000D03*
%TO.P,C2,2*%
%TO.N,GNDREF*%
X131495000Y-71120000D03*
%TD*%
D13*
%TO.P,J14,1,Pin_1*%
%TO.N,Net-(J14-Pin_1)*%
X165100000Y-53340000D03*
%TD*%
%TO.P,J16,1,Pin_1*%
%TO.N,Net-(J16-Pin_1)*%
X165100000Y-58420000D03*
%TD*%
%TO.P,J7,1,Pin_1*%
%TO.N,Net-(J7-Pin_1)*%
X144780000Y-50800000D03*
%TD*%
D24*
%TO.P,J2,1,Pin_1*%
%TO.N,GNDREF*%
X182880000Y-30480000D03*
D25*
%TO.P,J2,2,Pin_2*%
X177800000Y-30480000D03*
%TD*%
D13*
%TO.P,J18,1,Pin_1*%
%TO.N,Net-(J18-Pin_1)*%
X162560000Y-96520000D03*
%TD*%
D26*
%TO.N,Net-(D1-A)*%
X142240000Y-78740000D03*
%TD*%
D27*
%TO.N,Net-(U_ATMega1-XTAL1)*%
X152400000Y-68580000D02*
X142240000Y-68580000D01*
X139700000Y-66040000D02*
X134620000Y-66040000D01*
X142240000Y-68580000D02*
X139700000Y-66040000D01*
%TO.N,GNDREF*%
X152400000Y-66040000D02*
X144780000Y-66040000D01*
X139700000Y-60960000D02*
X134620000Y-60960000D01*
X134620000Y-60960000D02*
X131495000Y-64085000D01*
X131495000Y-66040000D02*
X131495000Y-71120000D01*
X144780000Y-66040000D02*
X139700000Y-60960000D01*
X131495000Y-64085000D02*
X131495000Y-66040000D01*
%TO.N,Net-(U_ATMega1-XTAL2)*%
X152220000Y-70940000D02*
X152400000Y-71120000D01*
X134800000Y-70940000D02*
X139700000Y-70940000D01*
X134620000Y-71120000D02*
X134800000Y-70940000D01*
X139700000Y-70940000D02*
X152220000Y-70940000D01*
%TO.N,VCC*%
X157480000Y-66040000D02*
X160020000Y-66040000D01*
X190500000Y-40640000D02*
X185980000Y-40640000D01*
X139700000Y-109220000D02*
X167640000Y-109220000D01*
X139140000Y-93980000D02*
X137160000Y-93980000D01*
X185420000Y-48260000D02*
X185420000Y-41200000D01*
X144780000Y-63500000D02*
X139700000Y-58420000D01*
X127000000Y-86360000D02*
X139002500Y-86360000D01*
X152400000Y-63500000D02*
X144780000Y-63500000D01*
X149860000Y-38100000D02*
X127000000Y-38100000D01*
X186420000Y-118380000D02*
X186420000Y-116840000D01*
X139700000Y-58420000D02*
X127000000Y-58420000D01*
X168380000Y-66780000D02*
X167640000Y-66040000D01*
X184150000Y-49530000D02*
X185420000Y-48260000D01*
X186420000Y-118380000D02*
X187420000Y-119380000D01*
X187420000Y-119380000D02*
X190500000Y-119380000D01*
X127000000Y-48260000D02*
X137160000Y-48260000D01*
X127000000Y-58420000D02*
X127000000Y-86360000D01*
X167640000Y-109220000D02*
X167640000Y-119380000D01*
X139700000Y-99060000D02*
X139700000Y-109220000D01*
X185420000Y-119380000D02*
X186420000Y-118380000D01*
X127000000Y-58420000D02*
X127000000Y-50800000D01*
X179065000Y-49530000D02*
X184150000Y-49530000D01*
X139002500Y-86360000D02*
X139002500Y-93842500D01*
X154940000Y-63500000D02*
X157480000Y-66040000D01*
D28*
X139002500Y-93842500D02*
X139140000Y-93980000D01*
D27*
X185420000Y-41200000D02*
X185980000Y-40640000D01*
X153030000Y-34930000D02*
X149860000Y-38100000D01*
X127000000Y-38100000D02*
X127000000Y-48260000D01*
X160020000Y-66040000D02*
X160020000Y-68580000D01*
X167640000Y-119380000D02*
X185420000Y-119380000D01*
X137160000Y-93980000D02*
X137160000Y-99060000D01*
X152400000Y-63500000D02*
X154940000Y-63500000D01*
X168380000Y-77470000D02*
X168380000Y-66780000D01*
X154940000Y-34930000D02*
X153030000Y-34930000D01*
X167640000Y-66040000D02*
X160020000Y-66040000D01*
X190500000Y-119380000D02*
X190500000Y-40640000D01*
X137160000Y-99060000D02*
X139700000Y-99060000D01*
X127000000Y-50800000D02*
X127000000Y-48260000D01*
%TO.N,Net-(D1-A)*%
X152400000Y-91440000D02*
X147580000Y-91440000D01*
X144780000Y-91440000D02*
X147060000Y-91440000D01*
X147060000Y-91440000D02*
X147320000Y-91180000D01*
X142352500Y-86360000D02*
X142352500Y-89012500D01*
X142240000Y-78740000D02*
X142240000Y-86247500D01*
X142240000Y-86247500D02*
X142352500Y-86360000D01*
X147580000Y-91440000D02*
X147320000Y-91180000D01*
X142352500Y-89012500D02*
X144780000Y-91440000D01*
%TO.N,Net-(D1-K)*%
X147320000Y-93980000D02*
X142240000Y-93980000D01*
X146680000Y-104140000D02*
X146680000Y-94620000D01*
X146680000Y-94620000D02*
X147320000Y-93980000D01*
X152400000Y-94540000D02*
X151840000Y-93980000D01*
X151840000Y-93980000D02*
X147320000Y-93980000D01*
%TO.N,Net-(J1-Pin_1)*%
X154940000Y-26030000D02*
X149230000Y-26030000D01*
X149230000Y-26030000D02*
X144780000Y-30480000D01*
X144780000Y-30480000D02*
X139700000Y-30480000D01*
%TO.N,Net-(J4-SCL)*%
X188420000Y-116840000D02*
X188420000Y-53800000D01*
X188420000Y-53800000D02*
X187960000Y-53340000D01*
X180335000Y-53340000D02*
X179065000Y-54610000D01*
X187960000Y-53340000D02*
X180335000Y-53340000D01*
X179065000Y-54610000D02*
X172715000Y-48260000D01*
X172715000Y-48260000D02*
X160020000Y-48260000D01*
%TO.N,Net-(U_ATMega1-A0)*%
X145410000Y-106680000D02*
X142800000Y-104070000D01*
X142800000Y-104070000D02*
X142800000Y-99060000D01*
%TO.N,Net-(J5-CLK)*%
X165100000Y-81810000D02*
X165100000Y-76200000D01*
X165100000Y-76200000D02*
X160020000Y-71120000D01*
X168380000Y-85090000D02*
X165100000Y-81810000D01*
%TO.N,Net-(J5-DO)*%
X163010000Y-82260000D02*
X163010000Y-76650000D01*
X163010000Y-76650000D02*
X160020000Y-73660000D01*
X168380000Y-87630000D02*
X163010000Y-82260000D01*
%TO.N,Net-(J5-DI)*%
X168380000Y-90170000D02*
X162560000Y-84350000D01*
X162560000Y-78740000D02*
X160020000Y-76200000D01*
X162560000Y-84350000D02*
X162560000Y-78740000D01*
%TO.N,Net-(J5-CS)*%
X161345000Y-85675000D02*
X161345000Y-80065000D01*
X168380000Y-92710000D02*
X161345000Y-85675000D01*
X161345000Y-80065000D02*
X160020000Y-78740000D01*
%TO.N,Net-(J18-Pin_1)*%
X163830000Y-95250000D02*
X162560000Y-96520000D01*
X168380000Y-95250000D02*
X163830000Y-95250000D01*
%TO.N,Net-(J4-SDA)*%
X172715000Y-50800000D02*
X160020000Y-50800000D01*
X187420000Y-65505000D02*
X179065000Y-57150000D01*
X179065000Y-57150000D02*
X172715000Y-50800000D01*
X187420000Y-116840000D02*
X187420000Y-65505000D01*
%TO.N,Net-(J7-Pin_1)*%
X152400000Y-50800000D02*
X144780000Y-50800000D01*
%TO.N,Net-(J8-Pin_1)*%
X152400000Y-53340000D02*
X147320000Y-53340000D01*
%TO.N,Net-(J9-Pin_1)*%
X152400000Y-60960000D02*
X147320000Y-60960000D01*
%TO.N,Net-(J10-Pin_1)*%
X152400000Y-73660000D02*
X147320000Y-73660000D01*
%TO.N,Net-(J11-Pin_1)*%
X152400000Y-76200000D02*
X149860000Y-76200000D01*
X149860000Y-76200000D02*
X147320000Y-78740000D01*
%TO.N,Net-(J12-Pin_1)*%
X152400000Y-78740000D02*
X147320000Y-83820000D01*
%TO.N,Net-(J13-Pin_1)*%
X152400000Y-81280000D02*
X152400000Y-86360000D01*
%TO.N,Net-(J14-Pin_1)*%
X160020000Y-53340000D02*
X165100000Y-53340000D01*
%TO.N,Net-(J15-Pin_1)*%
X160020000Y-55880000D02*
X167640000Y-55880000D01*
%TO.N,Net-(J16-Pin_1)*%
X160020000Y-58420000D02*
X165100000Y-58420000D01*
%TO.N,Net-(J17-Pin_1)*%
X160020000Y-81280000D02*
X160020000Y-86360000D01*
%TO.N,Net-(J20-Pin_1)*%
X177795000Y-60960000D02*
X172720000Y-60960000D01*
X179065000Y-62230000D02*
X177795000Y-60960000D01*
%TO.N,Net-(J21-Pin_1)*%
X173990000Y-67310000D02*
X172720000Y-68580000D01*
X179065000Y-67310000D02*
X173990000Y-67310000D01*
%TO.N,Net-(U_ATMega1-RST)*%
X152400000Y-48260000D02*
X140260000Y-48260000D01*
X152400000Y-40770000D02*
X152270000Y-40640000D01*
X152400000Y-48260000D02*
X152400000Y-40770000D01*
%TO.N,Net-(J4-SQW)*%
X177800000Y-45720000D02*
X182880000Y-40640000D01*
X177795000Y-63500000D02*
X179065000Y-64770000D01*
X157480000Y-50800000D02*
X157480000Y-45720000D01*
X165100000Y-63500000D02*
X177795000Y-63500000D01*
X161473000Y-59873000D02*
X165100000Y-63500000D01*
X157480000Y-45720000D02*
X177800000Y-45720000D01*
X152400000Y-55880000D02*
X156393000Y-59873000D01*
X152400000Y-55880000D02*
X157480000Y-50800000D01*
X156393000Y-59873000D02*
X161473000Y-59873000D01*
%TD*%
%TA.AperFunction,Conductor*%
%TO.N,GNDREF*%
G36*
X153819590Y-58204706D02*
G01*
X153871017Y-58235607D01*
X155892197Y-60256787D01*
X155905098Y-60272889D01*
X155907212Y-60274874D01*
X155907214Y-60274877D01*
X155914398Y-60281623D01*
X155956240Y-60320916D01*
X155959036Y-60323626D01*
X155978530Y-60343120D01*
X155981704Y-60345582D01*
X155990568Y-60353153D01*
X156022418Y-60383062D01*
X156032914Y-60388832D01*
X156039974Y-60392714D01*
X156056231Y-60403392D01*
X156072064Y-60415674D01*
X156088185Y-60422649D01*
X156112156Y-60433023D01*
X156122643Y-60438160D01*
X156160908Y-60459197D01*
X156180316Y-60464180D01*
X156198710Y-60470478D01*
X156217105Y-60478438D01*
X156260254Y-60485271D01*
X156271680Y-60487638D01*
X156287222Y-60491629D01*
X156313980Y-60498500D01*
X156313981Y-60498500D01*
X156334016Y-60498500D01*
X156353413Y-60500026D01*
X156373196Y-60503160D01*
X156416674Y-60499050D01*
X156428344Y-60498500D01*
X158675021Y-60498500D01*
X158729865Y-60511288D01*
X158773397Y-60547014D01*
X158796638Y-60598309D01*
X158794796Y-60654593D01*
X158771929Y-60739932D01*
X158752676Y-60959999D01*
X158771929Y-61180065D01*
X158829106Y-61393451D01*
X158918660Y-61585500D01*
X158922466Y-61593662D01*
X159049174Y-61774620D01*
X159205380Y-61930826D01*
X159386338Y-62057534D01*
X159456173Y-62090098D01*
X159515780Y-62117894D01*
X159567956Y-62163651D01*
X159587375Y-62230276D01*
X159567956Y-62296901D01*
X159515780Y-62342658D01*
X159386589Y-62402900D01*
X159321812Y-62448258D01*
X159321811Y-62448258D01*
X160020000Y-63146446D01*
X160020001Y-63146446D01*
X160718187Y-62448258D01*
X160653406Y-62402898D01*
X160524219Y-62342658D01*
X160472043Y-62296901D01*
X160452623Y-62230276D01*
X160472043Y-62163651D01*
X160524219Y-62117894D01*
X160524811Y-62117618D01*
X160653662Y-62057534D01*
X160834620Y-61930826D01*
X160990826Y-61774620D01*
X161117534Y-61593662D01*
X161210894Y-61393450D01*
X161268070Y-61180068D01*
X161287323Y-60960000D01*
X161282314Y-60902742D01*
X161279808Y-60874095D01*
X161289193Y-60814837D01*
X161325300Y-60766922D01*
X161379676Y-60741566D01*
X161439590Y-60744706D01*
X161491017Y-60775607D01*
X164599197Y-63883787D01*
X164612098Y-63899889D01*
X164614212Y-63901874D01*
X164614214Y-63901877D01*
X164647656Y-63933281D01*
X164663240Y-63947916D01*
X164666021Y-63950611D01*
X164685530Y-63970120D01*
X164688704Y-63972582D01*
X164697568Y-63980153D01*
X164729418Y-64010062D01*
X164739914Y-64015832D01*
X164746974Y-64019714D01*
X164763231Y-64030392D01*
X164779064Y-64042674D01*
X164795185Y-64049649D01*
X164819156Y-64060023D01*
X164829643Y-64065160D01*
X164867908Y-64086197D01*
X164887316Y-64091180D01*
X164905710Y-64097478D01*
X164924105Y-64105438D01*
X164967254Y-64112271D01*
X164978680Y-64114638D01*
X164994222Y-64118629D01*
X165020980Y-64125500D01*
X165020981Y-64125500D01*
X165041016Y-64125500D01*
X165060413Y-64127026D01*
X165080196Y-64130160D01*
X165123674Y-64126050D01*
X165135344Y-64125500D01*
X177484548Y-64125500D01*
X177532001Y-64134939D01*
X177572229Y-64161819D01*
X177724762Y-64314352D01*
X177756856Y-64369939D01*
X177756856Y-64434126D01*
X177729936Y-64534593D01*
X177709340Y-64770000D01*
X177729936Y-65005407D01*
X177747479Y-65070877D01*
X177791097Y-65233663D01*
X177890965Y-65447830D01*
X178026505Y-65641401D01*
X178193599Y-65808495D01*
X178379160Y-65938426D01*
X178418024Y-65982743D01*
X178432035Y-66040000D01*
X178418024Y-66097257D01*
X178379158Y-66141575D01*
X178210062Y-66259978D01*
X178193595Y-66271508D01*
X178026505Y-66438598D01*
X177962777Y-66529612D01*
X177897243Y-66623206D01*
X177891349Y-66631623D01*
X177847031Y-66670489D01*
X177789774Y-66684500D01*
X174072740Y-66684500D01*
X174052236Y-66682236D01*
X173982144Y-66684439D01*
X173978250Y-66684500D01*
X173950648Y-66684500D01*
X173946653Y-66685004D01*
X173935029Y-66685918D01*
X173891368Y-66687290D01*
X173872128Y-66692880D01*
X173853081Y-66696825D01*
X173833209Y-66699335D01*
X173792599Y-66715413D01*
X173781554Y-66719194D01*
X173739611Y-66731380D01*
X173722369Y-66741578D01*
X173704897Y-66750138D01*
X173686266Y-66757514D01*
X173650938Y-66783181D01*
X173641180Y-66789591D01*
X173603579Y-66811829D01*
X173589410Y-66825998D01*
X173574622Y-66838628D01*
X173558413Y-66850405D01*
X173530572Y-66884058D01*
X173522711Y-66892696D01*
X173297228Y-67118179D01*
X173237497Y-67151307D01*
X173169285Y-67147779D01*
X173089617Y-67120429D01*
X172844335Y-67079500D01*
X172595665Y-67079500D01*
X172350384Y-67120429D01*
X172115194Y-67201170D01*
X172115190Y-67201171D01*
X172115190Y-67201172D01*
X172081186Y-67219574D01*
X171896485Y-67319529D01*
X171700259Y-67472259D01*
X171700256Y-67472261D01*
X171700256Y-67472262D01*
X171574220Y-67609174D01*
X171531837Y-67655214D01*
X171395825Y-67863395D01*
X171341004Y-67988376D01*
X171295937Y-68091119D01*
X171273074Y-68181404D01*
X171234891Y-68332183D01*
X171214356Y-68580000D01*
X171234891Y-68827816D01*
X171234891Y-68827819D01*
X171234892Y-68827821D01*
X171295937Y-69068881D01*
X171328159Y-69142339D01*
X171395825Y-69296604D01*
X171395827Y-69296607D01*
X171531836Y-69504785D01*
X171700256Y-69687738D01*
X171755188Y-69730493D01*
X171896485Y-69840470D01*
X171896487Y-69840471D01*
X171896491Y-69840474D01*
X172115190Y-69958828D01*
X172350386Y-70039571D01*
X172595665Y-70080500D01*
X172844335Y-70080500D01*
X173089614Y-70039571D01*
X173324810Y-69958828D01*
X173543509Y-69840474D01*
X173739744Y-69687738D01*
X173908164Y-69504785D01*
X174044173Y-69296607D01*
X174144063Y-69068881D01*
X174205108Y-68827821D01*
X174225643Y-68580000D01*
X174205108Y-68332179D01*
X174151136Y-68119049D01*
X174151791Y-68055692D01*
X174183662Y-68000928D01*
X174196215Y-67988376D01*
X174212773Y-67971817D01*
X174253002Y-67944939D01*
X174300454Y-67935500D01*
X177789773Y-67935500D01*
X177847030Y-67949511D01*
X177891346Y-67988374D01*
X178026505Y-68181401D01*
X178193599Y-68348495D01*
X178387170Y-68484035D01*
X178601337Y-68583903D01*
X178829592Y-68645063D01*
X179065000Y-68665659D01*
X179300408Y-68645063D01*
X179528663Y-68583903D01*
X179742830Y-68484035D01*
X179936401Y-68348495D01*
X180103495Y-68181401D01*
X180239035Y-67987830D01*
X180338903Y-67773663D01*
X180400063Y-67545408D01*
X180420659Y-67310000D01*
X180400063Y-67074592D01*
X180338903Y-66846337D01*
X180239035Y-66632171D01*
X180103495Y-66438599D01*
X179936401Y-66271505D01*
X179750839Y-66141573D01*
X179711975Y-66097257D01*
X179697964Y-66040000D01*
X179711975Y-65982743D01*
X179750839Y-65938426D01*
X179936401Y-65808495D01*
X180103495Y-65641401D01*
X180239035Y-65447830D01*
X180338903Y-65233663D01*
X180400063Y-65005408D01*
X180420659Y-64770000D01*
X180409241Y-64639500D01*
X180400063Y-64534592D01*
X180382977Y-64470825D01*
X180338903Y-64306337D01*
X180239035Y-64092171D01*
X180103495Y-63898599D01*
X179936401Y-63731505D01*
X179750839Y-63601573D01*
X179711976Y-63557257D01*
X179697965Y-63500000D01*
X179711976Y-63442743D01*
X179750839Y-63398426D01*
X179936401Y-63268495D01*
X180103495Y-63101401D01*
X180239035Y-62907830D01*
X180338903Y-62693663D01*
X180400063Y-62465408D01*
X180420659Y-62230000D01*
X180400063Y-61994592D01*
X180338903Y-61766337D01*
X180239035Y-61552171D01*
X180103495Y-61358599D01*
X179936401Y-61191505D01*
X179750839Y-61061573D01*
X179711974Y-61017255D01*
X179697964Y-60959999D01*
X179711975Y-60902742D01*
X179750837Y-60858428D01*
X179936401Y-60728495D01*
X180103495Y-60561401D01*
X180239035Y-60367830D01*
X180338903Y-60153663D01*
X180400063Y-59925408D01*
X180410827Y-59802382D01*
X180421598Y-59679271D01*
X180446750Y-59614592D01*
X180502716Y-59573556D01*
X180571965Y-59569017D01*
X180632807Y-59602397D01*
X186758181Y-65727772D01*
X186785061Y-65768000D01*
X186794500Y-65815453D01*
X186794500Y-115845857D01*
X186782421Y-115899240D01*
X186748536Y-115942223D01*
X186699448Y-115966431D01*
X186644719Y-115967147D01*
X186514648Y-115939500D01*
X186514646Y-115939500D01*
X186325354Y-115939500D01*
X186325352Y-115939500D01*
X186140197Y-115978855D01*
X185969822Y-116054712D01*
X185919386Y-116065433D01*
X185868951Y-116054713D01*
X185699644Y-115979333D01*
X185514595Y-115940000D01*
X185325405Y-115940000D01*
X185140355Y-115979333D01*
X184982961Y-116049409D01*
X185420000Y-116486447D01*
X185497352Y-116563799D01*
X185526559Y-116610088D01*
X185532991Y-116664438D01*
X185514540Y-116840000D01*
X185532991Y-117015559D01*
X185526559Y-117069910D01*
X185497352Y-117116199D01*
X184982961Y-117630589D01*
X185140357Y-117700666D01*
X185325405Y-117740000D01*
X185514595Y-117740000D01*
X185644719Y-117712341D01*
X185699447Y-117713057D01*
X185748536Y-117737265D01*
X185782421Y-117780248D01*
X185794500Y-117833631D01*
X185794500Y-118069548D01*
X185785061Y-118117001D01*
X185758181Y-118157229D01*
X185197228Y-118718181D01*
X185157000Y-118745061D01*
X185109547Y-118754500D01*
X168389500Y-118754500D01*
X168327500Y-118737887D01*
X168282113Y-118692500D01*
X168265500Y-118630500D01*
X168265500Y-116840000D01*
X184515043Y-116840000D01*
X184534818Y-117028152D01*
X184593280Y-117208079D01*
X184631745Y-117274700D01*
X185066447Y-116840001D01*
X185066447Y-116840000D01*
X184631745Y-116405298D01*
X184593280Y-116471922D01*
X184534818Y-116651847D01*
X184515043Y-116840000D01*
X168265500Y-116840000D01*
X168265500Y-109290849D01*
X168267696Y-109267615D01*
X168269227Y-109259587D01*
X168265745Y-109204241D01*
X168265500Y-109196455D01*
X168265500Y-109180650D01*
X168265470Y-109180412D01*
X168263517Y-109164957D01*
X168262789Y-109157266D01*
X168259304Y-109101862D01*
X168256777Y-109094086D01*
X168251688Y-109071317D01*
X168250664Y-109063208D01*
X168230233Y-109011606D01*
X168227608Y-109004315D01*
X168210467Y-108951559D01*
X168206087Y-108944657D01*
X168195495Y-108923869D01*
X168192486Y-108916268D01*
X168159870Y-108871377D01*
X168155503Y-108864949D01*
X168125786Y-108818123D01*
X168119833Y-108812533D01*
X168104396Y-108795023D01*
X168099593Y-108788412D01*
X168056861Y-108753061D01*
X168051018Y-108747910D01*
X168010582Y-108709938D01*
X168003415Y-108705998D01*
X167984113Y-108692879D01*
X167977824Y-108687676D01*
X167946749Y-108673053D01*
X167927633Y-108664058D01*
X167920700Y-108660525D01*
X167872093Y-108633803D01*
X167868813Y-108632961D01*
X167864173Y-108631769D01*
X167842223Y-108623866D01*
X167834826Y-108620386D01*
X167834824Y-108620385D01*
X167780356Y-108609994D01*
X167772759Y-108608296D01*
X167719021Y-108594500D01*
X167719019Y-108594500D01*
X167710849Y-108594500D01*
X167687615Y-108592304D01*
X167679587Y-108590772D01*
X167624241Y-108594255D01*
X167616455Y-108594500D01*
X140449500Y-108594500D01*
X140387500Y-108577887D01*
X140342113Y-108532500D01*
X140325500Y-108470500D01*
X140325500Y-100490448D01*
X140336123Y-100440232D01*
X140366171Y-100398620D01*
X140410495Y-100372742D01*
X140419334Y-100369814D01*
X140568656Y-100277712D01*
X140692712Y-100153656D01*
X140784814Y-100004334D01*
X140839999Y-99837797D01*
X140850500Y-99735009D01*
X140850499Y-98384992D01*
X140839999Y-98282203D01*
X140784814Y-98115666D01*
X140726115Y-98020500D01*
X140692711Y-97966342D01*
X140568657Y-97842288D01*
X140419334Y-97750186D01*
X140252797Y-97695000D01*
X140150009Y-97684500D01*
X139249991Y-97684500D01*
X139147203Y-97695000D01*
X138980665Y-97750186D01*
X138831342Y-97842288D01*
X138707288Y-97966342D01*
X138615186Y-98115665D01*
X138560000Y-98282202D01*
X138555823Y-98323101D01*
X138535401Y-98379639D01*
X138490786Y-98419929D01*
X138432465Y-98434500D01*
X137909500Y-98434500D01*
X137847500Y-98417887D01*
X137802113Y-98372500D01*
X137785500Y-98310500D01*
X137785500Y-94878900D01*
X137804726Y-94812579D01*
X137856442Y-94766825D01*
X137924611Y-94755824D01*
X137988095Y-94782989D01*
X138027206Y-94839896D01*
X138055186Y-94924334D01*
X138147288Y-95073657D01*
X138271342Y-95197711D01*
X138271344Y-95197712D01*
X138420666Y-95289814D01*
X138532017Y-95326712D01*
X138587202Y-95344999D01*
X138597703Y-95346071D01*
X138689991Y-95355500D01*
X139590008Y-95355499D01*
X139692797Y-95344999D01*
X139859334Y-95289814D01*
X140008656Y-95197712D01*
X140132712Y-95073656D01*
X140224814Y-94924334D01*
X140279999Y-94757797D01*
X140290500Y-94655009D01*
X140290500Y-94655008D01*
X141089500Y-94655008D01*
X141100000Y-94757796D01*
X141155186Y-94924334D01*
X141247288Y-95073657D01*
X141371342Y-95197711D01*
X141371344Y-95197712D01*
X141520666Y-95289814D01*
X141632017Y-95326712D01*
X141687202Y-95344999D01*
X141697703Y-95346071D01*
X141789991Y-95355500D01*
X142690008Y-95355499D01*
X142792797Y-95344999D01*
X142959334Y-95289814D01*
X143108656Y-95197712D01*
X143232712Y-95073656D01*
X143324814Y-94924334D01*
X143379999Y-94757797D01*
X143384177Y-94716898D01*
X143404599Y-94660361D01*
X143449214Y-94620071D01*
X143507535Y-94605500D01*
X145930500Y-94605500D01*
X145992500Y-94622113D01*
X146037887Y-94667500D01*
X146054500Y-94729500D01*
X146054500Y-102864774D01*
X146040489Y-102922031D01*
X146001623Y-102966348D01*
X146001550Y-102966400D01*
X145808598Y-103101505D01*
X145641505Y-103268598D01*
X145505965Y-103462170D01*
X145406097Y-103676336D01*
X145344936Y-103904592D01*
X145324340Y-104140000D01*
X145344936Y-104375407D01*
X145372288Y-104477484D01*
X145406097Y-104603663D01*
X145505965Y-104817830D01*
X145641505Y-105011401D01*
X145641508Y-105011404D01*
X145768463Y-105138359D01*
X145800556Y-105193945D01*
X145800557Y-105258131D01*
X145768466Y-105313719D01*
X145712880Y-105345814D01*
X145656220Y-105345815D01*
X145656215Y-105345882D01*
X145655458Y-105345815D01*
X145648694Y-105345816D01*
X145645412Y-105344936D01*
X145410000Y-105324340D01*
X145174591Y-105344936D01*
X145074125Y-105371855D01*
X145009939Y-105371855D01*
X144954352Y-105339761D01*
X143461819Y-103847228D01*
X143434939Y-103807000D01*
X143425500Y-103759547D01*
X143425500Y-100490448D01*
X143436123Y-100440232D01*
X143466171Y-100398620D01*
X143510495Y-100372742D01*
X143519334Y-100369814D01*
X143668656Y-100277712D01*
X143792712Y-100153656D01*
X143884814Y-100004334D01*
X143939999Y-99837797D01*
X143950500Y-99735009D01*
X143950499Y-98384992D01*
X143939999Y-98282203D01*
X143884814Y-98115666D01*
X143826115Y-98020500D01*
X143792711Y-97966342D01*
X143668657Y-97842288D01*
X143519334Y-97750186D01*
X143352797Y-97695000D01*
X143250009Y-97684500D01*
X142349991Y-97684500D01*
X142247203Y-97695000D01*
X142080665Y-97750186D01*
X141931342Y-97842288D01*
X141807288Y-97966342D01*
X141715186Y-98115665D01*
X141660000Y-98282202D01*
X141649500Y-98384990D01*
X141649500Y-99735008D01*
X141660000Y-99837796D01*
X141715186Y-100004334D01*
X141807288Y-100153657D01*
X141931342Y-100277711D01*
X141931344Y-100277712D01*
X142080666Y-100369814D01*
X142089504Y-100372742D01*
X142133829Y-100398620D01*
X142163877Y-100440232D01*
X142174500Y-100490448D01*
X142174500Y-103987256D01*
X142172235Y-104007762D01*
X142174439Y-104077873D01*
X142174500Y-104081768D01*
X142174500Y-104109349D01*
X142175003Y-104113334D01*
X142175918Y-104124967D01*
X142177290Y-104168626D01*
X142182879Y-104187860D01*
X142186825Y-104206916D01*
X142189335Y-104226792D01*
X142205414Y-104267404D01*
X142209197Y-104278451D01*
X142221382Y-104320391D01*
X142231580Y-104337635D01*
X142240136Y-104355100D01*
X142247514Y-104373732D01*
X142248731Y-104375407D01*
X142273180Y-104409059D01*
X142279593Y-104418822D01*
X142301826Y-104456416D01*
X142301829Y-104456419D01*
X142301830Y-104456420D01*
X142315995Y-104470585D01*
X142328627Y-104485375D01*
X142340406Y-104501587D01*
X142374058Y-104529426D01*
X142382699Y-104537289D01*
X144069762Y-106224352D01*
X144101856Y-106279939D01*
X144101856Y-106344126D01*
X144074936Y-106444593D01*
X144054340Y-106680000D01*
X144074936Y-106915407D01*
X144106593Y-107033553D01*
X144136097Y-107143663D01*
X144235965Y-107357830D01*
X144371505Y-107551401D01*
X144538599Y-107718495D01*
X144732170Y-107854035D01*
X144946337Y-107953903D01*
X145174592Y-108015063D01*
X145410000Y-108035659D01*
X145645408Y-108015063D01*
X145873663Y-107953903D01*
X146087830Y-107854035D01*
X146172248Y-107794925D01*
X147188625Y-107794925D01*
X147272420Y-107853599D01*
X147486507Y-107953430D01*
X147714681Y-108014569D01*
X147950000Y-108035157D01*
X148185318Y-108014569D01*
X148413492Y-107953430D01*
X148627576Y-107853600D01*
X148711373Y-107794925D01*
X147950000Y-107033553D01*
X147188625Y-107794925D01*
X146172248Y-107794925D01*
X146281401Y-107718495D01*
X146448495Y-107551401D01*
X146578732Y-107365402D01*
X146623048Y-107326539D01*
X146680305Y-107312528D01*
X146737562Y-107326539D01*
X146781880Y-107365405D01*
X146835073Y-107441373D01*
X147596447Y-106680001D01*
X148303553Y-106680001D01*
X149064925Y-107441373D01*
X149123600Y-107357576D01*
X149223430Y-107143492D01*
X149284569Y-106915318D01*
X149305157Y-106680000D01*
X149284569Y-106444681D01*
X149223430Y-106216507D01*
X149123599Y-106002421D01*
X149064926Y-105918626D01*
X149064925Y-105918625D01*
X148303553Y-106680000D01*
X148303553Y-106680001D01*
X147596447Y-106680001D01*
X147596447Y-106680000D01*
X146835073Y-105918626D01*
X146781881Y-105994594D01*
X146737563Y-106033460D01*
X146680306Y-106047471D01*
X146623048Y-106033460D01*
X146578730Y-105994595D01*
X146448495Y-105808599D01*
X146321536Y-105681640D01*
X146289442Y-105626053D01*
X146289442Y-105561865D01*
X146321536Y-105506278D01*
X146377124Y-105474184D01*
X146433779Y-105474184D01*
X146433785Y-105474118D01*
X146434539Y-105474184D01*
X146441311Y-105474184D01*
X146444592Y-105475063D01*
X146680000Y-105495659D01*
X146915408Y-105475063D01*
X147032192Y-105443770D01*
X147091123Y-105442485D01*
X147143990Y-105468556D01*
X147178846Y-105516092D01*
X147185977Y-105562424D01*
X147950000Y-106326447D01*
X147950001Y-106326447D01*
X148713869Y-105562577D01*
X148721106Y-105515562D01*
X148755962Y-105468025D01*
X148808829Y-105441954D01*
X148867762Y-105443240D01*
X148984683Y-105474569D01*
X149220000Y-105495157D01*
X149455318Y-105474569D01*
X149683492Y-105413430D01*
X149897576Y-105313600D01*
X149981373Y-105254925D01*
X149220000Y-104493553D01*
X148456129Y-105257422D01*
X148448893Y-105304436D01*
X148414038Y-105351972D01*
X148361171Y-105378044D01*
X148302239Y-105376758D01*
X148185320Y-105345430D01*
X147950000Y-105324842D01*
X147714675Y-105345430D01*
X147710598Y-105346523D01*
X147646412Y-105346521D01*
X147590826Y-105314426D01*
X147558735Y-105258838D01*
X147558736Y-105194652D01*
X147590826Y-105139069D01*
X147718495Y-105011401D01*
X147848732Y-104825402D01*
X147893048Y-104786539D01*
X147950305Y-104772528D01*
X148007562Y-104786539D01*
X148051880Y-104825405D01*
X148105073Y-104901373D01*
X148866447Y-104140001D01*
X148866447Y-104140000D01*
X149573553Y-104140000D01*
X150334925Y-104901373D01*
X150393600Y-104817576D01*
X150493430Y-104603492D01*
X150554569Y-104375318D01*
X150575157Y-104139999D01*
X150554569Y-103904681D01*
X150493430Y-103676507D01*
X150393599Y-103462421D01*
X150334926Y-103378626D01*
X150334925Y-103378625D01*
X149573553Y-104140000D01*
X148866447Y-104140000D01*
X148105073Y-103378626D01*
X148051881Y-103454594D01*
X148007563Y-103493460D01*
X147950306Y-103507471D01*
X147893048Y-103493460D01*
X147848730Y-103454595D01*
X147718495Y-103268599D01*
X147551401Y-103101505D01*
X147442243Y-103025072D01*
X148458625Y-103025072D01*
X149220000Y-103786447D01*
X149220001Y-103786447D01*
X149981373Y-103025073D01*
X149981373Y-103025072D01*
X149897580Y-102966400D01*
X149683492Y-102866569D01*
X149455318Y-102805430D01*
X149220000Y-102784842D01*
X148984681Y-102805430D01*
X148756507Y-102866569D01*
X148542422Y-102966399D01*
X148458625Y-103025072D01*
X147442243Y-103025072D01*
X147358374Y-102966346D01*
X147319511Y-102922030D01*
X147305500Y-102864773D01*
X147305500Y-95154500D01*
X147322113Y-95092500D01*
X147367500Y-95047113D01*
X147429499Y-95030500D01*
X147670008Y-95030499D01*
X147670008Y-95030498D01*
X147772797Y-95019999D01*
X147939334Y-94964814D01*
X148088656Y-94872712D01*
X148212712Y-94748656D01*
X148264678Y-94664404D01*
X148309786Y-94621223D01*
X148370218Y-94605500D01*
X150900501Y-94605500D01*
X150962501Y-94622113D01*
X151007888Y-94667500D01*
X151024501Y-94729500D01*
X151024501Y-94990009D01*
X151035000Y-95092796D01*
X151090186Y-95259334D01*
X151182288Y-95408657D01*
X151306342Y-95532711D01*
X151306344Y-95532712D01*
X151455666Y-95624814D01*
X151567017Y-95661712D01*
X151622202Y-95679999D01*
X151632702Y-95681071D01*
X151724991Y-95690500D01*
X153075008Y-95690499D01*
X153177797Y-95679999D01*
X153344334Y-95624814D01*
X153493656Y-95532712D01*
X153617712Y-95408656D01*
X153709814Y-95259334D01*
X153764999Y-95092797D01*
X153775500Y-94990009D01*
X153775499Y-94089992D01*
X153764999Y-93987203D01*
X153709814Y-93820666D01*
X153617712Y-93671344D01*
X153617711Y-93671342D01*
X153493657Y-93547288D01*
X153344334Y-93455186D01*
X153177797Y-93400000D01*
X153075009Y-93389500D01*
X152076094Y-93389500D01*
X152026850Y-93379302D01*
X152015896Y-93374562D01*
X151972759Y-93367729D01*
X151961324Y-93365361D01*
X151919019Y-93354500D01*
X151898984Y-93354500D01*
X151879586Y-93352973D01*
X151865689Y-93350772D01*
X151859805Y-93349840D01*
X151859804Y-93349840D01*
X151833738Y-93352304D01*
X151816325Y-93353950D01*
X151804656Y-93354500D01*
X148370218Y-93354500D01*
X148309786Y-93338777D01*
X148264679Y-93295596D01*
X148212711Y-93211342D01*
X148088657Y-93087288D01*
X147939334Y-92995186D01*
X147772797Y-92940000D01*
X147679535Y-92930473D01*
X147670008Y-92929500D01*
X146969991Y-92929500D01*
X146867203Y-92940000D01*
X146700665Y-92995186D01*
X146551342Y-93087288D01*
X146427288Y-93211342D01*
X146375321Y-93295596D01*
X146330214Y-93338777D01*
X146269782Y-93354500D01*
X143507535Y-93354500D01*
X143449214Y-93339929D01*
X143404600Y-93299640D01*
X143384177Y-93243101D01*
X143379999Y-93202203D01*
X143370541Y-93173662D01*
X143324814Y-93035666D01*
X143232712Y-92886344D01*
X143232711Y-92886342D01*
X143108657Y-92762288D01*
X142959334Y-92670186D01*
X142792797Y-92615000D01*
X142690009Y-92604500D01*
X141789991Y-92604500D01*
X141687203Y-92615000D01*
X141520665Y-92670186D01*
X141371342Y-92762288D01*
X141247288Y-92886342D01*
X141155186Y-93035665D01*
X141100000Y-93202202D01*
X141089500Y-93304990D01*
X141089500Y-94655008D01*
X140290500Y-94655008D01*
X140290499Y-93304992D01*
X140279999Y-93202203D01*
X140224814Y-93035666D01*
X140132712Y-92886344D01*
X140132711Y-92886342D01*
X140008657Y-92762288D01*
X139859334Y-92670186D01*
X139712996Y-92621694D01*
X139668671Y-92595815D01*
X139638623Y-92554203D01*
X139628000Y-92503988D01*
X139628000Y-87784499D01*
X139644613Y-87722499D01*
X139690000Y-87677112D01*
X139752000Y-87660499D01*
X140127509Y-87660499D01*
X140178902Y-87655248D01*
X140230297Y-87649999D01*
X140396834Y-87594814D01*
X140546156Y-87502712D01*
X140589818Y-87459050D01*
X140645406Y-87426955D01*
X140709594Y-87426955D01*
X140765182Y-87459050D01*
X140808842Y-87502711D01*
X140808844Y-87502712D01*
X140958166Y-87594814D01*
X141035591Y-87620470D01*
X141124702Y-87649999D01*
X141227491Y-87660500D01*
X141603000Y-87660500D01*
X141665000Y-87677113D01*
X141710387Y-87722500D01*
X141727000Y-87784500D01*
X141727000Y-88929756D01*
X141724735Y-88950262D01*
X141726939Y-89020373D01*
X141727000Y-89024268D01*
X141727000Y-89051849D01*
X141727503Y-89055834D01*
X141728418Y-89067467D01*
X141729790Y-89111126D01*
X141735379Y-89130360D01*
X141739325Y-89149416D01*
X141741835Y-89169292D01*
X141757914Y-89209904D01*
X141761697Y-89220951D01*
X141773882Y-89262891D01*
X141784080Y-89280135D01*
X141792636Y-89297600D01*
X141800014Y-89316232D01*
X141800015Y-89316233D01*
X141825680Y-89351559D01*
X141832093Y-89361322D01*
X141854326Y-89398916D01*
X141854329Y-89398919D01*
X141854330Y-89398920D01*
X141868495Y-89413085D01*
X141881127Y-89427875D01*
X141892906Y-89444087D01*
X141926558Y-89471926D01*
X141935199Y-89479789D01*
X144279196Y-91823787D01*
X144292096Y-91839888D01*
X144343223Y-91887900D01*
X144346019Y-91890610D01*
X144365529Y-91910120D01*
X144368711Y-91912588D01*
X144377571Y-91920155D01*
X144409417Y-91950061D01*
X144409418Y-91950062D01*
X144426970Y-91959711D01*
X144443238Y-91970397D01*
X144459064Y-91982673D01*
X144499146Y-92000017D01*
X144509633Y-92005155D01*
X144547907Y-92026197D01*
X144556410Y-92028379D01*
X144567308Y-92031178D01*
X144585713Y-92037478D01*
X144604104Y-92045437D01*
X144647250Y-92052270D01*
X144658668Y-92054635D01*
X144700981Y-92065500D01*
X144721016Y-92065500D01*
X144740415Y-92067027D01*
X144760196Y-92070160D01*
X144803674Y-92066050D01*
X144815344Y-92065500D01*
X146504485Y-92065500D01*
X146569581Y-92083961D01*
X146605590Y-92106171D01*
X146700666Y-92164814D01*
X146812016Y-92201712D01*
X146867202Y-92219999D01*
X146876729Y-92220972D01*
X146969991Y-92230500D01*
X147670008Y-92230499D01*
X147772797Y-92219999D01*
X147939334Y-92164814D01*
X148034410Y-92106171D01*
X148070419Y-92083961D01*
X148135515Y-92065500D01*
X150969552Y-92065500D01*
X151019768Y-92076123D01*
X151061380Y-92106171D01*
X151087258Y-92150497D01*
X151090186Y-92159334D01*
X151182288Y-92308657D01*
X151306342Y-92432711D01*
X151306344Y-92432712D01*
X151455666Y-92524814D01*
X151544356Y-92554203D01*
X151622202Y-92579999D01*
X151632703Y-92581071D01*
X151724991Y-92590500D01*
X153075008Y-92590499D01*
X153177797Y-92579999D01*
X153344334Y-92524814D01*
X153493656Y-92432712D01*
X153617712Y-92308656D01*
X153709814Y-92159334D01*
X153764999Y-91992797D01*
X153775500Y-91890009D01*
X153775499Y-90989992D01*
X153764999Y-90887203D01*
X153709814Y-90720666D01*
X153617712Y-90571344D01*
X153617711Y-90571342D01*
X153493657Y-90447288D01*
X153344334Y-90355186D01*
X153177797Y-90300000D01*
X153075009Y-90289500D01*
X151724991Y-90289500D01*
X151622203Y-90300000D01*
X151455665Y-90355186D01*
X151306342Y-90447288D01*
X151182288Y-90571342D01*
X151090186Y-90720665D01*
X151087258Y-90729503D01*
X151061380Y-90773829D01*
X151019768Y-90803877D01*
X150969552Y-90814500D01*
X148478467Y-90814500D01*
X148428252Y-90803877D01*
X148386640Y-90773829D01*
X148360761Y-90729504D01*
X148359999Y-90727203D01*
X148304814Y-90560666D01*
X148212712Y-90411344D01*
X148212711Y-90411342D01*
X148088657Y-90287288D01*
X147939334Y-90195186D01*
X147772797Y-90140000D01*
X147679535Y-90130473D01*
X147670008Y-90129500D01*
X146969991Y-90129500D01*
X146867203Y-90140000D01*
X146700665Y-90195186D01*
X146551342Y-90287288D01*
X146427288Y-90411342D01*
X146335186Y-90560665D01*
X146312261Y-90629848D01*
X146282168Y-90720666D01*
X146279239Y-90729504D01*
X146253360Y-90773829D01*
X146211748Y-90803877D01*
X146161533Y-90814500D01*
X145090453Y-90814500D01*
X145043000Y-90805061D01*
X145002772Y-90778181D01*
X143014319Y-88789728D01*
X142987439Y-88749500D01*
X142978000Y-88702047D01*
X142978000Y-87784499D01*
X142994613Y-87722499D01*
X143040000Y-87677112D01*
X143102000Y-87660499D01*
X143477509Y-87660499D01*
X143528902Y-87655248D01*
X143580297Y-87649999D01*
X143746834Y-87594814D01*
X143896156Y-87502712D01*
X144020212Y-87378656D01*
X144112314Y-87229334D01*
X144167499Y-87062797D01*
X144178000Y-86960009D01*
X144177999Y-85759992D01*
X144167499Y-85657203D01*
X144112314Y-85490666D01*
X144020212Y-85341344D01*
X144020211Y-85341342D01*
X143896157Y-85217288D01*
X143746834Y-85125186D01*
X143580297Y-85070000D01*
X143477509Y-85059500D01*
X142989500Y-85059500D01*
X142927500Y-85042887D01*
X142882113Y-84997500D01*
X142865500Y-84935500D01*
X142865500Y-79438687D01*
X142873736Y-79394249D01*
X142897347Y-79355717D01*
X142972533Y-79272216D01*
X142997553Y-79228881D01*
X143067179Y-79108284D01*
X143078588Y-79073172D01*
X143125674Y-78928256D01*
X143145460Y-78740000D01*
X143125674Y-78551744D01*
X143067179Y-78371716D01*
X143067179Y-78371715D01*
X142972533Y-78207783D01*
X142845870Y-78067110D01*
X142692730Y-77955848D01*
X142519802Y-77878855D01*
X142334648Y-77839500D01*
X142334646Y-77839500D01*
X142145354Y-77839500D01*
X142145352Y-77839500D01*
X141960197Y-77878855D01*
X141787269Y-77955848D01*
X141634129Y-78067110D01*
X141507466Y-78207783D01*
X141412820Y-78371715D01*
X141354326Y-78551742D01*
X141334540Y-78740000D01*
X141354326Y-78928257D01*
X141412820Y-79108284D01*
X141507464Y-79272213D01*
X141507467Y-79272216D01*
X141582652Y-79355717D01*
X141606264Y-79394249D01*
X141614500Y-79438687D01*
X141614500Y-84935501D01*
X141597887Y-84997501D01*
X141552500Y-85042888D01*
X141490500Y-85059501D01*
X141227491Y-85059501D01*
X141124703Y-85070000D01*
X140958165Y-85125186D01*
X140808842Y-85217288D01*
X140765181Y-85260950D01*
X140709594Y-85293044D01*
X140645406Y-85293044D01*
X140589819Y-85260950D01*
X140546157Y-85217288D01*
X140396834Y-85125186D01*
X140230297Y-85070000D01*
X140127509Y-85059500D01*
X137877491Y-85059500D01*
X137774703Y-85070000D01*
X137608165Y-85125186D01*
X137458842Y-85217288D01*
X137334788Y-85341342D01*
X137242686Y-85490665D01*
X137190052Y-85649504D01*
X137164173Y-85693829D01*
X137122561Y-85723877D01*
X137072346Y-85734500D01*
X127749500Y-85734500D01*
X127687500Y-85717887D01*
X127642113Y-85672500D01*
X127625500Y-85610500D01*
X127625500Y-71370000D01*
X130332501Y-71370000D01*
X130332501Y-71819979D01*
X130342993Y-71922695D01*
X130398142Y-72089122D01*
X130490183Y-72238345D01*
X130614154Y-72362316D01*
X130763377Y-72454357D01*
X130929803Y-72509506D01*
X131032521Y-72520000D01*
X131245000Y-72520000D01*
X131245000Y-71370000D01*
X131745000Y-71370000D01*
X131745000Y-72519999D01*
X131957479Y-72519999D01*
X132060195Y-72509506D01*
X132226622Y-72454357D01*
X132375845Y-72362316D01*
X132499816Y-72238345D01*
X132591857Y-72089122D01*
X132647006Y-71922696D01*
X132657497Y-71820008D01*
X133457000Y-71820008D01*
X133467500Y-71922796D01*
X133522686Y-72089334D01*
X133614788Y-72238657D01*
X133738842Y-72362711D01*
X133778745Y-72387323D01*
X133888166Y-72454814D01*
X133999516Y-72491712D01*
X134054702Y-72509999D01*
X134065202Y-72511071D01*
X134157491Y-72520500D01*
X135082508Y-72520499D01*
X135185297Y-72509999D01*
X135351834Y-72454814D01*
X135501156Y-72362712D01*
X135625212Y-72238656D01*
X135717314Y-72089334D01*
X135772499Y-71922797D01*
X135783000Y-71820009D01*
X135783000Y-71689500D01*
X135799613Y-71627500D01*
X135845000Y-71582113D01*
X135907000Y-71565500D01*
X138546851Y-71565500D01*
X138604108Y-71579511D01*
X138648423Y-71618375D01*
X138738402Y-71746877D01*
X138893123Y-71901598D01*
X139072361Y-72027102D01*
X139270670Y-72119575D01*
X139482023Y-72176207D01*
X139700000Y-72195277D01*
X139917977Y-72176207D01*
X140129330Y-72119575D01*
X140327639Y-72027102D01*
X140506877Y-71901598D01*
X140661598Y-71746877D01*
X140751576Y-71618375D01*
X140795892Y-71579511D01*
X140853149Y-71565500D01*
X151135729Y-71565500D01*
X151202354Y-71584920D01*
X151248111Y-71637096D01*
X151302465Y-71753661D01*
X151406049Y-71901594D01*
X151429174Y-71934620D01*
X151585380Y-72090826D01*
X151766338Y-72217534D01*
X151811637Y-72238657D01*
X151895189Y-72277618D01*
X151947365Y-72323375D01*
X151966784Y-72390000D01*
X151947365Y-72456625D01*
X151895189Y-72502382D01*
X151766338Y-72562466D01*
X151585379Y-72689174D01*
X151429174Y-72845379D01*
X151333776Y-72981623D01*
X151289458Y-73020489D01*
X151232201Y-73034500D01*
X148765150Y-73034500D01*
X148718488Y-73025385D01*
X148678685Y-72999381D01*
X148651594Y-72960310D01*
X148644174Y-72943395D01*
X148644173Y-72943393D01*
X148508164Y-72735215D01*
X148339744Y-72552262D01*
X148284811Y-72509506D01*
X148143514Y-72399529D01*
X148143510Y-72399526D01*
X148143509Y-72399526D01*
X147924810Y-72281172D01*
X147924806Y-72281170D01*
X147924805Y-72281170D01*
X147689615Y-72200429D01*
X147444335Y-72159500D01*
X147195665Y-72159500D01*
X146950384Y-72200429D01*
X146715194Y-72281170D01*
X146496485Y-72399529D01*
X146300259Y-72552259D01*
X146131837Y-72735214D01*
X145995825Y-72943395D01*
X145905780Y-73148678D01*
X145895937Y-73171119D01*
X145881900Y-73226550D01*
X145834891Y-73412183D01*
X145814356Y-73659999D01*
X145834891Y-73907816D01*
X145834891Y-73907819D01*
X145834892Y-73907821D01*
X145895937Y-74148881D01*
X145940960Y-74251523D01*
X145995825Y-74376604D01*
X145995827Y-74376607D01*
X146131836Y-74584785D01*
X146300256Y-74767738D01*
X146300259Y-74767740D01*
X146496485Y-74920470D01*
X146496487Y-74920471D01*
X146496491Y-74920474D01*
X146715190Y-75038828D01*
X146950386Y-75119571D01*
X147195665Y-75160500D01*
X147444335Y-75160500D01*
X147689614Y-75119571D01*
X147924810Y-75038828D01*
X148143509Y-74920474D01*
X148339744Y-74767738D01*
X148508164Y-74584785D01*
X148644173Y-74376607D01*
X148646851Y-74370500D01*
X148651594Y-74359690D01*
X148678685Y-74320619D01*
X148718488Y-74294615D01*
X148765150Y-74285500D01*
X151232201Y-74285500D01*
X151289458Y-74299511D01*
X151333775Y-74338376D01*
X151429174Y-74474620D01*
X151585380Y-74630826D01*
X151766338Y-74757534D01*
X151885748Y-74813215D01*
X151895189Y-74817618D01*
X151947365Y-74863375D01*
X151966784Y-74930000D01*
X151947365Y-74996625D01*
X151895189Y-75042382D01*
X151766338Y-75102466D01*
X151585379Y-75229174D01*
X151429174Y-75385379D01*
X151333776Y-75521623D01*
X151289458Y-75560489D01*
X151232201Y-75574500D01*
X149942740Y-75574500D01*
X149922236Y-75572236D01*
X149852144Y-75574439D01*
X149848250Y-75574500D01*
X149820648Y-75574500D01*
X149816653Y-75575004D01*
X149805029Y-75575918D01*
X149761368Y-75577290D01*
X149742129Y-75582880D01*
X149723080Y-75586825D01*
X149703208Y-75589335D01*
X149662593Y-75605415D01*
X149651549Y-75609196D01*
X149609611Y-75621382D01*
X149592364Y-75631581D01*
X149574900Y-75640136D01*
X149556267Y-75647514D01*
X149520926Y-75673189D01*
X149511168Y-75679599D01*
X149473579Y-75701829D01*
X149459410Y-75715998D01*
X149444622Y-75728628D01*
X149428413Y-75740405D01*
X149400572Y-75774058D01*
X149392711Y-75782696D01*
X147897228Y-77278179D01*
X147837497Y-77311307D01*
X147769285Y-77307779D01*
X147689617Y-77280429D01*
X147444335Y-77239500D01*
X147195665Y-77239500D01*
X146950384Y-77280429D01*
X146715194Y-77361170D01*
X146496485Y-77479529D01*
X146300259Y-77632259D01*
X146300256Y-77632261D01*
X146300256Y-77632262D01*
X146174220Y-77769174D01*
X146131837Y-77815214D01*
X145995825Y-78023395D01*
X145911477Y-78215691D01*
X145895937Y-78251119D01*
X145873074Y-78341404D01*
X145834891Y-78492183D01*
X145814356Y-78739999D01*
X145834891Y-78987816D01*
X145834891Y-78987819D01*
X145834892Y-78987821D01*
X145895937Y-79228881D01*
X145914946Y-79272216D01*
X145995825Y-79456604D01*
X145995827Y-79456607D01*
X146131836Y-79664785D01*
X146300256Y-79847738D01*
X146300259Y-79847740D01*
X146496485Y-80000470D01*
X146496487Y-80000471D01*
X146496491Y-80000474D01*
X146715190Y-80118828D01*
X146950386Y-80199571D01*
X147195665Y-80240500D01*
X147444335Y-80240500D01*
X147689614Y-80199571D01*
X147924810Y-80118828D01*
X148143509Y-80000474D01*
X148339744Y-79847738D01*
X148508164Y-79664785D01*
X148644173Y-79456607D01*
X148744063Y-79228881D01*
X148805108Y-78987821D01*
X148825643Y-78740000D01*
X148817691Y-78644035D01*
X148805109Y-78492184D01*
X148774602Y-78371716D01*
X148751135Y-78279045D01*
X148751790Y-78215691D01*
X148783658Y-78160930D01*
X150082771Y-76861819D01*
X150123000Y-76834939D01*
X150170453Y-76825500D01*
X151232201Y-76825500D01*
X151289458Y-76839511D01*
X151333775Y-76878376D01*
X151429174Y-77014620D01*
X151585380Y-77170826D01*
X151766338Y-77297534D01*
X151842209Y-77332913D01*
X151895189Y-77357618D01*
X151947365Y-77403375D01*
X151966784Y-77470000D01*
X151947365Y-77536625D01*
X151895189Y-77582382D01*
X151766338Y-77642466D01*
X151585379Y-77769174D01*
X151429174Y-77925379D01*
X151302466Y-78106338D01*
X151209106Y-78306548D01*
X151151929Y-78519934D01*
X151132676Y-78739999D01*
X151151929Y-78960064D01*
X151151929Y-78960067D01*
X151151930Y-78960068D01*
X151163433Y-79003000D01*
X151163707Y-79004020D01*
X151163707Y-79068208D01*
X151131613Y-79123795D01*
X147897228Y-82358179D01*
X147837497Y-82391307D01*
X147769285Y-82387779D01*
X147689617Y-82360429D01*
X147444335Y-82319500D01*
X147195665Y-82319500D01*
X146950384Y-82360429D01*
X146715194Y-82441170D01*
X146715190Y-82441171D01*
X146715190Y-82441172D01*
X146627710Y-82488513D01*
X146496485Y-82559529D01*
X146300259Y-82712259D01*
X146131837Y-82895214D01*
X145995825Y-83103395D01*
X145895938Y-83331117D01*
X145834891Y-83572183D01*
X145814356Y-83820000D01*
X145834891Y-84067816D01*
X145834891Y-84067819D01*
X145834892Y-84067821D01*
X145895937Y-84308881D01*
X145940960Y-84411523D01*
X145995825Y-84536604D01*
X145995827Y-84536607D01*
X146131836Y-84744785D01*
X146300256Y-84927738D01*
X146300259Y-84927740D01*
X146496485Y-85080470D01*
X146496487Y-85080471D01*
X146496491Y-85080474D01*
X146715190Y-85198828D01*
X146950386Y-85279571D01*
X147195665Y-85320500D01*
X147444335Y-85320500D01*
X147689614Y-85279571D01*
X147924810Y-85198828D01*
X148143509Y-85080474D01*
X148339744Y-84927738D01*
X148508164Y-84744785D01*
X148644173Y-84536607D01*
X148744063Y-84308881D01*
X148805108Y-84067821D01*
X148825643Y-83820000D01*
X148817201Y-83718119D01*
X148805109Y-83572184D01*
X148791675Y-83519134D01*
X148751135Y-83359045D01*
X148751790Y-83295691D01*
X148783658Y-83240930D01*
X150928985Y-81095604D01*
X150980410Y-81064705D01*
X151040324Y-81061565D01*
X151094700Y-81086921D01*
X151130806Y-81134836D01*
X151140192Y-81194094D01*
X151132676Y-81279999D01*
X151151929Y-81500065D01*
X151209106Y-81713451D01*
X151300118Y-81908626D01*
X151302466Y-81913662D01*
X151429174Y-82094620D01*
X151585380Y-82250826D01*
X151721623Y-82346224D01*
X151760489Y-82390542D01*
X151774500Y-82447799D01*
X151774500Y-84918481D01*
X151757023Y-84981955D01*
X151709519Y-85027534D01*
X151618401Y-85076845D01*
X151576485Y-85099529D01*
X151380259Y-85252259D01*
X151380256Y-85252261D01*
X151380256Y-85252262D01*
X151211836Y-85435215D01*
X151200721Y-85452228D01*
X151075825Y-85643395D01*
X150985780Y-85848678D01*
X150975937Y-85871119D01*
X150953074Y-85961404D01*
X150914891Y-86112183D01*
X150894356Y-86360000D01*
X150914891Y-86607816D01*
X150914891Y-86607819D01*
X150914892Y-86607821D01*
X150975937Y-86848881D01*
X150992709Y-86887117D01*
X151075825Y-87076604D01*
X151075827Y-87076607D01*
X151211836Y-87284785D01*
X151380256Y-87467738D01*
X151380259Y-87467740D01*
X151576485Y-87620470D01*
X151576487Y-87620471D01*
X151576491Y-87620474D01*
X151795190Y-87738828D01*
X152030386Y-87819571D01*
X152275665Y-87860500D01*
X152524335Y-87860500D01*
X152769614Y-87819571D01*
X153004810Y-87738828D01*
X153223509Y-87620474D01*
X153419744Y-87467738D01*
X153588164Y-87284785D01*
X153724173Y-87076607D01*
X153824063Y-86848881D01*
X153885108Y-86607821D01*
X153905643Y-86360000D01*
X153885108Y-86112179D01*
X153824063Y-85871119D01*
X153724173Y-85643393D01*
X153588164Y-85435215D01*
X153419744Y-85252262D01*
X153397612Y-85235036D01*
X153223514Y-85099529D01*
X153223510Y-85099526D01*
X153223509Y-85099526D01*
X153090480Y-85027534D01*
X153042977Y-84981955D01*
X153025500Y-84918481D01*
X153025500Y-82447799D01*
X153039511Y-82390542D01*
X153078377Y-82346224D01*
X153214620Y-82250826D01*
X153370826Y-82094620D01*
X153497534Y-81913662D01*
X153590894Y-81713450D01*
X153648070Y-81500068D01*
X153667323Y-81280000D01*
X153648070Y-81059932D01*
X153590894Y-80846550D01*
X153497534Y-80646339D01*
X153370826Y-80465380D01*
X153214620Y-80309174D01*
X153033662Y-80182466D01*
X152904811Y-80122382D01*
X152852635Y-80076625D01*
X152833216Y-80010000D01*
X152852635Y-79943375D01*
X152904811Y-79897618D01*
X152910027Y-79895185D01*
X153033662Y-79837534D01*
X153214620Y-79710826D01*
X153370826Y-79554620D01*
X153497534Y-79373662D01*
X153590894Y-79173450D01*
X153648070Y-78960068D01*
X153667323Y-78740000D01*
X153648070Y-78519932D01*
X153590894Y-78306550D01*
X153497534Y-78106339D01*
X153370826Y-77925380D01*
X153214620Y-77769174D01*
X153033662Y-77642466D01*
X152904811Y-77582381D01*
X152852635Y-77536624D01*
X152833216Y-77469998D01*
X152852636Y-77403373D01*
X152904810Y-77357618D01*
X153033662Y-77297534D01*
X153214620Y-77170826D01*
X153370826Y-77014620D01*
X153497534Y-76833662D01*
X153590894Y-76633450D01*
X153648070Y-76420068D01*
X153667323Y-76200000D01*
X153666293Y-76188232D01*
X153656192Y-76072766D01*
X153648070Y-75979932D01*
X153590894Y-75766550D01*
X153497534Y-75566339D01*
X153370826Y-75385380D01*
X153214620Y-75229174D01*
X153033662Y-75102466D01*
X152904811Y-75042382D01*
X152852635Y-74996625D01*
X152833216Y-74930000D01*
X152852635Y-74863375D01*
X152904811Y-74817618D01*
X152910027Y-74815185D01*
X153033662Y-74757534D01*
X153214620Y-74630826D01*
X153370826Y-74474620D01*
X153497534Y-74293662D01*
X153590894Y-74093450D01*
X153648070Y-73880068D01*
X153667323Y-73660000D01*
X153648070Y-73439932D01*
X153590894Y-73226550D01*
X153497534Y-73026339D01*
X153370826Y-72845380D01*
X153214620Y-72689174D01*
X153033662Y-72562466D01*
X152921146Y-72509999D01*
X152904811Y-72502382D01*
X152852635Y-72456625D01*
X152833216Y-72390000D01*
X152852635Y-72323375D01*
X152904811Y-72277618D01*
X152910027Y-72275185D01*
X153033662Y-72217534D01*
X153214620Y-72090826D01*
X153370826Y-71934620D01*
X153497534Y-71753662D01*
X153590894Y-71553450D01*
X153648070Y-71340068D01*
X153667323Y-71120000D01*
X153648070Y-70899932D01*
X153590894Y-70686550D01*
X153497534Y-70486339D01*
X153370826Y-70305380D01*
X153214620Y-70149174D01*
X153033662Y-70022466D01*
X152988361Y-70001342D01*
X152904811Y-69962382D01*
X152852635Y-69916625D01*
X152833216Y-69850000D01*
X152852635Y-69783375D01*
X152904811Y-69737618D01*
X152910027Y-69735185D01*
X153033662Y-69677534D01*
X153214620Y-69550826D01*
X153370826Y-69394620D01*
X153497534Y-69213662D01*
X153590894Y-69013450D01*
X153648070Y-68800068D01*
X153667323Y-68580000D01*
X153648070Y-68359932D01*
X153590894Y-68146550D01*
X153497534Y-67946339D01*
X153370826Y-67765380D01*
X153214620Y-67609174D01*
X153033662Y-67482466D01*
X153025500Y-67478660D01*
X152904218Y-67422105D01*
X152852042Y-67376348D01*
X152832623Y-67309722D01*
X152852043Y-67243097D01*
X152904220Y-67197340D01*
X153033411Y-67137098D01*
X153098187Y-67091740D01*
X152400001Y-66393553D01*
X152400000Y-66393553D01*
X151701812Y-67091740D01*
X151766592Y-67137100D01*
X151895780Y-67197341D01*
X151947956Y-67243097D01*
X151967376Y-67309722D01*
X151947957Y-67376347D01*
X151895782Y-67422105D01*
X151766336Y-67482467D01*
X151585379Y-67609174D01*
X151429174Y-67765379D01*
X151333776Y-67901623D01*
X151289458Y-67940489D01*
X151232201Y-67954500D01*
X142550453Y-67954500D01*
X142503000Y-67945061D01*
X142462772Y-67918181D01*
X140958588Y-66413997D01*
X140926494Y-66358408D01*
X140926494Y-66294221D01*
X140936207Y-66257977D01*
X140955277Y-66040000D01*
X140955277Y-66039999D01*
X151133178Y-66039999D01*
X151152424Y-66259978D01*
X151209579Y-66473281D01*
X151302898Y-66673406D01*
X151348258Y-66738187D01*
X152046446Y-66040001D01*
X152753553Y-66040001D01*
X153451740Y-66738186D01*
X153497100Y-66673408D01*
X153590420Y-66473281D01*
X153647575Y-66259978D01*
X153666821Y-66039999D01*
X153647575Y-65820021D01*
X153590421Y-65606720D01*
X153497098Y-65406589D01*
X153451740Y-65341811D01*
X152753553Y-66040000D01*
X152753553Y-66040001D01*
X152046446Y-66040001D01*
X152046446Y-66040000D01*
X151348258Y-65341811D01*
X151348258Y-65341812D01*
X151302900Y-65406589D01*
X151209578Y-65606719D01*
X151152424Y-65820021D01*
X151133178Y-66039999D01*
X140955277Y-66039999D01*
X140936207Y-65822023D01*
X140879575Y-65610670D01*
X140787102Y-65412362D01*
X140661598Y-65233123D01*
X140506877Y-65078402D01*
X140327639Y-64952898D01*
X140175823Y-64882105D01*
X140129331Y-64860425D01*
X139917974Y-64803792D01*
X139700000Y-64784722D01*
X139482025Y-64803792D01*
X139270668Y-64860425D01*
X139072361Y-64952898D01*
X138893122Y-65078402D01*
X138738402Y-65233122D01*
X138735474Y-65237304D01*
X138662298Y-65341812D01*
X138648426Y-65361623D01*
X138604108Y-65400489D01*
X138546851Y-65414500D01*
X135902589Y-65414500D01*
X135844268Y-65399929D01*
X135799654Y-65359640D01*
X135779231Y-65303102D01*
X135772499Y-65237203D01*
X135719877Y-65078402D01*
X135717314Y-65070666D01*
X135625212Y-64921344D01*
X135625211Y-64921342D01*
X135501157Y-64797288D01*
X135351834Y-64705186D01*
X135185297Y-64650000D01*
X135082509Y-64639500D01*
X134157491Y-64639500D01*
X134054703Y-64650000D01*
X133888165Y-64705186D01*
X133738842Y-64797288D01*
X133614788Y-64921342D01*
X133522686Y-65070665D01*
X133467500Y-65237202D01*
X133457000Y-65339990D01*
X133457000Y-66740008D01*
X133467500Y-66842796D01*
X133522686Y-67009334D01*
X133614788Y-67158657D01*
X133738842Y-67282711D01*
X133738844Y-67282712D01*
X133888166Y-67374814D01*
X133999517Y-67411712D01*
X134054702Y-67429999D01*
X134065202Y-67431071D01*
X134157491Y-67440500D01*
X135082508Y-67440499D01*
X135185297Y-67429999D01*
X135351834Y-67374814D01*
X135501156Y-67282712D01*
X135625212Y-67158656D01*
X135717314Y-67009334D01*
X135772499Y-66842797D01*
X135779231Y-66776898D01*
X135799654Y-66720360D01*
X135844268Y-66680071D01*
X135902589Y-66665500D01*
X138546851Y-66665500D01*
X138604108Y-66679511D01*
X138648423Y-66718375D01*
X138738402Y-66846877D01*
X138893123Y-67001598D01*
X139072361Y-67127102D01*
X139270670Y-67219575D01*
X139482023Y-67276207D01*
X139700000Y-67295277D01*
X139917977Y-67276207D01*
X139954221Y-67266494D01*
X140018409Y-67266494D01*
X140073997Y-67298587D01*
X140921957Y-68146548D01*
X141739196Y-68963787D01*
X141752096Y-68979888D01*
X141803223Y-69027900D01*
X141806020Y-69030611D01*
X141825529Y-69050120D01*
X141828711Y-69052588D01*
X141837571Y-69060155D01*
X141869417Y-69090061D01*
X141869418Y-69090062D01*
X141886970Y-69099711D01*
X141903238Y-69110397D01*
X141919064Y-69122673D01*
X141959146Y-69140017D01*
X141969633Y-69145155D01*
X142007907Y-69166197D01*
X142016410Y-69168379D01*
X142027308Y-69171178D01*
X142045713Y-69177478D01*
X142064104Y-69185437D01*
X142107250Y-69192270D01*
X142118668Y-69194635D01*
X142160981Y-69205500D01*
X142181016Y-69205500D01*
X142200415Y-69207027D01*
X142220196Y-69210160D01*
X142263674Y-69206050D01*
X142275344Y-69205500D01*
X151232201Y-69205500D01*
X151289458Y-69219511D01*
X151333775Y-69258376D01*
X151429174Y-69394620D01*
X151585380Y-69550826D01*
X151766338Y-69677534D01*
X151822649Y-69703792D01*
X151895189Y-69737618D01*
X151947365Y-69783375D01*
X151966784Y-69850000D01*
X151947365Y-69916625D01*
X151895189Y-69962382D01*
X151766338Y-70022466D01*
X151585379Y-70149174D01*
X151456373Y-70278181D01*
X151416145Y-70305061D01*
X151368692Y-70314500D01*
X140853149Y-70314500D01*
X140795892Y-70300489D01*
X140751574Y-70261623D01*
X140673881Y-70150666D01*
X140661598Y-70133123D01*
X140506877Y-69978402D01*
X140327639Y-69852898D01*
X140236205Y-69810261D01*
X140129331Y-69760425D01*
X139917974Y-69703792D01*
X139700000Y-69684722D01*
X139482025Y-69703792D01*
X139270668Y-69760425D01*
X139072361Y-69852898D01*
X138893122Y-69978402D01*
X138738402Y-70133122D01*
X138648426Y-70261623D01*
X138604108Y-70300489D01*
X138546851Y-70314500D01*
X135861144Y-70314500D01*
X135810929Y-70303877D01*
X135769317Y-70273829D01*
X135743438Y-70229504D01*
X135717314Y-70150666D01*
X135660093Y-70057895D01*
X135625211Y-70001342D01*
X135501157Y-69877288D01*
X135351834Y-69785186D01*
X135185297Y-69730000D01*
X135082509Y-69719500D01*
X134157491Y-69719500D01*
X134054703Y-69730000D01*
X133888165Y-69785186D01*
X133738842Y-69877288D01*
X133614788Y-70001342D01*
X133522686Y-70150665D01*
X133467500Y-70317202D01*
X133457000Y-70419990D01*
X133457000Y-71820008D01*
X132657497Y-71820008D01*
X132657500Y-71819979D01*
X132657500Y-71370000D01*
X131745000Y-71370000D01*
X131245000Y-71370000D01*
X130332501Y-71370000D01*
X127625500Y-71370000D01*
X127625500Y-70870000D01*
X130332500Y-70870000D01*
X131245000Y-70870000D01*
X131245000Y-69720001D01*
X131032521Y-69720001D01*
X130929804Y-69730493D01*
X130763377Y-69785642D01*
X130614154Y-69877683D01*
X130490183Y-70001654D01*
X130398142Y-70150877D01*
X130342993Y-70317303D01*
X130332500Y-70420021D01*
X130332500Y-70870000D01*
X127625500Y-70870000D01*
X127625500Y-69720000D01*
X131745000Y-69720000D01*
X131745000Y-70870000D01*
X132657499Y-70870000D01*
X132657499Y-70420021D01*
X132647006Y-70317304D01*
X132591857Y-70150877D01*
X132499816Y-70001654D01*
X132375845Y-69877683D01*
X132226622Y-69785642D01*
X132060196Y-69730493D01*
X131957479Y-69720000D01*
X131745000Y-69720000D01*
X127625500Y-69720000D01*
X127625500Y-66290000D01*
X130332501Y-66290000D01*
X130332501Y-66739979D01*
X130342993Y-66842695D01*
X130398142Y-67009122D01*
X130490183Y-67158345D01*
X130614154Y-67282316D01*
X130763377Y-67374357D01*
X130929803Y-67429506D01*
X131032521Y-67440000D01*
X131245000Y-67440000D01*
X131245000Y-66290000D01*
X131745000Y-66290000D01*
X131745000Y-67439999D01*
X131957479Y-67439999D01*
X132060195Y-67429506D01*
X132226622Y-67374357D01*
X132375845Y-67282316D01*
X132499816Y-67158345D01*
X132591857Y-67009122D01*
X132647006Y-66842696D01*
X132657500Y-66739979D01*
X132657500Y-66290000D01*
X131745000Y-66290000D01*
X131245000Y-66290000D01*
X130332501Y-66290000D01*
X127625500Y-66290000D01*
X127625500Y-65790000D01*
X130332500Y-65790000D01*
X131245000Y-65790000D01*
X131245000Y-64640001D01*
X131032521Y-64640001D01*
X130929804Y-64650493D01*
X130763377Y-64705642D01*
X130614154Y-64797683D01*
X130490183Y-64921654D01*
X130398142Y-65070877D01*
X130342993Y-65237303D01*
X130332500Y-65340021D01*
X130332500Y-65790000D01*
X127625500Y-65790000D01*
X127625500Y-64640000D01*
X131745000Y-64640000D01*
X131745000Y-65790000D01*
X132657499Y-65790000D01*
X132657499Y-65340021D01*
X132647006Y-65237304D01*
X132591857Y-65070877D01*
X132499816Y-64921654D01*
X132375845Y-64797683D01*
X132226622Y-64705642D01*
X132060196Y-64650493D01*
X131957479Y-64640000D01*
X131745000Y-64640000D01*
X127625500Y-64640000D01*
X127625500Y-59169500D01*
X127642113Y-59107500D01*
X127687500Y-59062113D01*
X127749500Y-59045500D01*
X139389548Y-59045500D01*
X139437001Y-59054939D01*
X139477229Y-59081819D01*
X144279196Y-63883787D01*
X144292096Y-63899888D01*
X144294213Y-63901876D01*
X144294214Y-63901877D01*
X144343223Y-63947900D01*
X144346019Y-63950610D01*
X144365529Y-63970120D01*
X144368711Y-63972588D01*
X144377571Y-63980155D01*
X144409418Y-64010062D01*
X144426972Y-64019712D01*
X144443236Y-64030396D01*
X144454972Y-64039499D01*
X144459064Y-64042673D01*
X144483909Y-64053424D01*
X144499152Y-64060021D01*
X144509631Y-64065154D01*
X144547908Y-64086197D01*
X144567306Y-64091177D01*
X144585708Y-64097477D01*
X144604104Y-64105438D01*
X144647261Y-64112273D01*
X144658664Y-64114634D01*
X144700981Y-64125500D01*
X144721016Y-64125500D01*
X144740413Y-64127026D01*
X144760196Y-64130160D01*
X144803674Y-64126050D01*
X144815344Y-64125500D01*
X151232201Y-64125500D01*
X151289458Y-64139511D01*
X151333775Y-64178376D01*
X151429174Y-64314620D01*
X151585380Y-64470826D01*
X151766338Y-64597534D01*
X151836173Y-64630098D01*
X151895780Y-64657894D01*
X151947956Y-64703651D01*
X151967375Y-64770276D01*
X151947956Y-64836901D01*
X151895780Y-64882658D01*
X151766589Y-64942900D01*
X151701812Y-64988258D01*
X151701811Y-64988258D01*
X152400000Y-65686446D01*
X152400001Y-65686446D01*
X153098187Y-64988258D01*
X153033406Y-64942898D01*
X152904219Y-64882658D01*
X152852043Y-64836901D01*
X152832623Y-64770276D01*
X152852043Y-64703651D01*
X152904219Y-64657894D01*
X152905407Y-64657340D01*
X153033662Y-64597534D01*
X153214620Y-64470826D01*
X153370826Y-64314620D01*
X153466224Y-64178376D01*
X153510542Y-64139511D01*
X153567799Y-64125500D01*
X154629548Y-64125500D01*
X154677001Y-64134939D01*
X154717229Y-64161819D01*
X156979196Y-66423787D01*
X156992096Y-66439888D01*
X156994213Y-66441876D01*
X156994214Y-66441877D01*
X157030836Y-66476268D01*
X157043223Y-66487900D01*
X157046019Y-66490610D01*
X157065529Y-66510120D01*
X157068711Y-66512588D01*
X157077571Y-66520155D01*
X157087639Y-66529610D01*
X157109418Y-66550062D01*
X157126970Y-66559711D01*
X157143238Y-66570397D01*
X157159064Y-66582673D01*
X157199146Y-66600017D01*
X157209633Y-66605155D01*
X157247907Y-66626197D01*
X157256410Y-66628379D01*
X157267308Y-66631178D01*
X157285713Y-66637478D01*
X157304104Y-66645437D01*
X157347250Y-66652270D01*
X157358668Y-66654635D01*
X157400981Y-66665500D01*
X157421016Y-66665500D01*
X157440415Y-66667027D01*
X157460196Y-66670160D01*
X157503674Y-66666050D01*
X157515344Y-66665500D01*
X158852201Y-66665500D01*
X158909458Y-66679511D01*
X158953775Y-66718376D01*
X159049174Y-66854620D01*
X159205380Y-67010826D01*
X159341623Y-67106224D01*
X159380489Y-67150542D01*
X159394500Y-67207799D01*
X159394500Y-67412201D01*
X159380489Y-67469458D01*
X159341623Y-67513776D01*
X159205379Y-67609174D01*
X159049174Y-67765379D01*
X158922466Y-67946338D01*
X158829106Y-68146548D01*
X158771929Y-68359934D01*
X158752676Y-68580000D01*
X158771929Y-68800065D01*
X158829106Y-69013451D01*
X158918660Y-69205500D01*
X158922466Y-69213662D01*
X159049174Y-69394620D01*
X159205380Y-69550826D01*
X159386338Y-69677534D01*
X159442649Y-69703792D01*
X159515189Y-69737618D01*
X159567365Y-69783375D01*
X159586784Y-69850000D01*
X159567365Y-69916625D01*
X159515189Y-69962382D01*
X159386338Y-70022466D01*
X159205379Y-70149174D01*
X159049174Y-70305379D01*
X158922466Y-70486338D01*
X158829106Y-70686548D01*
X158771929Y-70899934D01*
X158752676Y-71120000D01*
X158771929Y-71340065D01*
X158829106Y-71553451D01*
X158892547Y-71689500D01*
X158922466Y-71753662D01*
X159049174Y-71934620D01*
X159205380Y-72090826D01*
X159386338Y-72217534D01*
X159431637Y-72238657D01*
X159515189Y-72277618D01*
X159567365Y-72323375D01*
X159586784Y-72390000D01*
X159567365Y-72456625D01*
X159515189Y-72502382D01*
X159386338Y-72562466D01*
X159205379Y-72689174D01*
X159049174Y-72845379D01*
X158922466Y-73026338D01*
X158829106Y-73226548D01*
X158771929Y-73439934D01*
X158752676Y-73660000D01*
X158771929Y-73880065D01*
X158829106Y-74093451D01*
X158854954Y-74148882D01*
X158922466Y-74293662D01*
X159049174Y-74474620D01*
X159205380Y-74630826D01*
X159386338Y-74757534D01*
X159505748Y-74813215D01*
X159515189Y-74817618D01*
X159567365Y-74863375D01*
X159586784Y-74930000D01*
X159567365Y-74996625D01*
X159515189Y-75042382D01*
X159386338Y-75102466D01*
X159205379Y-75229174D01*
X159049174Y-75385379D01*
X158922466Y-75566338D01*
X158829106Y-75766548D01*
X158771929Y-75979934D01*
X158752676Y-76199999D01*
X158771929Y-76420065D01*
X158829106Y-76633451D01*
X158918660Y-76825500D01*
X158922466Y-76833662D01*
X159049174Y-77014620D01*
X159205380Y-77170826D01*
X159386338Y-77297534D01*
X159462209Y-77332913D01*
X159515189Y-77357618D01*
X159567365Y-77403375D01*
X159586784Y-77470000D01*
X159567365Y-77536625D01*
X159515189Y-77582382D01*
X159386338Y-77642466D01*
X159205379Y-77769174D01*
X159049174Y-77925379D01*
X158922466Y-78106338D01*
X158829106Y-78306548D01*
X158771929Y-78519934D01*
X158752676Y-78740000D01*
X158771929Y-78960065D01*
X158829106Y-79173451D01*
X158914097Y-79355714D01*
X158922466Y-79373662D01*
X159049174Y-79554620D01*
X159205380Y-79710826D01*
X159386338Y-79837534D01*
X159505748Y-79893215D01*
X159515189Y-79897618D01*
X159567365Y-79943375D01*
X159586784Y-80010000D01*
X159567365Y-80076625D01*
X159515189Y-80122382D01*
X159386338Y-80182466D01*
X159205379Y-80309174D01*
X159049174Y-80465379D01*
X158922466Y-80646338D01*
X158829106Y-80846548D01*
X158771929Y-81059934D01*
X158752676Y-81280000D01*
X158771929Y-81500065D01*
X158829106Y-81713451D01*
X158920118Y-81908626D01*
X158922466Y-81913662D01*
X159049174Y-82094620D01*
X159205380Y-82250826D01*
X159341623Y-82346224D01*
X159380489Y-82390542D01*
X159394500Y-82447799D01*
X159394500Y-84918481D01*
X159377023Y-84981955D01*
X159329519Y-85027534D01*
X159238401Y-85076845D01*
X159196485Y-85099529D01*
X159000259Y-85252259D01*
X159000256Y-85252261D01*
X159000256Y-85252262D01*
X158831836Y-85435215D01*
X158820721Y-85452228D01*
X158695825Y-85643395D01*
X158605780Y-85848678D01*
X158595937Y-85871119D01*
X158573074Y-85961404D01*
X158534891Y-86112183D01*
X158514356Y-86360000D01*
X158534891Y-86607816D01*
X158534891Y-86607819D01*
X158534892Y-86607821D01*
X158595937Y-86848881D01*
X158612709Y-86887117D01*
X158695825Y-87076604D01*
X158695827Y-87076607D01*
X158831836Y-87284785D01*
X159000256Y-87467738D01*
X159000259Y-87467740D01*
X159196485Y-87620470D01*
X159196487Y-87620471D01*
X159196491Y-87620474D01*
X159415190Y-87738828D01*
X159650386Y-87819571D01*
X159895665Y-87860500D01*
X160144335Y-87860500D01*
X160389614Y-87819571D01*
X160624810Y-87738828D01*
X160843509Y-87620474D01*
X161039744Y-87467738D01*
X161208164Y-87284785D01*
X161344173Y-87076607D01*
X161429160Y-86882854D01*
X161465545Y-86835606D01*
X161519782Y-86810806D01*
X161579323Y-86814194D01*
X161630396Y-86844986D01*
X167039761Y-92254352D01*
X167071855Y-92309939D01*
X167071855Y-92374125D01*
X167044936Y-92474591D01*
X167024340Y-92710000D01*
X167044936Y-92945407D01*
X167069121Y-93035665D01*
X167106097Y-93173663D01*
X167205965Y-93387830D01*
X167341505Y-93581401D01*
X167341508Y-93581404D01*
X167463430Y-93703326D01*
X167494726Y-93756072D01*
X167496915Y-93817365D01*
X167469462Y-93872209D01*
X167419083Y-93907189D01*
X167287669Y-93956204D01*
X167172454Y-94042454D01*
X167086204Y-94157668D01*
X167035909Y-94292516D01*
X167029500Y-94352131D01*
X167029500Y-94500500D01*
X167012887Y-94562500D01*
X166967500Y-94607887D01*
X166905500Y-94624500D01*
X163912740Y-94624500D01*
X163892236Y-94622236D01*
X163822144Y-94624439D01*
X163818250Y-94624500D01*
X163790648Y-94624500D01*
X163786653Y-94625004D01*
X163775029Y-94625918D01*
X163731368Y-94627290D01*
X163712128Y-94632880D01*
X163693081Y-94636825D01*
X163673209Y-94639335D01*
X163632599Y-94655413D01*
X163621554Y-94659194D01*
X163579611Y-94671380D01*
X163562369Y-94681578D01*
X163544897Y-94690138D01*
X163526266Y-94697514D01*
X163490938Y-94723181D01*
X163481180Y-94729591D01*
X163443579Y-94751829D01*
X163429410Y-94765998D01*
X163414622Y-94778628D01*
X163398413Y-94790405D01*
X163370572Y-94824058D01*
X163362711Y-94832696D01*
X163137228Y-95058179D01*
X163077497Y-95091307D01*
X163009285Y-95087779D01*
X162929617Y-95060429D01*
X162684335Y-95019500D01*
X162435665Y-95019500D01*
X162190384Y-95060429D01*
X161955194Y-95141170D01*
X161736485Y-95259529D01*
X161540259Y-95412259D01*
X161371837Y-95595214D01*
X161235825Y-95803395D01*
X161177002Y-95937500D01*
X161135937Y-96031119D01*
X161106371Y-96147872D01*
X161074891Y-96272183D01*
X161054356Y-96519999D01*
X161074891Y-96767816D01*
X161074891Y-96767819D01*
X161074892Y-96767821D01*
X161135937Y-97008881D01*
X161180960Y-97111523D01*
X161235825Y-97236604D01*
X161235827Y-97236607D01*
X161371836Y-97444785D01*
X161540256Y-97627738D01*
X161540259Y-97627740D01*
X161736485Y-97780470D01*
X161736487Y-97780471D01*
X161736491Y-97780474D01*
X161955190Y-97898828D01*
X162190386Y-97979571D01*
X162435665Y-98020500D01*
X162684335Y-98020500D01*
X162929614Y-97979571D01*
X163164810Y-97898828D01*
X163383509Y-97780474D01*
X163579744Y-97627738D01*
X163748164Y-97444785D01*
X163884173Y-97236607D01*
X163984063Y-97008881D01*
X164045108Y-96767821D01*
X164065643Y-96520000D01*
X164045108Y-96272179D01*
X163991136Y-96059049D01*
X163991791Y-95995692D01*
X164023662Y-95940928D01*
X164052774Y-95911817D01*
X164093002Y-95884939D01*
X164140454Y-95875500D01*
X166905501Y-95875500D01*
X166967501Y-95892113D01*
X167012888Y-95937500D01*
X167029501Y-95999500D01*
X167029501Y-96147870D01*
X167035909Y-96207484D01*
X167061056Y-96274906D01*
X167086204Y-96342331D01*
X167172454Y-96457546D01*
X167287669Y-96543796D01*
X167422517Y-96594091D01*
X167482127Y-96600500D01*
X169277872Y-96600499D01*
X169337483Y-96594091D01*
X169472331Y-96543796D01*
X169587546Y-96457546D01*
X169673796Y-96342331D01*
X169724091Y-96207483D01*
X169730500Y-96147873D01*
X169730499Y-94352128D01*
X169724091Y-94292517D01*
X169673796Y-94157669D01*
X169587546Y-94042454D01*
X169472331Y-93956204D01*
X169408469Y-93932385D01*
X169340916Y-93907189D01*
X169290537Y-93872209D01*
X169263084Y-93817365D01*
X169265273Y-93756072D01*
X169296566Y-93703329D01*
X169418495Y-93581401D01*
X169554035Y-93387830D01*
X169653903Y-93173663D01*
X169715063Y-92945408D01*
X169735659Y-92710000D01*
X169727347Y-92615001D01*
X169715063Y-92474592D01*
X169688143Y-92374125D01*
X169653903Y-92246337D01*
X169554035Y-92032171D01*
X169418495Y-91838599D01*
X169251401Y-91671505D01*
X169065839Y-91541573D01*
X169026975Y-91497257D01*
X169012964Y-91440000D01*
X169026975Y-91382743D01*
X169065839Y-91338426D01*
X169251401Y-91208495D01*
X169418495Y-91041401D01*
X169554035Y-90847830D01*
X169653903Y-90633663D01*
X169715063Y-90405408D01*
X169735659Y-90170000D01*
X169715063Y-89934592D01*
X169653903Y-89706337D01*
X169554035Y-89492171D01*
X169418495Y-89298599D01*
X169251401Y-89131505D01*
X169065839Y-89001573D01*
X169026975Y-88957257D01*
X169012964Y-88900000D01*
X169026975Y-88842743D01*
X169065839Y-88798426D01*
X169251401Y-88668495D01*
X169418495Y-88501401D01*
X169554035Y-88307830D01*
X169653903Y-88093663D01*
X169715063Y-87865408D01*
X169735659Y-87630000D01*
X169732580Y-87594813D01*
X169715063Y-87394592D01*
X169688143Y-87294125D01*
X169653903Y-87166337D01*
X169554035Y-86952171D01*
X169418495Y-86758599D01*
X169251401Y-86591505D01*
X169065839Y-86461573D01*
X169026975Y-86417257D01*
X169012964Y-86360000D01*
X169026975Y-86302743D01*
X169065839Y-86258426D01*
X169251401Y-86128495D01*
X169418495Y-85961401D01*
X169554035Y-85767830D01*
X169653903Y-85553663D01*
X169715063Y-85325408D01*
X169735659Y-85090000D01*
X169715063Y-84854592D01*
X169653903Y-84626337D01*
X169554035Y-84412171D01*
X169418495Y-84218599D01*
X169251401Y-84051505D01*
X169065402Y-83921267D01*
X169026539Y-83876951D01*
X169012528Y-83819694D01*
X169026539Y-83762437D01*
X169065405Y-83718119D01*
X169141373Y-83664925D01*
X168380000Y-82903553D01*
X168026448Y-82550001D01*
X168733553Y-82550001D01*
X169494925Y-83311373D01*
X169553600Y-83227576D01*
X169653430Y-83013492D01*
X169714569Y-82785318D01*
X169735157Y-82549999D01*
X169714569Y-82314681D01*
X169653430Y-82086507D01*
X169553599Y-81872421D01*
X169494926Y-81788626D01*
X169494925Y-81788625D01*
X168733553Y-82550000D01*
X168733553Y-82550001D01*
X168026448Y-82550001D01*
X167265072Y-81788625D01*
X167206399Y-81872422D01*
X167106569Y-82086507D01*
X167045430Y-82314681D01*
X167023897Y-82560807D01*
X167020649Y-82560522D01*
X167014482Y-82599066D01*
X166978342Y-82646904D01*
X166923983Y-82672193D01*
X166864112Y-82669024D01*
X166812727Y-82638136D01*
X165761819Y-81587228D01*
X165734939Y-81547000D01*
X165725500Y-81499547D01*
X165725500Y-76282744D01*
X165727764Y-76262237D01*
X165727443Y-76252031D01*
X165725561Y-76192127D01*
X165725500Y-76188232D01*
X165725500Y-76160653D01*
X165724997Y-76156672D01*
X165724080Y-76145019D01*
X165722709Y-76101373D01*
X165717120Y-76082140D01*
X165713174Y-76063082D01*
X165710664Y-76043206D01*
X165694588Y-76002604D01*
X165690804Y-75991553D01*
X165684881Y-75971168D01*
X165678618Y-75949610D01*
X165668414Y-75932355D01*
X165659861Y-75914895D01*
X165652486Y-75896269D01*
X165652486Y-75896268D01*
X165626808Y-75860925D01*
X165620401Y-75851171D01*
X165598169Y-75813579D01*
X165584006Y-75799416D01*
X165571367Y-75784617D01*
X165559595Y-75768413D01*
X165525941Y-75740573D01*
X165517299Y-75732709D01*
X161288386Y-71503795D01*
X161256292Y-71448206D01*
X161256293Y-71384018D01*
X161260050Y-71370000D01*
X161268070Y-71340068D01*
X161287323Y-71120000D01*
X161268070Y-70899932D01*
X161210894Y-70686550D01*
X161117534Y-70486339D01*
X160990826Y-70305380D01*
X160834620Y-70149174D01*
X160653662Y-70022466D01*
X160608361Y-70001342D01*
X160524811Y-69962382D01*
X160472635Y-69916625D01*
X160453216Y-69850000D01*
X160472635Y-69783375D01*
X160524811Y-69737618D01*
X160530027Y-69735185D01*
X160653662Y-69677534D01*
X160834620Y-69550826D01*
X160990826Y-69394620D01*
X161117534Y-69213662D01*
X161210894Y-69013450D01*
X161268070Y-68800068D01*
X161287323Y-68580000D01*
X161268070Y-68359932D01*
X161210894Y-68146550D01*
X161117534Y-67946339D01*
X160990826Y-67765380D01*
X160834620Y-67609174D01*
X160698376Y-67513775D01*
X160659511Y-67469458D01*
X160645500Y-67412201D01*
X160645500Y-67207799D01*
X160659511Y-67150542D01*
X160698377Y-67106224D01*
X160834620Y-67010826D01*
X160990826Y-66854620D01*
X161086224Y-66718376D01*
X161130542Y-66679511D01*
X161187799Y-66665500D01*
X167329548Y-66665500D01*
X167377001Y-66674939D01*
X167417229Y-66701819D01*
X167718181Y-67002772D01*
X167745061Y-67043000D01*
X167754500Y-67090453D01*
X167754500Y-76194774D01*
X167740489Y-76252031D01*
X167701623Y-76296349D01*
X167508598Y-76431505D01*
X167341505Y-76598598D01*
X167205965Y-76792170D01*
X167106097Y-77006336D01*
X167044936Y-77234592D01*
X167024340Y-77469999D01*
X167044936Y-77705407D01*
X167074359Y-77815214D01*
X167106097Y-77933663D01*
X167205965Y-78147830D01*
X167341505Y-78341401D01*
X167508599Y-78508495D01*
X167694160Y-78638426D01*
X167733024Y-78682743D01*
X167747035Y-78740000D01*
X167733024Y-78797257D01*
X167694159Y-78841575D01*
X167508595Y-78971508D01*
X167341505Y-79138598D01*
X167205965Y-79332170D01*
X167106097Y-79546336D01*
X167044936Y-79774592D01*
X167024340Y-80010000D01*
X167044936Y-80245407D01*
X167089709Y-80412501D01*
X167106097Y-80473663D01*
X167205965Y-80687830D01*
X167341505Y-80881401D01*
X167508599Y-81048495D01*
X167694597Y-81178732D01*
X167733460Y-81223048D01*
X167747471Y-81280306D01*
X167733460Y-81337563D01*
X167694594Y-81381881D01*
X167618626Y-81435073D01*
X168380000Y-82196447D01*
X168380001Y-82196447D01*
X169141373Y-81435073D01*
X169141373Y-81435072D01*
X169065405Y-81381880D01*
X169026539Y-81337562D01*
X169012528Y-81280305D01*
X169026539Y-81223048D01*
X169065402Y-81178732D01*
X169251401Y-81048495D01*
X169418495Y-80881401D01*
X169554035Y-80687830D01*
X169653903Y-80473663D01*
X169715063Y-80245408D01*
X169735659Y-80010000D01*
X169715063Y-79774592D01*
X169653903Y-79546337D01*
X169554035Y-79332171D01*
X169418495Y-79138599D01*
X169251401Y-78971505D01*
X169065839Y-78841573D01*
X169026975Y-78797257D01*
X169012964Y-78740000D01*
X169026975Y-78682743D01*
X169065839Y-78638426D01*
X169251401Y-78508495D01*
X169418495Y-78341401D01*
X169554035Y-78147830D01*
X169653903Y-77933663D01*
X169715063Y-77705408D01*
X169735659Y-77470000D01*
X169715063Y-77234592D01*
X169653903Y-77006337D01*
X169554035Y-76792171D01*
X169418495Y-76598599D01*
X169251401Y-76431505D01*
X169058374Y-76296346D01*
X169019511Y-76252030D01*
X169005500Y-76194773D01*
X169005500Y-66862744D01*
X169007764Y-66842237D01*
X169005561Y-66772127D01*
X169005500Y-66768232D01*
X169005500Y-66740653D01*
X169005188Y-66738187D01*
X169004996Y-66736665D01*
X169004080Y-66725019D01*
X169003897Y-66719194D01*
X169002709Y-66681373D01*
X168997120Y-66662140D01*
X168993174Y-66643082D01*
X168990664Y-66623206D01*
X168974588Y-66582604D01*
X168970804Y-66571553D01*
X168964560Y-66550062D01*
X168958618Y-66529610D01*
X168948414Y-66512355D01*
X168939861Y-66494895D01*
X168938165Y-66490611D01*
X168932486Y-66476268D01*
X168906808Y-66440925D01*
X168900401Y-66431171D01*
X168878169Y-66393579D01*
X168864006Y-66379416D01*
X168851367Y-66364617D01*
X168839595Y-66348413D01*
X168805941Y-66320573D01*
X168797299Y-66312709D01*
X168140802Y-65656211D01*
X168127906Y-65640113D01*
X168076775Y-65592098D01*
X168073978Y-65589387D01*
X168054470Y-65569879D01*
X168051290Y-65567412D01*
X168042424Y-65559839D01*
X168010582Y-65529938D01*
X167993024Y-65520285D01*
X167976764Y-65509604D01*
X167960936Y-65497327D01*
X167920851Y-65479980D01*
X167910361Y-65474841D01*
X167872091Y-65453802D01*
X167852691Y-65448821D01*
X167834284Y-65442519D01*
X167815897Y-65434562D01*
X167772758Y-65427729D01*
X167761324Y-65425361D01*
X167719019Y-65414500D01*
X167698984Y-65414500D01*
X167679586Y-65412973D01*
X167672162Y-65411797D01*
X167659805Y-65409840D01*
X167659804Y-65409840D01*
X167626751Y-65412964D01*
X167616325Y-65413950D01*
X167604656Y-65414500D01*
X161187799Y-65414500D01*
X161130542Y-65400489D01*
X161086224Y-65361623D01*
X160999175Y-65237304D01*
X160990826Y-65225380D01*
X160834620Y-65069174D01*
X160653662Y-64942466D01*
X160653661Y-64942465D01*
X160524218Y-64882105D01*
X160472042Y-64836348D01*
X160452623Y-64769722D01*
X160472043Y-64703097D01*
X160524220Y-64657340D01*
X160653411Y-64597098D01*
X160718187Y-64551740D01*
X160020001Y-63853553D01*
X160020000Y-63853553D01*
X159321812Y-64551740D01*
X159386592Y-64597100D01*
X159515780Y-64657341D01*
X159567956Y-64703097D01*
X159587376Y-64769722D01*
X159567957Y-64836347D01*
X159515782Y-64882105D01*
X159386336Y-64942467D01*
X159205379Y-65069174D01*
X159049174Y-65225379D01*
X158953776Y-65361623D01*
X158909458Y-65400489D01*
X158852201Y-65414500D01*
X157790453Y-65414500D01*
X157743000Y-65405061D01*
X157702772Y-65378181D01*
X155824591Y-63500000D01*
X158753178Y-63500000D01*
X158772424Y-63719978D01*
X158829579Y-63933281D01*
X158922898Y-64133406D01*
X158968258Y-64198187D01*
X159666446Y-63500001D01*
X160373553Y-63500001D01*
X161071740Y-64198186D01*
X161117100Y-64133408D01*
X161210420Y-63933281D01*
X161267575Y-63719978D01*
X161286821Y-63500000D01*
X161267575Y-63280021D01*
X161210421Y-63066720D01*
X161117098Y-62866589D01*
X161071740Y-62801811D01*
X160373553Y-63500000D01*
X160373553Y-63500001D01*
X159666446Y-63500001D01*
X159666446Y-63499999D01*
X158968258Y-62801811D01*
X158968258Y-62801812D01*
X158922900Y-62866589D01*
X158829578Y-63066719D01*
X158772424Y-63280021D01*
X158753178Y-63500000D01*
X155824591Y-63500000D01*
X155440802Y-63116211D01*
X155427906Y-63100113D01*
X155376775Y-63052098D01*
X155373978Y-63049387D01*
X155354470Y-63029879D01*
X155351290Y-63027412D01*
X155342424Y-63019839D01*
X155310582Y-62989938D01*
X155293024Y-62980285D01*
X155276764Y-62969604D01*
X155260936Y-62957327D01*
X155220851Y-62939980D01*
X155210361Y-62934841D01*
X155172091Y-62913802D01*
X155152691Y-62908821D01*
X155134284Y-62902519D01*
X155115897Y-62894562D01*
X155072758Y-62887729D01*
X155061324Y-62885361D01*
X155019019Y-62874500D01*
X154998984Y-62874500D01*
X154979586Y-62872973D01*
X154972162Y-62871797D01*
X154959805Y-62869840D01*
X154959804Y-62869840D01*
X154926751Y-62872964D01*
X154916325Y-62873950D01*
X154904656Y-62874500D01*
X153567799Y-62874500D01*
X153510542Y-62860489D01*
X153466224Y-62821623D01*
X153370825Y-62685379D01*
X153214620Y-62529174D01*
X153033662Y-62402466D01*
X152904811Y-62342382D01*
X152852635Y-62296625D01*
X152833216Y-62230000D01*
X152852635Y-62163375D01*
X152904811Y-62117618D01*
X152910027Y-62115185D01*
X153033662Y-62057534D01*
X153214620Y-61930826D01*
X153370826Y-61774620D01*
X153497534Y-61593662D01*
X153590894Y-61393450D01*
X153648070Y-61180068D01*
X153667323Y-60960000D01*
X153648070Y-60739932D01*
X153590894Y-60526550D01*
X153497534Y-60326339D01*
X153370826Y-60145380D01*
X153214620Y-59989174D01*
X153033662Y-59862466D01*
X152904811Y-59802382D01*
X152852635Y-59756625D01*
X152833216Y-59690000D01*
X152852635Y-59623375D01*
X152904811Y-59577618D01*
X152923256Y-59569017D01*
X153033662Y-59517534D01*
X153214620Y-59390826D01*
X153370826Y-59234620D01*
X153497534Y-59053662D01*
X153590894Y-58853450D01*
X153648070Y-58640068D01*
X153667323Y-58420000D01*
X153663860Y-58380412D01*
X153659808Y-58334095D01*
X153669193Y-58274837D01*
X153705300Y-58226922D01*
X153759676Y-58201566D01*
X153819590Y-58204706D01*
G37*
%TD.AperFunction*%
%TA.AperFunction,Conductor*%
G36*
X205677500Y-22877113D02*
G01*
X205722887Y-22922500D01*
X205739500Y-22984500D01*
X205739500Y-121795500D01*
X205722887Y-121857500D01*
X205677500Y-121902887D01*
X205615500Y-121919500D01*
X122044500Y-121919500D01*
X121982500Y-121902887D01*
X121937113Y-121857500D01*
X121920500Y-121795500D01*
X121920500Y-116840000D01*
X125216512Y-116840000D01*
X125236432Y-117105813D01*
X125295748Y-117365694D01*
X125383707Y-117589807D01*
X125393134Y-117613826D01*
X125399095Y-117624151D01*
X125524466Y-117841301D01*
X125526414Y-117844674D01*
X125692612Y-118053079D01*
X125888014Y-118234386D01*
X126108257Y-118384545D01*
X126348419Y-118500201D01*
X126584214Y-118572934D01*
X126603137Y-118578771D01*
X126866719Y-118618500D01*
X126866720Y-118618500D01*
X127133280Y-118618500D01*
X127133281Y-118618500D01*
X127265071Y-118598635D01*
X127396863Y-118578771D01*
X127651581Y-118500201D01*
X127891744Y-118384545D01*
X128111986Y-118234386D01*
X128307388Y-118053079D01*
X128473586Y-117844674D01*
X128606866Y-117613826D01*
X128704252Y-117365692D01*
X128763567Y-117105815D01*
X128783487Y-116840000D01*
X128763567Y-116574185D01*
X128704252Y-116314308D01*
X128606866Y-116066174D01*
X128473586Y-115835326D01*
X128307388Y-115626921D01*
X128307387Y-115626920D01*
X128111988Y-115445615D01*
X128008331Y-115374943D01*
X127891744Y-115295455D01*
X127891741Y-115295454D01*
X127891739Y-115295452D01*
X127651583Y-115179800D01*
X127651581Y-115179799D01*
X127560779Y-115151790D01*
X127396862Y-115101228D01*
X127133281Y-115061500D01*
X127133280Y-115061500D01*
X126866720Y-115061500D01*
X126866719Y-115061500D01*
X126603137Y-115101228D01*
X126348419Y-115179799D01*
X126108256Y-115295455D01*
X125888014Y-115445613D01*
X125692612Y-115626920D01*
X125526413Y-115835326D01*
X125393133Y-116066175D01*
X125295748Y-116314305D01*
X125236432Y-116574186D01*
X125216512Y-116840000D01*
X121920500Y-116840000D01*
X121920500Y-113029999D01*
X140309581Y-113029999D01*
X140329231Y-113304728D01*
X140387775Y-113573857D01*
X140484031Y-113831927D01*
X140616027Y-114073661D01*
X140698557Y-114183908D01*
X140781087Y-114294155D01*
X140975845Y-114488913D01*
X141141213Y-114612706D01*
X141196338Y-114653972D01*
X141330847Y-114727419D01*
X141438075Y-114785970D01*
X141696138Y-114882223D01*
X141696141Y-114882223D01*
X141696142Y-114882224D01*
X141746444Y-114893166D01*
X141965273Y-114940769D01*
X142155371Y-114954365D01*
X142171237Y-114955500D01*
X142171238Y-114955500D01*
X142308762Y-114955500D01*
X142308763Y-114955500D01*
X142323493Y-114954446D01*
X142514727Y-114940769D01*
X142783862Y-114882223D01*
X143041925Y-114785970D01*
X143283663Y-114653971D01*
X143504155Y-114488913D01*
X143698913Y-114294155D01*
X143863971Y-114073663D01*
X143995970Y-113831925D01*
X144092223Y-113573862D01*
X144150769Y-113304727D01*
X144170418Y-113030000D01*
X144170418Y-113029999D01*
X150469581Y-113029999D01*
X150489231Y-113304728D01*
X150547775Y-113573857D01*
X150644031Y-113831927D01*
X150776027Y-114073661D01*
X150858557Y-114183908D01*
X150941087Y-114294155D01*
X151135845Y-114488913D01*
X151301213Y-114612706D01*
X151356338Y-114653972D01*
X151490847Y-114727419D01*
X151598075Y-114785970D01*
X151856138Y-114882223D01*
X151856141Y-114882223D01*
X151856142Y-114882224D01*
X151906444Y-114893166D01*
X152125273Y-114940769D01*
X152315371Y-114954365D01*
X152331237Y-114955500D01*
X152331238Y-114955500D01*
X152468762Y-114955500D01*
X152468763Y-114955500D01*
X152483493Y-114954446D01*
X152674727Y-114940769D01*
X152943862Y-114882223D01*
X153201925Y-114785970D01*
X153443663Y-114653971D01*
X153664155Y-114488913D01*
X153858913Y-114294155D01*
X154023971Y-114073663D01*
X154155970Y-113831925D01*
X154252223Y-113573862D01*
X154310769Y-113304727D01*
X154330418Y-113030000D01*
X154310769Y-112755273D01*
X154252223Y-112486138D01*
X154155970Y-112228075D01*
X154023971Y-111986337D01*
X153858913Y-111765845D01*
X153664155Y-111571087D01*
X153553909Y-111488558D01*
X153443661Y-111406027D01*
X153201927Y-111274031D01*
X153201926Y-111274030D01*
X153201925Y-111274030D01*
X152943862Y-111177777D01*
X152943857Y-111177775D01*
X152674728Y-111119231D01*
X152468763Y-111104500D01*
X152468762Y-111104500D01*
X152331238Y-111104500D01*
X152331237Y-111104500D01*
X152125271Y-111119231D01*
X151856142Y-111177775D01*
X151598072Y-111274031D01*
X151356338Y-111406027D01*
X151135842Y-111571089D01*
X150941089Y-111765842D01*
X150776027Y-111986338D01*
X150644031Y-112228072D01*
X150547775Y-112486142D01*
X150489231Y-112755271D01*
X150469581Y-113029999D01*
X144170418Y-113029999D01*
X144150769Y-112755273D01*
X144092223Y-112486138D01*
X143995970Y-112228075D01*
X143863971Y-111986337D01*
X143698913Y-111765845D01*
X143504155Y-111571087D01*
X143393909Y-111488558D01*
X143283661Y-111406027D01*
X143041927Y-111274031D01*
X143041926Y-111274030D01*
X143041925Y-111274030D01*
X142783862Y-111177777D01*
X142783857Y-111177775D01*
X142514728Y-111119231D01*
X142308763Y-111104500D01*
X142308762Y-111104500D01*
X142171238Y-111104500D01*
X142171237Y-111104500D01*
X141965271Y-111119231D01*
X141696142Y-111177775D01*
X141438072Y-111274031D01*
X141196338Y-111406027D01*
X140975842Y-111571089D01*
X140781089Y-111765842D01*
X140616027Y-111986338D01*
X140484031Y-112228072D01*
X140387775Y-112486142D01*
X140329231Y-112755271D01*
X140309581Y-113029999D01*
X121920500Y-113029999D01*
X121920500Y-86320412D01*
X126370772Y-86320412D01*
X126374255Y-86375759D01*
X126374500Y-86383545D01*
X126374500Y-86399350D01*
X126376481Y-86415037D01*
X126377213Y-86422787D01*
X126380695Y-86478137D01*
X126383220Y-86485908D01*
X126388310Y-86508678D01*
X126389335Y-86516788D01*
X126389336Y-86516792D01*
X126409602Y-86567978D01*
X126409753Y-86568360D01*
X126412390Y-86575684D01*
X126417531Y-86591505D01*
X126429533Y-86628441D01*
X126429534Y-86628442D01*
X126433910Y-86635339D01*
X126444500Y-86656123D01*
X126447513Y-86663732D01*
X126480120Y-86708612D01*
X126484498Y-86715053D01*
X126514214Y-86761877D01*
X126520167Y-86767467D01*
X126535603Y-86784976D01*
X126540406Y-86791587D01*
X126583146Y-86826945D01*
X126588978Y-86832087D01*
X126629418Y-86870062D01*
X126636578Y-86873998D01*
X126655883Y-86887117D01*
X126662179Y-86892326D01*
X126712363Y-86915941D01*
X126719302Y-86919476D01*
X126767906Y-86946196D01*
X126767908Y-86946197D01*
X126775822Y-86948228D01*
X126797774Y-86956132D01*
X126800425Y-86957379D01*
X126805174Y-86959614D01*
X126859673Y-86970010D01*
X126867263Y-86971707D01*
X126920981Y-86985500D01*
X126929151Y-86985500D01*
X126952385Y-86987696D01*
X126960412Y-86989227D01*
X127015759Y-86985745D01*
X127023545Y-86985500D01*
X137072346Y-86985500D01*
X137122561Y-86996123D01*
X137164173Y-87026171D01*
X137190052Y-87070496D01*
X137242686Y-87229334D01*
X137334788Y-87378657D01*
X137458842Y-87502711D01*
X137458844Y-87502712D01*
X137608166Y-87594814D01*
X137685591Y-87620470D01*
X137774702Y-87649999D01*
X137877491Y-87660500D01*
X138253000Y-87660500D01*
X138315000Y-87677113D01*
X138360387Y-87722500D01*
X138377000Y-87784500D01*
X138377000Y-92627912D01*
X138361277Y-92688344D01*
X138318096Y-92733451D01*
X138271342Y-92762288D01*
X138147288Y-92886342D01*
X138055186Y-93035665D01*
X138000000Y-93202202D01*
X137995823Y-93243101D01*
X137975401Y-93299639D01*
X137930786Y-93339929D01*
X137872465Y-93354500D01*
X137230849Y-93354500D01*
X137207615Y-93352304D01*
X137199587Y-93350772D01*
X137144241Y-93354255D01*
X137136455Y-93354500D01*
X137120650Y-93354500D01*
X137104957Y-93356481D01*
X137097215Y-93357212D01*
X137041862Y-93360695D01*
X137034085Y-93363222D01*
X137011322Y-93368310D01*
X137003210Y-93369335D01*
X136951619Y-93389760D01*
X136944296Y-93392396D01*
X136891559Y-93409532D01*
X136884656Y-93413913D01*
X136863876Y-93424501D01*
X136856268Y-93427513D01*
X136811389Y-93460119D01*
X136804952Y-93464494D01*
X136758120Y-93494215D01*
X136752528Y-93500171D01*
X136735031Y-93515597D01*
X136728412Y-93520406D01*
X136693053Y-93563146D01*
X136687905Y-93568986D01*
X136649938Y-93609417D01*
X136645997Y-93616586D01*
X136632886Y-93635878D01*
X136627675Y-93642176D01*
X136604060Y-93692360D01*
X136600526Y-93699296D01*
X136573802Y-93747908D01*
X136571770Y-93755823D01*
X136563868Y-93777774D01*
X136560385Y-93785174D01*
X136549993Y-93839650D01*
X136548295Y-93847247D01*
X136534500Y-93900980D01*
X136534500Y-93909151D01*
X136532304Y-93932385D01*
X136530772Y-93940412D01*
X136534255Y-93995759D01*
X136534500Y-94003545D01*
X136534500Y-98989151D01*
X136532304Y-99012385D01*
X136530772Y-99020412D01*
X136534255Y-99075759D01*
X136534500Y-99083545D01*
X136534500Y-99099350D01*
X136536481Y-99115037D01*
X136537213Y-99122787D01*
X136540695Y-99178137D01*
X136543220Y-99185908D01*
X136548310Y-99208678D01*
X136549335Y-99216788D01*
X136549336Y-99216792D01*
X136569602Y-99267978D01*
X136569753Y-99268360D01*
X136572390Y-99275684D01*
X136580755Y-99301427D01*
X136589533Y-99328441D01*
X136589534Y-99328442D01*
X136593910Y-99335339D01*
X136604500Y-99356123D01*
X136607513Y-99363732D01*
X136640120Y-99408612D01*
X136644498Y-99415053D01*
X136674214Y-99461877D01*
X136680167Y-99467467D01*
X136695603Y-99484976D01*
X136700406Y-99491587D01*
X136743146Y-99526945D01*
X136748978Y-99532087D01*
X136789418Y-99570062D01*
X136796578Y-99573998D01*
X136815883Y-99587117D01*
X136822179Y-99592326D01*
X136872363Y-99615941D01*
X136879302Y-99619476D01*
X136927906Y-99646196D01*
X136927908Y-99646197D01*
X136935822Y-99648228D01*
X136957774Y-99656132D01*
X136960425Y-99657379D01*
X136965174Y-99659614D01*
X137019673Y-99670010D01*
X137027263Y-99671707D01*
X137080981Y-99685500D01*
X137089151Y-99685500D01*
X137112385Y-99687696D01*
X137120412Y-99689227D01*
X137175759Y-99685745D01*
X137183545Y-99685500D01*
X138432465Y-99685500D01*
X138490786Y-99700071D01*
X138535400Y-99740360D01*
X138555823Y-99796899D01*
X138560000Y-99837796D01*
X138615186Y-100004334D01*
X138707288Y-100153657D01*
X138831342Y-100277711D01*
X138831344Y-100277712D01*
X138980666Y-100369814D01*
X138989504Y-100372742D01*
X139033829Y-100398620D01*
X139063877Y-100440232D01*
X139074500Y-100490448D01*
X139074500Y-109149151D01*
X139072304Y-109172385D01*
X139070772Y-109180412D01*
X139074255Y-109235759D01*
X139074500Y-109243545D01*
X139074500Y-109259350D01*
X139076481Y-109275037D01*
X139077213Y-109282787D01*
X139080695Y-109338137D01*
X139083220Y-109345908D01*
X139088310Y-109368678D01*
X139089335Y-109376788D01*
X139089336Y-109376792D01*
X139109602Y-109427978D01*
X139109753Y-109428360D01*
X139112390Y-109435684D01*
X139120755Y-109461427D01*
X139129533Y-109488441D01*
X139129534Y-109488442D01*
X139133910Y-109495339D01*
X139144500Y-109516123D01*
X139147513Y-109523732D01*
X139180120Y-109568612D01*
X139184498Y-109575053D01*
X139214214Y-109621877D01*
X139220167Y-109627467D01*
X139235603Y-109644976D01*
X139240406Y-109651587D01*
X139283146Y-109686945D01*
X139288978Y-109692087D01*
X139329418Y-109730062D01*
X139336578Y-109733998D01*
X139355883Y-109747117D01*
X139362179Y-109752326D01*
X139412363Y-109775941D01*
X139419302Y-109779476D01*
X139467906Y-109806196D01*
X139467908Y-109806197D01*
X139475822Y-109808228D01*
X139497774Y-109816132D01*
X139500425Y-109817379D01*
X139505174Y-109819614D01*
X139559673Y-109830010D01*
X139567263Y-109831707D01*
X139620981Y-109845500D01*
X139629151Y-109845500D01*
X139652385Y-109847696D01*
X139660412Y-109849227D01*
X139715759Y-109845745D01*
X139723545Y-109845500D01*
X166890500Y-109845500D01*
X166952500Y-109862113D01*
X166997887Y-109907500D01*
X167014500Y-109969500D01*
X167014500Y-119309151D01*
X167012304Y-119332385D01*
X167010772Y-119340412D01*
X167014255Y-119395759D01*
X167014500Y-119403545D01*
X167014500Y-119419350D01*
X167016481Y-119435037D01*
X167017213Y-119442787D01*
X167020695Y-119498137D01*
X167023220Y-119505908D01*
X167028310Y-119528678D01*
X167029335Y-119536788D01*
X167029336Y-119536792D01*
X167044394Y-119574824D01*
X167049753Y-119588360D01*
X167052390Y-119595684D01*
X167057722Y-119612092D01*
X167069533Y-119648441D01*
X167069534Y-119648442D01*
X167073910Y-119655339D01*
X167084500Y-119676123D01*
X167087513Y-119683732D01*
X167120120Y-119728612D01*
X167124498Y-119735053D01*
X167154214Y-119781877D01*
X167160167Y-119787467D01*
X167175603Y-119804976D01*
X167180406Y-119811587D01*
X167223146Y-119846945D01*
X167228978Y-119852087D01*
X167269418Y-119890062D01*
X167276578Y-119893998D01*
X167295883Y-119907117D01*
X167302179Y-119912326D01*
X167352363Y-119935941D01*
X167359302Y-119939476D01*
X167379295Y-119950467D01*
X167407908Y-119966197D01*
X167415822Y-119968228D01*
X167437774Y-119976132D01*
X167440425Y-119977379D01*
X167445174Y-119979614D01*
X167499673Y-119990010D01*
X167507263Y-119991707D01*
X167560981Y-120005500D01*
X167569151Y-120005500D01*
X167592385Y-120007696D01*
X167600412Y-120009227D01*
X167655759Y-120005745D01*
X167663545Y-120005500D01*
X185337256Y-120005500D01*
X185357762Y-120007764D01*
X185360665Y-120007672D01*
X185360667Y-120007673D01*
X185427872Y-120005561D01*
X185431768Y-120005500D01*
X185459349Y-120005500D01*
X185459350Y-120005500D01*
X185463319Y-120004998D01*
X185474965Y-120004080D01*
X185518627Y-120002709D01*
X185537859Y-119997120D01*
X185556918Y-119993174D01*
X185568525Y-119991708D01*
X185576792Y-119990664D01*
X185617407Y-119974582D01*
X185628444Y-119970803D01*
X185670390Y-119958618D01*
X185687629Y-119948422D01*
X185705102Y-119939862D01*
X185706077Y-119939476D01*
X185723732Y-119932486D01*
X185759064Y-119906814D01*
X185768830Y-119900400D01*
X185777111Y-119895503D01*
X185806420Y-119878170D01*
X185820585Y-119864004D01*
X185835373Y-119851373D01*
X185851587Y-119839594D01*
X185879438Y-119805926D01*
X185887279Y-119797309D01*
X186332322Y-119352267D01*
X186387905Y-119320176D01*
X186452093Y-119320176D01*
X186507680Y-119352270D01*
X186919197Y-119763787D01*
X186932098Y-119779889D01*
X186934212Y-119781874D01*
X186934214Y-119781877D01*
X186965852Y-119811587D01*
X186983240Y-119827916D01*
X186986035Y-119830625D01*
X187005530Y-119850120D01*
X187008704Y-119852582D01*
X187017568Y-119860153D01*
X187049418Y-119890062D01*
X187059315Y-119895503D01*
X187066974Y-119899714D01*
X187083231Y-119910392D01*
X187099064Y-119922674D01*
X187115185Y-119929649D01*
X187139156Y-119940023D01*
X187149643Y-119945160D01*
X187187908Y-119966197D01*
X187207316Y-119971180D01*
X187225710Y-119977478D01*
X187244105Y-119985438D01*
X187287254Y-119992271D01*
X187298680Y-119994638D01*
X187314222Y-119998629D01*
X187340980Y-120005500D01*
X187340981Y-120005500D01*
X187361016Y-120005500D01*
X187380413Y-120007026D01*
X187400196Y-120010160D01*
X187443674Y-120006050D01*
X187455344Y-120005500D01*
X190429151Y-120005500D01*
X190452385Y-120007696D01*
X190460412Y-120009227D01*
X190515759Y-120005745D01*
X190523545Y-120005500D01*
X190539351Y-120005500D01*
X190543582Y-120004965D01*
X190555036Y-120003517D01*
X190562738Y-120002788D01*
X190618138Y-119999304D01*
X190625902Y-119996781D01*
X190648676Y-119991689D01*
X190656792Y-119990664D01*
X190708396Y-119970231D01*
X190715671Y-119967612D01*
X190768441Y-119950467D01*
X190775337Y-119946090D01*
X190796132Y-119935494D01*
X190803732Y-119932486D01*
X190848624Y-119899869D01*
X190855026Y-119895517D01*
X190901877Y-119865786D01*
X190907461Y-119859838D01*
X190924979Y-119844394D01*
X190931587Y-119839594D01*
X190931588Y-119839591D01*
X190931590Y-119839591D01*
X190963153Y-119801437D01*
X190966939Y-119796859D01*
X190972080Y-119791027D01*
X191010062Y-119750582D01*
X191013999Y-119743418D01*
X191027119Y-119724114D01*
X191032324Y-119717823D01*
X191055942Y-119667630D01*
X191059467Y-119660711D01*
X191086197Y-119612092D01*
X191088228Y-119604177D01*
X191096132Y-119582223D01*
X191099614Y-119574826D01*
X191110010Y-119520325D01*
X191111698Y-119512768D01*
X191125500Y-119459019D01*
X191125500Y-119450849D01*
X191127696Y-119427615D01*
X191129227Y-119419587D01*
X191125745Y-119364241D01*
X191125500Y-119356455D01*
X191125500Y-116840000D01*
X198368512Y-116840000D01*
X198388432Y-117105813D01*
X198447748Y-117365694D01*
X198535707Y-117589807D01*
X198545134Y-117613826D01*
X198551095Y-117624151D01*
X198676466Y-117841301D01*
X198678414Y-117844674D01*
X198844612Y-118053079D01*
X199040014Y-118234386D01*
X199260257Y-118384545D01*
X199500419Y-118500201D01*
X199736214Y-118572934D01*
X199755137Y-118578771D01*
X200018719Y-118618500D01*
X200018720Y-118618500D01*
X200285280Y-118618500D01*
X200285281Y-118618500D01*
X200417071Y-118598635D01*
X200548863Y-118578771D01*
X200803581Y-118500201D01*
X201043744Y-118384545D01*
X201263986Y-118234386D01*
X201459388Y-118053079D01*
X201625586Y-117844674D01*
X201758866Y-117613826D01*
X201856252Y-117365692D01*
X201915567Y-117105815D01*
X201935487Y-116840000D01*
X201915567Y-116574185D01*
X201856252Y-116314308D01*
X201758866Y-116066174D01*
X201625586Y-115835326D01*
X201459388Y-115626921D01*
X201459387Y-115626920D01*
X201263988Y-115445615D01*
X201160331Y-115374943D01*
X201043744Y-115295455D01*
X201043741Y-115295454D01*
X201043739Y-115295452D01*
X200803583Y-115179800D01*
X200803581Y-115179799D01*
X200712779Y-115151790D01*
X200548862Y-115101228D01*
X200285281Y-115061500D01*
X200285280Y-115061500D01*
X200018720Y-115061500D01*
X200018719Y-115061500D01*
X199755137Y-115101228D01*
X199500419Y-115179799D01*
X199260256Y-115295455D01*
X199040014Y-115445613D01*
X198844612Y-115626920D01*
X198678413Y-115835326D01*
X198545133Y-116066175D01*
X198447748Y-116314305D01*
X198388432Y-116574186D01*
X198368512Y-116840000D01*
X191125500Y-116840000D01*
X191125500Y-40710849D01*
X191127696Y-40687615D01*
X191129227Y-40679587D01*
X191125745Y-40624241D01*
X191125500Y-40616455D01*
X191125500Y-40600650D01*
X191123517Y-40584957D01*
X191122789Y-40577266D01*
X191119304Y-40521862D01*
X191116777Y-40514086D01*
X191111688Y-40491317D01*
X191110664Y-40483208D01*
X191090233Y-40431606D01*
X191087608Y-40424315D01*
X191070467Y-40371559D01*
X191066087Y-40364657D01*
X191055495Y-40343869D01*
X191052486Y-40336268D01*
X191019870Y-40291377D01*
X191015503Y-40284949D01*
X190985786Y-40238123D01*
X190979833Y-40232533D01*
X190964396Y-40215023D01*
X190959593Y-40208412D01*
X190916861Y-40173061D01*
X190911018Y-40167910D01*
X190870582Y-40129938D01*
X190863415Y-40125998D01*
X190844113Y-40112879D01*
X190837824Y-40107676D01*
X190804780Y-40092127D01*
X190787633Y-40084058D01*
X190780700Y-40080525D01*
X190732093Y-40053803D01*
X190728813Y-40052961D01*
X190724173Y-40051769D01*
X190702223Y-40043866D01*
X190694826Y-40040386D01*
X190694824Y-40040385D01*
X190640356Y-40029994D01*
X190632759Y-40028296D01*
X190579021Y-40014500D01*
X190579019Y-40014500D01*
X190570849Y-40014500D01*
X190547615Y-40012304D01*
X190539587Y-40010772D01*
X190484241Y-40014255D01*
X190476455Y-40014500D01*
X187247535Y-40014500D01*
X187189214Y-39999929D01*
X187144600Y-39959640D01*
X187124177Y-39903101D01*
X187119999Y-39862203D01*
X187093691Y-39782811D01*
X187064814Y-39695666D01*
X186972712Y-39546344D01*
X186972711Y-39546342D01*
X186848657Y-39422288D01*
X186699334Y-39330186D01*
X186532797Y-39275000D01*
X186430009Y-39264500D01*
X185529991Y-39264500D01*
X185427203Y-39275000D01*
X185260665Y-39330186D01*
X185111342Y-39422288D01*
X184987288Y-39546342D01*
X184895186Y-39695665D01*
X184840000Y-39862202D01*
X184829500Y-39964991D01*
X184829500Y-40963904D01*
X184819302Y-41013149D01*
X184814561Y-41024103D01*
X184807728Y-41067242D01*
X184805360Y-41078674D01*
X184794500Y-41120978D01*
X184794500Y-41141016D01*
X184792973Y-41160415D01*
X184789840Y-41180194D01*
X184793950Y-41223675D01*
X184794500Y-41235344D01*
X184794500Y-47949547D01*
X184785061Y-47997000D01*
X184758181Y-48037228D01*
X183927228Y-48868181D01*
X183887000Y-48895061D01*
X183839547Y-48904500D01*
X180539499Y-48904500D01*
X180477499Y-48887887D01*
X180432112Y-48842500D01*
X180415499Y-48780500D01*
X180415499Y-48632130D01*
X180412526Y-48604474D01*
X180409091Y-48572517D01*
X180358796Y-48437669D01*
X180272546Y-48322454D01*
X180157331Y-48236204D01*
X180022483Y-48185909D01*
X179962873Y-48179500D01*
X179962869Y-48179500D01*
X178167130Y-48179500D01*
X178107515Y-48185909D01*
X177972669Y-48236204D01*
X177857454Y-48322454D01*
X177771204Y-48437668D01*
X177720909Y-48572515D01*
X177720909Y-48572517D01*
X177716554Y-48613029D01*
X177714500Y-48632130D01*
X177714500Y-50427869D01*
X177720909Y-50487484D01*
X177746056Y-50554907D01*
X177771204Y-50622331D01*
X177857454Y-50737546D01*
X177972669Y-50823796D01*
X178104598Y-50873002D01*
X178154978Y-50907981D01*
X178182431Y-50962825D01*
X178180242Y-51024118D01*
X178148947Y-51076865D01*
X178026888Y-51198924D01*
X177891400Y-51392421D01*
X177791569Y-51606507D01*
X177734364Y-51819999D01*
X177734364Y-51820000D01*
X180395636Y-51820000D01*
X180395635Y-51819999D01*
X180338430Y-51606507D01*
X180238599Y-51392421D01*
X180103109Y-51198921D01*
X179981053Y-51076865D01*
X179949757Y-51024119D01*
X179947568Y-50962826D01*
X179975021Y-50907981D01*
X180025398Y-50873003D01*
X180157331Y-50823796D01*
X180272546Y-50737546D01*
X180358796Y-50622331D01*
X180409091Y-50487483D01*
X180415500Y-50427873D01*
X180415500Y-50279500D01*
X180432113Y-50217500D01*
X180477500Y-50172113D01*
X180539500Y-50155500D01*
X184067256Y-50155500D01*
X184087762Y-50157764D01*
X184090665Y-50157672D01*
X184090667Y-50157673D01*
X184157872Y-50155561D01*
X184161768Y-50155500D01*
X184189349Y-50155500D01*
X184189350Y-50155500D01*
X184193319Y-50154998D01*
X184204965Y-50154080D01*
X184248627Y-50152709D01*
X184267859Y-50147120D01*
X184286918Y-50143174D01*
X184293196Y-50142381D01*
X184306792Y-50140664D01*
X184347407Y-50124582D01*
X184358444Y-50120803D01*
X184400390Y-50108618D01*
X184417629Y-50098422D01*
X184435102Y-50089862D01*
X184453732Y-50082486D01*
X184489064Y-50056814D01*
X184498830Y-50050400D01*
X184536418Y-50028171D01*
X184536417Y-50028171D01*
X184536420Y-50028170D01*
X184550585Y-50014004D01*
X184565373Y-50001373D01*
X184581587Y-49989594D01*
X184609438Y-49955926D01*
X184617279Y-49947309D01*
X185803788Y-48760801D01*
X185819885Y-48747906D01*
X185821873Y-48745787D01*
X185821877Y-48745786D01*
X185867948Y-48696723D01*
X185870566Y-48694023D01*
X185890120Y-48674471D01*
X185892581Y-48671298D01*
X185900156Y-48662427D01*
X185930062Y-48630582D01*
X185939717Y-48613018D01*
X185950394Y-48596764D01*
X185962673Y-48580936D01*
X185980018Y-48540852D01*
X185985160Y-48530356D01*
X186006197Y-48492092D01*
X186011179Y-48472684D01*
X186017481Y-48454280D01*
X186025437Y-48435896D01*
X186032269Y-48392752D01*
X186034633Y-48381338D01*
X186045500Y-48339019D01*
X186045500Y-48318984D01*
X186047027Y-48299585D01*
X186049567Y-48283545D01*
X186050160Y-48279804D01*
X186046050Y-48236325D01*
X186045500Y-48224656D01*
X186045500Y-42139499D01*
X186062113Y-42077499D01*
X186107500Y-42032112D01*
X186169500Y-42015499D01*
X186430009Y-42015499D01*
X186481402Y-42010248D01*
X186532797Y-42004999D01*
X186699334Y-41949814D01*
X186848656Y-41857712D01*
X186972712Y-41733656D01*
X187064814Y-41584334D01*
X187119999Y-41417797D01*
X187124177Y-41376898D01*
X187144599Y-41320361D01*
X187189214Y-41280071D01*
X187247535Y-41265500D01*
X189750500Y-41265500D01*
X189812500Y-41282113D01*
X189857887Y-41327500D01*
X189874500Y-41389500D01*
X189874500Y-118630500D01*
X189857887Y-118692500D01*
X189812500Y-118737887D01*
X189750500Y-118754500D01*
X187730452Y-118754500D01*
X187682999Y-118745061D01*
X187642771Y-118718181D01*
X187081819Y-118157228D01*
X187054939Y-118117000D01*
X187045500Y-118069547D01*
X187045500Y-117834143D01*
X187057579Y-117780760D01*
X187091464Y-117737777D01*
X187140552Y-117713569D01*
X187195281Y-117712853D01*
X187325352Y-117740500D01*
X187325354Y-117740500D01*
X187514646Y-117740500D01*
X187514648Y-117740500D01*
X187647125Y-117712341D01*
X187699803Y-117701144D01*
X187869563Y-117625560D01*
X187919999Y-117614840D01*
X187970435Y-117625561D01*
X188140197Y-117701144D01*
X188325352Y-117740500D01*
X188325354Y-117740500D01*
X188514646Y-117740500D01*
X188514648Y-117740500D01*
X188647125Y-117712341D01*
X188699803Y-117701144D01*
X188872730Y-117624151D01*
X189025871Y-117512888D01*
X189152533Y-117372216D01*
X189247179Y-117208284D01*
X189305674Y-117028256D01*
X189325460Y-116840000D01*
X189305674Y-116651744D01*
X189275332Y-116558363D01*
X189247179Y-116471715D01*
X189152535Y-116307786D01*
X189139427Y-116293229D01*
X189077347Y-116224282D01*
X189053736Y-116185751D01*
X189045500Y-116141313D01*
X189045500Y-53882740D01*
X189047763Y-53862236D01*
X189045561Y-53792144D01*
X189045500Y-53788250D01*
X189045500Y-53760657D01*
X189045500Y-53760650D01*
X189044995Y-53756653D01*
X189044080Y-53745023D01*
X189042709Y-53701373D01*
X189037120Y-53682140D01*
X189033174Y-53663082D01*
X189030664Y-53643208D01*
X189014588Y-53602606D01*
X189010804Y-53591552D01*
X188998619Y-53549613D01*
X188998618Y-53549612D01*
X188998618Y-53549610D01*
X188988417Y-53532361D01*
X188979860Y-53514895D01*
X188972486Y-53496268D01*
X188946813Y-53460932D01*
X188940402Y-53451172D01*
X188918169Y-53413578D01*
X188904006Y-53399415D01*
X188891369Y-53384620D01*
X188879595Y-53368414D01*
X188879594Y-53368413D01*
X188845935Y-53340568D01*
X188837305Y-53332714D01*
X188460802Y-52956211D01*
X188447906Y-52940113D01*
X188396775Y-52892098D01*
X188393978Y-52889387D01*
X188374470Y-52869879D01*
X188371290Y-52867412D01*
X188362424Y-52859839D01*
X188330582Y-52829938D01*
X188313024Y-52820285D01*
X188296764Y-52809604D01*
X188280936Y-52797327D01*
X188240851Y-52779980D01*
X188230361Y-52774841D01*
X188192091Y-52753802D01*
X188172691Y-52748821D01*
X188154284Y-52742519D01*
X188135897Y-52734562D01*
X188092758Y-52727729D01*
X188081324Y-52725361D01*
X188039019Y-52714500D01*
X188018984Y-52714500D01*
X187999586Y-52712973D01*
X187992162Y-52711797D01*
X187979805Y-52709840D01*
X187979804Y-52709840D01*
X187953484Y-52712328D01*
X187936325Y-52713950D01*
X187924656Y-52714500D01*
X180448666Y-52714500D01*
X180389023Y-52699214D01*
X180344085Y-52657124D01*
X180324931Y-52598608D01*
X180336285Y-52538093D01*
X180338430Y-52533492D01*
X180395636Y-52320000D01*
X177710953Y-52320000D01*
X177663500Y-52310561D01*
X177623272Y-52283681D01*
X173215802Y-47876211D01*
X173202906Y-47860113D01*
X173151775Y-47812098D01*
X173148978Y-47809387D01*
X173129470Y-47789879D01*
X173126290Y-47787412D01*
X173117424Y-47779839D01*
X173085582Y-47749938D01*
X173068024Y-47740285D01*
X173051764Y-47729604D01*
X173035936Y-47717327D01*
X172995851Y-47699980D01*
X172985361Y-47694841D01*
X172947091Y-47673802D01*
X172927691Y-47668821D01*
X172909284Y-47662519D01*
X172890897Y-47654562D01*
X172847758Y-47647729D01*
X172836324Y-47645361D01*
X172794019Y-47634500D01*
X172773984Y-47634500D01*
X172754586Y-47632973D01*
X172747162Y-47631797D01*
X172734805Y-47629840D01*
X172734804Y-47629840D01*
X172701751Y-47632964D01*
X172691325Y-47633950D01*
X172679656Y-47634500D01*
X161187799Y-47634500D01*
X161130542Y-47620489D01*
X161086224Y-47581623D01*
X161036423Y-47510500D01*
X160990826Y-47445380D01*
X160834620Y-47289174D01*
X160653662Y-47162466D01*
X160502978Y-47092201D01*
X160453451Y-47069106D01*
X160240065Y-47011929D01*
X160020000Y-46992676D01*
X159799934Y-47011929D01*
X159586548Y-47069106D01*
X159386338Y-47162466D01*
X159205379Y-47289174D01*
X159049174Y-47445379D01*
X158922466Y-47626338D01*
X158829106Y-47826548D01*
X158771929Y-48039934D01*
X158752676Y-48259999D01*
X158771929Y-48480065D01*
X158829106Y-48693451D01*
X158854499Y-48747906D01*
X158922466Y-48893662D01*
X159049174Y-49074620D01*
X159205380Y-49230826D01*
X159386338Y-49357534D01*
X159505748Y-49413215D01*
X159515189Y-49417618D01*
X159567365Y-49463375D01*
X159586784Y-49530000D01*
X159567365Y-49596625D01*
X159515189Y-49642382D01*
X159386338Y-49702466D01*
X159205379Y-49829174D01*
X159049174Y-49985379D01*
X158922466Y-50166338D01*
X158829106Y-50366548D01*
X158771929Y-50579934D01*
X158752676Y-50799999D01*
X158771929Y-51020065D01*
X158829106Y-51233451D01*
X158854954Y-51288882D01*
X158922466Y-51433662D01*
X159049174Y-51614620D01*
X159205380Y-51770826D01*
X159386338Y-51897534D01*
X159505748Y-51953215D01*
X159515189Y-51957618D01*
X159567365Y-52003375D01*
X159586784Y-52070000D01*
X159567365Y-52136625D01*
X159515189Y-52182382D01*
X159386338Y-52242466D01*
X159205379Y-52369174D01*
X159049174Y-52525379D01*
X158922466Y-52706338D01*
X158829106Y-52906548D01*
X158771929Y-53119934D01*
X158752676Y-53340000D01*
X158771929Y-53560065D01*
X158829106Y-53773451D01*
X158918660Y-53965500D01*
X158922466Y-53973662D01*
X159049174Y-54154620D01*
X159205380Y-54310826D01*
X159386338Y-54437534D01*
X159505748Y-54493215D01*
X159515189Y-54497618D01*
X159567365Y-54543375D01*
X159586784Y-54610000D01*
X159567365Y-54676625D01*
X159515189Y-54722382D01*
X159386338Y-54782466D01*
X159205379Y-54909174D01*
X159049174Y-55065379D01*
X158922466Y-55246338D01*
X158829106Y-55446548D01*
X158771929Y-55659934D01*
X158752676Y-55879999D01*
X158771929Y-56100065D01*
X158829106Y-56313451D01*
X158918660Y-56505500D01*
X158922466Y-56513662D01*
X159049174Y-56694620D01*
X159205380Y-56850826D01*
X159386338Y-56977534D01*
X159505748Y-57033215D01*
X159515189Y-57037618D01*
X159567365Y-57083375D01*
X159586784Y-57150000D01*
X159567365Y-57216625D01*
X159515189Y-57262382D01*
X159386338Y-57322466D01*
X159205379Y-57449174D01*
X159049174Y-57605379D01*
X158922466Y-57786338D01*
X158829106Y-57986548D01*
X158771929Y-58199934D01*
X158752676Y-58419999D01*
X158771929Y-58640065D01*
X158829106Y-58853451D01*
X158927051Y-59063494D01*
X158925698Y-59064124D01*
X158943726Y-59115392D01*
X158929980Y-59180758D01*
X158884318Y-59229509D01*
X158819991Y-59247500D01*
X156703452Y-59247500D01*
X156655999Y-59238061D01*
X156615771Y-59211181D01*
X153668386Y-56263795D01*
X153636292Y-56208206D01*
X153636293Y-56144018D01*
X153640635Y-56127816D01*
X153648070Y-56100068D01*
X153667323Y-55880000D01*
X153648070Y-55659932D01*
X153636292Y-55615976D01*
X153636292Y-55551790D01*
X153668384Y-55496204D01*
X157863789Y-51300800D01*
X157879885Y-51287906D01*
X157881873Y-51285787D01*
X157881877Y-51285786D01*
X157927948Y-51236723D01*
X157930566Y-51234023D01*
X157950120Y-51214471D01*
X157952581Y-51211298D01*
X157960156Y-51202427D01*
X157990062Y-51170582D01*
X157999712Y-51153027D01*
X158010400Y-51136757D01*
X158022671Y-51120938D01*
X158022673Y-51120936D01*
X158040026Y-51080832D01*
X158045157Y-51070362D01*
X158066197Y-51032092D01*
X158071175Y-51012699D01*
X158077481Y-50994282D01*
X158079018Y-50990728D01*
X158085438Y-50975896D01*
X158092272Y-50932745D01*
X158094635Y-50921331D01*
X158105500Y-50879019D01*
X158105500Y-50858984D01*
X158107027Y-50839585D01*
X158110160Y-50819804D01*
X158106050Y-50776325D01*
X158105500Y-50764656D01*
X158105500Y-46469500D01*
X158122113Y-46407500D01*
X158167500Y-46362113D01*
X158229500Y-46345500D01*
X177717256Y-46345500D01*
X177737762Y-46347764D01*
X177740665Y-46347672D01*
X177740667Y-46347673D01*
X177807872Y-46345561D01*
X177811768Y-46345500D01*
X177839349Y-46345500D01*
X177839350Y-46345500D01*
X177843319Y-46344998D01*
X177854965Y-46344080D01*
X177898627Y-46342709D01*
X177917859Y-46337120D01*
X177936918Y-46333174D01*
X177943196Y-46332381D01*
X177956792Y-46330664D01*
X177997407Y-46314582D01*
X178008444Y-46310803D01*
X178050390Y-46298618D01*
X178067629Y-46288422D01*
X178085102Y-46279862D01*
X178103732Y-46272486D01*
X178139064Y-46246814D01*
X178148830Y-46240400D01*
X178186418Y-46218171D01*
X178186417Y-46218171D01*
X178186420Y-46218170D01*
X178200585Y-46204004D01*
X178215373Y-46191373D01*
X178231587Y-46179594D01*
X178259438Y-46145926D01*
X178267279Y-46137309D01*
X182352773Y-42051815D01*
X182392998Y-42024938D01*
X182440446Y-42015499D01*
X183330008Y-42015499D01*
X183330009Y-42015499D01*
X183381402Y-42010248D01*
X183432797Y-42004999D01*
X183599334Y-41949814D01*
X183748656Y-41857712D01*
X183872712Y-41733656D01*
X183964814Y-41584334D01*
X184019999Y-41417797D01*
X184030500Y-41315009D01*
X184030499Y-39964992D01*
X184019999Y-39862203D01*
X183964814Y-39695666D01*
X183872712Y-39546344D01*
X183872711Y-39546342D01*
X183748657Y-39422288D01*
X183599334Y-39330186D01*
X183432797Y-39275000D01*
X183330009Y-39264500D01*
X182429991Y-39264500D01*
X182327203Y-39275000D01*
X182160665Y-39330186D01*
X182011342Y-39422288D01*
X181887288Y-39546342D01*
X181795186Y-39695665D01*
X181740000Y-39862202D01*
X181729500Y-39964991D01*
X181729500Y-40854547D01*
X181720061Y-40902000D01*
X181693181Y-40942228D01*
X177577228Y-45058181D01*
X177537000Y-45085061D01*
X177489547Y-45094500D01*
X157550849Y-45094500D01*
X157527615Y-45092304D01*
X157519587Y-45090772D01*
X157464241Y-45094255D01*
X157456455Y-45094500D01*
X157440650Y-45094500D01*
X157424957Y-45096481D01*
X157417215Y-45097212D01*
X157361862Y-45100695D01*
X157354085Y-45103222D01*
X157331322Y-45108310D01*
X157323210Y-45109335D01*
X157271619Y-45129760D01*
X157264296Y-45132396D01*
X157211559Y-45149532D01*
X157204656Y-45153913D01*
X157183876Y-45164501D01*
X157176268Y-45167513D01*
X157131389Y-45200119D01*
X157124952Y-45204494D01*
X157078120Y-45234215D01*
X157072528Y-45240171D01*
X157055031Y-45255597D01*
X157048412Y-45260406D01*
X157013053Y-45303146D01*
X157007905Y-45308986D01*
X156969938Y-45349417D01*
X156965997Y-45356586D01*
X156952886Y-45375878D01*
X156947675Y-45382176D01*
X156924060Y-45432360D01*
X156920526Y-45439296D01*
X156893802Y-45487908D01*
X156891770Y-45495823D01*
X156883868Y-45517774D01*
X156880385Y-45525174D01*
X156869993Y-45579650D01*
X156868295Y-45587247D01*
X156854500Y-45640980D01*
X156854500Y-45649151D01*
X156852304Y-45672385D01*
X156850772Y-45680412D01*
X156854255Y-45735759D01*
X156854500Y-45743545D01*
X156854500Y-50489548D01*
X156845061Y-50537001D01*
X156818181Y-50577229D01*
X153871017Y-53524392D01*
X153819590Y-53555293D01*
X153759676Y-53558433D01*
X153705300Y-53533077D01*
X153669193Y-53485162D01*
X153659808Y-53425904D01*
X153666096Y-53354021D01*
X153667323Y-53340000D01*
X153648070Y-53119932D01*
X153590894Y-52906550D01*
X153497534Y-52706339D01*
X153370826Y-52525380D01*
X153214620Y-52369174D01*
X153033662Y-52242466D01*
X152904811Y-52182382D01*
X152852635Y-52136625D01*
X152833216Y-52070000D01*
X152852635Y-52003375D01*
X152904811Y-51957618D01*
X152910027Y-51955185D01*
X153033662Y-51897534D01*
X153214620Y-51770826D01*
X153370826Y-51614620D01*
X153497534Y-51433662D01*
X153590894Y-51233450D01*
X153648070Y-51020068D01*
X153667323Y-50800000D01*
X153648070Y-50579932D01*
X153590894Y-50366550D01*
X153497534Y-50166339D01*
X153370826Y-49985380D01*
X153214620Y-49829174D01*
X153033662Y-49702466D01*
X152904811Y-49642382D01*
X152852635Y-49596625D01*
X152833216Y-49530000D01*
X152852635Y-49463375D01*
X152904811Y-49417618D01*
X152910027Y-49415185D01*
X153033662Y-49357534D01*
X153214620Y-49230826D01*
X153370826Y-49074620D01*
X153497534Y-48893662D01*
X153590894Y-48693450D01*
X153648070Y-48480068D01*
X153667323Y-48260000D01*
X153648070Y-48039932D01*
X153590894Y-47826550D01*
X153497534Y-47626339D01*
X153370826Y-47445380D01*
X153214620Y-47289174D01*
X153078376Y-47193775D01*
X153039511Y-47149458D01*
X153025500Y-47092201D01*
X153025500Y-41711601D01*
X153035512Y-41662788D01*
X153063930Y-41621858D01*
X153106165Y-41595419D01*
X153137331Y-41583796D01*
X153252546Y-41497546D01*
X153338796Y-41382331D01*
X153389091Y-41247483D01*
X153395500Y-41187873D01*
X153395500Y-40890000D01*
X158895000Y-40890000D01*
X158895000Y-41187824D01*
X158901402Y-41247375D01*
X158951647Y-41382089D01*
X159037811Y-41497188D01*
X159152910Y-41583352D01*
X159287624Y-41633597D01*
X159347176Y-41640000D01*
X159770000Y-41640000D01*
X159770000Y-40890000D01*
X160270000Y-40890000D01*
X160270000Y-41640000D01*
X160692824Y-41640000D01*
X160752375Y-41633597D01*
X160887089Y-41583352D01*
X161002188Y-41497188D01*
X161088352Y-41382089D01*
X161138597Y-41247375D01*
X161145000Y-41187824D01*
X161145000Y-40890000D01*
X160270000Y-40890000D01*
X159770000Y-40890000D01*
X158895000Y-40890000D01*
X153395500Y-40890000D01*
X153395499Y-40390000D01*
X158895000Y-40390000D01*
X159770000Y-40390000D01*
X159770000Y-39640000D01*
X160270000Y-39640000D01*
X160270000Y-40390000D01*
X161145000Y-40390000D01*
X161145000Y-40092176D01*
X161138597Y-40032624D01*
X161088352Y-39897910D01*
X161002188Y-39782811D01*
X160887089Y-39696647D01*
X160752375Y-39646402D01*
X160692824Y-39640000D01*
X160270000Y-39640000D01*
X159770000Y-39640000D01*
X159347176Y-39640000D01*
X159287624Y-39646402D01*
X159152910Y-39696647D01*
X159037811Y-39782811D01*
X158951647Y-39897910D01*
X158901402Y-40032624D01*
X158895000Y-40092176D01*
X158895000Y-40390000D01*
X153395499Y-40390000D01*
X153395499Y-40092128D01*
X153389091Y-40032517D01*
X153338796Y-39897669D01*
X153252546Y-39782454D01*
X153137331Y-39696204D01*
X153002483Y-39645909D01*
X152942873Y-39639500D01*
X152942869Y-39639500D01*
X151597130Y-39639500D01*
X151537515Y-39645909D01*
X151402669Y-39696204D01*
X151287454Y-39782454D01*
X151201204Y-39897668D01*
X151150909Y-40032515D01*
X151150909Y-40032517D01*
X151145748Y-40080525D01*
X151144500Y-40092130D01*
X151144500Y-41187869D01*
X151150909Y-41247484D01*
X151163825Y-41282113D01*
X151201204Y-41382331D01*
X151287454Y-41497546D01*
X151402669Y-41583796D01*
X151537517Y-41634091D01*
X151597127Y-41640500D01*
X151650500Y-41640500D01*
X151712500Y-41657113D01*
X151757887Y-41702500D01*
X151774500Y-41764500D01*
X151774500Y-47092201D01*
X151760489Y-47149458D01*
X151721623Y-47193776D01*
X151585379Y-47289174D01*
X151429174Y-47445379D01*
X151333776Y-47581623D01*
X151289458Y-47620489D01*
X151232201Y-47634500D01*
X141527535Y-47634500D01*
X141469214Y-47619929D01*
X141424600Y-47579640D01*
X141404177Y-47523101D01*
X141399999Y-47482203D01*
X141387797Y-47445379D01*
X141344814Y-47315666D01*
X141252712Y-47166344D01*
X141252711Y-47166342D01*
X141128657Y-47042288D01*
X140979334Y-46950186D01*
X140812797Y-46895000D01*
X140710009Y-46884500D01*
X139809991Y-46884500D01*
X139707203Y-46895000D01*
X139540665Y-46950186D01*
X139391342Y-47042288D01*
X139267288Y-47166342D01*
X139175186Y-47315665D01*
X139120000Y-47482202D01*
X139109500Y-47584990D01*
X139109500Y-48935008D01*
X139120000Y-49037796D01*
X139175186Y-49204334D01*
X139267288Y-49353657D01*
X139391342Y-49477711D01*
X139391344Y-49477712D01*
X139540666Y-49569814D01*
X139652017Y-49606712D01*
X139707202Y-49624999D01*
X139717703Y-49626071D01*
X139809991Y-49635500D01*
X140710008Y-49635499D01*
X140812797Y-49624999D01*
X140979334Y-49569814D01*
X141128656Y-49477712D01*
X141252712Y-49353656D01*
X141344814Y-49204334D01*
X141399999Y-49037797D01*
X141404177Y-48996898D01*
X141424599Y-48940361D01*
X141469214Y-48900071D01*
X141527535Y-48885500D01*
X151232201Y-48885500D01*
X151289458Y-48899511D01*
X151333775Y-48938376D01*
X151429174Y-49074620D01*
X151585380Y-49230826D01*
X151766338Y-49357534D01*
X151885748Y-49413215D01*
X151895189Y-49417618D01*
X151947365Y-49463375D01*
X151966784Y-49530000D01*
X151947365Y-49596625D01*
X151895189Y-49642382D01*
X151766338Y-49702466D01*
X151585379Y-49829174D01*
X151429174Y-49985379D01*
X151333776Y-50121623D01*
X151289458Y-50160489D01*
X151232201Y-50174500D01*
X146225150Y-50174500D01*
X146178488Y-50165385D01*
X146138685Y-50139381D01*
X146111594Y-50100310D01*
X146104174Y-50083395D01*
X146103580Y-50082486D01*
X145968164Y-49875215D01*
X145799744Y-49692262D01*
X145777612Y-49675036D01*
X145603514Y-49539529D01*
X145603510Y-49539526D01*
X145603509Y-49539526D01*
X145384810Y-49421172D01*
X145384806Y-49421170D01*
X145384805Y-49421170D01*
X145149615Y-49340429D01*
X144904335Y-49299500D01*
X144655665Y-49299500D01*
X144410384Y-49340429D01*
X144175194Y-49421170D01*
X143956485Y-49539529D01*
X143760259Y-49692259D01*
X143591837Y-49875214D01*
X143455825Y-50083395D01*
X143388160Y-50237658D01*
X143355937Y-50311119D01*
X143298736Y-50537001D01*
X143294891Y-50552183D01*
X143274356Y-50799999D01*
X143294891Y-51047816D01*
X143294891Y-51047819D01*
X143294892Y-51047821D01*
X143355937Y-51288881D01*
X143400960Y-51391523D01*
X143455825Y-51516604D01*
X143455827Y-51516607D01*
X143591836Y-51724785D01*
X143760256Y-51907738D01*
X143760259Y-51907740D01*
X143956485Y-52060470D01*
X143956487Y-52060471D01*
X143956491Y-52060474D01*
X144175190Y-52178828D01*
X144410386Y-52259571D01*
X144655665Y-52300500D01*
X144904335Y-52300500D01*
X145149614Y-52259571D01*
X145384810Y-52178828D01*
X145603509Y-52060474D01*
X145799744Y-51907738D01*
X145968164Y-51724785D01*
X146104173Y-51516607D01*
X146106851Y-51510500D01*
X146111594Y-51499690D01*
X146138685Y-51460619D01*
X146178488Y-51434615D01*
X146225150Y-51425500D01*
X151232201Y-51425500D01*
X151289458Y-51439511D01*
X151333775Y-51478376D01*
X151429174Y-51614620D01*
X151585380Y-51770826D01*
X151766338Y-51897534D01*
X151885748Y-51953215D01*
X151895189Y-51957618D01*
X151947365Y-52003375D01*
X151966784Y-52070000D01*
X151947365Y-52136625D01*
X151895189Y-52182382D01*
X151766338Y-52242466D01*
X151585379Y-52369174D01*
X151429174Y-52525379D01*
X151333776Y-52661623D01*
X151289458Y-52700489D01*
X151232201Y-52714500D01*
X148765150Y-52714500D01*
X148718488Y-52705385D01*
X148678685Y-52679381D01*
X148651594Y-52640310D01*
X148644174Y-52623395D01*
X148627980Y-52598608D01*
X148508164Y-52415215D01*
X148339744Y-52232262D01*
X148317612Y-52215036D01*
X148143514Y-52079529D01*
X148143510Y-52079526D01*
X148143509Y-52079526D01*
X147924810Y-51961172D01*
X147924806Y-51961170D01*
X147924805Y-51961170D01*
X147689615Y-51880429D01*
X147444335Y-51839500D01*
X147195665Y-51839500D01*
X146950384Y-51880429D01*
X146715194Y-51961170D01*
X146496485Y-52079529D01*
X146300259Y-52232259D01*
X146300256Y-52232261D01*
X146300256Y-52232262D01*
X146252922Y-52283681D01*
X146131837Y-52415214D01*
X145995825Y-52623395D01*
X145928647Y-52776547D01*
X145895937Y-52851119D01*
X145873401Y-52940113D01*
X145834891Y-53092183D01*
X145814356Y-53339999D01*
X145834891Y-53587816D01*
X145834891Y-53587819D01*
X145834892Y-53587821D01*
X145895937Y-53828881D01*
X145919562Y-53882740D01*
X145995825Y-54056604D01*
X145995827Y-54056607D01*
X146131836Y-54264785D01*
X146300256Y-54447738D01*
X146300259Y-54447740D01*
X146496485Y-54600470D01*
X146496487Y-54600471D01*
X146496491Y-54600474D01*
X146715190Y-54718828D01*
X146950386Y-54799571D01*
X147195665Y-54840500D01*
X147444335Y-54840500D01*
X147689614Y-54799571D01*
X147924810Y-54718828D01*
X148143509Y-54600474D01*
X148339744Y-54447738D01*
X148508164Y-54264785D01*
X148644173Y-54056607D01*
X148646851Y-54050500D01*
X148651594Y-54039690D01*
X148678685Y-54000619D01*
X148718488Y-53974615D01*
X148765150Y-53965500D01*
X151232201Y-53965500D01*
X151289458Y-53979511D01*
X151333775Y-54018376D01*
X151429174Y-54154620D01*
X151585380Y-54310826D01*
X151766338Y-54437534D01*
X151885748Y-54493215D01*
X151895189Y-54497618D01*
X151947365Y-54543375D01*
X151966784Y-54610000D01*
X151947365Y-54676625D01*
X151895189Y-54722382D01*
X151766338Y-54782466D01*
X151585379Y-54909174D01*
X151429174Y-55065379D01*
X151302466Y-55246338D01*
X151209106Y-55446548D01*
X151151929Y-55659934D01*
X151132676Y-55879999D01*
X151151929Y-56100065D01*
X151209106Y-56313451D01*
X151298660Y-56505500D01*
X151302466Y-56513662D01*
X151429174Y-56694620D01*
X151585380Y-56850826D01*
X151766338Y-56977534D01*
X151885748Y-57033215D01*
X151895189Y-57037618D01*
X151947365Y-57083375D01*
X151966784Y-57150000D01*
X151947365Y-57216625D01*
X151895189Y-57262382D01*
X151766338Y-57322466D01*
X151585379Y-57449174D01*
X151429174Y-57605379D01*
X151302466Y-57786338D01*
X151209106Y-57986548D01*
X151151929Y-58199934D01*
X151132676Y-58419999D01*
X151151929Y-58640065D01*
X151209106Y-58853451D01*
X151298660Y-59045500D01*
X151302466Y-59053662D01*
X151429174Y-59234620D01*
X151585380Y-59390826D01*
X151766338Y-59517534D01*
X151876744Y-59569017D01*
X151895189Y-59577618D01*
X151947365Y-59623375D01*
X151966784Y-59690000D01*
X151947365Y-59756625D01*
X151895189Y-59802382D01*
X151766338Y-59862466D01*
X151585379Y-59989174D01*
X151429174Y-60145379D01*
X151333776Y-60281623D01*
X151289458Y-60320489D01*
X151232201Y-60334500D01*
X148765150Y-60334500D01*
X148718488Y-60325385D01*
X148678685Y-60299381D01*
X148651594Y-60260310D01*
X148644174Y-60243395D01*
X148644173Y-60243393D01*
X148508164Y-60035215D01*
X148339744Y-59852262D01*
X148317612Y-59835036D01*
X148143514Y-59699529D01*
X148143510Y-59699526D01*
X148143509Y-59699526D01*
X147924810Y-59581172D01*
X147924806Y-59581170D01*
X147924805Y-59581170D01*
X147689615Y-59500429D01*
X147444335Y-59459500D01*
X147195665Y-59459500D01*
X146950384Y-59500429D01*
X146715194Y-59581170D01*
X146496485Y-59699529D01*
X146300259Y-59852259D01*
X146300256Y-59852261D01*
X146300256Y-59852262D01*
X146174220Y-59989174D01*
X146131837Y-60035214D01*
X145995825Y-60243395D01*
X145928267Y-60397413D01*
X145895937Y-60471119D01*
X145873074Y-60561404D01*
X145834891Y-60712183D01*
X145814356Y-60959999D01*
X145834891Y-61207816D01*
X145834891Y-61207819D01*
X145834892Y-61207821D01*
X145895937Y-61448881D01*
X145940960Y-61551523D01*
X145995825Y-61676604D01*
X145995827Y-61676607D01*
X146131836Y-61884785D01*
X146300256Y-62067738D01*
X146300259Y-62067740D01*
X146496485Y-62220470D01*
X146496487Y-62220471D01*
X146496491Y-62220474D01*
X146715190Y-62338828D01*
X146950386Y-62419571D01*
X147195665Y-62460500D01*
X147444335Y-62460500D01*
X147689614Y-62419571D01*
X147924810Y-62338828D01*
X148143509Y-62220474D01*
X148339744Y-62067738D01*
X148508164Y-61884785D01*
X148644173Y-61676607D01*
X148646851Y-61670500D01*
X148651594Y-61659690D01*
X148678685Y-61620619D01*
X148718488Y-61594615D01*
X148765150Y-61585500D01*
X151232201Y-61585500D01*
X151289458Y-61599511D01*
X151333775Y-61638376D01*
X151429174Y-61774620D01*
X151585380Y-61930826D01*
X151766338Y-62057534D01*
X151885748Y-62113215D01*
X151895189Y-62117618D01*
X151947365Y-62163375D01*
X151966784Y-62230000D01*
X151947365Y-62296625D01*
X151895189Y-62342382D01*
X151766338Y-62402466D01*
X151585379Y-62529174D01*
X151429174Y-62685379D01*
X151333776Y-62821623D01*
X151289458Y-62860489D01*
X151232201Y-62874500D01*
X145090452Y-62874500D01*
X145042999Y-62865061D01*
X145002771Y-62838181D01*
X142602753Y-60438163D01*
X140200802Y-58036211D01*
X140187906Y-58020113D01*
X140136775Y-57972098D01*
X140133978Y-57969387D01*
X140114470Y-57949879D01*
X140111290Y-57947412D01*
X140102424Y-57939839D01*
X140070582Y-57909938D01*
X140053024Y-57900285D01*
X140036764Y-57889604D01*
X140020936Y-57877327D01*
X139980851Y-57859980D01*
X139970361Y-57854841D01*
X139932091Y-57833802D01*
X139912691Y-57828821D01*
X139894284Y-57822519D01*
X139875897Y-57814562D01*
X139832758Y-57807729D01*
X139821324Y-57805361D01*
X139779019Y-57794500D01*
X139758984Y-57794500D01*
X139739586Y-57792973D01*
X139732162Y-57791797D01*
X139719805Y-57789840D01*
X139719804Y-57789840D01*
X139686751Y-57792964D01*
X139676325Y-57793950D01*
X139664656Y-57794500D01*
X127749500Y-57794500D01*
X127687500Y-57777887D01*
X127642113Y-57732500D01*
X127625500Y-57670500D01*
X127625500Y-49009500D01*
X127642113Y-48947500D01*
X127687500Y-48902113D01*
X127749500Y-48885500D01*
X135892465Y-48885500D01*
X135950786Y-48900071D01*
X135995400Y-48940360D01*
X136015823Y-48996899D01*
X136020000Y-49037796D01*
X136075186Y-49204334D01*
X136167288Y-49353657D01*
X136291342Y-49477711D01*
X136291344Y-49477712D01*
X136440666Y-49569814D01*
X136552017Y-49606712D01*
X136607202Y-49624999D01*
X136617703Y-49626071D01*
X136709991Y-49635500D01*
X137610008Y-49635499D01*
X137712797Y-49624999D01*
X137879334Y-49569814D01*
X138028656Y-49477712D01*
X138152712Y-49353656D01*
X138244814Y-49204334D01*
X138299999Y-49037797D01*
X138310500Y-48935009D01*
X138310499Y-47584992D01*
X138299999Y-47482203D01*
X138244814Y-47315666D01*
X138152712Y-47166344D01*
X138152711Y-47166342D01*
X138028657Y-47042288D01*
X137879334Y-46950186D01*
X137712797Y-46895000D01*
X137610009Y-46884500D01*
X136709991Y-46884500D01*
X136607203Y-46895000D01*
X136440665Y-46950186D01*
X136291342Y-47042288D01*
X136167288Y-47166342D01*
X136075186Y-47315665D01*
X136020000Y-47482202D01*
X136015823Y-47523101D01*
X135995401Y-47579639D01*
X135950786Y-47619929D01*
X135892465Y-47634500D01*
X127749500Y-47634500D01*
X127687500Y-47617887D01*
X127642113Y-47572500D01*
X127625500Y-47510500D01*
X127625500Y-38849500D01*
X127642113Y-38787500D01*
X127687500Y-38742113D01*
X127749500Y-38725500D01*
X149777256Y-38725500D01*
X149797762Y-38727764D01*
X149800665Y-38727672D01*
X149800667Y-38727673D01*
X149867872Y-38725561D01*
X149871768Y-38725500D01*
X149899349Y-38725500D01*
X149899350Y-38725500D01*
X149903319Y-38724998D01*
X149914965Y-38724080D01*
X149958627Y-38722709D01*
X149977859Y-38717120D01*
X149996918Y-38713174D01*
X150003196Y-38712381D01*
X150016792Y-38710664D01*
X150057407Y-38694582D01*
X150068444Y-38690803D01*
X150110390Y-38678618D01*
X150127629Y-38668422D01*
X150145102Y-38659862D01*
X150163732Y-38652486D01*
X150199064Y-38626814D01*
X150208830Y-38620400D01*
X150246418Y-38598171D01*
X150246417Y-38598171D01*
X150246420Y-38598170D01*
X150260585Y-38584004D01*
X150275373Y-38571373D01*
X150291587Y-38559594D01*
X150319438Y-38525926D01*
X150327279Y-38517309D01*
X153252771Y-35591819D01*
X153293000Y-35564939D01*
X153340453Y-35555500D01*
X153765501Y-35555500D01*
X153827501Y-35572113D01*
X153872888Y-35617500D01*
X153889501Y-35679500D01*
X153889501Y-35727872D01*
X153895909Y-35787483D01*
X153946204Y-35922331D01*
X154032454Y-36037546D01*
X154147669Y-36123796D01*
X154282517Y-36174091D01*
X154342127Y-36180500D01*
X155537872Y-36180499D01*
X155597483Y-36174091D01*
X155732331Y-36123796D01*
X155847546Y-36037546D01*
X155933796Y-35922331D01*
X155984091Y-35787483D01*
X155990500Y-35727873D01*
X155990499Y-34132128D01*
X155984091Y-34072517D01*
X155933796Y-33937669D01*
X155847546Y-33822454D01*
X155732331Y-33736204D01*
X155597483Y-33685909D01*
X155537873Y-33679500D01*
X155537869Y-33679500D01*
X154342130Y-33679500D01*
X154282515Y-33685909D01*
X154147669Y-33736204D01*
X154032454Y-33822454D01*
X153946204Y-33937668D01*
X153895909Y-34072516D01*
X153889500Y-34132131D01*
X153889500Y-34180500D01*
X153872887Y-34242500D01*
X153827500Y-34287887D01*
X153765500Y-34304500D01*
X153112744Y-34304500D01*
X153092237Y-34302235D01*
X153022127Y-34304439D01*
X153018232Y-34304500D01*
X152990650Y-34304500D01*
X152986665Y-34305003D01*
X152975033Y-34305918D01*
X152931369Y-34307290D01*
X152912129Y-34312880D01*
X152893081Y-34316825D01*
X152873209Y-34319335D01*
X152832599Y-34335413D01*
X152821554Y-34339194D01*
X152779610Y-34351381D01*
X152762365Y-34361579D01*
X152744904Y-34370133D01*
X152726267Y-34377512D01*
X152690931Y-34403185D01*
X152681174Y-34409595D01*
X152643580Y-34431829D01*
X152629413Y-34445996D01*
X152614624Y-34458626D01*
X152598413Y-34470404D01*
X152570572Y-34504058D01*
X152562711Y-34512697D01*
X149637228Y-37438181D01*
X149597000Y-37465061D01*
X149549547Y-37474500D01*
X127070849Y-37474500D01*
X127047615Y-37472304D01*
X127039587Y-37470772D01*
X126984241Y-37474255D01*
X126976455Y-37474500D01*
X126960650Y-37474500D01*
X126944957Y-37476481D01*
X126937215Y-37477212D01*
X126881862Y-37480695D01*
X126874085Y-37483222D01*
X126851322Y-37488310D01*
X126843210Y-37489335D01*
X126791619Y-37509760D01*
X126784296Y-37512396D01*
X126731559Y-37529532D01*
X126724656Y-37533913D01*
X126703876Y-37544501D01*
X126696268Y-37547513D01*
X126651389Y-37580119D01*
X126644952Y-37584494D01*
X126598120Y-37614215D01*
X126592528Y-37620171D01*
X126575031Y-37635597D01*
X126568412Y-37640406D01*
X126533053Y-37683146D01*
X126527905Y-37688986D01*
X126489938Y-37729417D01*
X126485997Y-37736586D01*
X126472886Y-37755878D01*
X126467675Y-37762176D01*
X126444060Y-37812360D01*
X126440526Y-37819296D01*
X126413802Y-37867908D01*
X126411770Y-37875823D01*
X126403868Y-37897774D01*
X126400385Y-37905174D01*
X126389993Y-37959650D01*
X126388295Y-37967247D01*
X126374500Y-38020980D01*
X126374500Y-38029151D01*
X126372304Y-38052385D01*
X126370772Y-38060412D01*
X126374255Y-38115759D01*
X126374500Y-38123545D01*
X126374500Y-48189151D01*
X126372304Y-48212385D01*
X126370772Y-48220412D01*
X126374255Y-48275759D01*
X126374500Y-48283545D01*
X126374500Y-58349151D01*
X126372304Y-58372385D01*
X126370772Y-58380412D01*
X126374255Y-58435759D01*
X126374500Y-58443545D01*
X126374500Y-86289151D01*
X126372304Y-86312385D01*
X126370772Y-86320412D01*
X121920500Y-86320412D01*
X121920500Y-30480000D01*
X138044396Y-30480000D01*
X138064779Y-30738995D01*
X138125426Y-30991610D01*
X138172602Y-31105500D01*
X138224846Y-31231628D01*
X138360406Y-31452843D01*
X138360590Y-31453143D01*
X138427567Y-31531563D01*
X138529311Y-31650689D01*
X138668787Y-31769813D01*
X138726384Y-31819006D01*
X138726860Y-31819412D01*
X138948372Y-31955154D01*
X139113016Y-32023352D01*
X139188389Y-32054573D01*
X139267630Y-32073597D01*
X139441006Y-32115221D01*
X139700000Y-32135604D01*
X139958994Y-32115221D01*
X140211610Y-32054573D01*
X140451628Y-31955154D01*
X140673140Y-31819412D01*
X140870689Y-31650689D01*
X141039412Y-31453140D01*
X141175154Y-31231628D01*
X141195691Y-31182046D01*
X141222571Y-31141818D01*
X141262799Y-31114939D01*
X141310252Y-31105500D01*
X143055501Y-31105500D01*
X143117501Y-31122113D01*
X143162888Y-31167500D01*
X143179501Y-31229500D01*
X143179501Y-31627872D01*
X143185909Y-31687483D01*
X143236204Y-31822331D01*
X143322454Y-31937546D01*
X143437669Y-32023796D01*
X143572517Y-32074091D01*
X143632127Y-32080500D01*
X145927872Y-32080499D01*
X145987483Y-32074091D01*
X146122331Y-32023796D01*
X146237546Y-31937546D01*
X146323796Y-31822331D01*
X146327202Y-31813198D01*
X176820354Y-31813198D01*
X176827155Y-31819006D01*
X177048597Y-31954705D01*
X177288544Y-32054096D01*
X177541083Y-32114724D01*
X177800000Y-32135101D01*
X178058916Y-32114724D01*
X178311455Y-32054096D01*
X178551397Y-31954707D01*
X178772849Y-31819003D01*
X178779645Y-31813198D01*
X177800000Y-30833553D01*
X176820354Y-31813198D01*
X146327202Y-31813198D01*
X146374091Y-31687483D01*
X146380500Y-31627873D01*
X146380499Y-30480000D01*
X176144898Y-30480000D01*
X176165275Y-30738916D01*
X176225903Y-30991455D01*
X176325294Y-31231402D01*
X176460993Y-31452843D01*
X176466801Y-31459644D01*
X177446447Y-30480001D01*
X178153553Y-30480001D01*
X179133198Y-31459645D01*
X179139003Y-31452849D01*
X179274707Y-31231397D01*
X179374096Y-30991455D01*
X179434724Y-30738916D01*
X179435426Y-30730000D01*
X181280000Y-30730000D01*
X181280000Y-31627824D01*
X181286402Y-31687375D01*
X181336647Y-31822089D01*
X181422811Y-31937188D01*
X181537910Y-32023352D01*
X181672624Y-32073597D01*
X181732176Y-32080000D01*
X182630000Y-32080000D01*
X182630000Y-30730000D01*
X183130000Y-30730000D01*
X183130000Y-32080000D01*
X184027824Y-32080000D01*
X184087375Y-32073597D01*
X184222089Y-32023352D01*
X184337188Y-31937188D01*
X184423352Y-31822089D01*
X184473597Y-31687375D01*
X184480000Y-31627824D01*
X184480000Y-30730000D01*
X183130000Y-30730000D01*
X182630000Y-30730000D01*
X181280000Y-30730000D01*
X179435426Y-30730000D01*
X179455101Y-30480000D01*
X179435426Y-30230000D01*
X181280000Y-30230000D01*
X182630000Y-30230000D01*
X182630000Y-28880000D01*
X183130000Y-28880000D01*
X183130000Y-30230000D01*
X184480000Y-30230000D01*
X184480000Y-29332176D01*
X184473597Y-29272624D01*
X184423352Y-29137910D01*
X184337188Y-29022811D01*
X184222089Y-28936647D01*
X184087375Y-28886402D01*
X184027824Y-28880000D01*
X183130000Y-28880000D01*
X182630000Y-28880000D01*
X181732176Y-28880000D01*
X181672624Y-28886402D01*
X181537910Y-28936647D01*
X181422811Y-29022811D01*
X181336647Y-29137910D01*
X181286402Y-29272624D01*
X181280000Y-29332176D01*
X181280000Y-30230000D01*
X179435426Y-30230000D01*
X179434724Y-30221083D01*
X179374096Y-29968544D01*
X179274705Y-29728597D01*
X179139006Y-29507155D01*
X179133198Y-29500354D01*
X178153553Y-30480000D01*
X178153553Y-30480001D01*
X177446447Y-30480001D01*
X177446447Y-30480000D01*
X176466801Y-29500354D01*
X176460992Y-29507156D01*
X176325294Y-29728597D01*
X176225903Y-29968544D01*
X176165275Y-30221083D01*
X176144898Y-30480000D01*
X146380499Y-30480000D01*
X146380499Y-29815451D01*
X146389938Y-29767999D01*
X146416815Y-29727774D01*
X146997788Y-29146801D01*
X176820354Y-29146801D01*
X177800000Y-30126447D01*
X177800001Y-30126447D01*
X178779645Y-29146801D01*
X178772843Y-29140993D01*
X178551402Y-29005294D01*
X178311455Y-28905903D01*
X178058916Y-28845275D01*
X177800000Y-28824898D01*
X177541083Y-28845275D01*
X177288544Y-28905903D01*
X177048597Y-29005294D01*
X176827156Y-29140992D01*
X176820354Y-29146801D01*
X146997788Y-29146801D01*
X148204590Y-27939999D01*
X198368512Y-27939999D01*
X198388432Y-28205813D01*
X198447748Y-28465694D01*
X198545133Y-28713824D01*
X198676466Y-28941301D01*
X198678414Y-28944674D01*
X198844612Y-29153079D01*
X199040014Y-29334386D01*
X199260257Y-29484545D01*
X199500419Y-29600201D01*
X199736214Y-29672934D01*
X199755137Y-29678771D01*
X200018719Y-29718500D01*
X200018720Y-29718500D01*
X200285280Y-29718500D01*
X200285281Y-29718500D01*
X200417071Y-29698635D01*
X200548863Y-29678771D01*
X200803581Y-29600201D01*
X201043744Y-29484545D01*
X201263986Y-29334386D01*
X201459388Y-29153079D01*
X201625586Y-28944674D01*
X201758866Y-28713826D01*
X201856252Y-28465692D01*
X201915567Y-28205815D01*
X201935487Y-27940000D01*
X201915567Y-27674185D01*
X201856252Y-27414308D01*
X201758866Y-27166174D01*
X201625586Y-26935326D01*
X201459388Y-26726921D01*
X201421557Y-26691819D01*
X201263988Y-26545615D01*
X201160331Y-26474943D01*
X201043744Y-26395455D01*
X201043741Y-26395454D01*
X201043739Y-26395452D01*
X200803583Y-26279800D01*
X200803581Y-26279799D01*
X200712779Y-26251790D01*
X200548862Y-26201228D01*
X200285281Y-26161500D01*
X200285280Y-26161500D01*
X200018720Y-26161500D01*
X200018719Y-26161500D01*
X199755137Y-26201228D01*
X199500419Y-26279799D01*
X199260256Y-26395455D01*
X199040014Y-26545613D01*
X198844612Y-26726920D01*
X198678413Y-26935326D01*
X198545133Y-27166175D01*
X198447748Y-27414305D01*
X198388432Y-27674186D01*
X198368512Y-27939999D01*
X148204590Y-27939999D01*
X149452771Y-26691819D01*
X149493000Y-26664939D01*
X149540453Y-26655500D01*
X153765501Y-26655500D01*
X153827501Y-26672113D01*
X153872888Y-26717500D01*
X153889501Y-26779500D01*
X153889501Y-26827872D01*
X153895909Y-26887483D01*
X153946204Y-27022331D01*
X154032454Y-27137546D01*
X154147669Y-27223796D01*
X154282517Y-27274091D01*
X154342127Y-27280500D01*
X155537872Y-27280499D01*
X155597483Y-27274091D01*
X155732331Y-27223796D01*
X155847546Y-27137546D01*
X155933796Y-27022331D01*
X155984091Y-26887483D01*
X155990500Y-26827873D01*
X155990499Y-25232128D01*
X155984091Y-25172517D01*
X155933796Y-25037669D01*
X155847546Y-24922454D01*
X155732331Y-24836204D01*
X155597483Y-24785909D01*
X155537873Y-24779500D01*
X155537869Y-24779500D01*
X154342130Y-24779500D01*
X154282515Y-24785909D01*
X154147669Y-24836204D01*
X154032454Y-24922454D01*
X153946204Y-25037668D01*
X153895909Y-25172516D01*
X153889500Y-25232131D01*
X153889500Y-25280500D01*
X153872887Y-25342500D01*
X153827500Y-25387887D01*
X153765500Y-25404500D01*
X149312740Y-25404500D01*
X149292236Y-25402236D01*
X149222144Y-25404439D01*
X149218250Y-25404500D01*
X149190648Y-25404500D01*
X149186653Y-25405004D01*
X149175029Y-25405918D01*
X149131368Y-25407290D01*
X149112129Y-25412880D01*
X149093080Y-25416825D01*
X149073208Y-25419335D01*
X149032593Y-25435415D01*
X149021549Y-25439196D01*
X148979611Y-25451382D01*
X148962364Y-25461581D01*
X148944900Y-25470136D01*
X148926267Y-25477514D01*
X148890926Y-25503189D01*
X148881168Y-25509599D01*
X148843579Y-25531829D01*
X148829410Y-25545998D01*
X148814622Y-25558628D01*
X148798413Y-25570405D01*
X148770572Y-25604058D01*
X148762711Y-25612696D01*
X145532226Y-28843181D01*
X145491998Y-28870061D01*
X145444545Y-28879500D01*
X143632130Y-28879500D01*
X143572515Y-28885909D01*
X143437669Y-28936204D01*
X143322454Y-29022454D01*
X143236204Y-29137668D01*
X143234964Y-29140992D01*
X143185909Y-29272517D01*
X143179761Y-29329705D01*
X143179500Y-29332131D01*
X143179500Y-29730500D01*
X143162887Y-29792500D01*
X143117500Y-29837887D01*
X143055500Y-29854500D01*
X141310252Y-29854500D01*
X141262799Y-29845061D01*
X141222571Y-29818182D01*
X141195691Y-29777953D01*
X141175155Y-29728375D01*
X141175154Y-29728372D01*
X141039412Y-29506860D01*
X141033855Y-29500354D01*
X140989813Y-29448787D01*
X140870689Y-29309311D01*
X140751563Y-29207567D01*
X140673143Y-29140590D01*
X140668770Y-29137910D01*
X140451628Y-29004846D01*
X140356470Y-28965430D01*
X140211610Y-28905426D01*
X139958995Y-28844779D01*
X139700000Y-28824396D01*
X139441004Y-28844779D01*
X139188389Y-28905426D01*
X138983524Y-28990285D01*
X138948372Y-29004846D01*
X138804359Y-29093096D01*
X138726856Y-29140590D01*
X138529311Y-29309311D01*
X138360590Y-29506856D01*
X138313096Y-29584359D01*
X138224846Y-29728372D01*
X138224845Y-29728375D01*
X138125426Y-29968389D01*
X138064779Y-30221004D01*
X138044396Y-30480000D01*
X121920500Y-30480000D01*
X121920500Y-27939999D01*
X125216512Y-27939999D01*
X125236432Y-28205813D01*
X125295748Y-28465694D01*
X125393133Y-28713824D01*
X125524466Y-28941301D01*
X125526414Y-28944674D01*
X125692612Y-29153079D01*
X125888014Y-29334386D01*
X126108257Y-29484545D01*
X126348419Y-29600201D01*
X126584214Y-29672934D01*
X126603137Y-29678771D01*
X126866719Y-29718500D01*
X126866720Y-29718500D01*
X127133280Y-29718500D01*
X127133281Y-29718500D01*
X127265071Y-29698635D01*
X127396863Y-29678771D01*
X127651581Y-29600201D01*
X127891744Y-29484545D01*
X128111986Y-29334386D01*
X128307388Y-29153079D01*
X128473586Y-28944674D01*
X128606866Y-28713826D01*
X128704252Y-28465692D01*
X128763567Y-28205815D01*
X128783487Y-27940000D01*
X128763567Y-27674185D01*
X128704252Y-27414308D01*
X128606866Y-27166174D01*
X128473586Y-26935326D01*
X128307388Y-26726921D01*
X128269557Y-26691819D01*
X128111988Y-26545615D01*
X128008331Y-26474943D01*
X127891744Y-26395455D01*
X127891741Y-26395454D01*
X127891739Y-26395452D01*
X127651583Y-26279800D01*
X127651581Y-26279799D01*
X127560779Y-26251790D01*
X127396862Y-26201228D01*
X127133281Y-26161500D01*
X127133280Y-26161500D01*
X126866720Y-26161500D01*
X126866719Y-26161500D01*
X126603137Y-26201228D01*
X126348419Y-26279799D01*
X126108256Y-26395455D01*
X125888014Y-26545613D01*
X125692612Y-26726920D01*
X125526413Y-26935326D01*
X125393133Y-27166175D01*
X125295748Y-27414305D01*
X125236432Y-27674186D01*
X125216512Y-27939999D01*
X121920500Y-27939999D01*
X121920500Y-22984500D01*
X121937113Y-22922500D01*
X121982500Y-22877113D01*
X122044500Y-22860500D01*
X205615500Y-22860500D01*
X205677500Y-22877113D01*
G37*
%TD.AperFunction*%
%TD*%
M02*
