%TF.GenerationSoftware,KiCad,Pcbnew,7.0.1*%
%TF.CreationDate,2023-05-15T23:15:40-04:00*%
%TF.ProjectId,weather_station,77656174-6865-4725-9f73-746174696f6e,rev?*%
%TF.SameCoordinates,Original*%
%TF.FileFunction,Legend,Top*%
%TF.FilePolarity,Positive*%
%FSLAX46Y46*%
G04 Gerber Fmt 4.6, Leading zero omitted, Abs format (unit mm)*
G04 Created by KiCad (PCBNEW 7.0.1) date 2023-05-15 23:15:40*
%MOMM*%
%LPD*%
G01*
G04 APERTURE LIST*
%ADD10C,0.150000*%
%ADD11C,0.100000*%
%ADD12C,0.120000*%
G04 APERTURE END LIST*
D10*
X137398095Y-83316666D02*
X138160000Y-83316666D01*
X137779047Y-83697619D02*
X137779047Y-82935714D01*
X147320000Y-88900000D02*
X147320000Y-88400000D01*
X147860000Y-88900000D02*
X146780000Y-88900000D01*
X147320000Y-89460000D02*
X146780000Y-88900000D01*
X147320000Y-89460000D02*
X147860000Y-88900000D01*
X146240000Y-89460000D02*
X148240000Y-89460000D01*
X147320000Y-89960000D02*
X147320000Y-89460000D01*
X150360000Y-45720000D02*
G75*
G03*
X150360000Y-45720000I-500000J0D01*
G01*
X188721904Y-26865238D02*
X188626666Y-26817619D01*
X188626666Y-26817619D02*
X188483809Y-26817619D01*
X188483809Y-26817619D02*
X188340952Y-26865238D01*
X188340952Y-26865238D02*
X188245714Y-26960476D01*
X188245714Y-26960476D02*
X188198095Y-27055714D01*
X188198095Y-27055714D02*
X188150476Y-27246190D01*
X188150476Y-27246190D02*
X188150476Y-27389047D01*
X188150476Y-27389047D02*
X188198095Y-27579523D01*
X188198095Y-27579523D02*
X188245714Y-27674761D01*
X188245714Y-27674761D02*
X188340952Y-27770000D01*
X188340952Y-27770000D02*
X188483809Y-27817619D01*
X188483809Y-27817619D02*
X188579047Y-27817619D01*
X188579047Y-27817619D02*
X188721904Y-27770000D01*
X188721904Y-27770000D02*
X188769523Y-27722380D01*
X188769523Y-27722380D02*
X188769523Y-27389047D01*
X188769523Y-27389047D02*
X188579047Y-27389047D01*
X189198095Y-27150952D02*
X189198095Y-27817619D01*
X189198095Y-27246190D02*
X189245714Y-27198571D01*
X189245714Y-27198571D02*
X189340952Y-27150952D01*
X189340952Y-27150952D02*
X189483809Y-27150952D01*
X189483809Y-27150952D02*
X189579047Y-27198571D01*
X189579047Y-27198571D02*
X189626666Y-27293809D01*
X189626666Y-27293809D02*
X189626666Y-27817619D01*
X190531428Y-27817619D02*
X190531428Y-26817619D01*
X190531428Y-27770000D02*
X190436190Y-27817619D01*
X190436190Y-27817619D02*
X190245714Y-27817619D01*
X190245714Y-27817619D02*
X190150476Y-27770000D01*
X190150476Y-27770000D02*
X190102857Y-27722380D01*
X190102857Y-27722380D02*
X190055238Y-27627142D01*
X190055238Y-27627142D02*
X190055238Y-27341428D01*
X190055238Y-27341428D02*
X190102857Y-27246190D01*
X190102857Y-27246190D02*
X190150476Y-27198571D01*
X190150476Y-27198571D02*
X190245714Y-27150952D01*
X190245714Y-27150952D02*
X190436190Y-27150952D01*
X190436190Y-27150952D02*
X190531428Y-27198571D01*
X195722857Y-108430952D02*
X195960952Y-109097619D01*
X195960952Y-109097619D02*
X196199047Y-108430952D01*
X196770476Y-108097619D02*
X196865714Y-108097619D01*
X196865714Y-108097619D02*
X196960952Y-108145238D01*
X196960952Y-108145238D02*
X197008571Y-108192857D01*
X197008571Y-108192857D02*
X197056190Y-108288095D01*
X197056190Y-108288095D02*
X197103809Y-108478571D01*
X197103809Y-108478571D02*
X197103809Y-108716666D01*
X197103809Y-108716666D02*
X197056190Y-108907142D01*
X197056190Y-108907142D02*
X197008571Y-109002380D01*
X197008571Y-109002380D02*
X196960952Y-109050000D01*
X196960952Y-109050000D02*
X196865714Y-109097619D01*
X196865714Y-109097619D02*
X196770476Y-109097619D01*
X196770476Y-109097619D02*
X196675238Y-109050000D01*
X196675238Y-109050000D02*
X196627619Y-109002380D01*
X196627619Y-109002380D02*
X196580000Y-108907142D01*
X196580000Y-108907142D02*
X196532381Y-108716666D01*
X196532381Y-108716666D02*
X196532381Y-108478571D01*
X196532381Y-108478571D02*
X196580000Y-108288095D01*
X196580000Y-108288095D02*
X196627619Y-108192857D01*
X196627619Y-108192857D02*
X196675238Y-108145238D01*
X196675238Y-108145238D02*
X196770476Y-108097619D01*
X197484762Y-108192857D02*
X197532381Y-108145238D01*
X197532381Y-108145238D02*
X197627619Y-108097619D01*
X197627619Y-108097619D02*
X197865714Y-108097619D01*
X197865714Y-108097619D02*
X197960952Y-108145238D01*
X197960952Y-108145238D02*
X198008571Y-108192857D01*
X198008571Y-108192857D02*
X198056190Y-108288095D01*
X198056190Y-108288095D02*
X198056190Y-108383333D01*
X198056190Y-108383333D02*
X198008571Y-108526190D01*
X198008571Y-108526190D02*
X197437143Y-109097619D01*
X197437143Y-109097619D02*
X198056190Y-109097619D01*
X134858095Y-27436666D02*
X135620000Y-27436666D01*
X135239047Y-27817619D02*
X135239047Y-27055714D01*
%TO.C,R2*%
X141083333Y-101342619D02*
X140750000Y-100866428D01*
X140511905Y-101342619D02*
X140511905Y-100342619D01*
X140511905Y-100342619D02*
X140892857Y-100342619D01*
X140892857Y-100342619D02*
X140988095Y-100390238D01*
X140988095Y-100390238D02*
X141035714Y-100437857D01*
X141035714Y-100437857D02*
X141083333Y-100533095D01*
X141083333Y-100533095D02*
X141083333Y-100675952D01*
X141083333Y-100675952D02*
X141035714Y-100771190D01*
X141035714Y-100771190D02*
X140988095Y-100818809D01*
X140988095Y-100818809D02*
X140892857Y-100866428D01*
X140892857Y-100866428D02*
X140511905Y-100866428D01*
X141464286Y-100437857D02*
X141511905Y-100390238D01*
X141511905Y-100390238D02*
X141607143Y-100342619D01*
X141607143Y-100342619D02*
X141845238Y-100342619D01*
X141845238Y-100342619D02*
X141940476Y-100390238D01*
X141940476Y-100390238D02*
X141988095Y-100437857D01*
X141988095Y-100437857D02*
X142035714Y-100533095D01*
X142035714Y-100533095D02*
X142035714Y-100628333D01*
X142035714Y-100628333D02*
X141988095Y-100771190D01*
X141988095Y-100771190D02*
X141416667Y-101342619D01*
X141416667Y-101342619D02*
X142035714Y-101342619D01*
D11*
%TO.C,J6*%
X186586666Y-113762619D02*
X186586666Y-114476904D01*
X186586666Y-114476904D02*
X186539047Y-114619761D01*
X186539047Y-114619761D02*
X186443809Y-114715000D01*
X186443809Y-114715000D02*
X186300952Y-114762619D01*
X186300952Y-114762619D02*
X186205714Y-114762619D01*
X187491428Y-113762619D02*
X187300952Y-113762619D01*
X187300952Y-113762619D02*
X187205714Y-113810238D01*
X187205714Y-113810238D02*
X187158095Y-113857857D01*
X187158095Y-113857857D02*
X187062857Y-114000714D01*
X187062857Y-114000714D02*
X187015238Y-114191190D01*
X187015238Y-114191190D02*
X187015238Y-114572142D01*
X187015238Y-114572142D02*
X187062857Y-114667380D01*
X187062857Y-114667380D02*
X187110476Y-114715000D01*
X187110476Y-114715000D02*
X187205714Y-114762619D01*
X187205714Y-114762619D02*
X187396190Y-114762619D01*
X187396190Y-114762619D02*
X187491428Y-114715000D01*
X187491428Y-114715000D02*
X187539047Y-114667380D01*
X187539047Y-114667380D02*
X187586666Y-114572142D01*
X187586666Y-114572142D02*
X187586666Y-114334047D01*
X187586666Y-114334047D02*
X187539047Y-114238809D01*
X187539047Y-114238809D02*
X187491428Y-114191190D01*
X187491428Y-114191190D02*
X187396190Y-114143571D01*
X187396190Y-114143571D02*
X187205714Y-114143571D01*
X187205714Y-114143571D02*
X187110476Y-114191190D01*
X187110476Y-114191190D02*
X187062857Y-114238809D01*
X187062857Y-114238809D02*
X187015238Y-114334047D01*
X185024761Y-115480190D02*
X184986666Y-115442095D01*
X184986666Y-115442095D02*
X184929523Y-115442095D01*
X184929523Y-115442095D02*
X184872380Y-115480190D01*
X184872380Y-115480190D02*
X184834285Y-115556380D01*
X184834285Y-115556380D02*
X184815238Y-115632571D01*
X184815238Y-115632571D02*
X184796190Y-115784952D01*
X184796190Y-115784952D02*
X184796190Y-115899238D01*
X184796190Y-115899238D02*
X184815238Y-116051619D01*
X184815238Y-116051619D02*
X184834285Y-116127809D01*
X184834285Y-116127809D02*
X184872380Y-116204000D01*
X184872380Y-116204000D02*
X184929523Y-116242095D01*
X184929523Y-116242095D02*
X184967619Y-116242095D01*
X184967619Y-116242095D02*
X185024761Y-116204000D01*
X185024761Y-116204000D02*
X185043809Y-116165904D01*
X185043809Y-116165904D02*
X185043809Y-115899238D01*
X185043809Y-115899238D02*
X184967619Y-115899238D01*
X185215238Y-115708761D02*
X185215238Y-116242095D01*
X185215238Y-115784952D02*
X185234285Y-115746857D01*
X185234285Y-115746857D02*
X185272380Y-115708761D01*
X185272380Y-115708761D02*
X185329523Y-115708761D01*
X185329523Y-115708761D02*
X185367619Y-115746857D01*
X185367619Y-115746857D02*
X185386666Y-115823047D01*
X185386666Y-115823047D02*
X185386666Y-116242095D01*
X185748571Y-116242095D02*
X185748571Y-115442095D01*
X185748571Y-116204000D02*
X185710476Y-116242095D01*
X185710476Y-116242095D02*
X185634285Y-116242095D01*
X185634285Y-116242095D02*
X185596190Y-116204000D01*
X185596190Y-116204000D02*
X185577143Y-116165904D01*
X185577143Y-116165904D02*
X185558095Y-116089714D01*
X185558095Y-116089714D02*
X185558095Y-115861142D01*
X185558095Y-115861142D02*
X185577143Y-115784952D01*
X185577143Y-115784952D02*
X185596190Y-115746857D01*
X185596190Y-115746857D02*
X185634285Y-115708761D01*
X185634285Y-115708761D02*
X185710476Y-115708761D01*
X185710476Y-115708761D02*
X185748571Y-115746857D01*
X186186667Y-115442095D02*
X186320000Y-116242095D01*
X186320000Y-116242095D02*
X186453333Y-115442095D01*
X186872381Y-116204000D02*
X186929524Y-116242095D01*
X186929524Y-116242095D02*
X187024762Y-116242095D01*
X187024762Y-116242095D02*
X187062857Y-116204000D01*
X187062857Y-116204000D02*
X187081905Y-116165904D01*
X187081905Y-116165904D02*
X187100952Y-116089714D01*
X187100952Y-116089714D02*
X187100952Y-116013523D01*
X187100952Y-116013523D02*
X187081905Y-115937333D01*
X187081905Y-115937333D02*
X187062857Y-115899238D01*
X187062857Y-115899238D02*
X187024762Y-115861142D01*
X187024762Y-115861142D02*
X186948571Y-115823047D01*
X186948571Y-115823047D02*
X186910476Y-115784952D01*
X186910476Y-115784952D02*
X186891429Y-115746857D01*
X186891429Y-115746857D02*
X186872381Y-115670666D01*
X186872381Y-115670666D02*
X186872381Y-115594476D01*
X186872381Y-115594476D02*
X186891429Y-115518285D01*
X186891429Y-115518285D02*
X186910476Y-115480190D01*
X186910476Y-115480190D02*
X186948571Y-115442095D01*
X186948571Y-115442095D02*
X187043810Y-115442095D01*
X187043810Y-115442095D02*
X187100952Y-115480190D01*
X187272381Y-116242095D02*
X187272381Y-115442095D01*
X187272381Y-115442095D02*
X187367619Y-115442095D01*
X187367619Y-115442095D02*
X187424762Y-115480190D01*
X187424762Y-115480190D02*
X187462857Y-115556380D01*
X187462857Y-115556380D02*
X187481904Y-115632571D01*
X187481904Y-115632571D02*
X187500952Y-115784952D01*
X187500952Y-115784952D02*
X187500952Y-115899238D01*
X187500952Y-115899238D02*
X187481904Y-116051619D01*
X187481904Y-116051619D02*
X187462857Y-116127809D01*
X187462857Y-116127809D02*
X187424762Y-116204000D01*
X187424762Y-116204000D02*
X187367619Y-116242095D01*
X187367619Y-116242095D02*
X187272381Y-116242095D01*
X187653333Y-116013523D02*
X187843809Y-116013523D01*
X187615238Y-116242095D02*
X187748571Y-115442095D01*
X187748571Y-115442095D02*
X187881904Y-116242095D01*
X188300952Y-116204000D02*
X188358095Y-116242095D01*
X188358095Y-116242095D02*
X188453333Y-116242095D01*
X188453333Y-116242095D02*
X188491428Y-116204000D01*
X188491428Y-116204000D02*
X188510476Y-116165904D01*
X188510476Y-116165904D02*
X188529523Y-116089714D01*
X188529523Y-116089714D02*
X188529523Y-116013523D01*
X188529523Y-116013523D02*
X188510476Y-115937333D01*
X188510476Y-115937333D02*
X188491428Y-115899238D01*
X188491428Y-115899238D02*
X188453333Y-115861142D01*
X188453333Y-115861142D02*
X188377142Y-115823047D01*
X188377142Y-115823047D02*
X188339047Y-115784952D01*
X188339047Y-115784952D02*
X188320000Y-115746857D01*
X188320000Y-115746857D02*
X188300952Y-115670666D01*
X188300952Y-115670666D02*
X188300952Y-115594476D01*
X188300952Y-115594476D02*
X188320000Y-115518285D01*
X188320000Y-115518285D02*
X188339047Y-115480190D01*
X188339047Y-115480190D02*
X188377142Y-115442095D01*
X188377142Y-115442095D02*
X188472381Y-115442095D01*
X188472381Y-115442095D02*
X188529523Y-115480190D01*
X188929523Y-116165904D02*
X188910475Y-116204000D01*
X188910475Y-116204000D02*
X188853333Y-116242095D01*
X188853333Y-116242095D02*
X188815237Y-116242095D01*
X188815237Y-116242095D02*
X188758094Y-116204000D01*
X188758094Y-116204000D02*
X188719999Y-116127809D01*
X188719999Y-116127809D02*
X188700952Y-116051619D01*
X188700952Y-116051619D02*
X188681904Y-115899238D01*
X188681904Y-115899238D02*
X188681904Y-115784952D01*
X188681904Y-115784952D02*
X188700952Y-115632571D01*
X188700952Y-115632571D02*
X188719999Y-115556380D01*
X188719999Y-115556380D02*
X188758094Y-115480190D01*
X188758094Y-115480190D02*
X188815237Y-115442095D01*
X188815237Y-115442095D02*
X188853333Y-115442095D01*
X188853333Y-115442095D02*
X188910475Y-115480190D01*
X188910475Y-115480190D02*
X188929523Y-115518285D01*
X189291428Y-116242095D02*
X189100952Y-116242095D01*
X189100952Y-116242095D02*
X189100952Y-115442095D01*
D10*
%TO.C,SW1*%
X154811667Y-44055000D02*
X154954524Y-44102619D01*
X154954524Y-44102619D02*
X155192619Y-44102619D01*
X155192619Y-44102619D02*
X155287857Y-44055000D01*
X155287857Y-44055000D02*
X155335476Y-44007380D01*
X155335476Y-44007380D02*
X155383095Y-43912142D01*
X155383095Y-43912142D02*
X155383095Y-43816904D01*
X155383095Y-43816904D02*
X155335476Y-43721666D01*
X155335476Y-43721666D02*
X155287857Y-43674047D01*
X155287857Y-43674047D02*
X155192619Y-43626428D01*
X155192619Y-43626428D02*
X155002143Y-43578809D01*
X155002143Y-43578809D02*
X154906905Y-43531190D01*
X154906905Y-43531190D02*
X154859286Y-43483571D01*
X154859286Y-43483571D02*
X154811667Y-43388333D01*
X154811667Y-43388333D02*
X154811667Y-43293095D01*
X154811667Y-43293095D02*
X154859286Y-43197857D01*
X154859286Y-43197857D02*
X154906905Y-43150238D01*
X154906905Y-43150238D02*
X155002143Y-43102619D01*
X155002143Y-43102619D02*
X155240238Y-43102619D01*
X155240238Y-43102619D02*
X155383095Y-43150238D01*
X155716429Y-43102619D02*
X155954524Y-44102619D01*
X155954524Y-44102619D02*
X156145000Y-43388333D01*
X156145000Y-43388333D02*
X156335476Y-44102619D01*
X156335476Y-44102619D02*
X156573572Y-43102619D01*
X157478333Y-44102619D02*
X156906905Y-44102619D01*
X157192619Y-44102619D02*
X157192619Y-43102619D01*
X157192619Y-43102619D02*
X157097381Y-43245476D01*
X157097381Y-43245476D02*
X157002143Y-43340714D01*
X157002143Y-43340714D02*
X156906905Y-43388333D01*
%TO.C,J11*%
X146510476Y-80452619D02*
X146510476Y-81166904D01*
X146510476Y-81166904D02*
X146462857Y-81309761D01*
X146462857Y-81309761D02*
X146367619Y-81405000D01*
X146367619Y-81405000D02*
X146224762Y-81452619D01*
X146224762Y-81452619D02*
X146129524Y-81452619D01*
X147510476Y-81452619D02*
X146939048Y-81452619D01*
X147224762Y-81452619D02*
X147224762Y-80452619D01*
X147224762Y-80452619D02*
X147129524Y-80595476D01*
X147129524Y-80595476D02*
X147034286Y-80690714D01*
X147034286Y-80690714D02*
X146939048Y-80738333D01*
X148462857Y-81452619D02*
X147891429Y-81452619D01*
X148177143Y-81452619D02*
X148177143Y-80452619D01*
X148177143Y-80452619D02*
X148081905Y-80595476D01*
X148081905Y-80595476D02*
X147986667Y-80690714D01*
X147986667Y-80690714D02*
X147891429Y-80738333D01*
%TO.C,R4*%
X152233333Y-96982619D02*
X151900000Y-96506428D01*
X151661905Y-96982619D02*
X151661905Y-95982619D01*
X151661905Y-95982619D02*
X152042857Y-95982619D01*
X152042857Y-95982619D02*
X152138095Y-96030238D01*
X152138095Y-96030238D02*
X152185714Y-96077857D01*
X152185714Y-96077857D02*
X152233333Y-96173095D01*
X152233333Y-96173095D02*
X152233333Y-96315952D01*
X152233333Y-96315952D02*
X152185714Y-96411190D01*
X152185714Y-96411190D02*
X152138095Y-96458809D01*
X152138095Y-96458809D02*
X152042857Y-96506428D01*
X152042857Y-96506428D02*
X151661905Y-96506428D01*
X153090476Y-96315952D02*
X153090476Y-96982619D01*
X152852381Y-95935000D02*
X152614286Y-96649285D01*
X152614286Y-96649285D02*
X153233333Y-96649285D01*
%TO.C,R1*%
X138543333Y-50542619D02*
X138210000Y-50066428D01*
X137971905Y-50542619D02*
X137971905Y-49542619D01*
X137971905Y-49542619D02*
X138352857Y-49542619D01*
X138352857Y-49542619D02*
X138448095Y-49590238D01*
X138448095Y-49590238D02*
X138495714Y-49637857D01*
X138495714Y-49637857D02*
X138543333Y-49733095D01*
X138543333Y-49733095D02*
X138543333Y-49875952D01*
X138543333Y-49875952D02*
X138495714Y-49971190D01*
X138495714Y-49971190D02*
X138448095Y-50018809D01*
X138448095Y-50018809D02*
X138352857Y-50066428D01*
X138352857Y-50066428D02*
X137971905Y-50066428D01*
X139495714Y-50542619D02*
X138924286Y-50542619D01*
X139210000Y-50542619D02*
X139210000Y-49542619D01*
X139210000Y-49542619D02*
X139114762Y-49685476D01*
X139114762Y-49685476D02*
X139019524Y-49780714D01*
X139019524Y-49780714D02*
X138924286Y-49828333D01*
%TO.C,J21*%
X171910476Y-70292619D02*
X171910476Y-71006904D01*
X171910476Y-71006904D02*
X171862857Y-71149761D01*
X171862857Y-71149761D02*
X171767619Y-71245000D01*
X171767619Y-71245000D02*
X171624762Y-71292619D01*
X171624762Y-71292619D02*
X171529524Y-71292619D01*
X172339048Y-70387857D02*
X172386667Y-70340238D01*
X172386667Y-70340238D02*
X172481905Y-70292619D01*
X172481905Y-70292619D02*
X172720000Y-70292619D01*
X172720000Y-70292619D02*
X172815238Y-70340238D01*
X172815238Y-70340238D02*
X172862857Y-70387857D01*
X172862857Y-70387857D02*
X172910476Y-70483095D01*
X172910476Y-70483095D02*
X172910476Y-70578333D01*
X172910476Y-70578333D02*
X172862857Y-70721190D01*
X172862857Y-70721190D02*
X172291429Y-71292619D01*
X172291429Y-71292619D02*
X172910476Y-71292619D01*
X173862857Y-71292619D02*
X173291429Y-71292619D01*
X173577143Y-71292619D02*
X173577143Y-70292619D01*
X173577143Y-70292619D02*
X173481905Y-70435476D01*
X173481905Y-70435476D02*
X173386667Y-70530714D01*
X173386667Y-70530714D02*
X173291429Y-70578333D01*
%TO.C,J10*%
X146510476Y-75372619D02*
X146510476Y-76086904D01*
X146510476Y-76086904D02*
X146462857Y-76229761D01*
X146462857Y-76229761D02*
X146367619Y-76325000D01*
X146367619Y-76325000D02*
X146224762Y-76372619D01*
X146224762Y-76372619D02*
X146129524Y-76372619D01*
X147510476Y-76372619D02*
X146939048Y-76372619D01*
X147224762Y-76372619D02*
X147224762Y-75372619D01*
X147224762Y-75372619D02*
X147129524Y-75515476D01*
X147129524Y-75515476D02*
X147034286Y-75610714D01*
X147034286Y-75610714D02*
X146939048Y-75658333D01*
X148129524Y-75372619D02*
X148224762Y-75372619D01*
X148224762Y-75372619D02*
X148320000Y-75420238D01*
X148320000Y-75420238D02*
X148367619Y-75467857D01*
X148367619Y-75467857D02*
X148415238Y-75563095D01*
X148415238Y-75563095D02*
X148462857Y-75753571D01*
X148462857Y-75753571D02*
X148462857Y-75991666D01*
X148462857Y-75991666D02*
X148415238Y-76182142D01*
X148415238Y-76182142D02*
X148367619Y-76277380D01*
X148367619Y-76277380D02*
X148320000Y-76325000D01*
X148320000Y-76325000D02*
X148224762Y-76372619D01*
X148224762Y-76372619D02*
X148129524Y-76372619D01*
X148129524Y-76372619D02*
X148034286Y-76325000D01*
X148034286Y-76325000D02*
X147986667Y-76277380D01*
X147986667Y-76277380D02*
X147939048Y-76182142D01*
X147939048Y-76182142D02*
X147891429Y-75991666D01*
X147891429Y-75991666D02*
X147891429Y-75753571D01*
X147891429Y-75753571D02*
X147939048Y-75563095D01*
X147939048Y-75563095D02*
X147986667Y-75467857D01*
X147986667Y-75467857D02*
X148034286Y-75420238D01*
X148034286Y-75420238D02*
X148129524Y-75372619D01*
%TO.C,D1*%
X146581905Y-96982619D02*
X146581905Y-95982619D01*
X146581905Y-95982619D02*
X146820000Y-95982619D01*
X146820000Y-95982619D02*
X146962857Y-96030238D01*
X146962857Y-96030238D02*
X147058095Y-96125476D01*
X147058095Y-96125476D02*
X147105714Y-96220714D01*
X147105714Y-96220714D02*
X147153333Y-96411190D01*
X147153333Y-96411190D02*
X147153333Y-96554047D01*
X147153333Y-96554047D02*
X147105714Y-96744523D01*
X147105714Y-96744523D02*
X147058095Y-96839761D01*
X147058095Y-96839761D02*
X146962857Y-96935000D01*
X146962857Y-96935000D02*
X146820000Y-96982619D01*
X146820000Y-96982619D02*
X146581905Y-96982619D01*
X148105714Y-96982619D02*
X147534286Y-96982619D01*
X147820000Y-96982619D02*
X147820000Y-95982619D01*
X147820000Y-95982619D02*
X147724762Y-96125476D01*
X147724762Y-96125476D02*
X147629524Y-96220714D01*
X147629524Y-96220714D02*
X147534286Y-96268333D01*
%TO.C,J20*%
X171910476Y-62672619D02*
X171910476Y-63386904D01*
X171910476Y-63386904D02*
X171862857Y-63529761D01*
X171862857Y-63529761D02*
X171767619Y-63625000D01*
X171767619Y-63625000D02*
X171624762Y-63672619D01*
X171624762Y-63672619D02*
X171529524Y-63672619D01*
X172339048Y-62767857D02*
X172386667Y-62720238D01*
X172386667Y-62720238D02*
X172481905Y-62672619D01*
X172481905Y-62672619D02*
X172720000Y-62672619D01*
X172720000Y-62672619D02*
X172815238Y-62720238D01*
X172815238Y-62720238D02*
X172862857Y-62767857D01*
X172862857Y-62767857D02*
X172910476Y-62863095D01*
X172910476Y-62863095D02*
X172910476Y-62958333D01*
X172910476Y-62958333D02*
X172862857Y-63101190D01*
X172862857Y-63101190D02*
X172291429Y-63672619D01*
X172291429Y-63672619D02*
X172910476Y-63672619D01*
X173529524Y-62672619D02*
X173624762Y-62672619D01*
X173624762Y-62672619D02*
X173720000Y-62720238D01*
X173720000Y-62720238D02*
X173767619Y-62767857D01*
X173767619Y-62767857D02*
X173815238Y-62863095D01*
X173815238Y-62863095D02*
X173862857Y-63053571D01*
X173862857Y-63053571D02*
X173862857Y-63291666D01*
X173862857Y-63291666D02*
X173815238Y-63482142D01*
X173815238Y-63482142D02*
X173767619Y-63577380D01*
X173767619Y-63577380D02*
X173720000Y-63625000D01*
X173720000Y-63625000D02*
X173624762Y-63672619D01*
X173624762Y-63672619D02*
X173529524Y-63672619D01*
X173529524Y-63672619D02*
X173434286Y-63625000D01*
X173434286Y-63625000D02*
X173386667Y-63577380D01*
X173386667Y-63577380D02*
X173339048Y-63482142D01*
X173339048Y-63482142D02*
X173291429Y-63291666D01*
X173291429Y-63291666D02*
X173291429Y-63053571D01*
X173291429Y-63053571D02*
X173339048Y-62863095D01*
X173339048Y-62863095D02*
X173386667Y-62767857D01*
X173386667Y-62767857D02*
X173434286Y-62720238D01*
X173434286Y-62720238D02*
X173529524Y-62672619D01*
%TO.C,R3*%
X140523333Y-96262619D02*
X140190000Y-95786428D01*
X139951905Y-96262619D02*
X139951905Y-95262619D01*
X139951905Y-95262619D02*
X140332857Y-95262619D01*
X140332857Y-95262619D02*
X140428095Y-95310238D01*
X140428095Y-95310238D02*
X140475714Y-95357857D01*
X140475714Y-95357857D02*
X140523333Y-95453095D01*
X140523333Y-95453095D02*
X140523333Y-95595952D01*
X140523333Y-95595952D02*
X140475714Y-95691190D01*
X140475714Y-95691190D02*
X140428095Y-95738809D01*
X140428095Y-95738809D02*
X140332857Y-95786428D01*
X140332857Y-95786428D02*
X139951905Y-95786428D01*
X140856667Y-95262619D02*
X141475714Y-95262619D01*
X141475714Y-95262619D02*
X141142381Y-95643571D01*
X141142381Y-95643571D02*
X141285238Y-95643571D01*
X141285238Y-95643571D02*
X141380476Y-95691190D01*
X141380476Y-95691190D02*
X141428095Y-95738809D01*
X141428095Y-95738809D02*
X141475714Y-95834047D01*
X141475714Y-95834047D02*
X141475714Y-96072142D01*
X141475714Y-96072142D02*
X141428095Y-96167380D01*
X141428095Y-96167380D02*
X141380476Y-96215000D01*
X141380476Y-96215000D02*
X141285238Y-96262619D01*
X141285238Y-96262619D02*
X140999524Y-96262619D01*
X140999524Y-96262619D02*
X140904286Y-96215000D01*
X140904286Y-96215000D02*
X140856667Y-96167380D01*
%TO.C,U_ATMega1*%
X152582857Y-45402619D02*
X152582857Y-46212142D01*
X152582857Y-46212142D02*
X152630476Y-46307380D01*
X152630476Y-46307380D02*
X152678095Y-46355000D01*
X152678095Y-46355000D02*
X152773333Y-46402619D01*
X152773333Y-46402619D02*
X152963809Y-46402619D01*
X152963809Y-46402619D02*
X153059047Y-46355000D01*
X153059047Y-46355000D02*
X153106666Y-46307380D01*
X153106666Y-46307380D02*
X153154285Y-46212142D01*
X153154285Y-46212142D02*
X153154285Y-45402619D01*
X153392381Y-46497857D02*
X154154285Y-46497857D01*
X154344762Y-46116904D02*
X154820952Y-46116904D01*
X154249524Y-46402619D02*
X154582857Y-45402619D01*
X154582857Y-45402619D02*
X154916190Y-46402619D01*
X155106667Y-45402619D02*
X155678095Y-45402619D01*
X155392381Y-46402619D02*
X155392381Y-45402619D01*
X156011429Y-46402619D02*
X156011429Y-45402619D01*
X156011429Y-45402619D02*
X156344762Y-46116904D01*
X156344762Y-46116904D02*
X156678095Y-45402619D01*
X156678095Y-45402619D02*
X156678095Y-46402619D01*
X157535238Y-46355000D02*
X157440000Y-46402619D01*
X157440000Y-46402619D02*
X157249524Y-46402619D01*
X157249524Y-46402619D02*
X157154286Y-46355000D01*
X157154286Y-46355000D02*
X157106667Y-46259761D01*
X157106667Y-46259761D02*
X157106667Y-45878809D01*
X157106667Y-45878809D02*
X157154286Y-45783571D01*
X157154286Y-45783571D02*
X157249524Y-45735952D01*
X157249524Y-45735952D02*
X157440000Y-45735952D01*
X157440000Y-45735952D02*
X157535238Y-45783571D01*
X157535238Y-45783571D02*
X157582857Y-45878809D01*
X157582857Y-45878809D02*
X157582857Y-45974047D01*
X157582857Y-45974047D02*
X157106667Y-46069285D01*
X158440000Y-45735952D02*
X158440000Y-46545476D01*
X158440000Y-46545476D02*
X158392381Y-46640714D01*
X158392381Y-46640714D02*
X158344762Y-46688333D01*
X158344762Y-46688333D02*
X158249524Y-46735952D01*
X158249524Y-46735952D02*
X158106667Y-46735952D01*
X158106667Y-46735952D02*
X158011429Y-46688333D01*
X158440000Y-46355000D02*
X158344762Y-46402619D01*
X158344762Y-46402619D02*
X158154286Y-46402619D01*
X158154286Y-46402619D02*
X158059048Y-46355000D01*
X158059048Y-46355000D02*
X158011429Y-46307380D01*
X158011429Y-46307380D02*
X157963810Y-46212142D01*
X157963810Y-46212142D02*
X157963810Y-45926428D01*
X157963810Y-45926428D02*
X158011429Y-45831190D01*
X158011429Y-45831190D02*
X158059048Y-45783571D01*
X158059048Y-45783571D02*
X158154286Y-45735952D01*
X158154286Y-45735952D02*
X158344762Y-45735952D01*
X158344762Y-45735952D02*
X158440000Y-45783571D01*
X159344762Y-46402619D02*
X159344762Y-45878809D01*
X159344762Y-45878809D02*
X159297143Y-45783571D01*
X159297143Y-45783571D02*
X159201905Y-45735952D01*
X159201905Y-45735952D02*
X159011429Y-45735952D01*
X159011429Y-45735952D02*
X158916191Y-45783571D01*
X159344762Y-46355000D02*
X159249524Y-46402619D01*
X159249524Y-46402619D02*
X159011429Y-46402619D01*
X159011429Y-46402619D02*
X158916191Y-46355000D01*
X158916191Y-46355000D02*
X158868572Y-46259761D01*
X158868572Y-46259761D02*
X158868572Y-46164523D01*
X158868572Y-46164523D02*
X158916191Y-46069285D01*
X158916191Y-46069285D02*
X159011429Y-46021666D01*
X159011429Y-46021666D02*
X159249524Y-46021666D01*
X159249524Y-46021666D02*
X159344762Y-45974047D01*
X160344762Y-46402619D02*
X159773334Y-46402619D01*
X160059048Y-46402619D02*
X160059048Y-45402619D01*
X160059048Y-45402619D02*
X159963810Y-45545476D01*
X159963810Y-45545476D02*
X159868572Y-45640714D01*
X159868572Y-45640714D02*
X159773334Y-45688333D01*
%TO.C,J12*%
X146510476Y-85532619D02*
X146510476Y-86246904D01*
X146510476Y-86246904D02*
X146462857Y-86389761D01*
X146462857Y-86389761D02*
X146367619Y-86485000D01*
X146367619Y-86485000D02*
X146224762Y-86532619D01*
X146224762Y-86532619D02*
X146129524Y-86532619D01*
X147510476Y-86532619D02*
X146939048Y-86532619D01*
X147224762Y-86532619D02*
X147224762Y-85532619D01*
X147224762Y-85532619D02*
X147129524Y-85675476D01*
X147129524Y-85675476D02*
X147034286Y-85770714D01*
X147034286Y-85770714D02*
X146939048Y-85818333D01*
X147891429Y-85627857D02*
X147939048Y-85580238D01*
X147939048Y-85580238D02*
X148034286Y-85532619D01*
X148034286Y-85532619D02*
X148272381Y-85532619D01*
X148272381Y-85532619D02*
X148367619Y-85580238D01*
X148367619Y-85580238D02*
X148415238Y-85627857D01*
X148415238Y-85627857D02*
X148462857Y-85723095D01*
X148462857Y-85723095D02*
X148462857Y-85818333D01*
X148462857Y-85818333D02*
X148415238Y-85961190D01*
X148415238Y-85961190D02*
X147843810Y-86532619D01*
X147843810Y-86532619D02*
X148462857Y-86532619D01*
D11*
%TO.C,On/Off1*%
X156942619Y-33122857D02*
X156942619Y-32932381D01*
X156942619Y-32932381D02*
X156990238Y-32837143D01*
X156990238Y-32837143D02*
X157085476Y-32741905D01*
X157085476Y-32741905D02*
X157275952Y-32694286D01*
X157275952Y-32694286D02*
X157609285Y-32694286D01*
X157609285Y-32694286D02*
X157799761Y-32741905D01*
X157799761Y-32741905D02*
X157895000Y-32837143D01*
X157895000Y-32837143D02*
X157942619Y-32932381D01*
X157942619Y-32932381D02*
X157942619Y-33122857D01*
X157942619Y-33122857D02*
X157895000Y-33218095D01*
X157895000Y-33218095D02*
X157799761Y-33313333D01*
X157799761Y-33313333D02*
X157609285Y-33360952D01*
X157609285Y-33360952D02*
X157275952Y-33360952D01*
X157275952Y-33360952D02*
X157085476Y-33313333D01*
X157085476Y-33313333D02*
X156990238Y-33218095D01*
X156990238Y-33218095D02*
X156942619Y-33122857D01*
X157275952Y-32265714D02*
X157942619Y-32265714D01*
X157371190Y-32265714D02*
X157323571Y-32218095D01*
X157323571Y-32218095D02*
X157275952Y-32122857D01*
X157275952Y-32122857D02*
X157275952Y-31980000D01*
X157275952Y-31980000D02*
X157323571Y-31884762D01*
X157323571Y-31884762D02*
X157418809Y-31837143D01*
X157418809Y-31837143D02*
X157942619Y-31837143D01*
X156895000Y-30646667D02*
X158180714Y-31503809D01*
X156942619Y-30122857D02*
X156942619Y-29932381D01*
X156942619Y-29932381D02*
X156990238Y-29837143D01*
X156990238Y-29837143D02*
X157085476Y-29741905D01*
X157085476Y-29741905D02*
X157275952Y-29694286D01*
X157275952Y-29694286D02*
X157609285Y-29694286D01*
X157609285Y-29694286D02*
X157799761Y-29741905D01*
X157799761Y-29741905D02*
X157895000Y-29837143D01*
X157895000Y-29837143D02*
X157942619Y-29932381D01*
X157942619Y-29932381D02*
X157942619Y-30122857D01*
X157942619Y-30122857D02*
X157895000Y-30218095D01*
X157895000Y-30218095D02*
X157799761Y-30313333D01*
X157799761Y-30313333D02*
X157609285Y-30360952D01*
X157609285Y-30360952D02*
X157275952Y-30360952D01*
X157275952Y-30360952D02*
X157085476Y-30313333D01*
X157085476Y-30313333D02*
X156990238Y-30218095D01*
X156990238Y-30218095D02*
X156942619Y-30122857D01*
X157275952Y-29408571D02*
X157275952Y-29027619D01*
X157942619Y-29265714D02*
X157085476Y-29265714D01*
X157085476Y-29265714D02*
X156990238Y-29218095D01*
X156990238Y-29218095D02*
X156942619Y-29122857D01*
X156942619Y-29122857D02*
X156942619Y-29027619D01*
X157275952Y-28837142D02*
X157275952Y-28456190D01*
X157942619Y-28694285D02*
X157085476Y-28694285D01*
X157085476Y-28694285D02*
X156990238Y-28646666D01*
X156990238Y-28646666D02*
X156942619Y-28551428D01*
X156942619Y-28551428D02*
X156942619Y-28456190D01*
X157942619Y-27599047D02*
X157942619Y-28170475D01*
X157942619Y-27884761D02*
X156942619Y-27884761D01*
X156942619Y-27884761D02*
X157085476Y-27979999D01*
X157085476Y-27979999D02*
X157180714Y-28075237D01*
X157180714Y-28075237D02*
X157228333Y-28170475D01*
X155849523Y-27842095D02*
X155392380Y-27842095D01*
X155620952Y-27842095D02*
X155620952Y-27042095D01*
X155620952Y-27042095D02*
X155544761Y-27156380D01*
X155544761Y-27156380D02*
X155468571Y-27232571D01*
X155468571Y-27232571D02*
X155392380Y-27270666D01*
X153842857Y-33102095D02*
X153995238Y-33102095D01*
X153995238Y-33102095D02*
X154071428Y-33140190D01*
X154071428Y-33140190D02*
X154147619Y-33216380D01*
X154147619Y-33216380D02*
X154185714Y-33368761D01*
X154185714Y-33368761D02*
X154185714Y-33635428D01*
X154185714Y-33635428D02*
X154147619Y-33787809D01*
X154147619Y-33787809D02*
X154071428Y-33864000D01*
X154071428Y-33864000D02*
X153995238Y-33902095D01*
X153995238Y-33902095D02*
X153842857Y-33902095D01*
X153842857Y-33902095D02*
X153766666Y-33864000D01*
X153766666Y-33864000D02*
X153690476Y-33787809D01*
X153690476Y-33787809D02*
X153652380Y-33635428D01*
X153652380Y-33635428D02*
X153652380Y-33368761D01*
X153652380Y-33368761D02*
X153690476Y-33216380D01*
X153690476Y-33216380D02*
X153766666Y-33140190D01*
X153766666Y-33140190D02*
X153842857Y-33102095D01*
X154528571Y-33902095D02*
X154528571Y-33102095D01*
X154528571Y-33102095D02*
X154985714Y-33902095D01*
X154985714Y-33902095D02*
X154985714Y-33102095D01*
D10*
%TO.C,C1*%
X132890833Y-68257380D02*
X132843214Y-68305000D01*
X132843214Y-68305000D02*
X132700357Y-68352619D01*
X132700357Y-68352619D02*
X132605119Y-68352619D01*
X132605119Y-68352619D02*
X132462262Y-68305000D01*
X132462262Y-68305000D02*
X132367024Y-68209761D01*
X132367024Y-68209761D02*
X132319405Y-68114523D01*
X132319405Y-68114523D02*
X132271786Y-67924047D01*
X132271786Y-67924047D02*
X132271786Y-67781190D01*
X132271786Y-67781190D02*
X132319405Y-67590714D01*
X132319405Y-67590714D02*
X132367024Y-67495476D01*
X132367024Y-67495476D02*
X132462262Y-67400238D01*
X132462262Y-67400238D02*
X132605119Y-67352619D01*
X132605119Y-67352619D02*
X132700357Y-67352619D01*
X132700357Y-67352619D02*
X132843214Y-67400238D01*
X132843214Y-67400238D02*
X132890833Y-67447857D01*
X133843214Y-68352619D02*
X133271786Y-68352619D01*
X133557500Y-68352619D02*
X133557500Y-67352619D01*
X133557500Y-67352619D02*
X133462262Y-67495476D01*
X133462262Y-67495476D02*
X133367024Y-67590714D01*
X133367024Y-67590714D02*
X133271786Y-67638333D01*
%TO.C,J13*%
X151590476Y-88072619D02*
X151590476Y-88786904D01*
X151590476Y-88786904D02*
X151542857Y-88929761D01*
X151542857Y-88929761D02*
X151447619Y-89025000D01*
X151447619Y-89025000D02*
X151304762Y-89072619D01*
X151304762Y-89072619D02*
X151209524Y-89072619D01*
X152590476Y-89072619D02*
X152019048Y-89072619D01*
X152304762Y-89072619D02*
X152304762Y-88072619D01*
X152304762Y-88072619D02*
X152209524Y-88215476D01*
X152209524Y-88215476D02*
X152114286Y-88310714D01*
X152114286Y-88310714D02*
X152019048Y-88358333D01*
X152923810Y-88072619D02*
X153542857Y-88072619D01*
X153542857Y-88072619D02*
X153209524Y-88453571D01*
X153209524Y-88453571D02*
X153352381Y-88453571D01*
X153352381Y-88453571D02*
X153447619Y-88501190D01*
X153447619Y-88501190D02*
X153495238Y-88548809D01*
X153495238Y-88548809D02*
X153542857Y-88644047D01*
X153542857Y-88644047D02*
X153542857Y-88882142D01*
X153542857Y-88882142D02*
X153495238Y-88977380D01*
X153495238Y-88977380D02*
X153447619Y-89025000D01*
X153447619Y-89025000D02*
X153352381Y-89072619D01*
X153352381Y-89072619D02*
X153066667Y-89072619D01*
X153066667Y-89072619D02*
X152971429Y-89025000D01*
X152971429Y-89025000D02*
X152923810Y-88977380D01*
%TO.C,J17*%
X159210476Y-88072619D02*
X159210476Y-88786904D01*
X159210476Y-88786904D02*
X159162857Y-88929761D01*
X159162857Y-88929761D02*
X159067619Y-89025000D01*
X159067619Y-89025000D02*
X158924762Y-89072619D01*
X158924762Y-89072619D02*
X158829524Y-89072619D01*
X160210476Y-89072619D02*
X159639048Y-89072619D01*
X159924762Y-89072619D02*
X159924762Y-88072619D01*
X159924762Y-88072619D02*
X159829524Y-88215476D01*
X159829524Y-88215476D02*
X159734286Y-88310714D01*
X159734286Y-88310714D02*
X159639048Y-88358333D01*
X160543810Y-88072619D02*
X161210476Y-88072619D01*
X161210476Y-88072619D02*
X160781905Y-89072619D01*
%TO.C,C3*%
X140510833Y-83527380D02*
X140463214Y-83575000D01*
X140463214Y-83575000D02*
X140320357Y-83622619D01*
X140320357Y-83622619D02*
X140225119Y-83622619D01*
X140225119Y-83622619D02*
X140082262Y-83575000D01*
X140082262Y-83575000D02*
X139987024Y-83479761D01*
X139987024Y-83479761D02*
X139939405Y-83384523D01*
X139939405Y-83384523D02*
X139891786Y-83194047D01*
X139891786Y-83194047D02*
X139891786Y-83051190D01*
X139891786Y-83051190D02*
X139939405Y-82860714D01*
X139939405Y-82860714D02*
X139987024Y-82765476D01*
X139987024Y-82765476D02*
X140082262Y-82670238D01*
X140082262Y-82670238D02*
X140225119Y-82622619D01*
X140225119Y-82622619D02*
X140320357Y-82622619D01*
X140320357Y-82622619D02*
X140463214Y-82670238D01*
X140463214Y-82670238D02*
X140510833Y-82717857D01*
X140844167Y-82622619D02*
X141463214Y-82622619D01*
X141463214Y-82622619D02*
X141129881Y-83003571D01*
X141129881Y-83003571D02*
X141272738Y-83003571D01*
X141272738Y-83003571D02*
X141367976Y-83051190D01*
X141367976Y-83051190D02*
X141415595Y-83098809D01*
X141415595Y-83098809D02*
X141463214Y-83194047D01*
X141463214Y-83194047D02*
X141463214Y-83432142D01*
X141463214Y-83432142D02*
X141415595Y-83527380D01*
X141415595Y-83527380D02*
X141367976Y-83575000D01*
X141367976Y-83575000D02*
X141272738Y-83622619D01*
X141272738Y-83622619D02*
X140987024Y-83622619D01*
X140987024Y-83622619D02*
X140891786Y-83575000D01*
X140891786Y-83575000D02*
X140844167Y-83527380D01*
%TO.C,Y1*%
X139223809Y-76186428D02*
X139223809Y-76662619D01*
X138890476Y-75662619D02*
X139223809Y-76186428D01*
X139223809Y-76186428D02*
X139557142Y-75662619D01*
X140414285Y-76662619D02*
X139842857Y-76662619D01*
X140128571Y-76662619D02*
X140128571Y-75662619D01*
X140128571Y-75662619D02*
X140033333Y-75805476D01*
X140033333Y-75805476D02*
X139938095Y-75900714D01*
X139938095Y-75900714D02*
X139842857Y-75948333D01*
D11*
%TO.C,J5*%
X195246666Y-70582619D02*
X195246666Y-71296904D01*
X195246666Y-71296904D02*
X195199047Y-71439761D01*
X195199047Y-71439761D02*
X195103809Y-71535000D01*
X195103809Y-71535000D02*
X194960952Y-71582619D01*
X194960952Y-71582619D02*
X194865714Y-71582619D01*
X196199047Y-70582619D02*
X195722857Y-70582619D01*
X195722857Y-70582619D02*
X195675238Y-71058809D01*
X195675238Y-71058809D02*
X195722857Y-71011190D01*
X195722857Y-71011190D02*
X195818095Y-70963571D01*
X195818095Y-70963571D02*
X196056190Y-70963571D01*
X196056190Y-70963571D02*
X196151428Y-71011190D01*
X196151428Y-71011190D02*
X196199047Y-71058809D01*
X196199047Y-71058809D02*
X196246666Y-71154047D01*
X196246666Y-71154047D02*
X196246666Y-71392142D01*
X196246666Y-71392142D02*
X196199047Y-71487380D01*
X196199047Y-71487380D02*
X196151428Y-71535000D01*
X196151428Y-71535000D02*
X196056190Y-71582619D01*
X196056190Y-71582619D02*
X195818095Y-71582619D01*
X195818095Y-71582619D02*
X195722857Y-71535000D01*
X195722857Y-71535000D02*
X195675238Y-71487380D01*
X170777142Y-86457904D02*
X170777142Y-87257904D01*
X170777142Y-87257904D02*
X170634285Y-87257904D01*
X170634285Y-87257904D02*
X170548571Y-87219809D01*
X170548571Y-87219809D02*
X170491428Y-87143619D01*
X170491428Y-87143619D02*
X170462857Y-87067428D01*
X170462857Y-87067428D02*
X170434285Y-86915047D01*
X170434285Y-86915047D02*
X170434285Y-86800761D01*
X170434285Y-86800761D02*
X170462857Y-86648380D01*
X170462857Y-86648380D02*
X170491428Y-86572190D01*
X170491428Y-86572190D02*
X170548571Y-86496000D01*
X170548571Y-86496000D02*
X170634285Y-86457904D01*
X170634285Y-86457904D02*
X170777142Y-86457904D01*
X170062857Y-87257904D02*
X169948571Y-87257904D01*
X169948571Y-87257904D02*
X169891428Y-87219809D01*
X169891428Y-87219809D02*
X169834285Y-87143619D01*
X169834285Y-87143619D02*
X169805714Y-86991238D01*
X169805714Y-86991238D02*
X169805714Y-86724571D01*
X169805714Y-86724571D02*
X169834285Y-86572190D01*
X169834285Y-86572190D02*
X169891428Y-86496000D01*
X169891428Y-86496000D02*
X169948571Y-86457904D01*
X169948571Y-86457904D02*
X170062857Y-86457904D01*
X170062857Y-86457904D02*
X170120000Y-86496000D01*
X170120000Y-86496000D02*
X170177142Y-86572190D01*
X170177142Y-86572190D02*
X170205714Y-86724571D01*
X170205714Y-86724571D02*
X170205714Y-86991238D01*
X170205714Y-86991238D02*
X170177142Y-87143619D01*
X170177142Y-87143619D02*
X170120000Y-87219809D01*
X170120000Y-87219809D02*
X170062857Y-87257904D01*
X170434285Y-94154095D02*
X170462857Y-94116000D01*
X170462857Y-94116000D02*
X170548571Y-94077904D01*
X170548571Y-94077904D02*
X170605714Y-94077904D01*
X170605714Y-94077904D02*
X170691428Y-94116000D01*
X170691428Y-94116000D02*
X170748571Y-94192190D01*
X170748571Y-94192190D02*
X170777142Y-94268380D01*
X170777142Y-94268380D02*
X170805714Y-94420761D01*
X170805714Y-94420761D02*
X170805714Y-94535047D01*
X170805714Y-94535047D02*
X170777142Y-94687428D01*
X170777142Y-94687428D02*
X170748571Y-94763619D01*
X170748571Y-94763619D02*
X170691428Y-94839809D01*
X170691428Y-94839809D02*
X170605714Y-94877904D01*
X170605714Y-94877904D02*
X170548571Y-94877904D01*
X170548571Y-94877904D02*
X170462857Y-94839809D01*
X170462857Y-94839809D02*
X170434285Y-94801714D01*
X170177142Y-94077904D02*
X170177142Y-94877904D01*
X170177142Y-94877904D02*
X170034285Y-94877904D01*
X170034285Y-94877904D02*
X169948571Y-94839809D01*
X169948571Y-94839809D02*
X169891428Y-94763619D01*
X169891428Y-94763619D02*
X169862857Y-94687428D01*
X169862857Y-94687428D02*
X169834285Y-94535047D01*
X169834285Y-94535047D02*
X169834285Y-94420761D01*
X169834285Y-94420761D02*
X169862857Y-94268380D01*
X169862857Y-94268380D02*
X169891428Y-94192190D01*
X169891428Y-94192190D02*
X169948571Y-94116000D01*
X169948571Y-94116000D02*
X170034285Y-94077904D01*
X170034285Y-94077904D02*
X170177142Y-94077904D01*
X170834285Y-79637904D02*
X170462857Y-79637904D01*
X170462857Y-79637904D02*
X170662857Y-79333142D01*
X170662857Y-79333142D02*
X170577142Y-79333142D01*
X170577142Y-79333142D02*
X170520000Y-79295047D01*
X170520000Y-79295047D02*
X170491428Y-79256952D01*
X170491428Y-79256952D02*
X170462857Y-79180761D01*
X170462857Y-79180761D02*
X170462857Y-78990285D01*
X170462857Y-78990285D02*
X170491428Y-78914095D01*
X170491428Y-78914095D02*
X170520000Y-78876000D01*
X170520000Y-78876000D02*
X170577142Y-78837904D01*
X170577142Y-78837904D02*
X170748571Y-78837904D01*
X170748571Y-78837904D02*
X170805714Y-78876000D01*
X170805714Y-78876000D02*
X170834285Y-78914095D01*
X170291428Y-79637904D02*
X170091428Y-78837904D01*
X170091428Y-78837904D02*
X169891428Y-79637904D01*
X170491428Y-77097904D02*
X170777142Y-77097904D01*
X170777142Y-77097904D02*
X170805714Y-76716952D01*
X170805714Y-76716952D02*
X170777142Y-76755047D01*
X170777142Y-76755047D02*
X170720000Y-76793142D01*
X170720000Y-76793142D02*
X170577142Y-76793142D01*
X170577142Y-76793142D02*
X170520000Y-76755047D01*
X170520000Y-76755047D02*
X170491428Y-76716952D01*
X170491428Y-76716952D02*
X170462857Y-76640761D01*
X170462857Y-76640761D02*
X170462857Y-76450285D01*
X170462857Y-76450285D02*
X170491428Y-76374095D01*
X170491428Y-76374095D02*
X170520000Y-76336000D01*
X170520000Y-76336000D02*
X170577142Y-76297904D01*
X170577142Y-76297904D02*
X170720000Y-76297904D01*
X170720000Y-76297904D02*
X170777142Y-76336000D01*
X170777142Y-76336000D02*
X170805714Y-76374095D01*
X170291428Y-77097904D02*
X170091428Y-76297904D01*
X170091428Y-76297904D02*
X169891428Y-77097904D01*
X170434285Y-83994095D02*
X170462857Y-83956000D01*
X170462857Y-83956000D02*
X170548571Y-83917904D01*
X170548571Y-83917904D02*
X170605714Y-83917904D01*
X170605714Y-83917904D02*
X170691428Y-83956000D01*
X170691428Y-83956000D02*
X170748571Y-84032190D01*
X170748571Y-84032190D02*
X170777142Y-84108380D01*
X170777142Y-84108380D02*
X170805714Y-84260761D01*
X170805714Y-84260761D02*
X170805714Y-84375047D01*
X170805714Y-84375047D02*
X170777142Y-84527428D01*
X170777142Y-84527428D02*
X170748571Y-84603619D01*
X170748571Y-84603619D02*
X170691428Y-84679809D01*
X170691428Y-84679809D02*
X170605714Y-84717904D01*
X170605714Y-84717904D02*
X170548571Y-84717904D01*
X170548571Y-84717904D02*
X170462857Y-84679809D01*
X170462857Y-84679809D02*
X170434285Y-84641714D01*
X169891428Y-83917904D02*
X170177142Y-83917904D01*
X170177142Y-83917904D02*
X170177142Y-84717904D01*
X169691428Y-83917904D02*
X169691428Y-84717904D01*
X169348571Y-83917904D02*
X169605714Y-84375047D01*
X169348571Y-84717904D02*
X169691428Y-84260761D01*
X170434285Y-91614095D02*
X170462857Y-91576000D01*
X170462857Y-91576000D02*
X170548571Y-91537904D01*
X170548571Y-91537904D02*
X170605714Y-91537904D01*
X170605714Y-91537904D02*
X170691428Y-91576000D01*
X170691428Y-91576000D02*
X170748571Y-91652190D01*
X170748571Y-91652190D02*
X170777142Y-91728380D01*
X170777142Y-91728380D02*
X170805714Y-91880761D01*
X170805714Y-91880761D02*
X170805714Y-91995047D01*
X170805714Y-91995047D02*
X170777142Y-92147428D01*
X170777142Y-92147428D02*
X170748571Y-92223619D01*
X170748571Y-92223619D02*
X170691428Y-92299809D01*
X170691428Y-92299809D02*
X170605714Y-92337904D01*
X170605714Y-92337904D02*
X170548571Y-92337904D01*
X170548571Y-92337904D02*
X170462857Y-92299809D01*
X170462857Y-92299809D02*
X170434285Y-92261714D01*
X170205714Y-91576000D02*
X170120000Y-91537904D01*
X170120000Y-91537904D02*
X169977142Y-91537904D01*
X169977142Y-91537904D02*
X169920000Y-91576000D01*
X169920000Y-91576000D02*
X169891428Y-91614095D01*
X169891428Y-91614095D02*
X169862857Y-91690285D01*
X169862857Y-91690285D02*
X169862857Y-91766476D01*
X169862857Y-91766476D02*
X169891428Y-91842666D01*
X169891428Y-91842666D02*
X169920000Y-91880761D01*
X169920000Y-91880761D02*
X169977142Y-91918857D01*
X169977142Y-91918857D02*
X170091428Y-91956952D01*
X170091428Y-91956952D02*
X170148571Y-91995047D01*
X170148571Y-91995047D02*
X170177142Y-92033142D01*
X170177142Y-92033142D02*
X170205714Y-92109333D01*
X170205714Y-92109333D02*
X170205714Y-92185523D01*
X170205714Y-92185523D02*
X170177142Y-92261714D01*
X170177142Y-92261714D02*
X170148571Y-92299809D01*
X170148571Y-92299809D02*
X170091428Y-92337904D01*
X170091428Y-92337904D02*
X169948571Y-92337904D01*
X169948571Y-92337904D02*
X169862857Y-92299809D01*
X170777142Y-88997904D02*
X170777142Y-89797904D01*
X170777142Y-89797904D02*
X170634285Y-89797904D01*
X170634285Y-89797904D02*
X170548571Y-89759809D01*
X170548571Y-89759809D02*
X170491428Y-89683619D01*
X170491428Y-89683619D02*
X170462857Y-89607428D01*
X170462857Y-89607428D02*
X170434285Y-89455047D01*
X170434285Y-89455047D02*
X170434285Y-89340761D01*
X170434285Y-89340761D02*
X170462857Y-89188380D01*
X170462857Y-89188380D02*
X170491428Y-89112190D01*
X170491428Y-89112190D02*
X170548571Y-89036000D01*
X170548571Y-89036000D02*
X170634285Y-88997904D01*
X170634285Y-88997904D02*
X170777142Y-88997904D01*
X170177142Y-88997904D02*
X170177142Y-89797904D01*
X170462857Y-82139809D02*
X170520000Y-82177904D01*
X170520000Y-82177904D02*
X170605714Y-82177904D01*
X170605714Y-82177904D02*
X170691428Y-82139809D01*
X170691428Y-82139809D02*
X170748571Y-82063619D01*
X170748571Y-82063619D02*
X170777142Y-81987428D01*
X170777142Y-81987428D02*
X170805714Y-81835047D01*
X170805714Y-81835047D02*
X170805714Y-81720761D01*
X170805714Y-81720761D02*
X170777142Y-81568380D01*
X170777142Y-81568380D02*
X170748571Y-81492190D01*
X170748571Y-81492190D02*
X170691428Y-81416000D01*
X170691428Y-81416000D02*
X170605714Y-81377904D01*
X170605714Y-81377904D02*
X170548571Y-81377904D01*
X170548571Y-81377904D02*
X170462857Y-81416000D01*
X170462857Y-81416000D02*
X170434285Y-81454095D01*
X170434285Y-81454095D02*
X170434285Y-81720761D01*
X170434285Y-81720761D02*
X170548571Y-81720761D01*
X170177142Y-81377904D02*
X170177142Y-82177904D01*
X170177142Y-82177904D02*
X169834285Y-81377904D01*
X169834285Y-81377904D02*
X169834285Y-82177904D01*
X169548571Y-81377904D02*
X169548571Y-82177904D01*
X169548571Y-82177904D02*
X169405714Y-82177904D01*
X169405714Y-82177904D02*
X169320000Y-82139809D01*
X169320000Y-82139809D02*
X169262857Y-82063619D01*
X169262857Y-82063619D02*
X169234286Y-81987428D01*
X169234286Y-81987428D02*
X169205714Y-81835047D01*
X169205714Y-81835047D02*
X169205714Y-81720761D01*
X169205714Y-81720761D02*
X169234286Y-81568380D01*
X169234286Y-81568380D02*
X169262857Y-81492190D01*
X169262857Y-81492190D02*
X169320000Y-81416000D01*
X169320000Y-81416000D02*
X169405714Y-81377904D01*
X169405714Y-81377904D02*
X169548571Y-81377904D01*
D10*
%TO.C,J4*%
X187626666Y-45182619D02*
X187626666Y-45896904D01*
X187626666Y-45896904D02*
X187579047Y-46039761D01*
X187579047Y-46039761D02*
X187483809Y-46135000D01*
X187483809Y-46135000D02*
X187340952Y-46182619D01*
X187340952Y-46182619D02*
X187245714Y-46182619D01*
X188531428Y-45515952D02*
X188531428Y-46182619D01*
X188293333Y-45135000D02*
X188055238Y-45849285D01*
X188055238Y-45849285D02*
X188674285Y-45849285D01*
D11*
X181747857Y-61107619D02*
X182366904Y-61107619D01*
X182366904Y-61107619D02*
X182033571Y-61488571D01*
X182033571Y-61488571D02*
X182176428Y-61488571D01*
X182176428Y-61488571D02*
X182271666Y-61536190D01*
X182271666Y-61536190D02*
X182319285Y-61583809D01*
X182319285Y-61583809D02*
X182366904Y-61679047D01*
X182366904Y-61679047D02*
X182366904Y-61917142D01*
X182366904Y-61917142D02*
X182319285Y-62012380D01*
X182319285Y-62012380D02*
X182271666Y-62060000D01*
X182271666Y-62060000D02*
X182176428Y-62107619D01*
X182176428Y-62107619D02*
X181890714Y-62107619D01*
X181890714Y-62107619D02*
X181795476Y-62060000D01*
X181795476Y-62060000D02*
X181747857Y-62012380D01*
X182747857Y-61202857D02*
X182795476Y-61155238D01*
X182795476Y-61155238D02*
X182890714Y-61107619D01*
X182890714Y-61107619D02*
X183128809Y-61107619D01*
X183128809Y-61107619D02*
X183224047Y-61155238D01*
X183224047Y-61155238D02*
X183271666Y-61202857D01*
X183271666Y-61202857D02*
X183319285Y-61298095D01*
X183319285Y-61298095D02*
X183319285Y-61393333D01*
X183319285Y-61393333D02*
X183271666Y-61536190D01*
X183271666Y-61536190D02*
X182700238Y-62107619D01*
X182700238Y-62107619D02*
X183319285Y-62107619D01*
X183747857Y-62107619D02*
X183747857Y-61107619D01*
X184319285Y-62107619D02*
X183890714Y-61536190D01*
X184319285Y-61107619D02*
X183747857Y-61679047D01*
X182176428Y-59043809D02*
X182319285Y-59091428D01*
X182319285Y-59091428D02*
X182366904Y-59139047D01*
X182366904Y-59139047D02*
X182414523Y-59234285D01*
X182414523Y-59234285D02*
X182414523Y-59377142D01*
X182414523Y-59377142D02*
X182366904Y-59472380D01*
X182366904Y-59472380D02*
X182319285Y-59520000D01*
X182319285Y-59520000D02*
X182224047Y-59567619D01*
X182224047Y-59567619D02*
X181843095Y-59567619D01*
X181843095Y-59567619D02*
X181843095Y-58567619D01*
X181843095Y-58567619D02*
X182176428Y-58567619D01*
X182176428Y-58567619D02*
X182271666Y-58615238D01*
X182271666Y-58615238D02*
X182319285Y-58662857D01*
X182319285Y-58662857D02*
X182366904Y-58758095D01*
X182366904Y-58758095D02*
X182366904Y-58853333D01*
X182366904Y-58853333D02*
X182319285Y-58948571D01*
X182319285Y-58948571D02*
X182271666Y-58996190D01*
X182271666Y-58996190D02*
X182176428Y-59043809D01*
X182176428Y-59043809D02*
X181843095Y-59043809D01*
X182795476Y-59281904D02*
X183271666Y-59281904D01*
X182700238Y-59567619D02*
X183033571Y-58567619D01*
X183033571Y-58567619D02*
X183366904Y-59567619D01*
X183557381Y-58567619D02*
X184128809Y-58567619D01*
X183843095Y-59567619D02*
X183843095Y-58567619D01*
X182414523Y-67187619D02*
X182081190Y-66711428D01*
X181843095Y-67187619D02*
X181843095Y-66187619D01*
X181843095Y-66187619D02*
X182224047Y-66187619D01*
X182224047Y-66187619D02*
X182319285Y-66235238D01*
X182319285Y-66235238D02*
X182366904Y-66282857D01*
X182366904Y-66282857D02*
X182414523Y-66378095D01*
X182414523Y-66378095D02*
X182414523Y-66520952D01*
X182414523Y-66520952D02*
X182366904Y-66616190D01*
X182366904Y-66616190D02*
X182319285Y-66663809D01*
X182319285Y-66663809D02*
X182224047Y-66711428D01*
X182224047Y-66711428D02*
X181843095Y-66711428D01*
X182795476Y-67140000D02*
X182938333Y-67187619D01*
X182938333Y-67187619D02*
X183176428Y-67187619D01*
X183176428Y-67187619D02*
X183271666Y-67140000D01*
X183271666Y-67140000D02*
X183319285Y-67092380D01*
X183319285Y-67092380D02*
X183366904Y-66997142D01*
X183366904Y-66997142D02*
X183366904Y-66901904D01*
X183366904Y-66901904D02*
X183319285Y-66806666D01*
X183319285Y-66806666D02*
X183271666Y-66759047D01*
X183271666Y-66759047D02*
X183176428Y-66711428D01*
X183176428Y-66711428D02*
X182985952Y-66663809D01*
X182985952Y-66663809D02*
X182890714Y-66616190D01*
X182890714Y-66616190D02*
X182843095Y-66568571D01*
X182843095Y-66568571D02*
X182795476Y-66473333D01*
X182795476Y-66473333D02*
X182795476Y-66378095D01*
X182795476Y-66378095D02*
X182843095Y-66282857D01*
X182843095Y-66282857D02*
X182890714Y-66235238D01*
X182890714Y-66235238D02*
X182985952Y-66187619D01*
X182985952Y-66187619D02*
X183224047Y-66187619D01*
X183224047Y-66187619D02*
X183366904Y-66235238D01*
X183652619Y-66187619D02*
X184224047Y-66187619D01*
X183938333Y-67187619D02*
X183938333Y-66187619D01*
X182366904Y-50995238D02*
X182271666Y-50947619D01*
X182271666Y-50947619D02*
X182128809Y-50947619D01*
X182128809Y-50947619D02*
X181985952Y-50995238D01*
X181985952Y-50995238D02*
X181890714Y-51090476D01*
X181890714Y-51090476D02*
X181843095Y-51185714D01*
X181843095Y-51185714D02*
X181795476Y-51376190D01*
X181795476Y-51376190D02*
X181795476Y-51519047D01*
X181795476Y-51519047D02*
X181843095Y-51709523D01*
X181843095Y-51709523D02*
X181890714Y-51804761D01*
X181890714Y-51804761D02*
X181985952Y-51900000D01*
X181985952Y-51900000D02*
X182128809Y-51947619D01*
X182128809Y-51947619D02*
X182224047Y-51947619D01*
X182224047Y-51947619D02*
X182366904Y-51900000D01*
X182366904Y-51900000D02*
X182414523Y-51852380D01*
X182414523Y-51852380D02*
X182414523Y-51519047D01*
X182414523Y-51519047D02*
X182224047Y-51519047D01*
X182843095Y-51947619D02*
X182843095Y-50947619D01*
X182843095Y-50947619D02*
X183414523Y-51947619D01*
X183414523Y-51947619D02*
X183414523Y-50947619D01*
X183890714Y-51947619D02*
X183890714Y-50947619D01*
X183890714Y-50947619D02*
X184128809Y-50947619D01*
X184128809Y-50947619D02*
X184271666Y-50995238D01*
X184271666Y-50995238D02*
X184366904Y-51090476D01*
X184366904Y-51090476D02*
X184414523Y-51185714D01*
X184414523Y-51185714D02*
X184462142Y-51376190D01*
X184462142Y-51376190D02*
X184462142Y-51519047D01*
X184462142Y-51519047D02*
X184414523Y-51709523D01*
X184414523Y-51709523D02*
X184366904Y-51804761D01*
X184366904Y-51804761D02*
X184271666Y-51900000D01*
X184271666Y-51900000D02*
X184128809Y-51947619D01*
X184128809Y-51947619D02*
X183890714Y-51947619D01*
X181795476Y-54440000D02*
X181938333Y-54487619D01*
X181938333Y-54487619D02*
X182176428Y-54487619D01*
X182176428Y-54487619D02*
X182271666Y-54440000D01*
X182271666Y-54440000D02*
X182319285Y-54392380D01*
X182319285Y-54392380D02*
X182366904Y-54297142D01*
X182366904Y-54297142D02*
X182366904Y-54201904D01*
X182366904Y-54201904D02*
X182319285Y-54106666D01*
X182319285Y-54106666D02*
X182271666Y-54059047D01*
X182271666Y-54059047D02*
X182176428Y-54011428D01*
X182176428Y-54011428D02*
X181985952Y-53963809D01*
X181985952Y-53963809D02*
X181890714Y-53916190D01*
X181890714Y-53916190D02*
X181843095Y-53868571D01*
X181843095Y-53868571D02*
X181795476Y-53773333D01*
X181795476Y-53773333D02*
X181795476Y-53678095D01*
X181795476Y-53678095D02*
X181843095Y-53582857D01*
X181843095Y-53582857D02*
X181890714Y-53535238D01*
X181890714Y-53535238D02*
X181985952Y-53487619D01*
X181985952Y-53487619D02*
X182224047Y-53487619D01*
X182224047Y-53487619D02*
X182366904Y-53535238D01*
X183366904Y-54392380D02*
X183319285Y-54440000D01*
X183319285Y-54440000D02*
X183176428Y-54487619D01*
X183176428Y-54487619D02*
X183081190Y-54487619D01*
X183081190Y-54487619D02*
X182938333Y-54440000D01*
X182938333Y-54440000D02*
X182843095Y-54344761D01*
X182843095Y-54344761D02*
X182795476Y-54249523D01*
X182795476Y-54249523D02*
X182747857Y-54059047D01*
X182747857Y-54059047D02*
X182747857Y-53916190D01*
X182747857Y-53916190D02*
X182795476Y-53725714D01*
X182795476Y-53725714D02*
X182843095Y-53630476D01*
X182843095Y-53630476D02*
X182938333Y-53535238D01*
X182938333Y-53535238D02*
X183081190Y-53487619D01*
X183081190Y-53487619D02*
X183176428Y-53487619D01*
X183176428Y-53487619D02*
X183319285Y-53535238D01*
X183319285Y-53535238D02*
X183366904Y-53582857D01*
X184271666Y-54487619D02*
X183795476Y-54487619D01*
X183795476Y-54487619D02*
X183795476Y-53487619D01*
X181795476Y-64600000D02*
X181938333Y-64647619D01*
X181938333Y-64647619D02*
X182176428Y-64647619D01*
X182176428Y-64647619D02*
X182271666Y-64600000D01*
X182271666Y-64600000D02*
X182319285Y-64552380D01*
X182319285Y-64552380D02*
X182366904Y-64457142D01*
X182366904Y-64457142D02*
X182366904Y-64361904D01*
X182366904Y-64361904D02*
X182319285Y-64266666D01*
X182319285Y-64266666D02*
X182271666Y-64219047D01*
X182271666Y-64219047D02*
X182176428Y-64171428D01*
X182176428Y-64171428D02*
X181985952Y-64123809D01*
X181985952Y-64123809D02*
X181890714Y-64076190D01*
X181890714Y-64076190D02*
X181843095Y-64028571D01*
X181843095Y-64028571D02*
X181795476Y-63933333D01*
X181795476Y-63933333D02*
X181795476Y-63838095D01*
X181795476Y-63838095D02*
X181843095Y-63742857D01*
X181843095Y-63742857D02*
X181890714Y-63695238D01*
X181890714Y-63695238D02*
X181985952Y-63647619D01*
X181985952Y-63647619D02*
X182224047Y-63647619D01*
X182224047Y-63647619D02*
X182366904Y-63695238D01*
X183462142Y-64742857D02*
X183366904Y-64695238D01*
X183366904Y-64695238D02*
X183271666Y-64600000D01*
X183271666Y-64600000D02*
X183128809Y-64457142D01*
X183128809Y-64457142D02*
X183033571Y-64409523D01*
X183033571Y-64409523D02*
X182938333Y-64409523D01*
X182985952Y-64647619D02*
X182890714Y-64600000D01*
X182890714Y-64600000D02*
X182795476Y-64504761D01*
X182795476Y-64504761D02*
X182747857Y-64314285D01*
X182747857Y-64314285D02*
X182747857Y-63980952D01*
X182747857Y-63980952D02*
X182795476Y-63790476D01*
X182795476Y-63790476D02*
X182890714Y-63695238D01*
X182890714Y-63695238D02*
X182985952Y-63647619D01*
X182985952Y-63647619D02*
X183176428Y-63647619D01*
X183176428Y-63647619D02*
X183271666Y-63695238D01*
X183271666Y-63695238D02*
X183366904Y-63790476D01*
X183366904Y-63790476D02*
X183414523Y-63980952D01*
X183414523Y-63980952D02*
X183414523Y-64314285D01*
X183414523Y-64314285D02*
X183366904Y-64504761D01*
X183366904Y-64504761D02*
X183271666Y-64600000D01*
X183271666Y-64600000D02*
X183176428Y-64647619D01*
X183176428Y-64647619D02*
X182985952Y-64647619D01*
X183747857Y-63647619D02*
X183985952Y-64647619D01*
X183985952Y-64647619D02*
X184176428Y-63933333D01*
X184176428Y-63933333D02*
X184366904Y-64647619D01*
X184366904Y-64647619D02*
X184605000Y-63647619D01*
X181795476Y-56980000D02*
X181938333Y-57027619D01*
X181938333Y-57027619D02*
X182176428Y-57027619D01*
X182176428Y-57027619D02*
X182271666Y-56980000D01*
X182271666Y-56980000D02*
X182319285Y-56932380D01*
X182319285Y-56932380D02*
X182366904Y-56837142D01*
X182366904Y-56837142D02*
X182366904Y-56741904D01*
X182366904Y-56741904D02*
X182319285Y-56646666D01*
X182319285Y-56646666D02*
X182271666Y-56599047D01*
X182271666Y-56599047D02*
X182176428Y-56551428D01*
X182176428Y-56551428D02*
X181985952Y-56503809D01*
X181985952Y-56503809D02*
X181890714Y-56456190D01*
X181890714Y-56456190D02*
X181843095Y-56408571D01*
X181843095Y-56408571D02*
X181795476Y-56313333D01*
X181795476Y-56313333D02*
X181795476Y-56218095D01*
X181795476Y-56218095D02*
X181843095Y-56122857D01*
X181843095Y-56122857D02*
X181890714Y-56075238D01*
X181890714Y-56075238D02*
X181985952Y-56027619D01*
X181985952Y-56027619D02*
X182224047Y-56027619D01*
X182224047Y-56027619D02*
X182366904Y-56075238D01*
X182795476Y-57027619D02*
X182795476Y-56027619D01*
X182795476Y-56027619D02*
X183033571Y-56027619D01*
X183033571Y-56027619D02*
X183176428Y-56075238D01*
X183176428Y-56075238D02*
X183271666Y-56170476D01*
X183271666Y-56170476D02*
X183319285Y-56265714D01*
X183319285Y-56265714D02*
X183366904Y-56456190D01*
X183366904Y-56456190D02*
X183366904Y-56599047D01*
X183366904Y-56599047D02*
X183319285Y-56789523D01*
X183319285Y-56789523D02*
X183271666Y-56884761D01*
X183271666Y-56884761D02*
X183176428Y-56980000D01*
X183176428Y-56980000D02*
X183033571Y-57027619D01*
X183033571Y-57027619D02*
X182795476Y-57027619D01*
X183747857Y-56741904D02*
X184224047Y-56741904D01*
X183652619Y-57027619D02*
X183985952Y-56027619D01*
X183985952Y-56027619D02*
X184319285Y-57027619D01*
X181700238Y-48407619D02*
X182033571Y-49407619D01*
X182033571Y-49407619D02*
X182366904Y-48407619D01*
X182700238Y-49407619D02*
X182700238Y-48740952D01*
X182700238Y-48407619D02*
X182652619Y-48455238D01*
X182652619Y-48455238D02*
X182700238Y-48502857D01*
X182700238Y-48502857D02*
X182747857Y-48455238D01*
X182747857Y-48455238D02*
X182700238Y-48407619D01*
X182700238Y-48407619D02*
X182700238Y-48502857D01*
X183176428Y-48740952D02*
X183176428Y-49407619D01*
X183176428Y-48836190D02*
X183224047Y-48788571D01*
X183224047Y-48788571D02*
X183319285Y-48740952D01*
X183319285Y-48740952D02*
X183462142Y-48740952D01*
X183462142Y-48740952D02*
X183557380Y-48788571D01*
X183557380Y-48788571D02*
X183604999Y-48883809D01*
X183604999Y-48883809D02*
X183604999Y-49407619D01*
D10*
%TO.C,J8*%
X146986666Y-55052619D02*
X146986666Y-55766904D01*
X146986666Y-55766904D02*
X146939047Y-55909761D01*
X146939047Y-55909761D02*
X146843809Y-56005000D01*
X146843809Y-56005000D02*
X146700952Y-56052619D01*
X146700952Y-56052619D02*
X146605714Y-56052619D01*
X147605714Y-55481190D02*
X147510476Y-55433571D01*
X147510476Y-55433571D02*
X147462857Y-55385952D01*
X147462857Y-55385952D02*
X147415238Y-55290714D01*
X147415238Y-55290714D02*
X147415238Y-55243095D01*
X147415238Y-55243095D02*
X147462857Y-55147857D01*
X147462857Y-55147857D02*
X147510476Y-55100238D01*
X147510476Y-55100238D02*
X147605714Y-55052619D01*
X147605714Y-55052619D02*
X147796190Y-55052619D01*
X147796190Y-55052619D02*
X147891428Y-55100238D01*
X147891428Y-55100238D02*
X147939047Y-55147857D01*
X147939047Y-55147857D02*
X147986666Y-55243095D01*
X147986666Y-55243095D02*
X147986666Y-55290714D01*
X147986666Y-55290714D02*
X147939047Y-55385952D01*
X147939047Y-55385952D02*
X147891428Y-55433571D01*
X147891428Y-55433571D02*
X147796190Y-55481190D01*
X147796190Y-55481190D02*
X147605714Y-55481190D01*
X147605714Y-55481190D02*
X147510476Y-55528809D01*
X147510476Y-55528809D02*
X147462857Y-55576428D01*
X147462857Y-55576428D02*
X147415238Y-55671666D01*
X147415238Y-55671666D02*
X147415238Y-55862142D01*
X147415238Y-55862142D02*
X147462857Y-55957380D01*
X147462857Y-55957380D02*
X147510476Y-56005000D01*
X147510476Y-56005000D02*
X147605714Y-56052619D01*
X147605714Y-56052619D02*
X147796190Y-56052619D01*
X147796190Y-56052619D02*
X147891428Y-56005000D01*
X147891428Y-56005000D02*
X147939047Y-55957380D01*
X147939047Y-55957380D02*
X147986666Y-55862142D01*
X147986666Y-55862142D02*
X147986666Y-55671666D01*
X147986666Y-55671666D02*
X147939047Y-55576428D01*
X147939047Y-55576428D02*
X147891428Y-55528809D01*
X147891428Y-55528809D02*
X147796190Y-55481190D01*
%TO.C,R5*%
X184263333Y-38562619D02*
X183930000Y-38086428D01*
X183691905Y-38562619D02*
X183691905Y-37562619D01*
X183691905Y-37562619D02*
X184072857Y-37562619D01*
X184072857Y-37562619D02*
X184168095Y-37610238D01*
X184168095Y-37610238D02*
X184215714Y-37657857D01*
X184215714Y-37657857D02*
X184263333Y-37753095D01*
X184263333Y-37753095D02*
X184263333Y-37895952D01*
X184263333Y-37895952D02*
X184215714Y-37991190D01*
X184215714Y-37991190D02*
X184168095Y-38038809D01*
X184168095Y-38038809D02*
X184072857Y-38086428D01*
X184072857Y-38086428D02*
X183691905Y-38086428D01*
X185168095Y-37562619D02*
X184691905Y-37562619D01*
X184691905Y-37562619D02*
X184644286Y-38038809D01*
X184644286Y-38038809D02*
X184691905Y-37991190D01*
X184691905Y-37991190D02*
X184787143Y-37943571D01*
X184787143Y-37943571D02*
X185025238Y-37943571D01*
X185025238Y-37943571D02*
X185120476Y-37991190D01*
X185120476Y-37991190D02*
X185168095Y-38038809D01*
X185168095Y-38038809D02*
X185215714Y-38134047D01*
X185215714Y-38134047D02*
X185215714Y-38372142D01*
X185215714Y-38372142D02*
X185168095Y-38467380D01*
X185168095Y-38467380D02*
X185120476Y-38515000D01*
X185120476Y-38515000D02*
X185025238Y-38562619D01*
X185025238Y-38562619D02*
X184787143Y-38562619D01*
X184787143Y-38562619D02*
X184691905Y-38515000D01*
X184691905Y-38515000D02*
X184644286Y-38467380D01*
%TO.C,J15*%
X169370476Y-55342619D02*
X169370476Y-56056904D01*
X169370476Y-56056904D02*
X169322857Y-56199761D01*
X169322857Y-56199761D02*
X169227619Y-56295000D01*
X169227619Y-56295000D02*
X169084762Y-56342619D01*
X169084762Y-56342619D02*
X168989524Y-56342619D01*
X170370476Y-56342619D02*
X169799048Y-56342619D01*
X170084762Y-56342619D02*
X170084762Y-55342619D01*
X170084762Y-55342619D02*
X169989524Y-55485476D01*
X169989524Y-55485476D02*
X169894286Y-55580714D01*
X169894286Y-55580714D02*
X169799048Y-55628333D01*
X171275238Y-55342619D02*
X170799048Y-55342619D01*
X170799048Y-55342619D02*
X170751429Y-55818809D01*
X170751429Y-55818809D02*
X170799048Y-55771190D01*
X170799048Y-55771190D02*
X170894286Y-55723571D01*
X170894286Y-55723571D02*
X171132381Y-55723571D01*
X171132381Y-55723571D02*
X171227619Y-55771190D01*
X171227619Y-55771190D02*
X171275238Y-55818809D01*
X171275238Y-55818809D02*
X171322857Y-55914047D01*
X171322857Y-55914047D02*
X171322857Y-56152142D01*
X171322857Y-56152142D02*
X171275238Y-56247380D01*
X171275238Y-56247380D02*
X171227619Y-56295000D01*
X171227619Y-56295000D02*
X171132381Y-56342619D01*
X171132381Y-56342619D02*
X170894286Y-56342619D01*
X170894286Y-56342619D02*
X170799048Y-56295000D01*
X170799048Y-56295000D02*
X170751429Y-56247380D01*
D11*
%TO.C,J3*%
X152066666Y-101062619D02*
X152066666Y-101776904D01*
X152066666Y-101776904D02*
X152019047Y-101919761D01*
X152019047Y-101919761D02*
X151923809Y-102015000D01*
X151923809Y-102015000D02*
X151780952Y-102062619D01*
X151780952Y-102062619D02*
X151685714Y-102062619D01*
X152447619Y-101062619D02*
X153066666Y-101062619D01*
X153066666Y-101062619D02*
X152733333Y-101443571D01*
X152733333Y-101443571D02*
X152876190Y-101443571D01*
X152876190Y-101443571D02*
X152971428Y-101491190D01*
X152971428Y-101491190D02*
X153019047Y-101538809D01*
X153019047Y-101538809D02*
X153066666Y-101634047D01*
X153066666Y-101634047D02*
X153066666Y-101872142D01*
X153066666Y-101872142D02*
X153019047Y-101967380D01*
X153019047Y-101967380D02*
X152971428Y-102015000D01*
X152971428Y-102015000D02*
X152876190Y-102062619D01*
X152876190Y-102062619D02*
X152590476Y-102062619D01*
X152590476Y-102062619D02*
X152495238Y-102015000D01*
X152495238Y-102015000D02*
X152447619Y-101967380D01*
D10*
%TO.C,J9*%
X144446666Y-60422619D02*
X144446666Y-61136904D01*
X144446666Y-61136904D02*
X144399047Y-61279761D01*
X144399047Y-61279761D02*
X144303809Y-61375000D01*
X144303809Y-61375000D02*
X144160952Y-61422619D01*
X144160952Y-61422619D02*
X144065714Y-61422619D01*
X144970476Y-61422619D02*
X145160952Y-61422619D01*
X145160952Y-61422619D02*
X145256190Y-61375000D01*
X145256190Y-61375000D02*
X145303809Y-61327380D01*
X145303809Y-61327380D02*
X145399047Y-61184523D01*
X145399047Y-61184523D02*
X145446666Y-60994047D01*
X145446666Y-60994047D02*
X145446666Y-60613095D01*
X145446666Y-60613095D02*
X145399047Y-60517857D01*
X145399047Y-60517857D02*
X145351428Y-60470238D01*
X145351428Y-60470238D02*
X145256190Y-60422619D01*
X145256190Y-60422619D02*
X145065714Y-60422619D01*
X145065714Y-60422619D02*
X144970476Y-60470238D01*
X144970476Y-60470238D02*
X144922857Y-60517857D01*
X144922857Y-60517857D02*
X144875238Y-60613095D01*
X144875238Y-60613095D02*
X144875238Y-60851190D01*
X144875238Y-60851190D02*
X144922857Y-60946428D01*
X144922857Y-60946428D02*
X144970476Y-60994047D01*
X144970476Y-60994047D02*
X145065714Y-61041666D01*
X145065714Y-61041666D02*
X145256190Y-61041666D01*
X145256190Y-61041666D02*
X145351428Y-60994047D01*
X145351428Y-60994047D02*
X145399047Y-60946428D01*
X145399047Y-60946428D02*
X145446666Y-60851190D01*
%TO.C,J1*%
X141652666Y-34768619D02*
X141652666Y-35482904D01*
X141652666Y-35482904D02*
X141605047Y-35625761D01*
X141605047Y-35625761D02*
X141509809Y-35721000D01*
X141509809Y-35721000D02*
X141366952Y-35768619D01*
X141366952Y-35768619D02*
X141271714Y-35768619D01*
X142652666Y-35768619D02*
X142081238Y-35768619D01*
X142366952Y-35768619D02*
X142366952Y-34768619D01*
X142366952Y-34768619D02*
X142271714Y-34911476D01*
X142271714Y-34911476D02*
X142176476Y-35006714D01*
X142176476Y-35006714D02*
X142081238Y-35054333D01*
%TO.C,C2*%
X132890833Y-73337380D02*
X132843214Y-73385000D01*
X132843214Y-73385000D02*
X132700357Y-73432619D01*
X132700357Y-73432619D02*
X132605119Y-73432619D01*
X132605119Y-73432619D02*
X132462262Y-73385000D01*
X132462262Y-73385000D02*
X132367024Y-73289761D01*
X132367024Y-73289761D02*
X132319405Y-73194523D01*
X132319405Y-73194523D02*
X132271786Y-73004047D01*
X132271786Y-73004047D02*
X132271786Y-72861190D01*
X132271786Y-72861190D02*
X132319405Y-72670714D01*
X132319405Y-72670714D02*
X132367024Y-72575476D01*
X132367024Y-72575476D02*
X132462262Y-72480238D01*
X132462262Y-72480238D02*
X132605119Y-72432619D01*
X132605119Y-72432619D02*
X132700357Y-72432619D01*
X132700357Y-72432619D02*
X132843214Y-72480238D01*
X132843214Y-72480238D02*
X132890833Y-72527857D01*
X133271786Y-72527857D02*
X133319405Y-72480238D01*
X133319405Y-72480238D02*
X133414643Y-72432619D01*
X133414643Y-72432619D02*
X133652738Y-72432619D01*
X133652738Y-72432619D02*
X133747976Y-72480238D01*
X133747976Y-72480238D02*
X133795595Y-72527857D01*
X133795595Y-72527857D02*
X133843214Y-72623095D01*
X133843214Y-72623095D02*
X133843214Y-72718333D01*
X133843214Y-72718333D02*
X133795595Y-72861190D01*
X133795595Y-72861190D02*
X133224167Y-73432619D01*
X133224167Y-73432619D02*
X133843214Y-73432619D01*
%TO.C,J14*%
X166830476Y-52802619D02*
X166830476Y-53516904D01*
X166830476Y-53516904D02*
X166782857Y-53659761D01*
X166782857Y-53659761D02*
X166687619Y-53755000D01*
X166687619Y-53755000D02*
X166544762Y-53802619D01*
X166544762Y-53802619D02*
X166449524Y-53802619D01*
X167830476Y-53802619D02*
X167259048Y-53802619D01*
X167544762Y-53802619D02*
X167544762Y-52802619D01*
X167544762Y-52802619D02*
X167449524Y-52945476D01*
X167449524Y-52945476D02*
X167354286Y-53040714D01*
X167354286Y-53040714D02*
X167259048Y-53088333D01*
X168687619Y-53135952D02*
X168687619Y-53802619D01*
X168449524Y-52755000D02*
X168211429Y-53469285D01*
X168211429Y-53469285D02*
X168830476Y-53469285D01*
%TO.C,J16*%
X166830476Y-57882619D02*
X166830476Y-58596904D01*
X166830476Y-58596904D02*
X166782857Y-58739761D01*
X166782857Y-58739761D02*
X166687619Y-58835000D01*
X166687619Y-58835000D02*
X166544762Y-58882619D01*
X166544762Y-58882619D02*
X166449524Y-58882619D01*
X167830476Y-58882619D02*
X167259048Y-58882619D01*
X167544762Y-58882619D02*
X167544762Y-57882619D01*
X167544762Y-57882619D02*
X167449524Y-58025476D01*
X167449524Y-58025476D02*
X167354286Y-58120714D01*
X167354286Y-58120714D02*
X167259048Y-58168333D01*
X168687619Y-57882619D02*
X168497143Y-57882619D01*
X168497143Y-57882619D02*
X168401905Y-57930238D01*
X168401905Y-57930238D02*
X168354286Y-57977857D01*
X168354286Y-57977857D02*
X168259048Y-58120714D01*
X168259048Y-58120714D02*
X168211429Y-58311190D01*
X168211429Y-58311190D02*
X168211429Y-58692142D01*
X168211429Y-58692142D02*
X168259048Y-58787380D01*
X168259048Y-58787380D02*
X168306667Y-58835000D01*
X168306667Y-58835000D02*
X168401905Y-58882619D01*
X168401905Y-58882619D02*
X168592381Y-58882619D01*
X168592381Y-58882619D02*
X168687619Y-58835000D01*
X168687619Y-58835000D02*
X168735238Y-58787380D01*
X168735238Y-58787380D02*
X168782857Y-58692142D01*
X168782857Y-58692142D02*
X168782857Y-58454047D01*
X168782857Y-58454047D02*
X168735238Y-58358809D01*
X168735238Y-58358809D02*
X168687619Y-58311190D01*
X168687619Y-58311190D02*
X168592381Y-58263571D01*
X168592381Y-58263571D02*
X168401905Y-58263571D01*
X168401905Y-58263571D02*
X168306667Y-58311190D01*
X168306667Y-58311190D02*
X168259048Y-58358809D01*
X168259048Y-58358809D02*
X168211429Y-58454047D01*
%TO.C,J7*%
X141906666Y-52512619D02*
X141906666Y-53226904D01*
X141906666Y-53226904D02*
X141859047Y-53369761D01*
X141859047Y-53369761D02*
X141763809Y-53465000D01*
X141763809Y-53465000D02*
X141620952Y-53512619D01*
X141620952Y-53512619D02*
X141525714Y-53512619D01*
X142287619Y-52512619D02*
X142954285Y-52512619D01*
X142954285Y-52512619D02*
X142525714Y-53512619D01*
%TO.C,J2*%
X179752666Y-34768619D02*
X179752666Y-35482904D01*
X179752666Y-35482904D02*
X179705047Y-35625761D01*
X179705047Y-35625761D02*
X179609809Y-35721000D01*
X179609809Y-35721000D02*
X179466952Y-35768619D01*
X179466952Y-35768619D02*
X179371714Y-35768619D01*
X180181238Y-34863857D02*
X180228857Y-34816238D01*
X180228857Y-34816238D02*
X180324095Y-34768619D01*
X180324095Y-34768619D02*
X180562190Y-34768619D01*
X180562190Y-34768619D02*
X180657428Y-34816238D01*
X180657428Y-34816238D02*
X180705047Y-34863857D01*
X180705047Y-34863857D02*
X180752666Y-34959095D01*
X180752666Y-34959095D02*
X180752666Y-35054333D01*
X180752666Y-35054333D02*
X180705047Y-35197190D01*
X180705047Y-35197190D02*
X180133619Y-35768619D01*
X180133619Y-35768619D02*
X180752666Y-35768619D01*
%TO.C,J18*%
X161750476Y-98232619D02*
X161750476Y-98946904D01*
X161750476Y-98946904D02*
X161702857Y-99089761D01*
X161702857Y-99089761D02*
X161607619Y-99185000D01*
X161607619Y-99185000D02*
X161464762Y-99232619D01*
X161464762Y-99232619D02*
X161369524Y-99232619D01*
X162750476Y-99232619D02*
X162179048Y-99232619D01*
X162464762Y-99232619D02*
X162464762Y-98232619D01*
X162464762Y-98232619D02*
X162369524Y-98375476D01*
X162369524Y-98375476D02*
X162274286Y-98470714D01*
X162274286Y-98470714D02*
X162179048Y-98518333D01*
X163321905Y-98661190D02*
X163226667Y-98613571D01*
X163226667Y-98613571D02*
X163179048Y-98565952D01*
X163179048Y-98565952D02*
X163131429Y-98470714D01*
X163131429Y-98470714D02*
X163131429Y-98423095D01*
X163131429Y-98423095D02*
X163179048Y-98327857D01*
X163179048Y-98327857D02*
X163226667Y-98280238D01*
X163226667Y-98280238D02*
X163321905Y-98232619D01*
X163321905Y-98232619D02*
X163512381Y-98232619D01*
X163512381Y-98232619D02*
X163607619Y-98280238D01*
X163607619Y-98280238D02*
X163655238Y-98327857D01*
X163655238Y-98327857D02*
X163702857Y-98423095D01*
X163702857Y-98423095D02*
X163702857Y-98470714D01*
X163702857Y-98470714D02*
X163655238Y-98565952D01*
X163655238Y-98565952D02*
X163607619Y-98613571D01*
X163607619Y-98613571D02*
X163512381Y-98661190D01*
X163512381Y-98661190D02*
X163321905Y-98661190D01*
X163321905Y-98661190D02*
X163226667Y-98708809D01*
X163226667Y-98708809D02*
X163179048Y-98756428D01*
X163179048Y-98756428D02*
X163131429Y-98851666D01*
X163131429Y-98851666D02*
X163131429Y-99042142D01*
X163131429Y-99042142D02*
X163179048Y-99137380D01*
X163179048Y-99137380D02*
X163226667Y-99185000D01*
X163226667Y-99185000D02*
X163321905Y-99232619D01*
X163321905Y-99232619D02*
X163512381Y-99232619D01*
X163512381Y-99232619D02*
X163607619Y-99185000D01*
X163607619Y-99185000D02*
X163655238Y-99137380D01*
X163655238Y-99137380D02*
X163702857Y-99042142D01*
X163702857Y-99042142D02*
X163702857Y-98851666D01*
X163702857Y-98851666D02*
X163655238Y-98756428D01*
X163655238Y-98756428D02*
X163607619Y-98708809D01*
X163607619Y-98708809D02*
X163512381Y-98661190D01*
D12*
%TO.C,R2*%
X141977064Y-99970000D02*
X140522936Y-99970000D01*
X141977064Y-98150000D02*
X140522936Y-98150000D01*
D11*
%TO.C,J6*%
X184380000Y-116840000D02*
X189460000Y-116840000D01*
X189460000Y-116840000D02*
X189460000Y-119380000D01*
X189460000Y-119380000D02*
X184380000Y-119380000D01*
X184380000Y-119380000D02*
X184380000Y-116840000D01*
D12*
%TO.C,SW1*%
X159345000Y-42640000D02*
X159345000Y-41440000D01*
X159345000Y-39840000D02*
X159345000Y-38640000D01*
X159345000Y-38640000D02*
X152945000Y-38640000D01*
X152945000Y-42640000D02*
X159345000Y-42640000D01*
X152945000Y-41440000D02*
X152945000Y-42640000D01*
X152945000Y-38640000D02*
X152945000Y-39840000D01*
%TO.C,J11*%
X148571000Y-78740000D02*
G75*
G03*
X148571000Y-78740000I-1251000J0D01*
G01*
%TO.C,R4*%
X151490000Y-93717064D02*
X151490000Y-92262936D01*
X153310000Y-93717064D02*
X153310000Y-92262936D01*
%TO.C,R1*%
X139437064Y-49170000D02*
X137982936Y-49170000D01*
X139437064Y-47350000D02*
X137982936Y-47350000D01*
%TO.C,J21*%
X173971000Y-68580000D02*
G75*
G03*
X173971000Y-68580000I-1251000J0D01*
G01*
%TO.C,J10*%
X148571000Y-73660000D02*
G75*
G03*
X148571000Y-73660000I-1251000J0D01*
G01*
%TO.C,D1*%
X146320000Y-94790000D02*
X148320000Y-94790000D01*
X146320000Y-94790000D02*
X146320000Y-90930000D01*
X148320000Y-94790000D02*
X148320000Y-90930000D01*
%TO.C,J20*%
X173971000Y-60960000D02*
G75*
G03*
X173971000Y-60960000I-1251000J0D01*
G01*
%TO.C,R3*%
X141417064Y-94890000D02*
X139962936Y-94890000D01*
X141417064Y-93070000D02*
X139962936Y-93070000D01*
D11*
%TO.C,U_ATMega1*%
X151000000Y-46860000D02*
X151000000Y-47360000D01*
X151000000Y-46860000D02*
X151500000Y-46860000D01*
X151020000Y-82650000D02*
X151020000Y-82150000D01*
X151020000Y-82650000D02*
X151520000Y-82650000D01*
X161380000Y-82650000D02*
X160880000Y-82650000D01*
X161380000Y-82650000D02*
X161380000Y-82150000D01*
X161400000Y-46860000D02*
X160900000Y-46860000D01*
X161400000Y-46860000D02*
X161400000Y-47360000D01*
D12*
%TO.C,J12*%
X148571000Y-83820000D02*
G75*
G03*
X148571000Y-83820000I-1251000J0D01*
G01*
D11*
%TO.C,On/Off1*%
X156710000Y-34080000D02*
X153170000Y-34080000D01*
X153170000Y-34080000D02*
X153170000Y-26880000D01*
X153170000Y-26880000D02*
X156710000Y-26880000D01*
X156710000Y-26880000D02*
X156710000Y-34080000D01*
X155940000Y-32480000D02*
X153940000Y-32480000D01*
X153940000Y-32480000D02*
X153940000Y-28480000D01*
X153940000Y-28480000D02*
X155940000Y-28480000D01*
X155940000Y-28480000D02*
X155940000Y-32480000D01*
X155940000Y-30480000D02*
X153940000Y-30480000D01*
X153940000Y-30480000D02*
X153940000Y-28980000D01*
X153940000Y-28980000D02*
X155940000Y-28980000D01*
X155940000Y-28980000D02*
X155940000Y-30480000D01*
D12*
%TO.C,C1*%
X133768752Y-66950000D02*
X132346248Y-66950000D01*
X133768752Y-65130000D02*
X132346248Y-65130000D01*
%TO.C,J13*%
X153651000Y-86360000D02*
G75*
G03*
X153651000Y-86360000I-1251000J0D01*
G01*
%TO.C,J17*%
X161271000Y-86360000D02*
G75*
G03*
X161271000Y-86360000I-1251000J0D01*
G01*
%TO.C,C3*%
X138417500Y-85164437D02*
X138417500Y-85300000D01*
X138417500Y-85164437D02*
X139481937Y-84100000D01*
X138417500Y-87555563D02*
X138417500Y-87420000D01*
X138417500Y-87555563D02*
X139481937Y-88620000D01*
X139481937Y-84100000D02*
X142937500Y-84100000D01*
X139481937Y-88620000D02*
X142937500Y-88620000D01*
X142937500Y-84100000D02*
X142937500Y-85300000D01*
X142937500Y-88620000D02*
X142937500Y-87420000D01*
%TO.C,Y1*%
X142225000Y-65365000D02*
X142225000Y-71615000D01*
X137175000Y-65365000D02*
X137175000Y-71615000D01*
X142225000Y-65365000D02*
G75*
G03*
X137175000Y-65365000I-2525000J0D01*
G01*
X137175000Y-71615000D02*
G75*
G03*
X142225000Y-71615000I2525000J0D01*
G01*
D11*
%TO.C,J5*%
X198880000Y-99360000D02*
X166880000Y-99360000D01*
X166880000Y-99360000D02*
X166880000Y-73360000D01*
X166880000Y-73360000D02*
X198880000Y-73360000D01*
X198880000Y-73360000D02*
X198880000Y-99360000D01*
D12*
%TO.C,J4*%
X177735000Y-50800000D02*
X177735000Y-68640000D01*
X177735000Y-50800000D02*
X180395000Y-50800000D01*
X177735000Y-68640000D02*
X180395000Y-68640000D01*
X179065000Y-48200000D02*
X180395000Y-48200000D01*
X180395000Y-48200000D02*
X180395000Y-49530000D01*
X180395000Y-50800000D02*
X180395000Y-68640000D01*
D11*
X176525000Y-46990000D02*
X194305000Y-46990000D01*
X194305000Y-46990000D02*
X194305000Y-69850000D01*
X194305000Y-69850000D02*
X176525000Y-69850000D01*
X176525000Y-69850000D02*
X176525000Y-46990000D01*
D12*
%TO.C,J8*%
X148571000Y-53340000D02*
G75*
G03*
X148571000Y-53340000I-1251000J0D01*
G01*
%TO.C,R5*%
X185157064Y-41550000D02*
X183702936Y-41550000D01*
X185157064Y-39730000D02*
X183702936Y-39730000D01*
%TO.C,J15*%
X168891000Y-55880000D02*
G75*
G03*
X168891000Y-55880000I-1251000J0D01*
G01*
D11*
%TO.C,J3*%
X140720000Y-102870000D02*
X153920000Y-102870000D01*
X153920000Y-102870000D02*
X153920000Y-120870000D01*
X153920000Y-120870000D02*
X140720000Y-120870000D01*
X140720000Y-120870000D02*
X140720000Y-102870000D01*
D12*
%TO.C,J9*%
X148571000Y-60960000D02*
G75*
G03*
X148571000Y-60960000I-1251000J0D01*
G01*
D11*
%TO.C,J1*%
X147430000Y-34380000D02*
X147430000Y-33880000D01*
X147430000Y-34380000D02*
X146930000Y-34380000D01*
X147430000Y-27080000D02*
X147430000Y-26580000D01*
X147430000Y-26580000D02*
X146930000Y-26580000D01*
X137052000Y-27060000D02*
X137052000Y-26560000D01*
X137052000Y-26560000D02*
X137552000Y-26560000D01*
X137042000Y-34380000D02*
X137542000Y-34380000D01*
X137042000Y-34380000D02*
X137042000Y-33880000D01*
D12*
%TO.C,C2*%
X133768752Y-72030000D02*
X132346248Y-72030000D01*
X133768752Y-70210000D02*
X132346248Y-70210000D01*
%TO.C,J14*%
X166351000Y-53340000D02*
G75*
G03*
X166351000Y-53340000I-1251000J0D01*
G01*
%TO.C,J16*%
X166351000Y-58420000D02*
G75*
G03*
X166351000Y-58420000I-1251000J0D01*
G01*
%TO.C,J7*%
X146031000Y-50800000D02*
G75*
G03*
X146031000Y-50800000I-1251000J0D01*
G01*
D11*
%TO.C,J2*%
X185530000Y-34380000D02*
X185530000Y-33880000D01*
X185530000Y-34380000D02*
X185030000Y-34380000D01*
X185530000Y-27080000D02*
X185530000Y-26580000D01*
X185530000Y-26580000D02*
X185030000Y-26580000D01*
X175152000Y-27060000D02*
X175152000Y-26560000D01*
X175152000Y-26560000D02*
X175652000Y-26560000D01*
X175142000Y-34380000D02*
X175642000Y-34380000D01*
X175142000Y-34380000D02*
X175142000Y-33880000D01*
D12*
%TO.C,J18*%
X163811000Y-96520000D02*
G75*
G03*
X163811000Y-96520000I-1251000J0D01*
G01*
%TD*%
G36*
X172658000Y-27956613D02*
G01*
X172703387Y-28002000D01*
X172720000Y-28064000D01*
X172720000Y-35436000D01*
X172703387Y-35498000D01*
X172658000Y-35543387D01*
X172596000Y-35560000D01*
X162684000Y-35560000D01*
X162622000Y-35543387D01*
X162576613Y-35498000D01*
X162560000Y-35436000D01*
X162560000Y-28064000D01*
X162576613Y-28002000D01*
X162622000Y-27956613D01*
X162684000Y-27940000D01*
X172596000Y-27940000D01*
X172658000Y-27956613D01*
G37*
M02*
